<svg role="presentation" class="dig-Illustration dig-Illustration-hero" viewBox="371 0 954 954" fill="none" xmlns="http://www.w3.org/2000/svg"><title></title><g fill-rule="evenodd" clip-rule="evenodd"><path d="M580.1 259.9c-10.8 1.2-23.6 7-31.5 15.3-4.7 5.2-15.7 24.5-15 32.8-5.1 33 19.3 39.6 13.3 73.2 8 4.5 18.2 5.9 25.3 9.8 11.9 4.4 23.3 11 34.5 15.5.4-.2.6-1.7.6-5.5 0-6.1-.8-5.4 6.5-6.3 5.5-.7 15.7-2.9 17.5-3.9 7.5-2.4 6.5-25.8 8.2-34.7 3.3-2.1 8.2-4.2 7.2-7.3-.9-7.1-4.7-14.4-7.1-21.5 1.5-8.4 4.2-18.6 1.4-23.3-1.7-6.3-3.7-13.6-6.9-17.9-1.8-1.6 3.3-1 2.8-2.2 0-1-5.4-6.6-9.9-10.1-13.1-12.3-28.4-17.1-46.9-13.9zm90.7 293.9c-5.6.9-14.6 1.6-20.8 4.2-1.6 1.1-31.1 4.3-34 4.4-2.7.1 4.8 7.6 5.5 9.8 2.6 4.4 15.7 23.8 14.9 23.8 11.1 16.3 20.4 52.7 43.7 54.5 7.9.7 79.9-1.6 97.7-.2 4.7-.6 16.9-1.1 21.1-2.1 7.6-2.2 8.7-2.3 18.1-2.4 14.9.5 15.6-3.1 26.5-9.3 7.5-.5 15.1-.5 20.5 4.4 4.4 3.2 8.8 6.5 14.9 6 5.3 0 6.2-.5 6.2-3.4-1.5-5.9-13.4-12.6-17.9-16.2-5.2-3.1-6.6-4.1-5.8-4.1 6.1 1.2 19.5 7.6 27.2 9.4 25.1-4.8-4.9-22.7-15.8-23.1-4.2-.4-8.3-2.4-12.1-4.2-5.3-.1-15.7-.2-21-.3l-3.9 1.6c-8 3.3-15.8 7.3-18.6 9.5-2.8 2.2-3 2.2-6.2 2.2-10.1 0-17.5-1-27.6-3.9-23.1-7.2-44.5-4.4-64.1-8.7-10.4-1.9-20.4-5.2-15.4-6.9 2.6-.5 3.2-1.5 6.1-2.3 3.6-1.3 6.2-2.9 10.5-3 2.4.2 3-1.8 5.1-.5.2.4 9.3 2 9.5 2.4 2.1.8 29.3 4 32.3-.5 2.6-3 1.6-8.6-3.4-8.6-4.2-.5-14.1-2.5-16.1-3.2-11.5-8.6 11.4-6.2 15.3-3.8 5.8 2.2 10.1 5.6 16 8.4 3.7 2 3 1 6.2 3.1 13.8 6.2 9.5-6.6 1.7-12.3-3.7-4-12.6-8.4-17-9.8-10.9-5.5-22-7.6-36.2-4.5-6.1.6-8.4 1.7-13.4 3.1-1.6 2-29.5 2.2-35.3 1.2-.4-.2-2.2-2.2-3.9-4.5-6.2-8.3-8.2-10.5-9.2-10.5-.6.1-1.2.2-1.3.3z" fill="#B4724B"></path><path d="M525.7 245.8c-12.6 3.6-19.3 17.3-13.5 28.8 1.5 4.8 3 10.9 7.1 14.3 4.4 3.6 3.1 6.4 6.9 10 1.9 1.9 2.2 2.4 1.8 3-4.8 14.2-.6 35.1 9.9 48.4 3.4 2.4 7.7 23.4 10.3 23.1 2 .4 17.3.6 21.9.8 8-10 18.2-19.3 12.9-31.7-2.5-7.7-6.9-18.1 1.3-23.2 2.5-2.3 9.3-2.7 11.8-1.2 3.5 2.3 8.3 10.5 8.3 14 6.3-3.8 10.3-5.3 17.6-12.4 10.6-12 27.1-31.4 11.4-46.8-18-20.1-48.8-24.8-71.4-13.4-.2-2.7-.1-8.4-1.5-9.6-2.6-4.1-15.2-5.4-18.2-.8-5.6-3-10.7-5.3-16.6-3.3z" fill="#422608"></path><path d="M1030.4 279c-50.3 7-96.3 6.7-147.2 7.2-26.5-.3-56.4.3-84.2.7-3.3-.4-3.4 1.6-4.9 3.7.2 31.2.7 166.8 1 174.2 39.9 4.1 86.5 10.7 131.9 9.3 35.8-.6 32.8 1.7 57.4 3.1 17 2.1 39.1 1.5 62.7 3.8 2.9 1.5 2.7 3.7 2.7-33.7.8-41.9-.7-53.5 1.5-89.6 1-14-.1-67-3.1-80.7-.4 0-8.4.9-17.8 2zm-2.1 259.6c-6.7 32.6-15.5 68-18.5 101.1 1 3.4 10.9 2.6 14 4.1 13.6 1.7 26.2 2.7 40.5 6.9 9.2 3 17.8 3.6 27.3 5.2.6.2.9-.3 1.5-2 7.4-31.2 14.2-71.6 17.2-102.7 1.1.5-81.7-15.7-80.5-15.3-.2.1-.9 1.3-1.5 2.7z" fill="#14C8EB"></path><path d="m739.6 8.4-1.6.2c-.7 30.4 1 68.3 4.7 90.8 1.1 12.5-3 39.9-1.3 48.3 3.9 68.1 0 178.2 1.2 252.8-1 35.5 6.8 97.9 5.8 138.3 2.1.8 6.7.3 7.2-1.2 2.1-12.5.5-55.2-.9-66.5-3.7-54.3-3.3-110.3-2.3-168 .7-35.8-.8-62.2-1.6-95.1-.9-18.8 1.8-41.4-1-60-2-12 3.3-37.5.8-52.3-1.7-13.8-2.1-19.1-4-35.6-.6-3.1-.6-49-1.3-51-.6-2.1-4-.7-5.7-.7zm-25.3 2.4c-1.3 5.5-1.4 7.3-.9 14.3 1.9 18 1.9 93 4.8 142.9 2.1 28.3-.8 71.3.8 101.1 1.1 14.8 1.1 64.6 3 84.8-.4 10 4.3 24 2 29.6-2.6 11.3.5 30 .2 41.3 1.4 15.1-.1 52.1 1.4 69.9 0 17.6 2.3 30.6 1.9 48.4-11.1.4-27.8 2.7-38.7 3.8-3.5.2-5.5-1.2-3.7 3 2.4 3.4 6.9 1.5 12.5.9 8.6-1.7 20.6-1.8 29.8-2.7 7.5-.9 23.3-1.2 29.2-3.2 8.6-3 18.4.3 26.4 2.5 3.8 1.1 29.4 2.3 37.8 3.6 2.6.2 12.1 1.8 12.2-.7 0-1.1 0-1.2-4.4-1.3-9.1-.6-14.7-2.8-25.4-3.1-16-.4-27.7-5-42.5-7.3-7.9 3.3-22.2 3.4-30.5 4.4 5.8-2.5 3.7-17.8 3.1-23.6-1.5-7.5.3-9.9-.6-16.4-.5-17.3-2.6-90.6-1.8-120.3 1.3-5.6 1.2-7.9-.2-15.7-1.9-8.3-1-22.3-2.2-31.1-2.4-44.1-1.6-117.4-1.5-150.8-3.2-59.8-3.9-149.3-6-174.8-2-.3-6.3-1-6.7.5zm-543.8 3.4c.7 11.9 2.2 47.4 2.7 61.6 1.4 27-5.4 72.7-1.4 98-6.1 8.2-17 30.4-22.1 45.5-1.5-11.9 6.5-40.8 2.1-53.4-1.8-6.6-5.9-15-8.2-16.5-7.1-3.1-9.5-.1-11.7 7.8-1.4-11.3-5.7-30.7-9.6-42.8-8-5.5-9.5 3.9-11.8 10.6-1.9-3.1-7.9-22.1-9-21.9-1-3-8.4-4.8-9.3-2.8-1.5 1.1.6 25.3 2.1 36.1-.2.2-6.7-13-10.3-21.1-6.3-12.2-12.6-30.4-22.7-29 3.3 7.3 9.1 30.9 9.4 37-8.3-9.6-17.5-26.5-26.2-30.9-2.6-.5-5.7-2.7-5.3 1.3-.2 4 4.5 19.9 8.4 29.6-2.7-2.8-11-12.3-16-18.2-3.8-5.3-9.9-9.6-14.7-7.5-2.6 8.8 5.2 22.7 11 32.2 2.3 3.5 8.5 11.3 12.3 15.5.8.9 0 .6-4.1-1.3-6.6-3.1-13.3-4.5-13.3-2.8 2.6 11.5 2.2 12.4 17.1 26.9 9.4 9.2 11.1 11.1 9.6 10.5 0-.3-13.7-2.1-12.8-.5.1 2.7 24.3 25.3 29.4 30.4-2.6-1.1-10-1.9-11.1-.9-.4.7 1.1 6.1 2.2 7.8 3.8 4.5 13.7 11.9 16.3 16.2 4.3 6.3-2.4-.5-1.6 9.4l-.1 4.8c-5-16-14.4-28.8-24-43-1.1.1-4.1.4-4.6.9-.6 1-.9 13.6-1 16.9-2.5-6-6.8-16.2-8.6-18.8-2.7-5.4-5.6-5.7-9.3-4.4-1.3 1.3-1.7 11.3-1.5 15.4-2.4-3.5-2.9-8.2-7.9-6.9-6.8.2-4.7 8.2-4.4 13.8 2.6 1 6.7 2.3 6.3-2.2 1-16.3 15.8 47 18.3 52.9h6c-.8-11.3-9.3-30.7-11-44.1-1.2-6.4-1.9-24.3-.9-23 11.4 17.5 19.2 55.8 26.7 76.3.4 1 2.6 1.4 4.7.8 2.1-.6 2.3.7-2.1-12.6-5.6-15.9-10.5-41.3-10.2-54.5 15.1 16.2 27.9 57 32.2 87.1.4 2.9.9 5.4 1 5.5.9.8 5.1.2 6.8-.6C87 288.4 78.2 253.8 79 240c1.1 1.4 3.7 4.8 4.7 5.3 7.4 6.1 15.1 20.4 18.2 30.5 4.1 12.4 14.5 28.9 9.4 42l1.2.1c1.7-2.3 3.8 18.7 3.8 19.1 0 2.5.8 3.2 2.6 2.2 1.6-.9 1.6-2.5-.8-23.1l-.6-5.2c7.4-11.6 38.8-37.1 50.9-50.9 13.7-10.7 42.6-27.3 58.8-35.5 6.1-1.1 20.2-13.1 25.4-14.2 9.9-3.9 29.6-12.1 36.5-17.4.8-.8-1.2-1.7-4.8-2.2-4.6-1.2-6.8 1.8-10.2 3.7-11.2 7.3-24.1 9.7-37.6 19.6-11.6 9.3-14.3 7.1-25.8 15.3-13.4 9.3-29.8 16.3-43 26.6-5 3.7-8.4 6.9-17.4 16.5-10.2 10.8-26 23.5-33.5 33 .2-1.8-2.4-7.2.3-7.2 4.1-1.7 4.5-14.6 5.7-18.7 1-12.4 12.5-50.3 21.3-65.4.4 9.7-4.4 34.2-7.5 46.9-.5 4.1-.5 4.1.6 5 3.7 2 5.5 2.5 5.9-3.1 5.1-27.5 27.5-83.3 36.3-89.1.5 14.6-1.1 27-7.7 42.3-4.5 10.7-6.3 16.4-5.6 17.3 5.9 3 4.8 4.2 8.9-7.3 4.2-11.9 12.6-30.8 18.8-42.2 7.9-12.7 23.1-37.3 12.4-12-4.1 11-9.1 23.4-12 33.2-1.6 5.5-1.6 5.7-.8 6.5 2.2 1.2 5.1 3.1 5.6-.4 3.9-11.5 21.2-47.5 29.2-56.9 3.6-4.8 16.7-20.3 21-24.9 2.7-2.9 2.8-3.2-1 5.6-4 9.2-14.6 35.8-19.1 40.7-4.5 6.8-8.7 14.8-8.7 16.5 5.4 6.8 6.4 5.2 13.5-9.1 9.1-19 25.3-35 43.4-50.1 11.5-8.2 29.9-20.7 17.6-4.1-8.2 11.7-24.2 28-35.6 40.7-3.8 4.9-15.8 15.2-14.3 17.9 3.5 2.5 5.2 3.8 8.5-.6 26.2-29.5 42.7-47.1 74.4-57.4-11.6 15.1-30.7 28.8-43 41-6.6 5.9-14.7 13.7-14.7 14.4 0 .6 1.3 1.8 2.6 2.5 7.1 2.6 8.4-3.8 19.9-12.2 7.7-6.6 15.8-13.2 18-14.8 11.7-8.5 29.8-17.9 41.7-21 0 .3-6.6 5.1-12.1 8.9-8.9 5.5-33.1 25.9-37.2 29.6-.2 1.5 5.5 4.4 7.5 3.3 2.5-1.1 23.4-14.7 26.1-15.9 8.6-5.3 31.5-11.1 39.3-11.5-7.6 10.2-33.2 20.9-46.6 28.9-1.7 2.5-18.3 7-13.9 10.3 1.8 1.6 3.4 1 .2 2.9-5.6 2.7 2.5 5.7 6.2 6.3 3.2.7 6.3.7 20.9.6 19-.2 20.1 0 21.4 2.4 2.6 8.9-9.9 10.4-21.2 12.3-21.3 3.5-33.7-1.5-53.1.2-3.2 8.5 37.2 4.6 43.2 8 27.8 9.1-26.6 10.5-40 8.1-6.4-1.1-39-3-26.1 4 2.5 1.3 7.6 1.7 24.8 1.8 19 .1 27.9.9 29.7 2.7 1 1 .5 1.4-2.9 2.5-14.3 4.7-79.1-2.2-92.4 11.5 2.9 6.2 13 4.3 24.2 3.2 12.9-2.3 25-2.2 38.6-2.1-13.1 6.3-26.3 9.1-64.7 16.4-19.1 4.4-40 5.8-24.8 11 10.9 1.3 44.4-4.3 58.3-3.3-5.7 2.9-12.9 5.3-21.2 7.5-1.6 3.1-85.5 8.5-69.3 14.5 3.1 1.6 6.5 1.7 19.4.3 16-1.5 28.9-1.8 38 .7-12.1 5.5-12.5 5.4-43.5 11.9-18.5 4.3-33.6 5.8-34.3 10.8.9 1.1-10.5 4.2-12.9 5.5 2.5-2.2 5.1-3.6.3-5-5.4-4.3-17.3 16.3-19.9 19.9-9.2-7.5-19.3-13.5-27.8-20.1-5.8-5-7.7-6.2-14.2-12.9-8.6-9.1-13.9-10.2-22.3-19-5.9-6.1-15.2-13.9-20.4-19.4-2.5-2.6-5.3-5.7-7.5-4.5 0 2 25.3 28.6 32 33.7C59.3 308 67 315.6 68.8 319c-12.9-8.1-30.8-15.6-45.4-8.3-2.9 2-15.8 3.3-10.7 5.7 2.7 1.3 13.5 7.6 6.2.5 8.6-.9 20.6-8.9 29.2-4.5 14.6 7.6 29.2 16 42.5 32.4 4.1 4.8 4.2 5 3 5.1-15.4 18.3-25.2 45.1-37.4 62.9 2.8-16.3 6.8-29.4 16.1-53.2 5.2-15.4 9.5-19 3.6-19.9-5-1.3-5.1 3.7-8.9 9-8.2 14-12.6 21.3-22.1 40.1-15.8 28.4-20.9 45.6-12 7.9 5.6-25.3 11.1-46.1 14.7-54.9 2.6-6.4 2.6-6.5-.4-7.2-2.9-.7-2.8-.7-4.7 4-7.8 15.5-23.1 48.2-30.3 63.8.2-13.5 2.3-24.2 8.2-43 1.5-6.9 6.8-17.8 3.7-19.3-1.6-.4-1.8-.1-2.8 3.7-5.7 16.8-15.1 42.6-15.2 54.4-.7 7.6-.7 9 6.8 9.6 3 0 3 0 4.4-1.9 1.9-2.6 4.4-7.9 9.4-19.7 4.1-9.8 5.9-13.7 5.4-11.6-2.5 11.5-10.2 37.6-10.6 49.9 2.8 1.6 8 2.1 10.1.5 3.3-2.6 7.6-9.9 18.8-31.8 5-9.7 8.9-17.2 8.7-16.7-.2.5-1 3-1.9 5.5-2.8 10.3-11.6 35-6.4 37.7 3.1.7 7.3 1.8 9.6-1.6 13.9-18.4 28.2-51.4 38.3-64.5 2.3 2.3 9.2 7.7 10 7-6.5 14.5-27.2 56-28.1 73.1 4.1 2.2 4.7 2.6 11.3-1.2 2.8-1 15.4-10.6 12.8-7.3-1.8 1.6-6.4 13.6-9.1 14.1-1-.5-10.4-1.3-15.9-1.4-9 .2-16 3.6-26 3.7-10.2.7-17 3.4-26.5 10.6-7.5 5.2-13.8 12.7-18.5 18.6-2.3.7 5.2 6.5 4.7 4 2.8-6.4 19.6-22 27-25.5 7-5.1 22.5-5 33.9-7.7 2.9-1.3 17.8-2.3 19.3-.8-.5 2.2 2.1.1 2.6-.9-27.6 59.1 8.7 23.1 31.8-1.4-13.8 19.4-31.4 51.9-34.7 69.3 2.4.8 5 1.1 7.2.2 0 6.7-1.2 36.3-2.6 33.7-1.5-8.4-4.2-25.4-5-34.3-.2-6-.6-5-5.4-5.2 1.5 23.6-4 49.8-8.5 72.9 0-9.4-.2-33 .6-38 1.7-14.3 3.3-39.8 2.6-41.2-.6-1-5.5-1.7-6.4-.8-4.7 13.8-.6 54-9 81.2-12.3 59.7-15.4 48.7-13.6 8.6.9-4.6 1.2-48.9.5-54.7-.3-1.2-.6-1.3-2.5-1.3-6-.2-2.8 21.2-3.9 47.4.3 35.1-2.6 41.5-8 65.8-8.2-21.4-10-60.8-12.2-81.3h-3.3c-.9 19.9-5.2 41.5-6.8 62.7-1.4 11.1-3.1 32.7-9.8 35.1 13.9 5 13.6-49.4 15.9-59 .9-6.5 1.5-20.2 2.7-7.1 3.1 16.2 1.7 57.1 16.6 52.3 1.2-.8 2.2-4 3.9-13 2.3-11.7 2.2-11.4 3-9.6 1.5 3.1 3.2.3 2.4 5.7-.2 2-1.4 12.6-2.6 23.5-2 17.6-2.6 24.4-2.9 36.4-6.1-.1-6.2-.2-13.5 8.2-9.5 11-20.6 27.1-28.7 38.8 0 .6 3.4 1.7 5.3 1.7 1.2.1 1.9-1.3 2.8-1.4 4.7-4 26.3-37.8 33.3-44.8.6.4.8 9.3.9 11.4-5.9 11-18 27.4-21.8 39.7-.3 5.5-18.9 29.3-19.1 31.8 2.7 1.9 6.1-3.1 8.4-6.6 4-6.1 15.7-20.3 16.7-26.1 2.6-8.1 13.8-26.4 19.2-34.6 5.9-7.2 9.2-11.1 16.7-29.7 4.7-11.7 1.7-1.9.7 6-3.8 22.4-5.5 42.8-3.9 46 1.7 3.3 12.3 3.3 13.7-1.2.6-1 2.9-9.3 5.2-18.4 5.5-21.3 10.5-40.8 6.2-17.8-3.7 20.1-6.1 40.4-6.1 51.1 0 9.7 0 9.7 6.1 9.7 5.1 0 4.8-.2 5.6 6.4.3 2.3 1.2 7.3 2.1 11 2.2 6.3 1.6 15.1.9 20.4-5.6-3.4-12.4-30.4-14.8-38.6-1.1-4.7-1.7-5.6-3.5-5.8-2.2.1-4-.7-3.8 2.6 1.2 8.7 5.1 18.3 5.4 26.1 1 11.4 1.6 27.6.6 35.5-3.9-8.8-16.6-41.3-17.3-58.5-4.9.6-6.4-1.6-5.7 6.9.7 17.4.2 96.3-.6 96.8-.4.2-3.5-12.3-8.9-35.3-3.3-14.2-3.3-14.6-3.7-23-.4-9.4-.8-13.7-1.5-15-8.3-4.2-6.9 5.6-6.5 13.6.5 4.4 2.7 15.2 3.8 20.8-.3 16.2-.9 48.2-1.2 60.5-.3 16-.5 17-2.9 11.7-1.5-3.5-2.8-8.7-6.7-27.5-5.4-27.1-5.6-26.7-5.6-39-1.2 0-5-.2-5.4.6-.7 1.2-.7 7.8 0 13.9 1 8.4 1.1 36.7 1.8 45.7.6 9.8.4 26.1-.4 26.8-6.6-2.2-9.2-15.4-12-24.4-2.4-9.7-5.2-26.8-4.4-27.1.8-.3-.1-1-1.4-1-3.7.1-1.4 11.6-1.4 17.4 3.1 14.4 3.7 37.9 19.7 38.5 5 0 4.7.7 4.7-14.7 0-11.2-.2-19.1-.7-28 1.6 8.4 5.6 24.8 9.1 24.2 1.8.7 6.6.9 8.3.2 1.9-.7 2.1-2.7 2.1-20 0-20.3.5-38.5 1-36.2 6.4 24.1 3.9 30.6 16.9 26.9 1.4-1.4 1.6-8.3 1.4-45.5.4-38.2-1.9-42.4 3.3-25.6 6.4 18.1 4.9 23.1 17.1 22 1.8-.5 2.1-.8 2.5-2.2.2-.9.3-7.1.3-13.8-.1-11.8-.1-12.1.6-10.6 2.1 5.1 11.3 7.7 14.1 4.5 3-12.8-2.7-34.3-6-47.9 1.5-9.6 12.7-52.8 12.5-48.6-.3 2.1-2.4 22.3-3.5 33.7-1.1 11.6-1.8 41.2-.9 43.3 1.3 3 8.4 1.5 9.1-.5 0 1.4 7.5-31.6 9.8-43.5 0 16.6-3.3 67.2 3.5 67.2 1.4 2.6 6.4 2.4 8.1 1.3 1.1-1.2 6-21.9 7.5-31.8 1.3-10.7 1-2.7 3 6.6 2.3 15.6 7.7 35.9 14.1 45.5 1.1 1 3.6 1.5 5.2 1.7-.7 9.4-.7 28.5-1.5 37.5 0 3.1-5.9 68.7 3 63.9-1.1-58.8 8.4-111.4 2.1-166.1 0-1.5.1-1.5 1.5 1.6 6.7 10.9 14.2 32.8 26 27.4 1-22.9-3.9-41-13.2-62.7 4.3 4.4 10 9.7 16 7.6 2 .1.9-4.9 1-6.7 2.2.1 6.4-4 7.7-5.2-1.6 6.9-3.2 24.4-1.7 31.5.4.9 3.7 1.1 5.5.3 2.6-1.2 5.1-6.9 9-20.4 1.4-4.7 2.5-8.1 2.5-7.6-1.4 10.7-3.6 38.6-2 47.2 0 1.1 3.5 0 3.8-.3 5.3 5.8 27 51.5 23.6 55.9-5.8-10.6-12.2-19.9-18.3-31.1-3.8-5.6-5-12.5-9.2-12.4-7.1.2 11.8 23.9 13.4 29.5 8.7 16.5 18.7 27.5 20.7 46.9-2 2.6-18.3-29.4-20.7-31.3-5.8-6.8-12.3-19.2-20-17.7-2 11.1 27.8 55.6 30.8 71.9-2.8.2-31.4-39.3-39.2-47.5-.8.1-3.6.5-3.9.8-.3.3 1.5 3.9 8.8 17.4 15.6 28.8 21.5 40 22.6 42.8 1.3 3.2 3.1 9.7 2.8 10.1-2.3-.1-20.7-37.8-24.1-43.6-3.6-6.3-16.4-25.9-17.7-26.9-10-3.1.6 16.9 5.5 29.7 10.3 23.4 14.1 35.2 15.4 52-6.8-15.6-15.4-33.3-21.9-50.3-3.8-9.5-3.8-8.9-8.9-8-.4 4.5.3 6.1 2.7 16.6 9.3 38.5 9.5 38.4 13.1 62-3.3-4-.3 7.6-.6 9.4 3.1 0 5.5.5 5.8-3.2.8-3.8.7-6.4-.4-11.3-1.7-10.7-8.8-39.5-11.1-50.1.2-.5 7.3 15.5 13.9 31.2 5.3 9.9 4.2 19.1 13.6 15.2.6-29.8-15-57.7-24.6-82.7 5 6.7 14.2 23.2 19.8 35.3 7.1 12.5 14.5 35.3 24.8 30.6l-.2-4.5c-.1-1.7-.2-3.2-.5-4.7-1-5.3-3.7-10.8-12.8-27.2-7-12.8-10.1-18.7-9.6-18.1 7.1 9.1 18 25.6 27.1 30.4 14.8 4.3-5.7-29-11.4-40.4-7.9-14.4-11.2-21.3-15.1-31.8 7.5 8 12.7 15.5 20.2 29 9.9 16.6 9.4 19.2 20 16.5 1.3-7.3-4.8-22.1-8.9-30.3 1.8-2.4 4.4-1.4 3.4-7.1-.6-5.5-1.8-8.9-7.3-21.3-1.7-5.2-4.9-8-1.1-7.9 6.3-2.9 7.8-29 10.8-38.8 0 19.6 3.9 48 6.9 66.7.7 3.8.8 4.1 1.9 4.1 9.5-2.6 7.5-24.5 11.5-49.2 1.8-16.6 2-18.4 1.8-12.5-.5 37.3-3.5 69.6 1.5 96.9 12 .2 14.3-38.8 18-56.4 3.3-21.5 5.1 85.3 15.9 84.2 12.3-5 9-15.1 11.6-34.5.5-8.2.6-9.2 1-7 3.5 15.3 9.4 56.3 16.3 57 12.3-3.7 9.5-19.7 10.6-33.5 0-4.2.1-4.8.5-3.3.5 2.2 4.4 16 4.8 17 .2.6-.1.8-2.2.8-2.7.2-4 .1-1.6 2.3 1.7 1.8 3.2 1.2 5.2.9 2.3 6.7 4.6 14.3 6.4 21.8 2.2 6.1.8 10.9 5.1 8.5 2.3-1.1 2.2-.8 3.5-8.5.4-2.5 2.7-9.1 3.9-12.3 1.1-49.2-3.3-99.1-14.3-135.7-8.6-50.9-19.3-79.2-50.8-113.2-9.4-10-35.3-35.6-36.6-36.3-3.8-2.5-19.3-2.4-22.5-2.3-2.5 0 4.2 5.4 2.3 1.9-1.7-2 4.5.4 7.3 0 13.7.3 17.4 12.7 29 22.6 30.9 29.8 56.8 68 61.7 111.7.5 2.2-1.7 0-4.8-4.6-6.5-8.9-11.9-13.3-17.9-23-5.3-10.5-17.1-17.9-21.6-29.1-3.3-6.9-5.5-9.9-12.1-16.7-13.6-14.5-13.2-22.6-30.7-34.1-1.4-2-3.9-1.8-4.5-3.4-2.1-11.2-11.4-24.5-20.2-34.5 11.2 7.8 26 11.8 38.2 5.3 8-7.7-11.2-22.2-18.3-28.8 33.4-.8 13.5-28.2-5.9-46.4 5.5 2.5 11.3 2.9 17.7 2.4 1.1 3.3 2.7 7.5 7.2 6.6 4.6-.3 8.1-2 8.4-6.6.7 9.8 3.7 28 6.7 41.3 2.8.5 5.3-.1 7.4-1.9.6 6.6 3.4 19.1 5.4 21.6 8.3 2.5 11-3.3 13.2-11 .7-1.3 6.7 22.7 7.8 30 .9 2.2 5.9-.1 7.5-.9 2-13.3 5.7-38 7.7-49 5.2 15.8 11.3 59.6 20.3 63.6 2 1.1 7.9-1.9 7.9-3.9 1.1-9 2.1-10.5 1.9-25.5 1.1-38-9.6-60.2-14.7-94.8-1.2-6.1-4.1-14.5-9.4-26.9-5.6-13.6-6.9-23.6-10.8-37.4-3.2-14.3-8.9-34.2-11.2-47.1-2.3-12.2-4-16.6-9.9-25.4-23.3-34.9-30.1-33.5-70.1-43.8-2.8-1.3-11.9-2.1-12.7-.3.1 1.6 6.1.7 8 2 18.9 5.8 44.6 9.4 53.8 25.3 20.7 29.2 17.7 19.4 23.8 47.5 4 18.2 10.5 43.9 15.8 62.5-7.5-8.7-6.1-19.7-14.5-30.1-5.6-7.7-9.5-20.3-13.9-25.2-1.7-2.2-4-6.1-5.6-9.5-8.9-17.6-8.9-20.7-20.4-30.9-2.2-1.4-6.2-6.2-8.7-7.2-2.9-1.1-6.6-5.3-9.9-5.3-2.5-.3-2.6-.3-4.4-3.3-10.7-17.8-21.1-27.5-41.8-26.4-18.1.6-27.5.7-26.6.5 3.4-.7 25.2-5.6 28.9-6.9 16.7-5.4 17.5-8.2-1.6-13.5-4.7-1.3-6.6-1.3-.9-1.7 22.5-1.5 82.8-18.4 23-21.3 18.6-3.9 86.2-15.9 40.7-24.1-2.5-.2-.1-.4 7.9-.4 13.9-.3 54.5.4 34.8-12.1 23.7-1.2 35.5-6.7 13.3-16.2 6.3-.6 20.2-2.7 23.6-3.7 10.9-2.7 17.5-13.2 3.5-18.6-6.9-5.3-25.7-3.7-38.2-3.5 5.5-5.6 59.2-16 59.2-20.5-3.5-4.1-8.5-4.6-16.7-3.6-1.9-.6-21.6 6-10.9 1 10.8-5 25.8-17.4 31.3-24.5-6.3-4-2.8-3.3-19.9-.9-11.2 1.8-19.3 3.7-25.8 5.9-2.4.8-4.4 1.5-4.4 1.4 6-4.2 29.3-20.8 27.8-22.2-7.2-8.1-35.1 6.3-44.3 10.5 6-7.3 17.5-16.5 8.9-19.2-10.1-3.7-24.1 5.5-33 10-2.5 1.5-4.1 2.9-1.8-.1 4.3-7.1 12.1-14.9 4.2-18.5-3-1.4-4-1.3-8.5.1-15.1 5.2-32.3 21.5-44.9 33.8 1.7-5.1 10.7-24.9 11.3-30.4-2-.8-4.9-3.1-6.5-1.8-5.3 2.2-32.7 34.6-35.8 40.8-5.5 9.6.8-5.6.3-8-1.7-.6-4.4-2.4-5.6-1.1-7.3 6.6-22 26.7-27 37.9-.5-6 1.4-19.2-4.3-18.9l-2.2-.7c-1.2-40.7 3-75.2.3-117.5-.5-23-1.2-36.3-2-37.1.1-.5-5.8-1.6-5.6-.3zm1481.3 8.9c-8.4 1.8-10.8 4.2-15.3 9.6-4-2.4-10.1.4-15.5 3.1-7.3-4.3-24.4-3.4-27.4 2.4-.1.9-.5 1.1-2.7 1.3-3.1.3-9.2 3.2-15.6 7.4-4.2 2.8-4.2 2.8-6.5 2.3-6-1.1-14.2-.3-25.8 2.7-10.1 2.6-16.4 4.9-23.3 8.5-1.9 1-2.5 1.1-7.7 1-14-1.4-50.9 7.8-66.7 10.6-2.4 2.5-15.4 8.6-18.5 10.1-2.5 1.6-.5 6 4.3 9.6 10.4 9.6 37.6-.9 53.4-1.6 18.4-1.2 37.2 5 68.7 4.7 31 2.1 51 .7 80.7-.8 12.8.4 42.3-.3 43.2-1.1 1.2-.5-.3-3.4-.4-4.1-7.8.3-29.2 1.9-47.4 1.3-15.4.5-41.9 3.5-54.9 1.8-3.8-.6-52.1-1.1-54.4-2-13.5-2.1-35.8-4.5-48.4-1.5-24.7 3.4-29.5 8.1-43.6-2.2 2.8-1.7 14.1-6.2 16.8-8.5 15.4-6.3 70.7-15.8 72.8-11.7 2.1 1.5 7.3 2.2 4.6-2.3 11.7-5.4 36.9-14.5 48.5-9.9.9 1.3 2.4 1.3 3-.1.5-1.3 7.1-5.8 12.6-8.5 4.7-2.3 8.1-2.7 9.5-1.1 2.5 2.3 2.4-.1 1.1-2.1-.9-1.8-.9-1.9-.1-2.4 4-2.7 16.9-4.3 21.1-2-2.4 2.3-4.2 6.4-3.7 10.2-12.6-1-25.3 2.9-24.7 16.6-6-4.6-31.3-2.5-33.4 1.2-.8.9-1 .9-5 .2-5.8-1-12.5-1.4-12.8 3.2.2 1.6.7 1.6 3 .5 2.3-2 10-.6 14.7.3 4.2-3.7 5.7-3.8 17.4-4 12.7 0 12.5.3 17.4 3 1.3-12 8.7-17.4 21.5-16.6 4.4.3 5.4-.2 4.6-2.3-3.9-4.7 14.8-18.5 21.2-12.1 1.2 1.5 1.8.9 1.4-1.1-1.1-10.2 26.4-14.8 30.8-5.5-.5.3-.4.4.2.4 2.3 0-.3-3.4-4.6-6.2-3-1.9-9.7-3-14.1-2.3zm-380.7 6.6c-7.8 2.1-18.3 4.6-26.8 4.9l-.8 2.4c-1.6 4.5-1.8 8.7-2.1 36.4-.2 15.2-.4 28.2-.6 29-.1 2.5-6.2 0-11.7.1-17.6-1.4-18.8-1.6-23.2-3-5.1-1.7-13.1-2.1-17-4.5-.3.1-.5 4.1-.6 11.1-1 45.2-1.9 136.7.9 165.9-12.7 8.7-27.9 19.1-41.3 26.9-11 .8-53 .6-56.6-.2-8.5-.9-8.1-.9-11-.8-5.2 0-1.4 3.7 3.5 3.4 7.5 2.1 45.4 2.2 55.5 2.1-9.6 5.4-.4 5.4-6.4 5.4-14.9 1.2-18.1 19.8-14.6 33.2.8 3.6 1.5 6.8 1.6 7.2.5 1.2-33.8.3-37.7-1-1.2-.4-.8.8.5 1.5 2.4 1.4 9.7 2.3 23 2.7 7 .2 13.4.6 14.2.7 1.2.2 1.7.8 3.8 5.2 3.5 7.2 7.7 14.2 11.4 18.8 7.1 12.2 34.4 17.9 46.7 9.7 2 5.2-.1 16.3 2.6 23.2 2.8 10.9 2.9 11.9 2.8 25.3-.1 14.5.4 20.6 1.7 21.6.7.5.7.8.2 1.5-.9 1.4-.7 1.5.8.5 2.6-1.7 4.2.5 7.8 0 3 0 4.1.2 7.5 1.7 6.5 2.9 8.7 1 16.2 2.4 9.4 1.3 10.7 1.4 20.1 1.8 17.1.7 11 5.1 30.7 4.9 12.6-.3 29.7 4.5 43.5 5.8 5.6 1.2 12.7.1 12.1 3.4-2.3 23.4-7 61.6-10 88.8-.8 10.7-1.5 14.4-1.9 21.6 0 2.4-.1 2.8-.9 2.8-1.9 0-4.9 1.5-7 1.9-3.5.9-7.9 5.7-8.6 9.4-.3 1.6-1.7 2.1-7.6 2.7-6.5 1.2-11.7 1.7-17.8 3.1-7.9.7-48.2-5.7-57.8-7.1-1.8-2.6.7-25.9-.4-29.2 0-2.7-3.3-3-3.8-4.6.2-.3 4.5-5.5 9.5-11.5 11.1-13.2 15.3-18.8 15.3-20 .2-1.1-3.7-2.6-4.9-3.2-12.7 15.6-17.8 21.8-25 29.9-.8 1-.8.9-.6-1.7 1.4-23.9 6.1-38.2.5-39.3-5.1-3.1-3.8 6.7-5.9 18.1-.8 7.4-1.6 13.6-2.6 21.7-.2 1.7-.1 2.1.7 2.7 2 1-.9 5 2.1 5.5 5.4 2.6 1.3-3.6 7.1-.8 1.6.5 2 .9 2.2 2.1.5 2.7.5 2.8-2.2 1.6-2.4-1.1-2.7-1.1-12.3-.9-13.6-.1-9.5 2.4-8.5-8.8 2.6-19.1 7.2-45.9 7.6-64.9-1-.7-4.6-2.7-4.8-1.7-2.3 10.9-9.2 45.5-11 58.3-.1.4-1.6-3.4-3.2-8.3-3.7-11.1-5.8-15.5-7.7-16.5-2-1.3-1.9.4-1.4 1.7 1.2 2.2 5.6 16.9 7.1 23.7.3 1.6 3 2.9 4.5 2.9-3.3 18.4-.5 10.5-17.1 11-.7-11-1.4-23.7-2.6-35.7-1.4-.6-5.2-2.4-6.1-2.1-2.8 2.2-1.2 15.1-.3 20.2.5 2.7 1 4.9 1 5 0 .1-2.2-2.8-4.8-6.3-6-8-10.1-11.6-11.2-9.9-.5.5 5.1 7.5 4.6 8-.3.9 8.4 13.8 11.9 17.4 1.2 1.3 1.3 2.9.1 2.9-1.2-.3-5.3-3.6-6.4-3.1-1.2 6.3-1 19.9-2.2 25.2-3.4-.2-7.2-1.2-14.2-1.7-12.9-1.3-11.6-.8-10.9-4.3 1.5-10.3 2.5-19.3 2.5-30.7 1-15.1-4.6-12.5-14-15.7-12-3.9-30.9-5-42.3-9.8 1.9-12.2.5-24.5.2-38.5 0-13.4-2.1-52.2-.4-57.2 1-7.6 2.4-18.5 3-26.1 2.3-21.7.7-71.8-.9-93-1.7-10 7-47.8-3.7-56.6-5.9-6.9-19.8-2.2-32.2-2.7-19.9.5-25.9 3.3-45.4 3.8-11.7.1-8-.6-18.8.9-11.9 1.5-23.6 1.9-35.1 3.1-6.7-.1-15.2 2.4-20.7 1-14.6-1.9-20.5 1.8-41.4 1.3-21.2 0-17.2 1.4-31.6 1.7-3.9.7-16.8-.9-21.3-.6-4 0-4.3 0-4.3-.9 0-.8-.3-.9-2.2-.9-2.8-1-4.2 3.5-5.7 1.3 0-.4-.1-.4-.4 0-.2.4-2.2.6-5.9.6-7.2-.5-15.3 2.9-18.9 5.9-1.5 1.4-1.7 1.9-2 4.7-1.3 7.7-1 9.5-1.1 22.9.1 56.8-1.3 174.1 1.7 218.9 1.7 3.7 4.5 5.4 8.8 5.5 3.2.4 6 2.1 10.1 2.6 13.8 5 34 5.8 50.1 6.7 18 1.2 35.6 8.9 53.8 7.7 1 .3 1 .3.8 6.5 1.2 15-11 8.1-21.2 8.5-9.1-.6-25-3-31.3-1.9-4.1 1.3-7.3 8.3-3.9 11.7 3.2 4.2 5.9 5.2 22 7.8 14.3 2.5 24.6 5.9 37.2 7.3 6.6 1 21.5 1 28.4 2.8 12 3.2 16 2.8 33.5 3.5 5.4-.1 24.3 3 25.4 1.7 12.8-1.9 5.1-15.1-1.1-20.9-12.9-6.4-37-5.7-51.4-9.5-.4-.2-.6-14.2-1-14.4 12.3-.3 37.4 4.5 52.2 5.3 7.9.5 15.1 1.4 21.3 2.5 0 .6-1.7 8.9-2.9 13.9-1.1 4.6-1.7 6.4-2.2 6.4-.5 0-.6.4-.4 1.8-.8 10.4-6.6 33.7-8.1 44.9-1 5.7-1.1 6.1-2.3 6.8-4.1-.2-2.8 15.6-3 21 11 5 35.1 7.4 47.8 11.9 9.9 3 28.5 4.7 42.3 8.5 13.8 3 15.1 4.1 20.3-.1 3.4-.8 6.6.5 11.5-1.9 7.3-2.5 11.3-2.5 18.3-4.4 13.7.6-6.6-13.7-11.9-22.7-5.5-7.4-6-7.2-10.3-8.5-.6-2.3 6.2-28.1 6.5-35.2 3.2.7 23.6 2.6 26.8 3.4 0 13.1-.1 39.5-.2 52.6.7 2 2.1 7.9 3.3 8.4 2.5 2.9 26.1 3.6 31.7 4.7 6.6 1.7 9.9-1 15.8-1.2 6.9.1 13.6-1.9 15.2-4.6 2.4-8 5.1-25.4 4.7-35.4-.5-5.4-.2-9.1.4-13.7 11.2 2.1 35.7 5.1 46.9 6.8-1.8 4.1-.9 6.6-.9 11.4.1 6.6 0 12.2 3.1 13.7 18.7 9.7 90.3 12.8 106.7 3.2 4.9-2.8 2.7-7 2.7-12.2 28.3 4.2 66.9 11.6 95.1 15.9 1.1.4-2.8 1.4-11.2 2.7-18.3 2.9-55.3 16.6-68 18.9-49 8-101 20.8-150.4 30.6-32.6 4-70.3 14.2-102.2 21.2-2.1.4-2.7.4-4.2-.3-4.8-2.1-14.7-4.4-29.9-6.8-16.5-2.7-38.7-8.7-56.5-11.9-22.6-4.2-49.6-4.8-72.1-10.7-13.5-4-24.2-2-39.4-6.1-12-2.8-20-1.6-32.3-5.1-36.7-6.9-78.1-13.1-115.1-18.5-.7 2.8 1.6 8 6.7 8.3 11.4 2.5 24.7 3.6 37 5.4 43.1 6.9 86.2 16.3 130.7 21.4 16.4 2.6 31.8 6.4 48.5 8.4 12.8 2.4 27.2 1.9 38.5 4.9 18.6 3.4 35 8 56.7 11.9 11.2 1.9 22.6 3.7 29.5 6.9 21.4-2.7 46.5-11.5 68.4-15.4 48.4-7.7 102.3-20.2 152-30.4 27.5-4.3 55.3-10.7 80.8-19.5 14-5.4 29.2-5.4 40.2-10.4 1 6.8-1.8 14.2-1.6 20.6-11.5 1.2-27.8 5.6-40.6 8.6-10.6 2.7-14.5 3.4-25.9 4.9-15.6 1.8-26.2 7.3-41.6 9.3-38.4 7.5-53.4 8.7-97.5 20.2-40 10.7-84.6 21.5-124.2 31.2-5.8 1.3-5.3 1.5-13.2-.5-22.9-3.6-45.2-9.9-68-12.7-29.9-4.4-51.8-10.8-82.5-16.8-22.9-5.6-36-4.4-56.3-9.8-10-2.1-28.2-4.7-38.2-5.1-8.3-2.5-28.8-2.9-39.6-6-25-5.8-56.6-12.3-81.4-17.5 1 7.8 13 7.3 22.8 10.3 21.6 4.8 39.1 8.1 60.1 13.1 15.4 3.8 34.7 4.2 49.1 7.5 5.7 66.8-5.4 141.3-3.1 212 8.8 11.4 5.8-3.9 6.8-10.4 10.3 4.1 61.1 13.7 70.3 15.1-.4-5.2-1.2-6.4-8-7.3-19.4-4.4-43.2-6.5-62.4-10.8-1.2-22.9.1-43.9 1.2-66.1.1-1.4-.2-30 1.6-27.6 18.6 5.8 60.8 13.4 82.4 17.6 16.3 2.4 25.4 8.6 42.2 10.7 14.8 2.4 20.6 4.9 36.4 5.8 17.3.2 55.8 10.6 74.3 14.7-.5 15.8-2.2 49-.8 63.9 9 10.4 6.9 6.6 7.7-21.1.9-47.1 2.6-105.1-3.5-148.7-.5-6.1 1.3-3 6.6-5.2 23.3-6.1 53.2-12.2 75.6-18.8 46.6-13.3 95.5-24.3 141-32.1 20.5-2.8 27.2-7.7 48-10.2 13.3-1.4 36.2-7.8 46.6-9.5 3.2-1 2.3-.2 2.6 3.2.4 4.3 1.7 8.6.8 17.2-2.7 28.8.7 40.1.7 69.8.3 27 1.9 24.4 3.3 44.1 1.4 24.6 1.1 73.4 1.5 115.1 2.1.7 4.8.2 7.1-.5.4-14 0-28.2-.6-45.6 2.3 4 6.3 6.4 10.9 7 2 8.6 6.7 19.9 15.5 17.2 2.1-2 4.6 9.5 9.3 9.3 2.1.4 2.6-.1 2.9-3 .2-1.9.1-2.4-.5-2.4-.9-.2-2 2.8-2.9 1.8-.7-.5-3.1-6.4-4.2-10.3-.4-2.7-2.7-2.8-4.8-3.6-1.2 1.7-3.7 8-5.1 5-2-2.4-4.9-10.7-5.6-16-.2-2.1-.5-2.4-1.9-3.1-2.3-1.1-2.6-1-3.7.8-10.8 7.6-10.9-37.5-10.5-46.9.7-14.4-.6-37.3-2.6-45.3-1.6-5.8-.7-53.9-2.6-56.7-1.1-6-1-13.6 1.6-16.7 3.2 1.6 1.4 9.5 6.5 10.2 3.5 1.6 2.5-1.1 1.7-4.3-1.8-5.2.5-16.8 1.4-20.9.9-2.7 1-2.7 6.1 2.5 4.6 4.8 7.4 8.8 8.7 12.6.9 2.7 2.6 4.9 3.9 4.9 1 0 1.1.8.4 2.8-2.9 8.5-4.1 27.7 2.8 34.7-8.4-2.4-6.1 16.7-5.2 22.5 1 4.7 5.6 12.1 8 16.1-16.9-5-11.6 8-12.2 21.4-4-1.5-3.5-1.8-3.9 9.3-.2 9.9 0 11 2.3 13 1.4 1.4 7.9 3.3 4.8.5-3-2.9-1.1-14.3-1-18.7 2.1 1.7 9.7 5.8 5.8.6-3.7-2.8-2.9-20.8-.9-22.8.9-.9 2.4-.9 7.5.3 11.9 4.1-4-9.6-4.8-18.9-.7-5.6-2-18.1 1.9-19.7 2.1.6 8.1 6.2 9.8 5.7 7.1 1.1-10.7-9.3-10.6-16-1.9-4.2-1.1-35.2 6.8-30.1.8.9.9 1.7.9 7.6 0 7.5.4 8.7 3.6 10.5 6 5.1 5.3-11.2 3.1-14.3-2.8-2.9 2-16.4 5.8-15.4 5.5.1 8.8 6.4 9.9 11.6 1.3 5.6 3.7 1.8 1.8-3.1-1.8-7-10.5-11-16.7-11.9-.3-3.1-1.7-6-2.6-11.4-1.9-2.5-2.3-41.3.1-41.3 3.7.2 9.8 14.1 13.2 13.1 5.3 1.3-5.5-10.2-5.9-13.6-1.9-3.9-1.5-24.8 1.7-26.3 2.3 2.5 5.9 6.5 6.4 9 1.4 1.7 6.8 4.7 4.9-.3-.5-2.4-.3-10-.2-13.4 3.5 6.2 9.2 16.2 6.6 20.1-3.6-1.4-.4.3.6.8.1 1.9-.4 9.3.9 9.1 1.7.9 1.9.6 1.9-3.7 0-3.6.1-4.2.8-4.2.6 0 .7-.3.4-1.7-1.1-6.1-.5-9.4 2.6-15.6 5.1-10.3-.2 19.8 5.7 17.3 1.5.3 1.8.2 2.8-1.1 7.8-8.7 10.2-29.1-5.3-27-1.4-3.3-5.4-11-4.5-13-.3-5.1 12.9-22.9 20.4-28.6 1.9 4.3-3.7 13.6-6.9 19.7-1.1 0-4.2-.1-4.8.5-.5 1.3-3 7.4.1 8.9 2.7 1.8 3.2 1.5 6.7-3.9 7.2-11.1 10.5-20.1 9.5-25.7-5.7-14.1-26.8 19.5-29.1 25.1-5-8.3-9-7.2-8.5 4.6 0 5 .1 5.5 1.4 7.8 2.2 4 6.9 7.6 11.2 9.4-1 2.1-3.8 7.5-4.2 8.8-.3 1-.6.7-2.4-3-3.2-6.2-5.7-9.8-7.5-10.7-5-4.2-3.1 8.2-3.7 12.6-17.5-15.6-14 11.5-13.4 21.4.9 2.4.6 1.8-1.7.9-11.1-7.1-7.3 29.6-5.9 40.9-21.2-22.8-17.9-10.6-18 13-16.9-16.7-18.3-9.8-19.5 9.3-.4 0-3.5-1.6-4.3-2-1.2-9.4 2.7-31.5-1.9-37.8-2.1-1.5 9.7-2 11.3-2.3-.2-4.5 1.7-13.9 1.5-18.4-.5-2.3.5-1.4 1.1-2.4-1-.8-1.2.2-1.3-3.7-.1-3.5-.1-3.7 1-3.9 2.9-.4.6-6.1 0-7.6-8.8-3.2-22.6-5.5-31.9-6.6.2-3.5-.1-9.4 1.7-11.3 2.1-3.4 2.5-3.5 4.8-1.3 1.6 1.9 4.9 2.9 6.7 2.6.2-.1.4-2.1.4-4.4-.3-6.5.9-2.8 5.4-3.4.5-6.2-.9-18 3.3-20.1 2-1.3 7.1 5.6 9.5 4.5 1.7 0 1.7.3.2-6-1.2-5.9-1.7-16.7 1.8-21.4 1.1 1.8 3 5 4.3 6.2 1.2 1.2 1.2 1.3.7 3.7-1 5.5-.3 22.8 4.8 26.4 2.5 1.2.7-1.3.1-4.5-1.6-3-2-19.9-.3-22.4 8.2-21.4 8.7 6.4 18.8 4.2-1.5-4.5-3.7-15.8-2.3-19.5.5-2 3.9-6 5-6 1.6 1.1 9.7 10.6 11.4 9.8 1.6.5 1.5.7 3.9-7.9 2.2-8.1 5.7-15.8 7.2-15.8 15.7 20.5 9.9 2.2 19.1-8.5 3.7 4.3 4.5 15.3 11.1 16 .9 0 1-.3 1-4.4-.1-4.3.8-7 1.9-10.6 2.6 2.3 8.7 8.3 10.6 6.2-1-3.1-3-2.3-5.4-5.2-7.1-6.4-9.8-6.1-12.4 1.5-9.8-14.6-14.3-3.6-19 7.4-5.6-8.1-8.8-3.7-13.7-8.1.5.6 1.6 1.8 2.2 2.4-3.6 2.6-7.7 14.9-9.2 20.5-1 .6-5.7-5-7.4-5.1-9.5-4.3-13.2 6.8-12.3 14.8-4-2.5-8.6-3.7-11.1-.5-1.1-2.1-2.7-17.1.4-21.1 3.4-7.8 2.3 4.2 9.3 5.2.2-.3 1.9 1 2.1.2.2-.3.3-5.3.4-11.3.2-9.4-.2-10.4 1.3-13.6 1.1 2.4 5.9 9.2 8.5 5.9.4-.7.7-1 .7-.7.1 1.5 5 4.7 6.2 4 .4-.3.3-4.2.3-5.2 2.1.5 5.2.6 1.6-1.9-3.9-2.8 1.2-9.9 3.2-14 2-2.9 5.7-7.3 6.3-7.3 1.5 2.5 5.5 14.1 8.9 13.2 4.9 2-2.9-15.4 5.7-22.1 1.5 2.8 3.6 9.2 6.4 11 2.9 1.9 5.9 4.3 5.5-.2 0-12 3.6-25.8 11.9-33.7.9 2.5 2.5 6.6 3.9 8.4 1.3 1.8 4.9 4 5.7 3.5.5-3.6 0-18.8 1.9-21.6 4.4.9 6.8.6 5.5-4 1.7 1.5 4 3.2 6.2 3 .1-2.7-.2-9.3 1.1-10.5 2.8-4.4 9.7-8.6 13.7-4.2 9.8 10.3 1.3 22.6 10.8 25.9.9 5.7 0 30.6 2.4 34.4 4.1 4.2 4.4-.5 5.5 10.5.8 5.9.8 21.9 0 25.3-.7 1.6 1.4 3 2.5 4.2-3 4-6 10.3-7.4 15.3-1 2.8-1.9 20.3 1 19.9 1.7.9 1.8.9 1.8-.2-.3-1.1 2.7-2.1 1.1-2.7-2.8-8.7 2.2-22.9 8.9-30.5 1 1.8-.3 28.9 1.8 28.9 1.4 1.3 4.3 2.6 5.2 2.2 1.1-1.9 3.7-7.2 7.6-11.6 2.4-2.8 2.6-2.5 2.2 4.7-.1 7.6-2.9 15.9-7.3 25.2 9 9.3 6.9-5.4 21.7-11.8 4-1.9 2.1 4.5 2.8 10.4 1.6 9.5-3.9 22.6-5.6 32.5 1.8 1.9 5.5 4.8 6.2-.3.5-3.5 6-10 8.6-9.3.2 1.5 4.2 12.8.3 14.4-9.5 6.2 3.3 3.8 6.5 1.4 2.4-1.5-1.7-18.7-5-18.3-5.6-3.6-7.6 2.5-5.4-6.7 1.2-7.2.5-19.5-1.5-24.1-.3-.6-.2-.8.4-.5 3.3-.1.5-21-.1-26.5-2.2-9.1-10.7-16.7-18.1-7.1-.7-14.5-5.6-36.7-21.9-20.8-.2-6.9-1.2-23.8-6-28.9-.7-.4-.9-1.6-1.4-10.6-1.1-20.1-1.7-23.3-4.2-25.7-4.2-10.3-5.2-18.7-17.1-25.3-6.7-3.7-18.7 4.6-17.3 12.3-4.9-3.3-6.7-2.5-9.5 2.8-27.4-.9-62-6.5-92.3-8.5-48-3.6-92.6-11.1-139.5-14.5.2-1.8.5-3.7.7-5.8 0-2.3 1.2-3 .1-4.4-.6-.6-.5-.7 1.2-1 13.5-5.5 16.2-30.7 1.9-37.6-.6-2.8 25.4-7.8 28.3-8.2 11-1.5 13.5-1.2 8.4-7.7-2.5.2-4.7 1.2-9.7 1.9-13.1.7-31.6 11.1-41.6 9.2-3.5-.7-5.9-.7-8.7-.4-13-14.8-33.6-41.5-44.9-55 36.5-12 81.1-16.5 115.8-32.1 2.2-1.2 4.2-2 4.3-1.9.8 2.6 1.7 10.5 2.3 13.9 3 18-1 52.9 3.9 65 3 4.6 9.5 2.4 17.5 2.3 22.6-1.3 108.3-2.5 141.2 4.5 17.2.3 78.4 2.1 94.6 1.2.4-.6-.5-3.7-.7-4.7-24.6-.7-84.6.4-103.2-2.8-10.7-1.7-16.5-2.2-37-3-36.6-2.9-75.3-.1-110.8-.3-1.5-9.5-2.2-25.1-1.5-34.3 1.6-13.1-2.9-31.1-4.3-45.5-.5-1.4-.6-1.5-2-1.3-3.2.6 0-2.2-4.9-2.2-18.5-1.1-41 1.3-61.1 1.5-17.3.7-10.5 2.5-12.1-16.3-1.1-27.9-.9-49.7-2-76 15.8-.4 79.9-2.9 100.2-1.7.8.7 4 10.3 4.9 12.9 2.2 33 1.8 100.4 5 127 1.7 9.3-.9 25.8 4.7 33.2 3.9 3.8-.5-12.3.4-16.9-3.8-29.6-4.3-92-6.9-129.3 1.4-15.1-10.7-28.8-2.3-27.2 47.3-1.1 117-6.3 161.8-2.6 0-.6 1.6-.6 11.7-.4 10.8.3 12 .4 14.9 1.4 3.8 1.3 4.5 1.4 4.5.2-.9-1.7 13.1-1.4 13.3-1 6.9-.2 37.6.1 43-2-.1-1.3-.9-5.4-1.9-4.8.6.7-32.5 2.1-36.4 2.4-2.9.9-.9-2.1-3.3-1.9-1.8 2.1-6.7-14.1-7.9-16.2-1.8-3.1.9-.4.2-2-.5-1-.4-2.8.5-8.9 1-6.9 1-21.1.2-29.7 5.9.8 2.2-3.9-.4-5.1-.5 0-1.1-.5-1.4-1.1 1-1.5-19.3-5.6-19.8-6.8-1.3-1-6.2-2.8-8.4-3.6-3.4 3.6-18.7 5.9-18.7 9.8-.4 1.1-.8 2.1-1.1 2.3 2.5 6.1 2.9 6.5 3.7 16.6 1.1 11.8 2.1 20.3 4.2 28.9 0 .8-1.8 15.4-1.9 16.1-70.5-2.6-147.2 4.9-219.3 3.5-16.9-.9-33.2 3.4-47.1 1.2 2.4 22.4 2.1 73.2 3.7 98.6-23-1.3-46.8 3.1-67.7 1.1-1.2-.2-2-1.1-5.7-6.6-3.7-5.6-7.4-9.9-11.3-14 4-7.7-.7-3.5 1.9-8 1.5-1.2.9-7.7 2.3-7.5 2.3 1 2.7.8 4.4-1.7 3.2-3.9.2-5.7 1.8-9.7 3.1-6.4-2-15.9-10.2-12.5-1.6-.6-.8 6.6-1.5 7-1.8.2-3.2.6-3.7 1-6.9-.3-15.7 7.3-22.7 11.8-5.4 3-12.6 7.4-18.8 11.3-1.5-17.1-.6-149.2.6-168.1 6.8 1.4 15.8 3.8 23 5.1 9.4.2 29 4.4 28.9.5.2-.9.5-14.1.6-29.3.3-27.7.5-32.3 1.9-35.7.7-1.8.7-1.8 3.8-2.1 9-.6 23.1-6 33.4-5.5 4.1 5.1 2.8 3.1 9.4 20.5 8.2 19.7 7.5 33.6 13.3 51.9 4.5 11 4.4 26.9 10.5 32.4 33.3.2 75.1-1.2 98.4-2.9 1.8 7.1 3.9 20.1 5.8 27 1.8 6.4 1.4 18.6 7.8 21.3 1.7-1.5-2.3-9.4-2.5-13.4-1.8-7.2-4.7-17.7-6.3-25-1.1-2.7-2.4-13.6-4.4-13.5-1 0-1.9-3.3-3.3-3.2-3.7-.4-28.6 2.3-32 1.9-.6-1.9-1.3-4.4-1.3-6.3-3.7-15-3.6 2.1-.8 6.8-.7.3-13.2.2-16.1.2.4-10.2-2.8-26.1-2.5-38.3 1-15.7-.7-27-4.1-22.2-3.6 7.9 1.9 2.6.7 7.9-2.6 17.2 4.2 36 2.1 52.6h-41.7c-1.6-6.5-3.7-14.8-5.7-21.1-7.2-23.4-4.8-31.8-15.8-58.3-6.6-17.4-8.6-27.6-25.1-23.5zm-329.5 1.6c-1.1 1.3-1.7 13.6-1.5 18.5-2.5-.3-6.2 1-9 2l.3 16.8c.3 16.8.2 18.8-1.2 18.8-1.6.4-7.6 3.3-9.7 3.2-2.4.2-2.6.3-2.9 1.6-.4 2.1-.4 18.8-.5 23.7-4.2-8.1-7.3-16.9-11.2-24.3-1.7-5.2-5.5-14.2-12-11-9.5 2.4-23.8-4.7-32.4-3.6-1.3 23.7 2.6 61.9 2 85.9-.8 3-2.7 1.7-6.8 2.5-11.7 2.8-34.5 3.6-57.1 2.2-1.2 3.6-.6 43.5-2.5 44.2-1.1 4.7-1.5 6.7-2.1 9.1-2.7.6-24.4-1.3-16.3 2.5 1.8.9 2.8 1 11.9 1 5.4 0 9.9-.1 9.9-.2 3.1-11.9 4.6-17.4 4-31.6-.3-11.3.1-20.7.8-21.4 22.3 1.8 47 .5 64-3.1.1-23.1-1.2-47.1-2.1-68.6-1.7-22.2-3.1-20.6 18.8-15.5 13.2 3.2 10.7-3.5 16.5 11.3 4.8 7 8.8 30.8 20.1 28.5.5-1.9.8-23.5.9-29.2 3-.1 13.3-2.6 13.8-6 .7-1.5-.1-27-.2-33.6 1.8-.7 3.5-1.1 5.8-1.4 3.2-.3 3 .3 3.3-9.2.2-5 .2-7.2.8-9.3 7.1 1.9 41.2 1.8 45.3 3.8 1.8 3.4.7 19 1.3 25.4 1.9 1.7 4.9 2.4 7.6 2.6.4 8.5 2.3 16.8 1.6 26-.8 8.7-.7 10.1.5 10.8 1.9.9 7 2 9.5 1.8.9 8.4 1.5 16.9 3 25.1 1.8 10.4 1 24.9 3.6 36.5 1.2 2.8 3.2 48.6 12.4 35.5 3.9-14.9 5.3-48.1 8.7-60.7 30.1.9 54.4 2.3 87.1 2.4 6.7 18.7.2 67.6 6.5 89.2v25.6c0 23 .1 25.8.8 28.2.4 1.5.8 3.3.8 4.1 0 1.9 3.1 5.4 4 4.6 1.5-.2-1.3-7-2.4-9.5v-50.6l-2.8-11.2v-21.1c-.5-39.6-.1-47.5-7-65-.6-.6-9.2-1-25.9-1h-5.9c.6-2.6-1.2-15.1-4.2-9-.9 2-.9 2.3-.3 5.4.4 1.8.6 3.3.6 3.4-.5.1-9.9-.3-12.1-.4 1.1-9.7-2.9-25.1-2.8-33.8.4-3.7.2-17.6.1-23.4-8.2-16.3-4.1 10.7-5.5 15.4-.6 5-.5 5.4.9 13.4 1.6 6.7 1.9 21.9 2.4 27.6.2.8.7.8-16.3 0-7.1.3-16.1-2.3-17 1.6-.4 2.1-1.5.9-.7 1.9.6.8.6.9-.5.5-6.6-4.1-9.5 36.7-12 49.9-4.4-20.5-6.1-52.1-9.1-75-1.1-15.5-1.9-11.3-11-12.3 1.4-12.2.5-19.5-.4-28.5-.6-3.5 1.1-7.9-3-8.8-3.5-1.7-4.8.7-5-4.9-.6-2.2.5-21.4-1.5-21.7-10.9-7.7-40.5-5.3-56.7-7.6zm-426.3 3c.4 5.5 1.3 23.7 2.1 29.3-6.2 1.7-13.3.9-20.8 1.1 1.8 11.7 1.8 26.6-.3 57.1-.5 25.8-3.2 59.8-1.9 86.2 1.2 10.9-1.5 3.1-7.1 5.8-1.9.8-3 1.3-4.4 1.8-.1-10.2 1.4-26.6-5.3-32.7-11.9-3.6-43.7-.2-54 2.8-1.9 28.9.4 67.4.9 96.3-4.7.5-6.2 1.9-14.2 1.5-9.8-.2-12.7 1.3-21.5 1.6-1.7 5.3.7 30.4 1.5 40-20.9 5.7-57.1 1.9-78.5 8.1-3.6.1-13.3-3.7-16.5-3.7.9 3.2 22.2 8.4 25.7 5.9 16.2-4.9 56.4-.1 76.3-6.5.7-.5.7-.3-.6-9.8-1-7.8-2.2-23.7-2.1-30 7.5 0 8.8-1.2 18.8-1.3 9.6-.4 11.7-.3 16.7-2.6.4-8.2-1.8-42.8-2-54.1-.5-3.8 0-29.4.5-41.2 0-.3.7-.6 1.5-.7 14.4-3.2 31.1-4.2 46.6-3.4 1.4 7.1 1.8 8.7 1.7 19.1-.7 12.8 2.2 16.8 11 13.9 3.7-2.4 6.5 0 9.6-.2-.6-26.2.7-61.6 1.5-88.3 1.1-13.7 2.3-46.3 1.2-60.2 11.1 1.7 23.2-2.2 35.4-.5 6.5.5 9.5 19.3 11.9 28 3.5 15.5 5.6 26.2 10.6 39.1.6 2.3 7.3 4.5 11.3 5.8-2.2 28.3.9 33.6 28.6 32.9 20.9 0 19.3 4.6 52.6 2.6 22.6-.7 10.5.6 12.3 4.4.3 0 .5-.3.5-.7 0-.8 1.8-1.9 2.3-1.3.9 1 8.8 11.8 9.8 13.4 2.4 4.5 5.6 13.8 10.1 14.9 2.8 1.4 2.7.3-.3-6.1-4.3-9.1-11.2-17.1-17.4-24.8 4.8-.3.6-4-1.2-6.5-11.6-1.1-24.3.7-39.4.5-13 .7-21.9-4.1-34.2-2.6-3.3.1-17.5.6-18.8-3.6-1.5-15.5 5.5-26.3-13.5-31.1-6.7-20.6-10.2-51.7-20.9-65.8-4.1-5.7-6.8-3.8-14-4.6-4.7-.1-6.6-.3-6.9-.8-1.7-6.4 2.1-26.6-5.2-29zM52.5 106.4c13.9 16.7 17.2 28.8 25.2 41.8 3.2 1.1 7.6 3.2 4.9-3.7-1.9-5.6-7.9-31.9-9.8-40.6 4.6 7.2 12.6 28.5 19.2 39.4 6.5 11.8 6.8 13.8 12.7 12.3-1.5-9.8-7.9-42.9-6.9-47.8 3.8 5.6 11.5 37.1 12 48.2.3 2.8.6 5.2.7 5.4.9 1.2 5.2 2.1 7.3 1.8-.2-10.6-2.5-33.4.5-42.5 3.4 16.6 5.9 23.5 7.5 45.3.6 7 1.4 14.3 1.8 16.3.5 4.9 2.4 4.6 6 5.1 2.7 0 2.6.5 2.9-10.2-.1-7.6 2.1-18.7 4-21.8 8.2 13.4 4.8 40.8-.5 55.7-9.1 15.7-19.5 50-21.4 69.1 0 1-1.3 2.7-2.1 3.6-1.8-6.5-4.8-20.8-5.4-26.2-1.1-12.8.8-32.2-3.7-45.1-2.2-11.3-7.5-17.9-11.4-27.6-3.5-10.6-10.9-25.4-13.1-26.3-5.5-1.3-8.2-1.1-3.8 5.6 2.4 3.9 7 14.2 8.6 19 22.6 43.2 12.1 47.6 20.7 93.6.2 1.3.4 2.3.3 2.4-1.6-4.2-4.5-13.9-7.5-19.2-3.6-7-6.1-10.6-14.4-19.9-6.7-7.9-9.1-13.4-18.3-21.1-3.1-2.7-5.5-5.9-5.1-7 6.8.1 21.6 19.4 30 14.4-9.1-10.2-40.7-32.6-49.6-46.8 2.2-.3 15 7.3 22.8 13.5 3.5 3 5.8 3.7 8.6 2.6-3.2-5.9-16.7-15.3-26.2-25-13.7-12.8-16.4-16-18.2-21.6-1.7-5.4-1.9-5.2 2.2-3.3 8.4 3.8 13.2 7.4 21.2 15.7 3.7 3.8 7.2 7.2 8.3 7.7 6.8 2.4 9.2 1.7 2.9-3.8-15.4-16.8-44.5-45.3-43.3-65.7 24 25.2 28.2 40.7 44 56.6 6.8 2.6 6.8 1.4 2.1-5.3-9.3-14.4-19.8-37.5-22.9-53.8.1 0 3.4 4.1 7.2 9.2zm1553.3 23c2.2.7 3.5 1.4 4.9 2.6-5.7.1-12.8.7-19.5 1 2.8-.9 10.6-3.7 10.7-4.7.9-.6 1.8.8 3.9 1.1zm-698.5 7.2c-.4.7.8.5.7 0 0-.7-.4-.4-.7 0zm716 .3 3.3.8c.6 3.8.5 8.4 0 12.3-2.5-1.1-5-2.6-7.6-1.8-4.9.9-10.4 1.3-14.4.9 2.9 6.4 15.5 1.7 20.8 3.6 3.2.7-.2 10.9-.2 14.2-5.9 1.7-20.4 1-27.2 2.1-3.8.4-6.8.6-7 .4-1.9-4.5-2.4-25.7-5.5-32.5 7.6 1 25.4-1.6 37.8 0zM905 138c-.4.7.8.5.7 0 0-.7-.4-.5-.7 0zm13.5 1.9c-.3.5.4 1.1.8.6.9-.9-.3-1.5-.8-.6zm707 35.6c-.1.7-2 6.7-2.5 8.4-3.2-.7-8.3-7-4.7-7.3.4 0 .5-.3.4-.7-.2-.5.4-.7 2.9-.8 3.5-.2 4-.1 3.9.4zm-14.2 1c-1.4.9-7.9 5.8-10.2 7.5-1.7-1-6.2-3.8-7.3-4.1-1.3-.3-2.8-2.4-1.9-2.7 1.2-.1 24.2-3.3 19.4-.7zm2.4 15.4c1.4 8.6-6.1-2.6-7.8-3.5-1.7-.1 5.6-6.1 6.6-7.2.3 2.3 1 9.7 1.2 10.7zm-17.9-8.3c1.6.8 3.1 1.6 3.2 1.8.2.4-6.7 5.8-7 5.5-.3-.3.3-8.7.6-8.7.2 0 1.6.6 3.2 1.4zm24.5 2.6 1.3 1c-5 9.3-3.2.6-4.7-4.3.9 1.1 2.2 2.4 3.4 3.3zm8.2-.9c.5 2 1.5 4.2 2.5 6l-2.2-2.1c-2.1-2-2.2-2.2-1.9-4.1.5-2.8 1-2.4 1.6.2zm-22 7.1c.9 1.2 1.6 2.3 1.6 2.5-.4.4-8.9.2-10.9.2 3.4-2.4 6.4-8.6 9.3-2.7zm21.3-1c1.5 1.1 2.6 2.4 3.6 3.7-2.7.3-6.6.7-8.7.6.6-1.1 2.7-5.4 3.2-5.6 0 0 .9.5 1.9 1.3zm-161 26.3c-10.4 5.8-9 9.2-9 21.3.6 6.4-.3 14.6.5 19 1.2 2.1 1.4-.6 1.4-13-.1-17.6.5-19.5 7.1-23.2 6-3.4 7-3 10.9 3.8 3.4 6.3 5.1 30.6 9 30 1.3-.9-3.1-11-3-13.9-1.5-9-1.1-11.6-7.5-21.2-3.6-5.3-4.2-5.3-9.4-2.8zm106.9 1.7c-6.1 3.1-9.9 9.7-9.5 16.6.1 4.4 2 20.1 3.8 17.9-1.3-7.8-2.5-22.8 2.4-25.6 2-2 5.9-4.8 6.7-4.8.8 0 4.8 10.1 5.3 13.3.6 2.7 2 21.7 4.6 21.4.8.3.7-1.5-.1-6.2-1.4-8.6-.8-13.8-4.8-22.8-3.1-5.3-2-13.1-8.4-9.8zm48.4.1c-3.3 1.2-9.3 4.5-9.7 5.2-2.3 6-5.1 20.3-2.7 26.3 1.7 3.6 1.2 0 1.3-3.2-.1-4.4.1-5.5 3.3-17.6.4-1.7.7-1.9 5.3-4.1 6-2.9 6.5-2.8 10.1 1.3 3 3.4 3.4 4.5 3.8 10.9.6 9.6 2.3 16.7 3.6 15.4.7-1.9-1.3-12.6-1.3-15.3-.3-7-6.1-20.7-13.7-18.9zm-105.5 1.6c-12.1 6.6-10.3 24.6-3.5 34 .9 1.1 1 1.1 1.8.4.8-.8.7-.8-.5-1.3-3.7-1.4-5.8-14.8-3.2-20.5 1.6-3.7 8-9.8 10.2-9.8 7.9 5.3 8.5 18.9 11.9 31.7 3.7 6.9 3.1-2.1 1.9-4.2-.4-.3-1.1-3-3.7-13.9-.7-4.1-7.5-16.6-11.6-18.2-.3 0-1.7.8-3.3 1.8zm152.9 3.4c-13.6 1.8-8.7 5.5-8.9 21.4.6 7.6.9 9.5 1.4 9 1.4-18.4-7.7-28.5 16.5-26.2 1.7 7.4 3 9.9 2.4 18.8-.2 6.3-.2 7.9.4 9.3 1.3 3.1 1.6 1.4 1.7-7.4.5-7.3-1.9-20-4.6-24.7-1.8-.5-6.1-.6-8.9-.2zm-424.2 19.9c0 .9-.5 5.3-1.5 4.1-1-1.6 1-9.4 1.5-4.1zm-2.5 6.8c1.7.3 1.2 6.5-.3 5.4-.6-2.8-7.5-9.2.3-5.4zm-975.2 1c-1.6.2-10-.1-2.7-.2 2.9 0 4.1.1 2.7.2zm-9.3.4c-.3.1-.9.1-1.4 0-1.1-.3 2.3-.2 1.4 0zm979.8.9c1.2.8 1.2.8.9 5 1 3.3-5.6 13.7-5.7 16.5.3.9-3.4 10.2-4.3 10.7-3.7 4.8-16 32.3-19.6 37.6-3.9 8.4-7.4 18-11.6 25.5-1.5 2.8-7.4 16.8-7.4 12.7.1-3.9-7.2-17.3-12-26.1-2.3-5.3-11.9-9.3-16.2-13.4-1.3-2.5-15.5-9.1-22.8-12 27-10.7 58.6-38.1 82.3-51.8 4.4-2.8 11.4-7.9 16.4-4.7zm-174.2 9.9c1.6 13.1-2.7 36.3-1.5 49 .9 26.9 2.6 61.6 0 88.5-.8 10.1-2.1 18.4-3 27.6-2.9 25.9 2.8 73-.5 100.7-5.7-1.4-18.1-3.7-23.9-4.8-7.9-1.4-15.3-1.8-16.9 6.9-7.3 21.1 3 16.6-22.1 14.9-27-2.3-44.3-6.3-72.8-7.6-16-.2-14.6-.9-18.7-1.6-12.3 1.8-27.5-3.2-39.4-5.6-14.2-3.6-38.3-.8-51.9-5.7-6.2-1.7-13.1-3.7-19.3-4.7-2.5 0-3-.1-4.1-1.3-4.3-2-2.6-27.9-3.2-42.3 7 1.6 33.7 1 40 3.1 31.8 6.6 32.7 3.6 53.7 6.1 5.4 1 6.8 1 12.6.7 16.2-1.1 25.2 2.2 39.8 3.3 41.4 1.6 80.3.5 110 4.9.8.6 13.2 1.1 13.2.5-.9-2.2-.9-3.3-4.8-3.7-24.3-2.4-55.2-5-79.6-4.7-21.4.5-44.7-.4-50.4-1.4-8-.3-18.7-3.4-26.1-2.6-15.3 1.5-18.9-1.6-33.2-1.3-26.7-.7-44.2-8.2-75.1-6.9.5-59.9-1.4-127.4-1.4-187.7 1.6-15.1-.4-12.3 6.9-16 3-1.2 10.2-3.2 11.9-1.4 8 .9 19.3-.2 28.4 1 15.1 1.7 22.1-1.3 34.2-.9 14.9 1.8 36-2.9 49.2-1 3.3.8 6.6.7 13.4-.3 43.8-2.6 90.2-6.9 134-8.4l.6 2.7zm-152.8 13.9c-3 4.2 5.5 7.3 7.7 7.4 6.7-2.2-5.8-11.8-7.7-7.4zm14.9.2c-1.1 5.2 11.2 5.4 3.1.6-2.2-1.3-2.7-1.4-3.1-.6zm539.3 1.5c-8.7 2.4-3.2 4.6-4.8 10.1-.9 1.7 1.1 19.2 1 21.7.9 8 3.8 5 1.8-7-1.5-9.9.2-10.1-.3-16.1-.8-2.5-.7-2.7 2.2-4 5.9-2.6 10.9-1.7 15.9 2.9 6.2 3.6 4.9 19.7 9 23.3.7-.3 1.7-4 .7-4.2-.4-.3-.8-1.3-1-2.4-1.9-11.2-9.7-29.9-24.5-24.3zm56.3 1.4c-10.7 5.8-8.8 5.6-9.4 19.4-.4 8.7 1.2 16.8 2.2 13.2-.2-.3 1.3-4.3.2-3.7-.8.5-.3-14 .7-17.4.8-3.1 1.8-3.9 7.4-6.8 3.4-1.7 4.3-2 4.7-1.5 4.1 5.3 6.6 11.2 6.7 18.6.5 5.4.4 6.7 2.9 8.7.7 0 .2-8.7-.8-13-.9-3.8-3.8-10.4-6.4-14.4-3.6-5.5-3.5-5.5-8.2-3.1zm-279.4 5.8c.7 1.2 9 13.4 8.6 14.7.2 1.6.5 2 2.1 2.8 11.4 12.9 24.1 32.8 35.8 45.5 11.8 13.3 24.1 32.9 38.1 47 5.2 5.4 6.8 7.1 2.9 8.7-1.7.4-1.9.4-2.5-.7-7.2-7.9-26.8-26.2-33.3-35.9-8.9-11.5-5.5-8.6-16.8-25.2-13-16.9-30.6-36.6-43.3-55.2.9-1.8 2.9-5.4 3.8-7.2 1.1 1.2 4.1 4.6 4.6 5.5zm373.5-4.4c-6.5 2.2-6.7 23.3-3.9 27.7.8-5.1-.8-19.6 4.4-22.7 2.9-2.3 10.3-.8 14.4-.3 7.5 1.3 6.6.6 6.5 5-.2 3.6 1 16.4 1.7 18.9 3.8 6-.2-14.6.6-17.1.7-13.9-4.1-10.5-16.3-12.4-4.8-.3-5.1-.2-7.4.9zm49.5 2.2c-2.4 1.8-3.8 18-2 23.8 1.4 4.6 2.7 7.7 3.2 7.7.8 0 1-1.4.3-2-4.2-5.3-2.3-19.9.2-24.4 14.9-4.1 11.3 13.9 16.2 21.5 4.7 8.7 5.9 3.3 1.7-3-2.4-3.6-2.5-4.1-3.9-11-1.7-12.6-7.6-14.3-15.7-12.6zm-102.2.7c-6.3.8-4.9 14.6-5.3 19 .3 2.1 3 8.1 3.5 8.1s.5-.1-.5-2.4c-2.1-4.2.2-15.7.9-18.5 2.9-3.1 9.4-2.8 12.9-.6 3.5-1.2 6.7 21.9 9.3 22.8.7.2.8-3.2.1-3.9-3.3-11.1-5.3-29.5-20.9-24.5zm-326.2 13.4c3.2 2.7-8.8 1.4-7.9.7.1-.6 3.4-4.4 4.3-5.5 1 1.4 2.6 3.9 3.6 4.8zm158 3.7c-28.7 11.9-80.7 20.1-114.8 31-6.6-7.3-13.8-18.7-21.8-29 25.1 2.1 32.3-1.5 66.4-1 41.1.6 45.2-2.9 70.2-1zm-226.5 1.4c-1.3.3-8.9 6.9-4.7 8.2 1.3.6 1.9.3 7-4.4l2.8-2.5c-1.9-1-3.2-2.7-5.1-1.3zm68.1 1.2h5c3.8 5.7 19.6 23 24.9 31.4-10.1 1.4-55.9 13.5-61.9 13.9 4.2-7.7 7.3-18.3 12.2-27.2 3.2-5.6 9.1-17.4 9.1-18.2 2.1-.8 7.1.4 10.7.1zm-59.6 8.2c-3.1 2.9-2.7 3.7 1.1 4.9 1.3 1 4.4-3.6 5.7-4.9-2.3-2.2-3.8-3.3-6.8 0zm-36.6.8c6.6 2.6 16 6.6 18.5 10.9-7.4 1.8-15.6 6-18.2 11.8-3.9 10.9.1 22.3 14.7 25.2 12.3 3.6 19.5-.4 26.2-9.3 2 3.3 3.6 7 3.4 12.4 1.6 23.6-30.3 29.5-41.9 14.4-12.4-14.7-26-38.2-18-57.2 3.2-4.8 9.3-11 15.3-8.2zm50.5 9.4c-.5.7-3.7 4.7-2.7 5.5 1.5 3.4 8.5-9.6 2.7-5.5zm-956.1 1.7c11.6 5.3 24.2 26.8 25.2 40.1-.4.4-7.2-5.3-13.5-11.5-9.6-9.3-12.5-11.4-16.3-11.9-3.2-.4-3.8 0-2.8 2 10.7 16.8 42.3 45.6 40.5 68.7-8.2-7.2-12.6-11.7-20.9-22.6-8.7-10.2-14.7-21.5-21.9-22.4-5.8-.6-1.1 3.1 1.4 7.6 18.1 28.2 36 50.2 44.8 82.3-10.3-9.1-11.7-10.8-26.7-31.2-5.6-6.4-13.7-19.9-21.2-15.2 5 6.7 21 33.3 26.5 43.1 6.4 10.6 17.2 27.5 15.9 38.8-.6 2.3-8.2-10.4-10.8-12.8-7.3-7.6-19.4-29.9-28.2-27.9-8.4 0-1.1 10.3 3.9 20.4 10.1 16.5 16.9 22.5 28.9 25.3 6.3 10.4 12.3 22.7 12.3 31-14-1.2-29.2-16.1-41.6-27.2-7.3-6.6-8.5-10.4-15.8-6.9-1.3 1.2-.9 1.7 13.7 14.6 5.9 5.4 20.6 23.3 26.7 29.5 12.4 11.9 26.2 35.2 9.1 33.9-13.9-1.1-21.5-15.4-32.6-21.2-6.8-4.8-8.8-5.3-13.6-3.9-2.2.7-2.4.8-2.4 2.1 2.4 7.3 22.7 18.5 31.2 23.4 5 2.4 29.3 22.3 27.9 31-10.7.2-14-.3-27.8-8.8-7-4-17.5-10.3-23.7-13.5-10.3 2.3-4.7 2.8 8.1 16.9 15.3 15 27.7 35.5 23.9 50.7-7.7-19.8-10.8-33.4-26.3-48.9-3.4-2.8-5.3-8.6-7.7-8.2-8.6 2-3 4.8-1.2 14.8 9.2 30.3 12.9 43.8 11.6 66.5-11.9-23.1-16.7-43-20.2-68.5-1.9-12.2-1.3-14.4-9-10.5.7 15.5 4.6 24.1 3.6 46.5.1 19-.4 27-2.5 39.3-.4.3-2.9 0-3.7-.1-4.2-26.8 2-87.4-.4-114.4-1-10.5-1.5-9.2-7.8-6.3-2.5 22.4-6.6 55.3-19.7 73.4-.9-4.7-.7-21.3 1.3-26.2 1.6-4.6 3.5-17.8 6.2-19.6 1.3-.3 1.3-.3.6-2.2.6-8.9 12.5-44.8 10.9-49.5-2.4-.9-8.1-.4-10.3.6-2.8 1.5-6.8 7.1-18.3 26-3.6 5.9-7.7 12.2-9.1 14.1-2.5 3.3-11.1 13.1-11.5 13.1 1.1-10.2 5.4-22.7 13.7-35.2 8.9-13.9 18.6-33.7 18.9-46.8-8-1.2-8.5 1.5-12.5 8.5-10.4 21-24.2 36.8-39.3 49.6-2.7 2.1-2.8 2.1-2.8 1 3.9-27.2 31.5-68.7 51.1-88.9 1.9-1.9 3.3-3.6 3.2-3.8-.5-.8-5-1-6.4-.2-6.5 2.1-44.2 54.4-58.5 61.1 2.2-24.8 28.9-63.2 43.5-85.1 2.9-4.8 5.2-5.5-.1-5.9-10.2-1.7-32.5 37.6-40.3 44.7-5.3 6.7-6.1 7.5-7 7.1-1.4-.5-1.3-.9 2.5-9.2 9.8-22.9 33.7-57.4 46.1-77.3 2.8-4 3.4-3.6-1.6-4.8-8.5 1.9-19.6 22-27.5 30.1-5.5 6.6-20.9 22.2-27.3 27.5-5.1 4.3-5 4.6-1.4-5.3 9.1-25.8 26.9-45.6 44.5-68.8 5.6-8.2 10-12 11.8-16.4-.5-.5-4-1.4-5.2-1.7-15.2 20.2-37.8 49.8-59.8 60.2 3.9-15.5 26.4-67.4 38.7-86.1 5.1-6.4 5.2-2.9 14.6-4.3 9.9-.2 17.2-2 24.9-2.9 3.8 8.8 10.3 41.7 14 53.9 4.5 16.5 4.6 35.1 6.2 53.3 4 11.6 11.4 20 12.3 33.4 2.1 13.4 12.7 42.1 13.1 57.9 9.1-.2 7.7 2.8 3.8-18.4-1.9-12-9.6-30.4-11.2-41.4-1.4-8.5-2.2-10.6-5.3-15.5-12.6-20.7-7.4-28.2-11.5-54.5-5-24-10-48.3-17.3-69.9 8.5-2.3 18.7-5.5 22.2-10.9 12 .2 21.4-.5 32.7-.9l6.9-.1 3.6 1.7zm-58 1.3c-.1.1-9.4 3.8-9 2.4-.2-1 0-1.2 4.5-2 5-1 5.7-1.1 4.5-.4zm989.4 1.6c3.5 1.4 11.9 14 10.7 16.4-3.1 8.9-11.7 18.1-22.2 14.7-11.2-1.1-12.3-18.8-4.9-24.2 3.8-2.5 12.6-10.5 16.4-6.9zM163.8 329c-1.5 2.7-13.1 3.3-13.5 3.6-.5.2 13.2-6.5 13.5-3.6zm1451.7 5.8c-8.3 2.6-5 16.1-2.8 24 .2 5.5 3.8 1.9 2.4.4-4.1-6.5-4.6-22.4 7.7-19.5 5.2 1.3 12.3 12.2 11.3 17 2.6 19.5 4.9-7.3-2.2-13.2-5.6-7.7-8.6-11-16.4-8.7zm-420.2 1c-.9 1.2-2.2 3.5-3.1 5 2.5 2 4.7 2.9 6.3-1.7 1.5-3.4 1.4-3.8-.9-4.2-1.2-.3-1.6-.1-2.3.9zm366.2.9c-6.7 4.7-5.4 7.8-3.1 17.9 2 7.6 2.1 7.9 3.7 7.9 1.6.2 1.8-1.3.4-1.4-1.1 0-1.3-.3-1.8-2.9-5.9-15.8 6-23.7 18.3-11.6 2.6.8 2.4 12.6 4 14.3.9 1.9 2 1.3 2.1.2-.1-12.8-8.7-30.2-23.6-24.4zm99.3 1.8c-2.5.4-5.3 23.6-4 25.1.6 1.4 1.1.7 1.1-1.5s2.3-14.7 3.3-17.6c1.5-3.6 4.8-1.8 10-.9 6.6 2.1 9.6 2.3 9.5 9 0 4.5 1.5 17.7-.2 20.7.3.8 3 1.9 3.5 1.3.4-2.1-1.2-16.3-1-18.8-.5-7-.5-11.5-5-14.6-3.5-2.6-14.8-4.4-17.2-2.7zm-191.5.7c-9.3 1.2-5.4 14.4-7.5 21.5-.6 0 1.7 3.2 1.9 3 1.9-6.1.8-21 7.5-20.1 10.4-2.2 12.3 10 14.6 17.6.2 2.9 2.2 8.4 3.7 5.3 2.1-1.2-9.9-28.3-12.8-26.7-2.6-.9-5.3-1.1-7.4-.6zm48.5.3c-8.3 2.2-9.2 6.4-8.3 13.7.7 9.8 2.4 13.3 2.5 6.9-.8-7.1-.5-11.3.8-12.9 2.3-3 13.4-4.7 16.2-2.5.8 3.4 5.7 20.2 7.7 19.6 2.1-1.5-3.4-8.9-3.6-13.2-3-12.3-5.5-13.5-15.3-11.6zM97.4 342.1c7.6 5.4 9.7 7.1 14.4 11.5-.3 1-1.4 4.5-2 4.6-2.7-2.6-24.3-26-12.4-16.1zm1174.9.6c8.5 13.6 18.5 29.5 32.2 43.2 4.2 4.2 7.9 9.2 12 12.3 0 .2-1.8.7-4.1 1.1-13.8 1.9-15.1 4.8-25.2 5.4-7.4 0-14.4 3.5-23.1 5.2-5.9 2.2-21.7 3.6-13.9 9.7 13.7-5.2 33.9-8.9 48.1-11.2 2.3-.9 17.2-4.4 17.5-4.1-.7 3.2-1.1 11.9-.2 14.8 2.1 4.5 9.4 13.9 15.5 13.9-.2 2.2-.5 11.2-.8 11.7-14.8.7-42.4-5.6-58.1-6.9-17.8-2.5-39.6-5.3-58.4-6.7-4.4-1.5-18.7-.3-17.7-4.7-2.6-9-5.4-17.4-5.6-28.1-.1-9.8-1.8-10.2-3.3-17.8 4.6-8.9 10.4-17.6 14.7-26 21.8-4.1 39.7-9.5 64-14 4.6-.7 4.7-.6 6.4 2.2zM268.7 355.6c12.1 8.4 19.5 17.8 27.9 35.7 3.1 7 4.1 8.6 7.4 12.7 2.3 1.3 9.3 18.4 13.5 24.6 6.2 9 6.5 9.5 9.3 19 2.3 8.2 10.7 15.6 14.9 25.8 7.6 15.5 9.6 21.6 12.5 38.6 2.9 16.7 3.8 21.2 5.6 27.2 6.2 16.7 9 58.2 7.2 74.8-4.9-5.9-5.1-13.7-9.6-32.7-3.7-22.5-16.1-43.7-16.5-61.6-1.1-12.1-2.7-26.3-3-26.6-.3-.3-5 .9-5.7 1.4-2.6 13.4 4.9 48.9 4.1 67.8.7 5.2-2.9 23.5-3.9 28.4-.7-.9-6-19.5-7.3-25.9 2.3-23.9-.6-58.1-3.7-79.9-.7-10.5-.7-12.5-7.8-9.4-1.1 14.3 1.8 11 1.3 41.7-1.2 41.3 7.3 39.6-1.5 69-9.3-30-.1-68.2-3.6-99.7-.5-3.9-.7-21.3-1.5-24.5-.3-.9-4.9.7-6.2 1-1.1 25.5 2.6 66.7-3.3 91.1-.3-.3-2.5-14.7-2.9-19.3-2.8-15.4 4.1-58.1-1.2-70.8-1.4.2-5.9.5-6.3 1.1-.7 1.2-1.3 10.2-1.5 22.4-.2 17-1.7 33.6-5.4 44.8-.5 0-1.8-5.2-2-8.1-.3-5.8-6.5-19.3-11.9-27.4 16.1-4.4-5-34-13.9-48.9-.4-.6 3.3 2.9 8.2 7.7 9.3 8.4 9.4 11.7 16.2 7.2 1.5-2.3-.5-10.7-5.2-22.4-3.9-10.9-14-24.6-20.3-34.9 7.1 6 15.4 16.8 22.1 13.3 2.7-22.4-10.6-38.3-25.4-55.8 4 2.9 13.8 6.8 18.4 4.2.2-.6-2.1-11.6-2.9-13.5-1-1.8 2.5 1.6 3.9 1.9zm273.4 22.6c-2.5 6.5-5.5 17.4-8.9 21.7-1 1.5-1.4 6-.5 6.5.3.2-1.7 2.5-4.8 5.5-10.8 9.9-10.9 15-15.9 24.8-8.3 13.4-11.7 30-17.8 44.5-1.4 1.2-4.5 33.2-7.6 28.2-15.8-3.4-29-3.7-42.2-13.1-37.8-14.8-37.8 4.6-34.6 38.8.3 12.8 2.6 25.1 4.4 37.6 1.5 16.2 6 21.3 9.3 35 4.6 16.9 9.6 40 8.9 57.5-2 31.6-2.2 32.8-6.7 49.2-3 10.7-9.5 24.8-4.7 36.9 9.3 16.9 38.7 33.6 56.7 45 19.4 12.4 45.3 20 66.9 25.6-.6 28.7 1.2 47.9.8 76-.4 20.1.3 37.7 1.4 38.8.7.7 5.9 1 6.5.4 0-35.3-1.8-76.7-2.5-114.6 6.9.3 14.7-1.5 21.5-1.9-.3 38.1.6 91.7 1.2 118 2.5.5 5.4.6 7.9 0-.2-33.8-2.4-85-3.1-117.3 17.9 2.6 57.2-.2 77.3-3 8.6 24.8 15.6 57.2 23.4 80 4.4 9.9 6.6 16.3 8.9 26.5 1.4 6.2 1.4 6 2.7 6.6 3.8.5 8.2 1.9 5.7-3.7-1.7-7.2-4.7-19.1-8.9-27-9.1-22.7-16.9-59-26.5-83.3 13.5-3.4 41.1-3.7 49.6-16.6.6.2.7 15 2.3 11.3.7-1.9 1.2 2.1 1.6 12.4.7 22.9.8 18.5 3.2 28.2-10.3 8.8-32.8-9.1-36.5-19.1-.1-.9-3.6-4.4-4.3-4.4 3.4 12.6 29 34.7 41.2 30.2.2 5.2 1.3 14.6 1.9 19.1 0 .5-6 .4-9.1-.2-8.6 1.2-29.4-24.4-30.6-35 .2-1.5-1.1-1.4-1.3-2.4-1.2-2.3-2.9-3.6-.7 2.6 4.4 13.8 23.5 41.1 41.2 40.3 2.1 0 2.2.1 2.7 1.5 1.1 2.2 2.5 19.5 3.1 24.1.5 2.1.8 17.8 3.9 16.2 2.1.6 4.5.2 4.7-.8.4-1.4-1.2-27.6-2-33.5-2.4-8.7-6.5-29.9-4.9-36.1.3-.8.3-1.2-.3-1.9-1.2-1.4-.6-2.1-1.5-4-1.7-.1-.8-36.1-4.8-40.7-.8-1.6-1.5-4.6-2.2-10.1-.4-2.7-.3-2.9.5-2.9s.8-.1.3-.7c-.3-.4-.8-.7-1.2-.7-1.1-.6-2.1-2.9.8-3.2 10.6-3.1 46.1-21.3 53.8-29.1 0-.6-2.7-2.4-3.5-3-8.5 3.6-22.7 9.1-31.1 13 8.8-9.1 24.5-23 18-32.1-3-2.5-3.1-2.4-13.6 8.2-10 9.8-16.3 18.5-23.7 28.8.4-5.1 3-19.5 4-26.1 3.6-16.6 5-39.5 5.1-55.2.8-.8.6-1.3-.7-2.6-.7-.7-2.4-4.3-2.2-4.5 1.8-.1 7.5 1.6 9.9 1.5 5.8.4 11-3.1 10.4-9.7.2-14.4-15.4-27.1-30.8-28.2-2.8-.1-22.8.5-24.1-1-3.2-1.4-2.8-.1-8.6-1.2-54.1-7.3-49.3 17.5-38.6-35.9.9-6.3 5.2-10.4-4.2-11.7-3.1 2.9-4.1 17.1-4.9 22.2-3.4 1.1-2.3-2.7-4.4 9.1-.4 5.9-3.8 12.3.4 15.3-3.6 1-16.1-.8-19.7-.5-7.5 3.6-19 10.1-17 21.5-5.5-.4-19.8 3.3-25.2 3.9-1.6-30.7-6.9-58.9-13.4-89.1-1.7-10.5-3.9-20.1-4.9-29.5-1-9.7-1.4-20.6-8.2-27.2-10.1-6.4-31-11-43-15.4-4.3-.7-2-1.4-1.1-8.8 2.2-8.9 2.3-12.7 4.2-20 2.3-3.3 6.7-18.7 8.5-24.1 1.8-4.5 7.7-16.8 9.7-20 1.8-3 3.5-7.1 4.1-10.1.4-1.8 7.2-11.2 11.5-15.7 2.9-3.1 3.7-4.2 3.5-5-.5-2.5.1-2.6 10.9-2.8 8-.1 11.8-.3 16.9-.4 2.6 1.5 12.4 6.4 12.3 7.7.5 1.4 2.3 2.2 2.9 1.3 5.4-.5 19.2 1.2 22.7 3.7 15.1 8.8 3.4 1.4 13.1 14.1 6.8 11 15.2 23.1 21.3 31.8 1.3 3.6 12 23.6 12.6 27.2-9.3-7.8-25.5-23-34.9-28.2-5-2.7-18.3-8.1-18.7-7.7.3 3.5 8.6 8.1 14.9 12.6 25.8 16.1 28 17.6 30.3 20.3 10.3 12.3 9 10.8-7.5.2-16.1-11.3-31.6-16.9-45.1-17.5 1 6.3 13.4 11.4 20.4 14.5l4.4 1.7c3.9 9.4 12.2 16.2 24.4 19.6 2.6.4 1.5 2.3 3.7 2.4 7.5.2 7.8.2 7.9-.5 0-.9-3.6-4.6-4.7-5.7 3 1.7 7.7 4.3 11.3 6.2 2.4 9.9 10.2 42.3 19.3 45.8.8-.3.7-.7-.3-4.5-.9-8-6.3-21.5-8.7-30.4-4.8-19.2-10.7-32.3-20.6-51.9-3.5-8-8-10.2-12.4-17.8-5-8.2-7.9-12.4-12.1-17.8-5-6.4-3.9-6.2 2 .3 15.7 11.9 1-7.4-2.9-12.1-3-4.3-13.7-17.9-15.9-13.4 2.3 4 7 9.6 10.4 13.6-4.2-2.6-6.7-2.9-11.4-5.8-6.3-4.5-12.8-4.5-20.6-5.2-2.4-2.5-6.1-5-9.5-4.9-1.2-.4-14-7.5-15.3-7.1-1.3-.5-14.6 1.2-15.8.9-.1-.1.1-1.1.5-2.2 3.1-9.6 7.5-18.2-2.4-18.6zm801.3 18.7c14.4 2.8 12.6 31-.7 35-8.7.9-17.5-4.2-21-12.7-.4-3.3 0-11.5 1.3-14.4 6.7 5.2 20.7 4.5 11.1-6.8-5.3-4.5 6.8-1.8 9.3-1.1zm-474 37.6c.1.7 2.4.5 2.6 0 .4-.7-2.8-.6-2.6 0zm334.2.7c21.3 3.1 45.1 4.2 65.9 7.9 24.3 2.4 39.4 7.2 60.5 7.8-.3 5.3-1.4 12.9-1.5 18.1 0 4.1 0 2.8-4.3 2.3-15.6-1.3-39.7-7.1-53.8-6.9-12.8-.1-15.2-.7-22.1-4.3-12.2 0-26.3-1.7-36.8-2.1-3.9.1-4.4 0-5.3-.9-2-1.6-4-1.9-6.4-2.9-3.4-.9-3.7-1.5-4.1-7.3-.4-5.1.1-4.2.4-6.4-.2-7.6.1-6.3 7.5-5.3zm138.7 2.7c-3.3 30.5-3.4 56.9-7 89-2.1 22-7.9 43.6-7 66-7.1-2.7-8.5 3.7-6.6-11.4 1.7-23.9 5.8-49.2 9.2-72.7 2.6-28.1 5.1-35.3 6.9-68.5.5-6.7-1.6-6.3 4.8-5.1l-.3 2.7zm13.2 14.5c58.8 6 115.7 13.4 172.8 18.1 13.2.9 35.4 4 43.2 4.2 8.7.3 4.7.1 4.8 9-11.4-11.3-19.8 15.5-21.3 26.2-5.1-14.4-15.2-5.4-16.7 5.2-2.7-1.7-6.4-4.3-8.9-2-3.6 2.5-10.9 14-11.5 18.1-1.1-3.2-3.6-14-6.3-15.5-7.6-7.7-7.6-1.5-6 6.3.6 3.1 8.6 10.5 9.2 13.2-2.2 2.7-4.2-3.5-7.2-4.3-8.1-5.6-8.5 12.9-8.3 18.6-7.1-4.7-9.7-1.3-13.2 6.3-.2 2.4.5 18.4-.7 16.7-6.2-3.6-6.8 3.3-9.5 7.4.1 4.5-.3 13.6.7 16.5-13.3-7.1-12.4 8.4-13.5 16.8-5.5-2.8-4.5 2.5-4.6 6.9-11.4-5.4-13 7.1-12.3 16.2-8.8-1.8-23.3-4.7-33.1-6.1 0-15.4-5.9-34.2-22.6-32.3-8.3-.8-15.1 5.5-22.6 12-5.2-2.1-12-4.4-19.7-5.4-1.3-.2-2-.7-2.7-1.7-2.8-4.2-7.9-7.2-13-8.4 2.9-24.5 7.5-47.5 11.3-72.3 1.2-4.5 2.2-36 2.5-41.4 4-1.9 19.1 2.1 27 2.1 29.8.8 45.2 4.7 72.8 7.9 8.1 1.4 21.6 1.6 28.2 3.9 3.3 1.1 5.2 1.4 10.4 1.6 12.9.1 36.7 3.9 51.8 5.5-.2-1.3-.5-4.9-1.2-5.6-11.8-2.7-28.2-4.4-40.6-5.2-31.9-3.1-64.5-8.5-96.8-12.2-8.3-1.4-34.5-1.2-40.2-3.4-1.3-1-11.4 0-11-1.5.8-3.8.5-18.6 1.4-22.5 2.1.6 4.1.8 7.4 1.1zm-735.7 15.8c4.5 2.5 16.9 12.1 4.9 4.7-4.7-3-12.2-7.3-15.4-9.5.1-.3 7.9 3.3 10.5 4.8zm-377.4 6c4.3 5.9 9.1 11.3 11.3 15.1-6.2-3.5-17-20-19.7-25.8 2.2 2.5 4 4.9 8.4 10.7zm1346-5.1c-.2.2-.6.2-.9 0-.9-.3 1.4-.3.9 0zm-1057.6 5.8c6.8 10.5 16.8 28.6 28.9 37.9 4.6 3.6 8.3 9.7 10.1 12.6 1 1 1.4 2 .7 2-.9-.3-17.9-8.7-17.9-7.2-9.2-1.1 5.1 9 6.5 10.6 2.3 1.4 14.3 8.9 12.2 3.3-.4-.5 0-.4 1.1.3 3.7 2.2 2.6 3.5 5.5 10.5 4.3 11.7 6.8 17.3 12 21.2 5.2-.4 12.7-1 17.5-1.9 3.7-1.4 10.8.6 7.5-3.5-2-2.6-2.5-2.7-11-1.9-6.2.6-9.5.7-13.7.2-8-21.1-18.5-44.9-25.9-66.3-1.5-4-4.1-16.8-6.3-9.1-.5 1.9 7.6 25 10 32.2-4.8-.9-6.2-7.6-11.6-13.8-4.1-6.2-20.9-25.1-25.6-27.1zm1108.9 4c1 1.3-6.8-.3-6 .9 5 2.9 4.4 3.3 13.7 4.4 3.6-.7 22.7 7.6 22.3 3.2-.1-1 .1-1.2.8-1 5.3-2.8-14-6.4-20-6.7-3.6.2-9.5-3-10.8-.8zm-1513.7.7c-7.3 11.5-16.4 28.6-19.7 38.7-.1-3.9-.2-11.7-.3-15.6 2-.9 22.2-27.1 20-23.1zm486.7 1.6c2 .7 3.7 1.4 3.7 1.7 0 .5-.4.4-5.1-1.5-4.4-1.7-3.6-1.8 1.4-.2zm-67.9 8.9c3.3 3.6 12.2 16.5 15.1 20.4-9.5-5.3-14.3-17.7-21.2-25.9 1.8 1.5 4.5 3.8 6.1 5.5zm84.7 3.6c3.6 1.4 17.6 9.3 16.6 9.8-4-.9-22.5-6.6-22.5-8.7-2.9-6.4-.5-3.7 5.9-1.1zm23.2 2c1.5 1.7-1.8-1-.8-.8.1 0 .5.3.8.8zm-219 1c10.2 1.2 11.7 3.9 21.1 8.7 10.4 4.9 22.3 6.3 32 7.5 3.1.3.9 2.2 7.1 2.1 4.8.3 18 6.1 23.7 7.4 23.1 6.2 18.7 6.4 22.1 23.7 6.6 51.2 21.6 101.6 19.3 153.6-.9 30.8-3.3 50.5-6.1 80.8-2.7 16.1 3.8 25.1 13.7 36.5-15 3-23 .9-35.9-3.5-11.8-3.5-23.6-7.7-34.2-13.3-20.7-12.5-49.7-28-63.9-46.6 11 4.8 34.3 17.1 46.3 20.4 7.5 2.6 10.1 3.8 16 7.4 7.7 4.6 21.5 8.9 29.5 9.4 4.1.9 23.1 11.1 24.3 5.9-2.2-2.5-11.4-3.9-15.9-6.3-11.2-6.2-24.9-4.6-33.5-10.5-5.2-3.3-11.4-5.9-25.2-10.6-13.7-4.8-26.7-11.3-39.1-16.6-9.8-2.9-3.9-18.3-3.4-24.6 1-3.8 1.2-1.1 2.5-1.4-1-1.8-2.7-2.6 1.9-.6 15.4 5.9 34.5 8.4 49.2 17.6 6.8 4.9 19.8 6.6 28.2 9.5 4.4.8 20 8.6 21.7 5.4-2.8-3.7-12.5-5.3-17.7-7.4-7-3-19.6-5.1-26.2-7.9-12.8-6.9-28.4-12.9-43-16.1-6.5-1.1-14.5-3.5-14.5-4.3 2.1-6.5 5.4-17.4 6-24.2 5.4 2.9 23.1 13.5 31.9 15.2 11.1 3.3 26.5 6 37.4 9.2 7.4 3.2 12.9 2.8 19.6 5.7 4.2 2.2 13.9 4.6 18 2.8 1.3-2.9-6.3-4.2-9.9-4.5-18-4.1-37.6-11-56.2-14.4-12.7-2-28.4-9.2-39.8-14.9-1.1-3 1-11.6.9-17 .5-4.9 0-10.6 1.7-7.4 21.2 5 45.8 10.1 68.5 15 9.3 2.2 16.8 4.1 26.2 6.1 13.7 2.5 2.1-4-4.8-4.9-29.1-7-61.3-12.7-90.9-18.7.6-8.4-.5-21.3-1.5-29.6.1-.1 3.9 1.1 8.5 2.6 25 7.1 52.3 13 76.8 19.7 2.2.4 14.6 5.6 9.8.8-3.2-3.5-22.4-8-29.9-9.8-19.3-5.4-44.8-9.8-64.2-15.4-2.7-.4-2.5-12.6-5.9-20.6-1.5-6.6-4.8-10.8 3.1-6.7 21.6 9.9 58.1 18.1 82.6 25.3 17.6 6.4 21.2 2.6 3.7-2.5-12.5-3.7-14.4-4.2-21.6-6-14.9-3.8-17-4.3-18.2-6.4-1.8.9 2.6 2.1-7-.2-12.1-2.6-33.2-9.9-43.3-13.4-1.5 0-2-.7-2.9-4.2-3.3-9.1-7.6-20.8-8.5-30.1 19.5 6.5 38.8 16.3 59.7 20 8.6 1 27.9 8.9 37.4 9.8-2.4-8.3-50.5-15.3-61-19.4-8.5-3.1-30.5-10.6-35.8-12.4-1.9-6.6-4.5-25.7-4-31 18.9 8.7 46.5 15.2 64.8 22.6 6.8 3.1 8.9 3.7 17.2 5.2 4.7.1 24.4 10.3 22.1 4.3-3.3-2.7-8.9-3.4-13.2-5.3-7.6-4-18.7-3.9-27.2-8.2-22-9-43-12.4-63.8-20.9-.8-5.7-1.3-10.5-1.6-18 .2-7-3.2-16 3.8-13 27 10 54.5 26.6 83.4 33 10.7 1.6 8.6 2 11.3 5.4 7-.2 12.5-1.3-.4-6-9.1-4.3-19.1-3.7-27.8-7.5-14-5-25.7-11.1-39.3-16.3-4.9-4.3-33.5-10-28.4-15.6 3-5.1 5.3-5 12.7-4.4zm1077.4 23.4c1.3 2.9 2.8 7.7 2.5 8-.3.3-3.1-4.3-3.6-5.9-.8-3.4-.8-6.9 1.1-2.1zm-1348.8 8.7c-4 11.7-22 35.9-24.6 48-7.4 25.5.6 22.4 15.7 6.8 5.1 7.1 8.8 15.7 13.6 22.7-1.6 5.9-2.3 13.5-2.4 20.1-1.7-2.6-2.5-5.5-6.2-4.3-6.8 1.1 2.5 12.1 10 22.1 6 7.4 6.6 8.4 12.9 20.3 5.8 11.4 7.2 10.8 6.7 21.1-12.1-12.3-13.3-13-28.1-34.2-8-9.9-9.6-18.2-15.6-13.5 0 .8 1.8 3.5 13.6 20.7 5.2 5.8 30.2 53 33.9 65.3-12.2-10-19.1-24-26.6-35.8-6.8-9.2-9-13.1-12.9-20.7-1.2.1-4.5.2-5 .7-1 1 11.6 23.7 19.4 34.7 14 23.7 23.9 58.6 21.6 75.2-11.6-16.3-22.9-41.4-27-59.5-3-10.1-1.6-16.7-9.8-14.4.1 6.5.7 8.5 4.7 19.9 6.3 11.9 10.2 77.5 6.4 91.3-11.9-27.2-16.7-64.4-19.9-97.1-1.2.1-3.5.2-4.7.3-.4 27.6-1.5 53.3-8.2 72.9-4.6-11.5-2.4-14.6-2.1-39.4 1.4-37.7 1.9-36.4 3.2-52.8-1.1-.8-5.9-.8-6.2 2.2-5.1 15.4-7 20.6-12.5 47-3.6 17-4.1 17.5-3.6 4.3.8-24.5 5-65.1 9.1-87.9-2.3.3-5.3-.5-5.9 2.1-6.8 16-19.8 63.8-23.8 82.7-2.8-18.7 9.3-83.2 14-100.7 1-3.1.7-3.7-1.8-3.3-2.5.4-2.9.7-3.6 3.1-9.3 19.8-19.3 53.7-25.7 78-4.8 7.4-1.8-19.6-1.1-26.3 2.5-21.4 10.3-62.2 13.3-70.8-1.2-.3-5.2-.3-5.7 1.6-6.3 16.3-17.5 55.1-27.1 65.1-.2-18.3 2.7-48 5-71.4 9.7-2.1 12.1-28.9 16.3-44.8.4 6.2 0 12.2 8.1 11 2.8-.4 3.2-1.7 7.9-30.5l3.6-21.8c1 4.1.7 11.7 5.6 12.6 2.9.6 4.7.3 5.1-1 5.2 24.5 5 65.7 15.3 93.6 3.2-.6 5.4.6 3.8-3.9-5.9-22.6-9.2-53.5-12.2-74.1-1.6-5.7-1.1-18.3-.5-28.4 4.8.1 13.9-7.4 20.3-13.1-8.7 16.4-17.4 36.8-15.6 47.7 17 1.4 44.2-37.3 51.3-49.7.4.1-.6 2.9-2 6.3zm876.5-.5c21.4 4.8 51.8 9.5 73.3 15.2 3.5 2 .5 19.7.4 28.5-3.6 28.5-10.8 66.4-15.7 92.9-6.6 3.3-19.8-4-28.6-4.2-27.2-4.7-40.2-9.6-64.7-14.2 1.2-26.2 10.9-65.3 15.5-98.3 2-15.4 2.3-4.2 4.2-8.3 0-.5.2-.8.5-.7 1.7-.4-1.4-2.2-2.2-2.3 4.6-8.9 7.1-11.3 17.3-8.6zm478.1 7.2c.6.8.8 2.8-.8 1.4-2.1-1.5-.5-3 .8-1.4zm-1332.5 4.1c-1 6.6-8.5 36.1-9.5 37.2-.3.4-7.8-8.3-8.5-9.8 1.2-5.3 21.5-36.8 18-27.4zm747.2 2.9 1.9.2c-.5 8.8 2.1 19.2 9.2 23.2 11.3 2.9 44.4 5.4 50.4 8.6 5.6 13.9-25 4.1-40.6 5.4-16.5.4-24.1-4.4-38.2-4.2-20.9-.2-41-7.2-61.2-9.8-1.7-.5-1.7-.5-1.2-2 1.8-7.4 17.8-2.5 26.9-2.5 5 .3 27.6 3.7 28.8-1.4l1.4-1.6v-16.5c4.9.2 20.1.3 22.6.6zm593.1-.4c.3.1.7.1.9 0 .5-.4-1.8-.3-.9 0zm124.9 3.7c1.8 5.8 2.6 18.5 2.8 26.8-2.5.9-5.5 4.7-7.5 7.2-1.3-8 .5-22-8.7-23.2-2.8-1.4 12.9-19.7 13.4-10.8zm20.1 20.7c2.3 4.1 2.4 27.2 2.1 29.6-3.1-2.4-8.3-.8-12.4 1.7 1.2-5 1.9-17.6-.9-22.4-.9-2.3 9.4-16.1 11.2-8.9zm-1503.5 7c2 3.1 4.7 7 6.9 10-1.1 4.1-3.4 12.3-4.5 16.3-2.5-6.1-8.1-16-11.3-20.7 1.2-1.5 5.3-7.7 6.5-9 .1.1 1.2 1.6 2.4 3.4zm990.4-1.2c1.4.8 20.4 1 18.7 2.8-.3.9 3.2 3.4 5.6 4 2.2.6 2-.1 3.2 10.2.3 4.4 3.7 18.8 4.2 22.2-1.2-2-8.7-13.6-10.2-11.4-.7.4-.6.7.9 3.4 3 5.4 4.9 8.8 7.7 15.9 4.5 10.5 8.4 14.9 9.5 27.2.3 3.9.8 4.2 2.9 4.4 1.1.2 2 1 4.3 1 3.4.3 3.4 1.8-.2-11.4l-2.6-9.5c1.7-18.3 2.9-33.4 1.8-45.9-3.2-.8-6.9-3-5.8 2.3.8 9 .8 20.1.1 28.1-1.9-6.9-5.8-20.8-7-26-1.2-5.1-3.5-10.5-4.4-10.5-1.2-1.5-.4-3.7 3-2.7 3.4.5 20.1.7 21.4.3 1.8-2.1 1.4 37.3.9 37.5-1 5.8 1.1 11.7-.8 18.6-.6 3.3-1.4 7.9-1.6 10.2-1.4 12.3-1.7 12.9-5.1 14.5-1.9 1.8-15.9 1.4-18.3 2.7-3.6 1.7-15.5-1-22.9-.9-14.4.9-8.9-5.7-10.2-43.7-.1-35.5-.3-39.6-1.6-40.4 0-6.5 1.5-3.8 6.5-2.9zm5.5 4.4c1.5 6.9 7.9 37.4 7 38.6-.5 2-1.4 1-3 2.8-1.3 1.2-2.4 3.4-5.2 10.1-4.3 10.5-4.6 11.4-3.1 11.9 4.9 1.7 3.3-2.7 6.6-7.8 2.4-4.9 2.9-5.8 2.7-4.4.2 3-5 19.1-3.2 20 2.8 1.7 2.2-.2 3.7-1.9.9-1 1.4-1.2 2.3-1 2.1 1.2 2-7.6 2.8-9.2 2.2 7 1.9 17 9.8 15.2-2.1-7.8-6.2-22.4-7.7-31.9l1-8.4c1.7-13.9 2.4-21.8 2-22.1-.7-.6-3.6-1.4-3.9-1-1 .2-2.1 13.4-3 10.3-2.1-4.5-5.1-22.8-8.1-22.5-.8-.2-.9-.2-.7 1.3zm-373.4 2.7c-.2 2.7-3.1 3.6 3.2 3.9 6.8.8 14.2 2.3 22.6 2.6 17.5 1.7 31.9 5.5 48.8 6.8 7.8 1 20.8 2 27.6 5.8-2.9 4.5-10.5 4.3-4.9 10.4 3.3 2 8.4-5.2 12.1-6.7 3.8-2.4 4-2.9 2-6.1-1.8-3.9-10.1-2.2-10.8-5-.9-1.5-2.5-1.8-9-1.8s-11.9-1.3-18.6-1.6c-17.4-.8-31.3-3.9-49.1-5.8-5.5.2-23.7-3.5-23.9-2.5zm-29.9 2.2c-3.8 1.9-3.6 2.1-2.4 4.1.5.6 7.1-2.2 7.3-3.1.2-.7-1-2.1-1.5-2.7l-3.4 1.7zm307.1.6c-.4.7 1.3.5 1.2 0 0-.7-.9-.5-1.2 0zm-449.3 12c-12.7 6.1-27.6 16.9-39.9 24.1 8.4 8.1 10.5.4 25.3-8.2 3.3-3.1 17.9-9.7 18.4-12.4-.1-.6-.1-1.2.2-1.3 1.6-1.6-2.1-3.6-4-2.2zm713.4 1.9c6.6.9 11.4 10.8 12.4 15.1-8.8 4.7-30-1.6-38.2 1.3-.4-15.3 14.2-19.5 25.8-16.4zM192.4 608.5c-.6 10-1 17.9-1.3 26.2l-1.3-2.5c-2.4-5.7-11-8.6-5.7.5 3.1 4.8 5.8 19.3 4.6 22.8-5.6-2.1-12.1-11.2-16.3-16.9 8.2-2.3 18.5-32.6 20.3-41.5.6-2 0 5.3-.3 11.4zm1207-5.7c4.3 5.9 5.8 10.5 6.2 19.4.3 6.7.3 7-.6 7-.5 0-6.7-1-13.9-2.3-7.2-1.3-13.5-2.3-14.2-2.3-2.2 0-2.5-.5-2.5-4.4.1-4.7-.9-6-3.6-8 8.9-4.3 13.1-11.3 24-10.7 3.4-.2 3.5-.2 4.6 1.3zm-671.8-.3c-1 .2-1.1.4-.8 1.9.8 4.1 2.8 2.3 9.6 3.4 30.3 2 23.1 2.1 36.5 3.7 17.9 1.6 28.8 4 46.5 5.4.9-.3 1-4.7.2-5.2-.9-.6-11.4-2-19.7-2.8-20.4-2.9-49.9-6.9-72.3-6.4zm818.3 6.4c2.5 4.7 1.6 7 4.5 12.6 3.9 7.5.5 4.6-3.2 1-3-3.5-3.2-4.2-3.3-10.7.3-5.8-.8-8 2-2.9zm-1313.8 5.8c6.3 6.4 15 38.6 20.8 47.7 1.2 2 2.2 3.7 2.3 3.8.9.4 5.9-1.5 7.2-2.9-.1-3.7-.9-13.6.2-15.2.7-1.9.8-4.9.8-7 6.8 5.5 9.1 7.3 14.9 17.6 5.5 10.8 17.6 18.6 21.7 29.4 4.9 11.7 16.5 19 22.6 30.4 6.4 9.9 13.2 15.4 19.9 25.1 7.9 11.5 7.6 10.7 13.8 17.4 14 42.5 16.1 85.6 16.1 135.6-1.6 3.1-2.5 12.7-4.3 3.5-7.2-20.9-17-52.1-16.6-70.2-1.2-12.6-1.3-41.3-2.1-53-8.4-1.2-4.3 14.8-4.4 24.9 1.6 9 2.7 82.1.2 91.2-5.7 28.9-23.9-93.7-21.4-106.3-1-15.6.1-21.6-7.8-15.5-.8 1.5-.7 10.9.1 20.6 2.3 29.9 5.1 64.9-1.4 89.4-.6 1.1-.6 1-1.6-1.9-2.2-6.7-3.7-16.1-5.4-35.3-2.3-30.8-8.4-54-7.1-89.5.1-12.1.1-22-.1-22.2-.5-.2-3.3 1.1-4.2 1.5-1.6 40.9-4.2 80.7-14.4 115.9-2.4-3.3-1.1-70.1-.8-80.5.1-32.7 4.5-56-1.7-52.6-5.3-.1-6.9 45.1-8.7 54.1-2.5 25.4-2.9 27.5-5.2 41.1-.2 1.8-4.7-30.8-5.6-40.9-.8-8.9-.8-38.8 0-45.5-.3-4.6 7-32.5 4.1-31.8-5.8 2-2.4.1-8.1 26.9-3.2 18.4-8.4 45.7-11.2 58.8-1.1-22-2.4-52.6 2.7-75.7 2-11.5 2.8-19.4 1.9-19.9-7.4-.1-6.8 8.8-9.4 15.7-3.7 13.2-11.7 45.3-15.3 58.4-1.1 2.8-1.5 1.3-1.5-6.3-.4-9.6 3.7-43.9 6.5-62.5 2-.3 5.6-.7 7.4-2.5 3-28.5.8-47-9.7-78.2 1.7 1.9 2.7 3.3 4.8 6.4zm1121.3-4.6c11 1.9 12.3 2.4 12.3 4.9-1.7 7-6.2 8.9-14.7 10.6-13.1 4.3-61.3 4.1-72.6 2.3-6.2-1.8-8.3.4-8.1-5-.6-3 2.6-5.6 4.6-6.1.4-1.1 2.1-2 8.8-3.3 26.3-6.5 6.3-2 19.4 2.1 2.6.9 3.5 1 5.9.7 2.3-.7 23.5-.2 36.1 0 1-.6 2.9-1.9 3.9-2.6-.2-1.2-.5-3.5-.6-4.7 1.6.4 3 .8 5 1.1zm-874 8.7c-.7 1.2 1 1.4.6 0-.2-.4-.3-.4-.6 0zm1082.9 8.2c1.4 4.3.7 12.5-2 16.3-.2-5.3-.8-11.3-2.4-16 1.7-1.2 3.6-3.1 4.4-.3zm-666.2 1.9c-.3.8 1.5 3.7 3.2 5.4 4.2 6.3-3.6 6.8-10.9 7-4.3 0-5.5.1-5.7.7 1.9 6.4 29.8 6 22.2-5.1-1.6-2-7.9-10.5-8.8-8zm471.4 4.6.1 5.3c-6.6 8.9-65.7 6.3-82.5 3.7-12.4-1.6-13.1-1.8-13.5-3-.2-1.1-2.5-10.6-.3-9.9 3.1 1 19 4.5 31 3.7 20-.1 46.4 2.1 61.9-3.9 5.1-1.9 2.7-1.6 3.3 4.1zm283.6.7c-4.2 6.7 1 13 2.3 18.5-3.2 1.3-3.6 36.1.8 36.2 1.3 1.4 3.4 1.8 4.4.9 1.7-1.6-.6 8.5 1.7 8.5 6.9 3.5 19.9-11.5 22.6-16.5 2.2-3.2 1.6-13.1-1.6-13.8l-1.9-1c-4.7 2.9-8.3 7.5-11.8 14.3-2.9 5.8-3.7 9.2-2.3 10.3 1 .8 1.7.3 1.7-1.4 0-1.6 3-7.7 5.9-12 2.3-3.5 6.5-7.8 7-7.2 1 4.6-.2 9.3-4.5 13.8-2.7 2.9-8.4 7.6-12.1 9.8.3-8.6 2-21.6-.8-29.4-1.4-4.3-1.5-4.7-1.5-12.4-.7-12.8 1.3-17.6-8.1-20.1-.7.1-1.3.5-1.8 1.5zm-536.8 4.7c2.8 3.9 9.8 11.9 15.3 17.7-7 2.4-11.2 2.3-18.9 5.2-5.9 2.4-5.6 2.9-3.9-5.5.8-3.8 3.4-18.2 4.5-21.1.1 0 1.5 1.7 3 3.7zm542.9 6.2c.2 6.2.2 6.5-.5 5.5-3-4.2-3.5-11-1.1-15.2 1.3 2.8 1.3 4.1 1.6 9.7zm-819.4-6.9c.7 6.9 13.4 5.5 22.8 6.3 4.9 0 5.9-1.4 3-4.2-1.5-1.5-1.7-1.5-4-1.1-3.8.6-18.1-.1-19-1-1-.9-2.1-.9-2.8 0zM216 654.5c.4 3 13.8 31.9 11.2 31.8-6.3 5.8-13.6 53.1-18.7 58.3-2.2-11.1 5-41.7 5.5-55.2 1.2-7.7 0-5.5-4-5.8-1.8 6.3-3.4 12.1-5.3 19.8-2.1 8.4-3.6 12.7-5.3 14.8-2.3.6.6-21.9.9-24.4-.5-2.2 7.2-4.5 7.8-6.4 2-3.5 3.5-13.4 4.6-31.6.9-10.9-.4-11.5 3.3-1.3zm436.9.4c27.7 0 25.7.5 40.1 1.6 2.6 0 2.9-.1 2.9-1 0-.8.2-.9 1-.7 3.3.8 22.4 2.7 23.8 2.4 11 .6 17.5 13.5 15.8 24.1-5.9 4.5-11.7 3.1-17.4.3-3.5-2.6-7.4-3.5-20.9-4.7-13.9-1.5-53.8 2-69.3.7-.5.5-3.1.8-8.6 1.2-13.5.9-13 1-14.8-1.2-.9-1-1.5-2.2-1.3-2.6.2-.8-1.8-2.8-2.9-2.8-6.1-7.7 9.5-16.7 15.4-18.7 10.3 1 12.2 1.4 36.2 1.4zm-461.5 6.9c.3 3.3.2 6.1 0 8.9-1.6-3.1-4.7-9.2-6.3-12.3 1.2-.1 5.2-.3 5.7-.4.2 0 .5 1.7.6 3.8zm1465.5 10.1c-.1 6.9-.3 12.6-.5 12.8-1.9 2.7-1.2-30.5.2-26.1.2.5.3 5.6.3 13.3zM601 677.8c4.7 4 3.6 2.4-2.1 3.6-9.2 1-21.9-.9-30.9-.8v-4c4.9 1.3 9.9.6 20.9-.8 8.3-1.1 8.5-1.1 12.1 2zm107.1 4.2c5.8 3.3-3.7 37.1-3.6 48.2-2.2 17.5.9 38.6-4 54.7-6.9-3.7-7.9-6.1-17.8-6-16.4-.2-32.3 3.7-48.2 4.1-14.3 4-54.4-.2-73 1.5 3.2-29.7 6.7-56.2 7.1-86.6.1-12.7.2-14.3.8-14.1 11.2 1 28 3.5 39.8 1.2 2.3-.5 18.4-2 18.7-1.7.4.7-2.2 12.2-.5 11.8.5.3 1.4.8 1.9.9 1.4.3 1.4.3-2.5 10.4-5.2 13.1-8.2 29.2-10.2 42-1.3 9.7-1.3 10.2-.4 11.2 7.1 7 9.7-3.1 15.5-14 4.3-7.3 6.7-35.2 7.9-49.2.5-.8-1.1-3.1-1-4 0-1-1.9-2.5-2.3-1.8-3 .7-1.8-5.1-1.7-7.4 17.1-.6 64.5-2.9 73.5-1.2zm40.9 1.1c.3 9.2 22.8 12.9 30.4 19.7 1.2 1.2 3.2 1 3.5 2.6.8 2.2 7.2 6.2 7.9 8.9 4.9 9 5.6 25.7 9 37.1 2 13.8 6.6 29.7 7.3 46 .4 9.2.6 10.9 1.6 13.7 2.6 9.8 3.9 23.2 6.3 32.8 4.6 7.2 2.8 23.8 4.9 34.1 3.2 15.4 5.1 37.1 6.3 49.1 1.2 1.3 6.1-.2 6.1-1.8 0-6.4-3.1-33.5-5.4-46.7-2-10.5-.3-26-4.1-34.2-1.2-3.2-1.7-5.3-2.1-9.7-1.2-7.9-2.8-16.3-4.1-23.6-.9-.2-.8-23-.8-28.4-4.5-22-8.5-44.1-15.9-65.2-3-6.2-13.9-14.3-19.7-19.1-8.8-5.5-23.5-14.3-31.2-15.3zm-546.3.9c-.3.9-.4-1.3 0-.9.1.2.1.6 0 .9zm1257.9.4c-.1.5 1.1.7.7 0-.3-.5-.6-.7-.7 0zm-1273 7c3 1.7 7.7-2.8 7.5.2.3 4-1.5 17.5-1.4 21.5-3.4-6.8-10.1-20.4-13.5-27.2 1.9 1.7 5.5 5.1 7.4 5.5zm530.8-2.5c5.2 24-1.4 43.8-4.6 67.3-6.7 37.2-5.3 37.4-12.1 42.7 8.4-11 8.4-31.6 8.2-46.5-1.1-17.6 2.5-32 4.9-48.5 1.2-5.9 1.7-14.4 1-16.9-.8-2.7 2 .5 2.6 1.9zm793.5 15c3.7 4.7 3.5 8.6 8.4 9.8 1.1 0 1.1.1-.7 2.5-1.2 1.6-3.2 6.1-4.3 9.9-1.5.6-9.2-3.9-9.9-1.3-.9.9-.9.9-2.1-1.5-3.3-4.1-2.9-25.6-2-32.1 3.5 3.7 7.7 8.3 10.6 12.7zm56.1-9.7c-1.9 1.1-9.5 15.4-12.2 22.9-1.2.7-4.2-8.6-7.4-7.6-3 5.9 1.1 25.6 7.1 28.5-3 2.7-17.5 24.3-11.5 25.3 2.4-4.8 6.7-15.1 10.7-19.2.1 1.9-8.5 17.2-4.8 16.6 5.1 3.6 19.2-16.5 18.2-22.8.6-5.4-3.2-5.3-6.8-4.7-.9.3-1 .1-1.3-1.6-.3-1.9-.3-2 3.1-5.5 4.2-4.4 7.9-9.9 11.1-16.5 4.9-7.4 3.2-18.1-6.2-15.4zm-809.5 1.1c.3.8.6 1 .6 0 .1-.8-.9-.9-.6 0zm813.8 5c-.7 5.6-7.9 17.9-13.9 23.9-.5-2.1 15.1-39 13.9-23.9zm-951.1-2.5c-9.7 13-22 28.2-33.9 40.1 1.9 1.9 4.4 3.7 6.9 4.1 5.8-5.3 18.8-20.8 25.1-29 3.1-4.2 7.2-10.9 7.2-11.9-.2-1.4-3.9-3.3-5.3-3.3zm13.3 10.1c-2.5 20.2-4.8 32-11.9 42.6-.2-7.6 8-41.6 12.7-50.6 0 0-.3 3.6-.8 8zm-390.4-6.2c-.3.9-.4-1.3 0-.9.1.2.1.6 0 .9zm-1.5 8.3c-4.3 21.6-3.3 59.2-1.6 80.6-4.2-8.4-10.4-18-14.6-25.7 6-13.7 11.9-45.6 17.2-62.1.1 0-.3 3.3-1 7.2zm675.7 2.5c19.9 3.2 26 6.3 49.5 8.1 8.4.5 29.8 7 36.5 7.3 10.2 1.4 26.5 6.9 31.2 7 21.7 5.2 42.6 6.2 63.9 11.6 15.5 4 24.9 4 39.3 7.7.3 18.4 2.5 25 2.9 48.8.5 23.9-.3 33.3-.7 54.6-25.5-5.5-51.2-13.1-76.5-14.5-14.3-.8-20.9-3.4-34.5-5.5-15.2-1.8-24.2-6.6-37.5-9.3-25.4-4.7-59.1-11.2-84.2-17.1-4-.6-3.7.5-2.7-10.3 1.5-9.2 0-89-2.2-90.5 4.8.2 8.8.8 15 2.1zm-696.5 6.8c-.3.9-.4-1.3 0-.9.1.2.1.6 0 .9zm1332 6.2-.2 2.8c-1.1-2.9-1.6-6.9-1.8-10.2 1.2 2.5 2.3 4.5 2 7.4zm126-3.3c-4.6 1.4-5.9 3.7-4.8 8.5-16.4-2.8-15.5 14.9-8.8 26 1.8 3.3 1.8 3.4.7 3.2-3.4-1.4 1.4 10.5 1.8 13.1.3.8.3.8-.9.1-4.7-2.3-8.7 1.3-7.7 6.5-1.6-2.8-5.8-8.2-9.2-8-1.5.2-1.5.2-4.3-5.5-24.6-39.6-16.4 10.2-9.5 43.3.1 1.7-7.1-11.6-8.7-8.9-.6 1.1.9 12.3 2.2 17 .2.8-.8 0-3.4-2.5-4.3-4.2-8.9-7.6-11.3-8.4-1.6-.5-2-1.1-6.4-9.7-4.5-8.9-6.4-11.4-7.8-10.8-1.3-.1-2.3 12.8-2.4 17-3.7-2.9-20.5-15.5-20.3-13.7-.8 1.8-.7 6.3 1 8.2 3.4 5.3 9.9 9.7 16.8 11.4 3 .7 3.1.8 3.1 2.2 0 3.3 1 4.5 1.9 2.5.3-2.7 7.7 6.5 7.9 7.3.8 1.7 1.8 3.3 2.7 4.7-2.4 0-8.9-1-9.2.9-4.1 6.6 3.8 14.1 9.4 17.4-10.2 0 2.8 9.6 6.5 12.1 4.2 3.1 12.3 9.3 14.2 12.6-3.7-.3-10.5-5.1-10.9.7-5.7-4.4-21.3-15.3-23.3-13.4-6.3 1-4.7 11.4-2.7 15.8-3.3-1.9-14.6-7.2-14.1-5.5-3.5 2.5 4.7 18.7 11.9 25.5-11.5-4.2-12.4.1-10.4 11.6-6-5.7-19.7-15.9-21.5-15.8-1.9-1.1-2.5 7.9-2.7 11-2.7-1.4-7-4.3-9.4-3.4-.5 6.7 1.1 16.8 2.9 22.4 0 0-2-.4-4.3-1-5.4-1.4-10-1.5-11.2-.2-4 5 4 12.6-3.6 8.6-12.2-5.2-17.2-6.5-17.9-4.4-1 3 3.1 10.1 7.6 13.2 3.1 2.7 3.4 8 8.7 8.2 2.9-.9-4.1-2.6.5-2.8 3.5 0 1.1-2.6-4.4-5-3.6-1.5-6.5-6.1-7.1-10.4 4.2.5 17.9 6.5 21.9 9.1 1.6 1 6 3.7 7.3 2.6 2.4-1.2-7.9-5.8-7.4-7.8-.6-3-2.8-8.6 2.9-7.3 6.5-.3 13 5.5 17.3 6.1.9-.6.3-1.6-1.9-3.4-4.7-2.9-5.9-16.6-5.6-23.2 3.5 1.3 9.7 9.2 13.1 10.4 9.1 3-2.2-5.9-3.5-7.6-.6-.8.1-10.7 1.1-9.9 3.1 1.7 16 12.7 18.4 18.5 2.8 8.3 14.9 13 7.7 3.2-3-4-4.6-14.5-3.1-19.2.3-2.1 14.7 5.3 16.3 4.8 1.1-1.5-1-1.8-3.5-4.2-7.2-5.8-15.7-16.7-15-25 1 0 13.7 6.7 15.6 8.3 17.3 11 9.4 1.3.4-3.9-2.3-1.2-3.6-4.2-3.6-8.3 0-10.7 7-5.9 14.1-.9 8.9 6.5 8.7 6.3 8.7 7.9 0 2.5 6.8 8.8 8.4 7.8 3.2-3-12-14.4 2.7-9.4 15.9 6.5-8.5-14.6-11.2-15.9-2.8-2-4-2.2-.2-2.5 4.7-1 8.2-2.2 3.4-8.2-2.9-3.9-23.9-4.1-18-15.5l4.4.2c2.7-2.1 24.9 12.9 13.9 1.7-5.8-5.7-13-4.2-13.1-15.2-1.5-12.5 9.3-5.1 19.5 7 6.4 7.1 8.4 8.8 9.4 7.8-1.8-4-6.5-8.2-7.1-14.2-1.7-7.4-1.7-7.4 1-3.1 3.1 4.4 6.9 10.2 8.7 8.4-2.6-9.9-8.9-40-10.3-50.2-2-23.4 2.7-22.1 11-1.1 3.6 9.3-.4 15.1 2.1 24.8 2.3 11.2 7.2 20.8 10 19.7 1.9-9.4-2.4-25.8-4.4-33.8-1.2-4.5-2.1-6.2.7-7.4 6.4 6.4 8.6 21.7 10.9 32.5 1.1 6.3.7 6.6 3.9 7.6.4-.1.5-2.2.5-6.3 0-6 0-6.1 1-6.3 2.7-.1-1.7-4.2-.1-8.2 8.7 11.2 5 14.9 6.8 25.8 4.2-8.6.8-20-6.5-27-3.1-3.2-3.5-3.8-4.1-6.5-4.8-23.8 15.1 5 9.9-8.6-.6-1.3-5.4-13.4-3.1-11.9 7.5 3.1-11.7-22.2-2-28.7 1.8-1.4 7.1-1.4 8.4 0 1.1 1.4 5 3.5 3.5 0-2.3-3.7-4.1-8.2-.1-9.5 1.5-.6 1.7-.6 3 .5 1.2 1 1.5 1.1 2.3.5 4.3-3.3-3.7-8.5-8-6.6zm-115.7 15.3c-.2 4-5.7 12.5-7.6 14.5.1-1.6 2.8-8.1 2.9-10.4.5-3.2.7-3.5 2.4-4.8 2-1.3 2.7-2.2 2.3.7zm-811.2 8.3c-4.9 12.9-16.8 22.7-29.2 32.2 6.2-9.6 12.7-17.8 21.4-26.7 5.4-4.8 10.3-12.1 7.8-5.5zm232.6 24.8c-4.6 2.5-15.5 2.4-15.9 8.7 3.9 8.1 7.3 7.5 23.8 9.6 16.1 1.4 25.8 5.2 40.5 6.3 3.8 1.2 15-4.2 19-5.1 6-.8 2.9-5.3 1.3-7.8.1-1.1-14.7 4.7-19 6.4l-5.6-.5c-20.4-1.5-19.8-4.3-38.6-5.4-7.8-.6-11.4-1-16.2-2.2 2.4-3.4 21.3-5.2 13.7-11-.1-.1-1.5.4-3 1zm-251.2 8.8c-5.4 2.6-7.7 3.6-7.7 3.2 2.8-1.9 21.1-9.8 7.7-3.2zm-37.3 7c6.4 1.7-1.6 9.9-6.3 13.8-4.2 3.2-6.5.5-13.9 1.9-29.1 3.2-73.3 3.2-103.2 3.8-.2.1-1.6-.4-3.1-1.2-3.3-2.3-6.9-1.5-7.9-6.1-1.7-5.4-2.4-10.3-1.5-10.8 10.6 1.2 45.6 2.4 47.3 3 14.5 1.4 44.2-3 60-4.2 6-.5 23.4-2.8 28.6-.2zm912.9 15.3c3.7 6.5-1.4 1.3-1.5 9.3-1.3-1.1-3.8-3.4-5-4.5.7-13.3-1.1-20.2 6.5-4.8zm42.2-1.6c-.2 1-1.3-5.1-1.2-6.8.4-1.2 1.5 7.3 1.2 6.8zm-60.3-.6c13 9.4 7.8 6.6-2 4.2-4.9-2-8.7-6.6-6.8-10.5.2-.1 4.2 2.8 8.8 6.3zm-892.2 1.7c.2 0-3.2 3.4-3.3 2.9 0-.2.7-1 1.5-1.7 1.5-1.3 1.8-1.5 1.8-1.2zM98.9 804c-10.9 7.8-17.2 26.4-23.7 38.5-8.8 13.7-20.4 39-20.8 48.9-.2 2.7-.7 2.6 7 1.7 4.6-.5 6-1.1 8.5-3.1 1.3-1.1 1.5-1.1 1.2-.4-4.3 13.7-5.2 21.6-4.2 33.8 3.4 8.2 16.9-12.9 24-23.1-2.7 7.6-14.8 28.5-10.2 30.8 4.3 1.3 15.8-15.5 22.7-23.4.2-.3-.9 2.4-2.6 5.8-7.4 16-15.2 34.5 1.8 20.2 4.4-3.4 5.4-5.3 3.1.3-2 4.3-1.8 5 2.2 3.1 6.5-11.5 6.7-15.2 19.9-29.6 5.8-6.8 12.7-18.2 11.4-19-6.2 0-6.4 2.2-15.2 14-12.7 17.9-17.3 24-25.7 30.2 3.8-14.9 18.6-40.8 28.1-57.4-.2-.5-.7-.5-2.7.1-4.5 1.3-3.4 2-7.4 7.3-6.2 9.6-33 46.9-29.3 37 3.3-10.5 17.8-36.9 25.6-51-6.2-1.3-6.6 3-13.6 13.1-7.5 10.9-18.7 26.7-26.6 37.3-1.5-11.4 3.1-33.5 10-46 9.5-16.3 23.9-41.1 8-27-9.9 8.8-14.2 43.6-31 45.2 2.3-14.8 8.2-27 18-43.9 9.9-16.5 10.2-24.4 23.4-40.3 2.7-3.8 2.2-4.5-1.9-3.1zm593.8 2c-28.9 7.4-67 12.5-98 12.9-4 .3-4.3.2-4.5-.7 1-2.2-12.6-2.3-16.2-2.5-1-1.3-8.6-9.1-5.7-7.5 12.4 3.5 18.1.9 43.4 1.4 39.8-.5 43.6-1.1 73-4.2-.7.1 12.7-.8 8 .6zm914.9 8.3c0 2.4-2.7-2.9-2.8-3.3.1-.7 2.8 2.5 2.8 3.3zm-700 3.3c.3 1.7 2.9 2.5 4.4 1.5 1.2-.8-3.4.7-3.7-1-.4-.5-.7-.8-.7-.5zm-142.8 27.2c-.5 1.2-1.7 4.9-2.6 8.3-2.1 19.1-32.1 34.7-24.7 36.1 10.2 2.5 26.9-18.9 30-25.6 2.4-5 4.7-19.2 3.3-20.1-.5-.3-4-.7-5.1-.8l-.9 2.1zm855 4.4c-.7.3-4.6-.1-1.3-.2 1.3 0 1.9.1 1.3.2zm-1103.4 5.7c-16.9 9.7-32 5.8-54.2 8.5-15.2 2.2-57.7 9.3-77.3 11.6-1 0-1.1.2-1.1 1.5 0 2.8.3 2.8 5.6 2.2 20.1-3.3 34.7-4.2 56.7-8.3 16.5-3.4 29.7-4.8 45.5-5.2 10.1 0 18.9-1.9 25-5.3 6.1-3.3 5.6-7.5-.2-5zM970 873.5c-1.5 1.3-18.6 7.1-15.7 8.7.3 1.4 1.5 3.2 2.8 4.4 16.6 8 48.8 12.9 68 16.2 4.1-2.1 17.2-9.1 16.6-10.1.4-.9-.6-4.1-1.5-5-.9-2.2-15 7.3-17.7 8.5-13.1-2-24.2-3.8-38.3-6.7-7.9-1.4-23.8-4.2-22.8-6.4 3.7-2.4 14.2-4.6 11.3-9.1-.6-1.7-.7-1.7-2.7-.5zm-649.9 14c-21.7 3.4-44.1 5-65.5 10-3 .2-3.4.5-2 1.6 2 1.6 3.7 1.6 11.8-.4 16.9-3.4 32-5.3 50.2-7 12-.9 14.6-1.9 11-4.1-2.6-1.7-1.8-.8-5.5-.1zM1632.3 898c-3.1 4-2 11.5 2.8 18.7 1 1.5 1 1.6.2 1.2-13.2-3.3-16.4 4.9-13.5 16.5.8 1.8.4 3.3 1.3 4.4.4.2.3.4-.1.7-.9.5-.2 1.1 2.5 2 4 1.8.7-1.9 3.5-.4 6 3.1 27.9 2.8 28.4-.5 1-.9-7.9-10.1-10-13.9 2 .9 8.2 6.7 10.4 5.7.1-.1.3-2 .5-4.2s.4-4 .5-4c1.5.9 7 3.5 7.9 2.8 1.5-1.7 1.1-11.4 4-11.4 4.6 1.4 6.2 2.2 4.8-.2-2.7-3.2 1.8-16.2 8.2-13.6 1.6.6 13.9 12 7.9 3.9-9.1-10.8-21.7-9.9-22.4 4.1 0 2.3 0 2.3-1.2 1.9-4.8-3.3-5.8 6.4-7 11-9.3-5.7-7-3.4-9.2 3.8-2.7-7.3-8.9-34.4-19.5-28.5zm6.5 4.9c2 2.7 10.6 23.7 4.6 18.8-10.9-6.9-9.4-28.6-4.6-18.8zm-833 7.2c-.7.3-.8 1.1-.2 1.1.6-.1 1.6-2.1.2-1.1zm-667 6.3c-2.7 2.2-3.8.3-5.3 6.3-2.7 8.3-5.8 13.2-9.5 15.2-4.8 2.5-8.2 7.7-.6 3.5 3.7-2.3 8.1-4.9 10.7-8.9.8-1.1.8-.8.5 6.2-.4 9.3-.2 7.6 3.9 6.3.2-4.3.6-11.1 1.3-14.8 0-1.9 3.4-17.8-1-13.8zm1499.8 5.3c4.8 3.4 10.1 11.7 14.6 16.3-6.4 1.2-22.4 1.7-24.1.8-1-1.2 2.7-2.2-1.6-3-1.9-.4-2.2-1.2-2.2-6.6-.9-8.7 7.4-10 13.3-7.5z" fill="currentColor"></path><path d="M541.3 258.8c.6 8.8-.9 13.4-3.5 17.8-3.3-2-6.5-2.1-10.5-4.5-5.3-2.7-18.5-10.1-8 .4-4.4-2-9.4-3-.8 1.1 3.9 1.9 14 5.3 17.4 7.2-.9 3.3-10.5 7.7-12.2 6.4-4.3-7.8-2.9-2-.3 1.8.8.8 1.4.8 6.2.2 5.6-1.3 8.5-.7 11.1-7.2 9.6-13.1-.3-45.6.6-23.2zm42.4 3.9c-2.6.3-7.6 1.9-10 1.6-1 0-18.5-1.8-9.6 2l2.4 1.2c-7.8 3.9-2.8.4-7.2-2.3-2.2-1-2.6-.6-1.7 1.6 1.6 5-2.9 16.4-6.1 18.9-3.9 4.8-12.6 8.9-17.6 9.4-2.2 0-1.7.7 1.6 2.3.6.3-.6-1.2.2-.7-3.1 12.5-4.2 25.1 3.4 40.5-2.1-2-3.8-3.7-6.2-6.5-12.5-12-10.5-2.6 1.1 8.9 7.8 8.7 9.3 10.8 11.7 15.9 2 4.2 2.5 5 4.4 6.2 6.3 3.4 2.5.1 2.6-3.3 3 4 6.1 1.3 8.9 6.7 2.2 6.6 15.4 11.2 9.3 4.4-5.9-6.9-11.8-31.9-16.4-36.6-.2 1.4 6.9 21.1 6.5 22.1-3.2-5.5-7.8-17.7-10.5-26.3-3.2-10.4-3.8-12.1-5.2-12.6-2.3-.9-2.5-.7-2.5 3.3-.4 3.9 3.4 16.6 5.4 23.1-8.3-6.3-13.2-27.5-11-39.8.5-4 1.4-5.5 1.4-2.4-.1 2.4 1.1 2.7.6.1-1-6.1 3.4 5.2 6.4 11.3 2.6 6.2 7.8 11.7 11.6 19.9 2.4 6.2 9.5 14.7 13.9 21.4 2.6 4.9 10.5 10.8 11.1 6.3-.3-1.1-.2-1.1.8-.9 2.8.7 1.5-2.6-2.3-5.5-3-2.7-8.5-9.1-9.4-12.5 3.4 0 2.5-1.3-1.4-7.2-3.3-4.6-7-10.9-6.5-10.9 1.8 2 5.6 7.3 8.8 6.8 3 .5 1.4-1.9.3-3.4 1.8 1 7.6 1.8 8 .9-1.5-.9-4.2-1.1-6.3-3-4.8-3.5-4.9-3.4 3.2-3.2 23.6 1.9-7.2-8.9-6.2-10.6 5.2 1.4 8.8 1.7 15 2.2 7.4 1.1 6.6 0 3.9-2.8 2.6 0 12.6 2.9 13 1 0-.6.2-.7 1.4-.3 1.9.5 4.9.5 4.9 0 0-1.5-5.1-3.7-11.4-4.9-4.6-.4-16.6-7.3-20.9-9.7-2-1.3-17-8.5-18.8-9.4.3-1.1 1.8-4.7 2-6.2.2-1.5.5-1.9 1-1.8 5.1 2.1 47.7 12.3 49.6 18.8 1.9 2.8 3.5 4.3 5.5 5.1 3.7 1.6 2.7-1.9-1.8-6.1-5.5-6.3-24.3-12.6-37.9-16 21.4-1.7 32.2 0 47.3 10.9 1.8 2.3 4.9 5.1 7.1 4.2.2 1.2 3.6 4.7 6.3 4.3 3.5-1.3-.9-13.6-2.3-15.2-2.2-4.3-19.1-18.7-16.6-12.2-10.6-7.3-23.4-11.3-34.8-9zm19.5 2.8c4.4 1 14.7 7.2 15.8 8.7-9.8-1-19.2-7.9-33.1-8.5-2.6-.3-2.7-.4-1.2-.7 2.9-.5 16.2-.9 18.5.5zm-16.3 3.7c12.3 2.6 29.6 4.6 35.5 17-24.4-15.7-41.5-8.2-61.2-11.1-.1-.3-.1-6.1 1.4-4.4.8.4 1.9.2 5-1 4.8-2.4 13.8-.8 19.3-.5zm35.3 7.7c4.1.6 8.1 8.6 7.9 13.9-2.8-5.2-7.8-11-12.9-14.7 1.5.2 3.4.6 5 .8zm-45.9 2.3c-.2.2-.6.2-.9 0-.9-.3 1.3-.4.9 0zm-17.8 10c5.1 3.1 30.1 15 28.3 15-.5.5-2.5.3-3.8-.3-3-1.5-7.2-1.3-5 .4 1.7.9-3.7 1.3-4.5 1.5-4.3-3.6-8.6-11.8-14.1-13-9.7-3.9 5.8 12.5 9.3 14.5-1.2.1-7-.6-6.5.5-.8.5 18.5 10.4 18.3 10.5-.1.5-11.6-.1-15.1-.8-4.6-7.5-11.4-19.1-15.7-24.3 1.5-.7 5.3-4.4 6.5-5.4.2-.1 1.2.6 2.3 1.4zm444.5 4.6c-27.5 2-34.5-.3-60.5 1.3-20.8.6-59 3.4-68.3 1.9-6.8-.1-15.7-1.9-9.9 2.4 2.2 1.4 3.3 1.6 15.8 2.3 16.2 1.5 81.2-3.5 103.4-2.9 5.5-.4 23.2-3 26.9-2.1.5.8.6 11 .7 13.6-15.7 2-34.9.1-47.6 1.3-14.2.5-45.6 1.5-66.4 1.6-.9-1-3.4-4.4-3.5-1.4 0 1.1.2 1-14.7 1.2-5.6.1-10.6.1-11.1.2-2.2.6-2.1-7.7-2.6-10.1 0-2.1-.5-2.7-2.4-3.2-3.2-.6-.9 10.1-1 18.6.8 14.6 1 27.4.6 27.8-.1.1-1.8 0-3.7-.2-2.9-.3-36-1.5-43.2-1.6-3.8.2-4.4 2.4-2.9 6.5.8 2.2.8 3.6.4 18.8-.6 33.3 1.5 25.5 1 71-1.5 7.6 7.8 5 13.1 6.6 20.3 2.3 41.3 4.1 62.2 5.1 16.1-.6 21.9 3.5 35.4 1.2 0-7.4-3.3-34.6-.5-36.2 22.5 2.3 84.5.7 98.7 1.5-.2-3.3-.6-6.3-1.5-10.3-1.4-1.2-1.1-31.5-1.1-40-.9-5.9-2.6-17.8-3.5-23.7 0-9.3.1-48.6-.4-50.9-.9-.5-7-.7-13.4-.3zm-456.9 3.8c-.4.4 12.3 25.7 12 26.1-3.9-3-14-26-18.9-26.5 0-.3 4.4-1.7 5.8-1.8.3-.2.8.9 1.1 2.2zm337.3 7.6c-1.2 1.2 6.6 5.4 5 1.4-.1-1.3-5.1-3-5-1.4zm-7.2.3c-2.1 1.2 6.4 4.3 4.7 1.6-1.1-1.1-3.9-2.1-4.7-1.6zm-5.5 1c0 .6 3.4 2.6 4.3 2.6 2.1-1-5-4.3-4.3-2.6zm-276.9.5c.8.6.6.6-1.2.4-6.7-.9-.4-1.5 1.2-.4zm-9.7 1.5c1.3 1.1 1.6 1.6.9 1.4-.7-.2-9.9-1.2-7.6-2.3 1.7-.4 4.6-1.6 6.7.9zm28.3 5c.2 1.7-16.6 3.9-12 5.4 11.7 2.2 23.4-11.4 12-5.4zm19.9 3.1c-5.8 3.3-11.1 5.2-2.7 8.3 2.5-1.9 6.3-4.6 9-5.6 2.3-.9 2.8-1.3 2.9-2.3-.7-4.4-5.3-2.5-9.2-.4zm345.7-1.7h7c1.6 6.4.8 17.7 3 24.5-3.4-.5-6.1-.5-12.1-.5-8.8.1-8.7.1-8.7-3.2-.1-20.1-10.8-22.1 10.8-20.8zm34 17.3c.3 18.7 4.2 31.9 4 48.6 0 14.6-1.9 21.1.6 35.9-7-.8-14.8-1.8-22.4-1.5-2.1-13-2.9-45.1-3.1-59.3-.8-11.6-.8-11.8.2-12.1 1.2-.4 1.2-1-.3-2.9-3-3.6-2.7-15.8-3.7-21.8-.4-2-.7-3.6-.6-3.7.1-.1 5.5-.3 12-.4 6.5-.1 11.9-.4 12.1-.5.4-.4.5.5 1.2 17.7zM882.9 316c5.1.4 7.6.5 10.8 0-.1 4.7-.5 12.2.4 15.7 2.1 15.1 1.4 32.7 3.1 48.1 1.6 5.4-1.5 31.9 5.4 32.4.1-.1 0-3.6-.3-7.8-.7-10.8-.9-9.8 1.4-9 5.2 1.8 10.7 4.9 12.6 7.1 2.4 2.9 6.1 9.4 3.5 12-1.6.4-6.9.3-9.6-.2-9.5-1-19-2-29.4-2.3-10 0-10.5-.1-10.9-2.3-3.7-15.9-.7-68.8-3.5-94.3 5.3 0 10.8.1 16.5.6zm74.3-.5 4.2.3c3.8 31.3-3.1 26.1 25.7 27.8 1.4-.1 1.2 5.4 1.4 6.3-.1 18 .5 43.9 1.1 49.8 1.2 10.6 1.6 15.3 1.3 15.6-16.1.8-47.6 1.6-64.1.2-4.9-14.2-12.3-17.3-25.1-23.9-1.8-16.8-1.2-41.4-3.8-57.5-1.3-4-.5-12-.3-17.4 19.1.5 41.2-1.7 59.6-1.2zm-409 2.5c.6 1.9 1.3 2.8.9 1.2 0-1-1.4-3.3-.9-1.2zm1.2 2.9c0 .1 2 5.1 1.2 2-.3-1.2-1.2-2.8-1.2-2zm443.5.4c.2 2.4 15.2 2.6 16.9 2.5.3-4.3-14.3-2.9-16.9-2.5zm-358.3 2.2c-1.1 1.5-12.3 6.4-8.7 7.9 3.5 4 6.6-1.3 6.8.8-.1.8 2.1 1.1.3 1.6-4.4 1.6 5.4 5.4 5.8 3.1 0-.4-.5-.8-1-1-1-.3-1-.3-.1-.7.8-.3 1.1-1 1.6-4.8.5-3.5.8-4.6 1.5-5 .7-.4.8-.6.3-1.2-2-1.8-4.2-2.9-6.5-.7zm-48.1-.4c-2.6 1.1 2.6 3.4 3.5 2.1 2.4-1.9 9.5 3.4 1.1 2.1-7.3-1-9.6 4.2-5.8 9.6.9 3.1 4.3 7 8.1 6.4.5-.2.4-.6-.7-2-2-2.4-1-2.4-2.6-5.1-5.4-8.6 10.8-9.5 6.5-2.9-6.7 10.5 7.1 14.1 3 8.8-1.6-1.6-.6-5.8.5-7.4 2.2-2.5-.3-4.7-1.1-7 0-3.8-10.5-6-12.5-4.6zm297.7.5c-1.1.7-14.9-.6-11.9 1.8.8.6 16.2 1 16.8.4.2-3.1-1.7-2.7-4.9-2.2zm31.7 1.4c-1.4 1-12.9-1.8-9.5 2.4 1.6 5.6-1.1 16.9 8.3 15.6 4.8-.2 10.5-1.2 10.8-2-.5-5.7-.3-18.9-9.6-16zm79.5 1.9c-.8.5 3.3 2.1 6.2 2.4 8.3.8 8.4.8 8.4.1 0-.4-.6-1.1-1.3-1.6.1-1-12.6-1.4-13.3-.9zm-55.2.4c-.7.4-.3 2.1-1 2.3-.6 0-1.9 2.5-1.9 3.7.5 2.7 6.7 8.3 9.5 4.6 4.5-3.1-1.9-13.1-6.6-10.6zm-57.4 2.8c-3.6.3-18.8.2-6.7 3.5 2.5.3 15.9-.5 16.3-.9-1.3-3.6-.9-3.3-9.6-2.6zm40 7.9c0 1.2-.1 1.2-2.9 1.6-4.7.5-7.7.5-8.3-.1-.7-.7-.9-6.8-1-8.6 3.7.5 7.8.6 11.1-.6.3 1.9 1.1 6.4 1.1 7.7zm20-5.6c2.2.3.6 3.4-1.4 2.7-2.6.5-2.1-5.2-.5-3.5.5.5 1.4.8 1.9.8zm53.6 1.4c-1.8.8 15.1 4.4 8.7.5-.6-1-8-1.4-8.7-.5zm-123 5.8c-2.5 2.9 15.4 7.3 11 1.9-1-1.7-9.2-1.9-11-1.9zm121.5.9c-.3.8.4 1.4 2.1 2.1 3.6 1.1-.7-4.7-2.1-2.1zm5.3.2c0 1.1 1.7 2.4 3.1 2.4 3.5 0-3.3-5.4-3.1-2.4zm5.1-.4c0 2.2 6.8 4.5 3 .5-1.3-1-3-1.3-3-.5zm-454.2 8.1c1.9 3.8 1.4 3.6-1.5-.9-1.6-2.5-2-3.3-1.6-3.8 1.4-.8 1.8 2.9 3.1 4.7zm444.7-2.7c-1.2 1.2.7 3.4 2.9 3.4 2.8-.3-2-5-2.9-3.4zm4.8 1.1c0 .9 1.3 2 3.1 2.6 3.7.6-3-6-3.1-2.6zm6.1 0c0 1 1.7 2.4 2.9 2.4 3-.7-2.8-5.3-2.9-2.4zm-421.5.2c1.4 7.7 10.3 10.6 16.5 9.9 2-1.3 5.8-6.5 1.7-8.1-2.2-1.1-2.5-1.8-3.3.8-1.4 4.6-4 5.1-8.2 4-.3-.3-6.9-10.2-6.7-6.6zm365.4.1c-9.3.9-22.7 3.2-31.9 3.3-1.1-1.1-1.5.8-1.1 5.5 1.7 11.2-2.3 32.8 4.8 39 10.9.4 22.7-.9 32.5-2.1.7-.2.9.9 1.6 9 .2 4 1.3 4.7 3.3 7.1 5.9.8 24.6 2.4 24.4.2-1.7-9.3-19.4-21.2-27.5-27v-7.7c4.5-.4 8.8-.6 14.3-.5 9.4.6 6.5-1.2 4.2-5.4-5.7.1-14.6.1-18.9 1-1.2-11.1 1.3-25.7-5.7-22.4zm-357.1.9c-2.3 3.3 4.1 5.5 5.5 2.2 1.1-2.7-4.4-2.6-5.5-2.2zm231.8.2c9.8.8 34.5 1.4 36.4 2 0 6.2.1 18.7.2 24.9-1.5 0-5.9.1-6.3-.8-.5-.6-.7-.6-2.2.1-1.1.5-1.7.6-1.7.3-1-.9-1.6 2.1-.2 2.8.9.9 3-1.1 3.6.5 1.7 2.3 4.3-1.1 7.3.1-.1.8.2 6.6-.4 6-.4-1-3.7.6-4.4-.1-2.6-1.4-2.8 3.1-.5 2.5.4-.1.6 0 .6.2.1 1.3 3.1.7 4.2.1-.4 3.9 1.6 7.9-3.5 7.7-1.8.2-2.5.1-2.5-.3.2-.9-4.1.4-4.2-.4-.5-.8-3.8-.1-3.8.8 0 1.4 1.2 2.5 2.4 2.2 1.7-.4 1.8 1 3.7.2 1.1-.4 1.7-.4 2.5.2.7 1 4.7-.1 5.4.5 1 17.6-1.1 15.7 19.8 16.9 15.7.5 23.2 2.4 37.6 2.8-1 4.5-.6 26.1-.7 34.5-17.7-1.6-71.3-3.6-98.9-8.1-2-24.2-1.1-29.4-1.7-58.9-.6-27.6-.5-35.1.7-36.6.5-.7.5-.7 6.6-.1zm-198.7.8c-.3.7-7.8 5.8-6.6 6.8 1.9 5.5 8.9-5.1 9-6.3-.2-.6-1.8-1.6-2.4-.5zm246.1.8c1.1 2.4 16.1 2.6 17.4 2.5.3-.4-1.3-2.5-1.8-3.1-2.4 0-16.3-.3-15.6.6zm80.7 14.4.3 5.5c-3.9-1.2-13.9 1.2-18 .6-2.4-.3-2.7-.2-2.7.6 2.1 6.1 15.8 2.4 20.8 3.4.3 4.5.6 10.4 1.2 14.2-7.3.9-26.8 4.9-32.5.9-1.1-5.3-.3-20.7-1.3-27.5-1-6.1-1.4-9.8-.9-9.1 5.8 1.1 31.5-2.6 31.3-2.5.5-.4 1.4 7.1 1.8 13.9zm-314.1-12.8c-1.3 1.3 2.3 3.4 3.2 1.9 2.7-1.5-2.2-2.9-3.2-1.9zm189.5.7c-3.1 2 6.6 6.7 5 1.9-.4-1.3-4.2-2.7-5-1.9zm8.9.6c-1.7 2.4 4.5 4.3 5.3 2.9 1.4-2.5-5.1-4.4-5.3-2.9zm-17.5.2c-.8 1.2 3.1 4.6 5.2 4.6 2.7-1 2.4-3.3-1.9-4.4-2.7-.8-2.9-.9-3.3-.2zm185.7.4c-2.6 1.7 6.6 5.2 3.4 1.9-.4-.3-.6-.8-.4-1 0-.8-2.8-1.7-3-.9zm-9.8 1.3c-.3.9 1.4 2.5 2.7 2.5 2.3-.8-2.1-5-2.7-2.5zm5 .2c0 1.1 1.5 2.2 3.1 2.2 1.6.4-.4-2.2-.5-2.6-.5-.1-3.1-1.3-2.6.4zm-119.4 1.9c-10.4-.1-12 3.6-4.5 4.3.9-.1 4.5-.3 7.9-.4 8.8-.4 8.8-.4 8-2-2.8-4.4-5.3-1.7-11.4-1.9zm-255.2 5.4c.7 3.5 12.2 7.8 12.3 5.4 0-.4-2-1.7-5.3-3.3-5.4-2.5-6.5-2.9-7-2.1zm375 .3c-.1.5-8.2-.3-6.8 1.3-2.2 2.6 17.1 2.3 18.7 1.9.3-.4-.9-2.7-1.2-3.4-2.1 0-10.1-.1-10.7.2zm-161.5.9c-.9.8-1.7 0-1.9.7.2 2.3 1.6 2 3.1 3.3 1 .9 1.1.9 2.4.3 1.9-1.1 2.5.5 4.5 0 2.5-.5 7.3-.6 7.6-.2.5.5 3.3.1 3.9.5 1.2.5 2-.4 1.7-1.7-.3-1-.5-1.2-1.5-.9-1.8.6-1.1-1.6-2.9-1-1.3.5-2-.9-3.2-.5-1.5.1-3.7-1.8-5.2-.5-1 .8-6 .8-6.3 0-.4-.8-.7-.8-2.2 0zm165.1 6.7c-4.1 1-.9 2.8 1.1 2.9 5 .3 1.8-4.7-1.1-2.9zm-7.4.7c-5.8 2.4 2 3.2 3.6 2.1.8-.6.8-.7.1-1.9-1-1.5-.8-1.5-3.7-.2zm-165.6 3.4c-.4 1.4-2.5-.7-3.3-.1-.8.5-.6 2.8.4 3.8.8 1.4 3.1-.4 4 .3.5 1.5 4.8-1.2 5.7-.6.4 1 6.4.5 4.1-1.9-.6-1-1-1.1-1.7-.8-3.1 1.6-2-1.3-5 .1-3 2-2.2-3.4-4.2-.8zm-1.7 1.1c.4.7-.8.5-.7 0 .1-.7.4-.5.7 0zM622 376.7c-.5 2.4 5 6.1 6.1 5.1 1.6-1.4-5.8-10.1-6.1-5.1zm383.4-.2c-1.5 1.2 3.8 3.4 3.6 1.8 0-1.7-2.1-2.7-3.6-1.8zm-7.7.9c-2.1.5 1 3 2.4 2.2 3.2-.5.2-3.4-2.4-2.2zm-172.9 5.1c-.6.9 1.5 3.7 1.7 1.6 0-.5.2-1 .5-1 .9-.7-2.1-2.2-2.2-.6zm16.2 1c-2.6 1.3-1.2-.9-4.2.2-2.9 1.2-2.9-1.6-5.3.6-1.4 2-4.5-.5-3 2 .9 1.7 2.1 2.1 3.8 1.3 2.7-1.4 7.3.4 10-.4.8-.3 2.1-.6 2.9-.6 4.5-.6-2.1-5.1-4.2-3.1zm-239.3 1.2c-.6 3 0 13 4.7 12.3.7-2.9.5-10.8-2.4-12.1-1.4-1.1-1.9-1.1-2.3-.2zm363.1 5.7c6.8 5.2 10.4 9.1 16.1 14.9-4.8.8-15.2-.2-19.6-.8-1.7-3.5-2.7-14.8-4.2-20.4 2.5 1.8 4.4 3.3 7.7 6.3zm31.4-6c-.7 1.2 3.2 2.1 13.6 3.1 4.5.8 2.6-1.3 1.5-3.6-2.8.1-14.2 0-15.1.5zm-168.9 9.2c-2.2 1.2-1.7.6-2.9.2-2 .3 1.5 4.8 3.2 3.2 2.1-1.5 3.4 3.3 5.6 1.3.8-.4 2.1-.6 2.7-.5 1.7.4 1.9-1.5 3.7-.9 3.5.3 6.9-1.9 1.5-1.7-2.5 0-4.4-.7-5.3-2-.1-.7-4.5 2.2-4.6 1.7 0-.5-1.2-1.9-1.6-2.4l-2.3 1.1zm11 14.4c-2.4 1-3 1.1-4.2.7-4.1-1.7-3.9 6.8 6.5 1.9l1.1 1c.5 2.1 6-1.4 6.6-.1 1.1 1 4.4-.5 6.3-.2 2 0 2.3-.2 2.5-1 .2-1.5-1-2.8-2-2.2-1.4.7-3.7-.6-5.2.1-1.1.3-1.5.3-1.7-.2-.2-.5-.6-.5-2.5 0-2.1.6-2.3.6-2.9-.2-.8-1.2-1.1-1.2-4.5.2zm73.4 11.9c-.2 3.7-1.9 24 3.7 26.5.8-.1 1-32-3.7-26.5zm-67.7.2c-.4.4-3 .6-10.1.8-6.2.2-6.2.2-5 2.6.5 2.2 13.2-.7 13.2.6.5.4 3.9-.7 3.9-1.2-.2-.5-1.3-4-2-2.8zm11.8 2.5c-2.7 4.8 12.2 4 4.1.5-1.4-.4-2.3-1.6-4.1-.5zm35.7.7c-1.9 1.2.1 3.9 1.5 4 .5 0 .9.2.9.5 0 .5 1.4.6 2.5.2 1.7-.7.2-4.4-1.9-4.4-1.6-.1-.8-1.9-3-.3zm-22.5.6c-.8.2-.9.5-.6 1.3-.4 3.2 11.1 1.6 12.8 2.5 2.5 1.6 4.6-3.3.8-3.3-1.8-.3-.6-1.2-3.5-.7-4.9.6-7.3.6-7.6.2-.3-.4-.4-.4-1.9 0zm-19 7.6c-2.6.6-3.3-.3-5.9.6-1.9.6-2.3.6-2.9-.1-2-1.6-10.4.4-5.8 3.6.3 0 .4-.2.2-.5-.3-.5.5-.6 3.5-.5 3 .3 3.3 1.8 6.8.4 1-.4 1.3-.4 1.6.1-.1 1.2 7.9-1.1 7.9.2 1.6 1.6 4.9-.4 7.1.6 1.3 1.2 4.2-.9 5 .7 1 1.9 3.7-.1 5 .4.8.8 1.7.7 1.2-1.2-.5-4.8-3.6-1.1-5.1-2.4 0-1.1-.8-1.5-2.1-1.1-5.5 2.2-3.1-1.2-7.9.1-4.8 1.2-3.6-2.2-8.6-.9zm31.6 3.7c-.2.7-2-.3-2.1.4 0 2 1.7 2 2.5 3.1.4 1.1 3 .2 3.7 1.1.9.7 2.2.4 2.2-.6-.1-1.1-1.9-1.5-2.1-2.6-.2-.7-.6-.9-1.2-.7-1.3.3-1.7-2.3-3-.7zm14.4 1.5c-.1.2-.7.4-1.4.4-2.6.5-.4 4.1 3 3.1 3.9-.6 2.2 1.7 6.1.4 2.1-.6 1-2 .9-3.1-.1-.5-3.7-.3-3.9-.7-.4-.6-4.4-.6-4.7-.1zm39 4.5c-.7 1.6.8 3.5.6 8.4.5 9.3 1 13.5 1.7 14 3 4.4 1.4-16.3 1.8-19.4 2 .2 10 .6 10.6.9-3 0-5.7 3.9-4 7.6 1.8 3.4-9.7 8.5-4.1 13.2-1.4-.6-5.9-2.7-6-1.4 12.9 9.9 21.8 6.7 54 7.3 35-1.4 30.6 2.2 49.3.4.7-.7.9-3.2 1.5-15.6 2.1-14.1-10-10.4-18.2-11-27-.3-64.6-4.9-87.2-4.4zm26.3 4.9c6.9.4 6.2-.7 6.4 9.9.1 5.4.4 9.7.7 10.4 1 1.9-.8 1.5-1 .1-.2-.6-1.6-2.5-3.1-4.2-2.8-3.1-4.3-3.6-7.3-4.6 4.7-5.7 0-11.1-5.9-12.3 3.2.3 6.5.5 10.2.7zm33.4 2.4c2.5.9 5.7 0 7 1.4.5 1.2.3 13.7-.1 13.7-2.3-.2-8.8-4.2-7.5-7 4.2-10.9-22.1-9.6-10.7 1.5-1.6 1.6-8.4 8.5-9.1 8.6-.3-1-1.7-16.5-1.6-19.5 5.4.1 18.6.5 22 1.3zm-40.2 1c2.4 3.2-.5 5.5-2.7 7.9 1.4.9 3.4 2.1 5 2.3 2.6.4 8.5 5.7 8.5 7.7-3.4 1.1-17.2-.4-22.4-1.1 2-1.5 2.5-5 4.7-6.3 2-1.1 1.1-1.1 2.6-2.8 1.1-1.3 1.2-1.5.5-2.5-2.1-3.4 0-10.5 3.8-5.2zm69.5.7 11.1-.1c0 5.8-.1 13.5.6 18.3-1.5-1.1-5.6-4.2-6.7-4.5-.8-.3-.9-.4-.2-1.6 3.2-6-4.6-14.2-10.9-8.8-5.2 3.2-2.1 4.2.1 6.8 2.2 2-7.4.9-10.9 8.4-.4-24.4-9.8-18 16.9-18.5zm-33.1 2.6c-2.4 4.9-.2 8.5 8 11.3 3.3 1 2.6.9 4.2 2.7 4.6 2.8-18.7.7-21.7 1.2 1.6-1.6 7.1-6.8 7.2-7.8-1.8-3.2-6.5-8.2.6-8.7 1.5 0 1.7.1 1.7 1.3zm33.9 1.9c2.4 13.5-8.5.6 7.6 15.5-6.5-.1-13.8-1.7-19.7-2-2.6 0-2.8-.1-2.2-.8 5.2-6.5 15.9-2.5 9.7-8.3-2.1-1.9-2.1-2.3.9-4.2 2.1-1.3 3.1-1.4 3.7-.2zm5.3 85.9c-.7.3-.8 1.5-.1 1.5.6 0 .4 1.2-1.1 9.2l-1 5.3c2.8 2.8 13.4 4.6 17.3 5 .1-4.9.9-12.8 1.9-16.5-3.3-1.7-13.4-4.5-17-4.5zm-711 4.2c-.2.6-.2.7.4.2 1.6-1.2 0-1.3-.4-.2zm718.6.4c2.3 1 7.4-.3 6.5 2-.6 2.5-1.1 10.1-1.7 12.6-2.2-.7-8.2-2.7-9.5-2.7-1.3 0-1.3-.5-.2-3.9.4-.7.9-8 1.2-8.7 0 0 1.7.3 3.7.7zM1060 556c-4.7 2.3-1.6 3.7-5.3 7-2.6 2.1-3.8 7.3-3.7 10.1.6 2.4-4.9-1.3-5.6 5-.7 4 3.1 2.3 2 7-2.5 16.9 3.5 26 17.9 27-.3 2.1.5 4.3 1.9 5.9-3.4 3.2-17.4 4.8-19.8-.3-1.8-2.2-.1-1.6 0-2.9.5-1.3 5.3-6.1 4.4-7.1-.1-.1-.9-.7-1.8-1.3-2.1-1.5-2.8-1.3-2.8.9 0 2.1-1.7 5.1-2.4 4.3-2.1-1.6-5.8 1.2-9.1 1.5-5.5.2-22.3 12-22.9 17.8 1.4 2.2 7.1-4.8 9.1-5.6 7.5-5 14.6-8 22-8.7l3.2 3.2c5.6 7.2 19.2 7.7 24 1.6 7 4.3 15.4 11.3 18 17.3 2 4.1 5.5 7.9 7 7.6 2-6.2-14.1-21.1-19.8-24.9-5.6-3.3-5.6-5.7-6.3-11.5 2.5-3.7 6.9-7.3 7.7-12.3.9-3 1.5-4.3 2.9-5.8 5.5-4.3.4-9.7-1.3-5.8-5.9 6.7-8.6 23.1-19.9 22.6-5.4-.1-7-6.9-9-11.3.2-3.6.5-10.9.7-14.5-1.3-1.3-3.4-2.4-2.6-4.3-.1-2.4 3.7-3.8 4.4-2.2 0 .7 1.7 2.1 2.7 2.1 1.7-1.9-1-3.8 4.9-2.1 3.7 1 2.1.1 3.1-.6.3 0 .5-.3.5-.6 0-1.7-5.4-2.2-7-2 0-1.5 1.2-4.5 2.1-5 .7-.5 1.2-1.4 1.4-2.6.5-4.4 6.6.3 9.9-.2 2.7.1 5.6 1.5 7.5 2 .7 0 .7-.1-.2 4.7-.9 2.4.2 7.9-2 6.5-11.7-4.7-6.8 2.4.1 2.7 8 3.2 5.5 6.2 8-6.3.6-9.9-13.6-22.5-23.9-18.9zm33.7 3.4c-.5.5-1.3.9-2 .9-2.8.1.2 2.5 1.5 3-3.2 19-8.2 35.8-11.8 53.3-.2 1 0 1.3 1.4 2 3.1 1.5 3.4 1.3 4-3.3 1-5.9 2.2-15.7 3.1-21.1.2-.2 2.7.5 6 1.7 7.3 2.8 8.6 3.1 8.6 2-1.6-2.9-13.1-5.6-13.8-5.3-1.5.7 2.1-10.5 1.7-10.8 1.4 0 18.6 4.6 10.2-.4-1.2-1.9-9.7-.7-9.9-2.1.2-.8.9-4.4 1.2-5.8 2.8.1 10.3.4 11.8 1.1 1.7.7 2.2.7 2.2-.2-2.8-3.5-9-4.4-13.6-3.5 1.5-4.8-1.4-8.1 6.6-9.3 2-.8 8.7-1.6 6.6-2.8-.8-.4-2.3-.4-6.2-.1-4.5 1-5.5-.5-7.6.7zm-23.8 1.6c1.8.8 5 1.2 6.4 2.6 2.1 2.7-6.2-2.3-8.1-1.4-11.5-.6-3.1-3.1 1.7-1.2zm-326.2 2.5c-3.2.7 1 6.2 2.9 4 2.6-.9-.6-5.6-2.9-4zm284.1.9c-2.9 2.2-.7 5.1-.1 7.6-6-3.7-4.3.1.4 1.9-.6 4.6-1.8 10.6-3.8 19.5 0 4.1-8.3 20.7-1.8 20.5 1.3 0 1.3 0 1.3-3.1 0-3.7.6-6.5 3.4-17.3 4.9-18.8 4.7-17.9 5.7-18 4.7-2.1 6.1-6.8-.5-9.6-2.9-1.9-3.7-2.1-4.6-1.5zm3.9 5.6c-1.3 1.6-.7-1.9-.2-2.2 1.1-1.1.8 1.8.2 2.2zm-348.9 1c2.2 5.6 6.8 12.1 8.9 18.8 1.4 3.8 2.2 5.1 4 6.9 1.9 2.3 8.3 4.9 5.9.5-.3-.2-2-3.3-3.7-6.9-2.6-4.5-10.7-21.4-15.1-19.3zm374 8.7c-1.9.2-2.1.9-.4 1.8 1.3.5 4.1 3.6 4.6 1.6.2-1.2 1.1-.5 1.5-1.2-.6-1.7-3.4-2.9-5.7-2.2zm8.9.7c-4.6 7.5 3.2 19.3 3 5.4 3.1 2.8 5.2 2.2 6-1.5-.8-1.3-6-1.3-6-3.4.2-1.7-1.1-.4-1.4-1.1-.1-.8-1-.5-1.6.6zm-279.7 1c-2.9 4.4 11.8 14.1 6.3 8.1-2.5-2-4-6-2.4-6 2.6-.2-3.7-4.1-3.9-2.1zm-26.1 5.4c-3.1.2-3.2 5.4-.9 7.1 2.7 3.1 11.8 5.4 4.6.5-8.5-5.6 4.9-5.1 2.3-7.3-.6-.8-3.3-.9-6-.3zm297.5 3.9c0 .7 1.9 1.7 3.1 1.7 2.7-.2-3.7-3.7-3.1-1.7zm-.8 4.5c-2.5 3.1 4.9 7.5 7.3 7.5.5 0 1.6-2.6 1.6-3.7.5-2-9.4-6-8.9-3.8zm-211.5 12c0 1.5 5.6 5.8 6.4 4.9 1.4-1-6.1-8.1-6.4-4.9zm12.6 3.8c-2.9.3-3.4.9-1.8 2.5 3.1 2.3 12.4.8 16.9 3.6 8.3 3.1 13.4 5.4 12.6 5.7-1 .4-.9 2.2.3 4.1 1.1 1.6 7.3 6.1 7.9 5.7 2.6-.5-6.6-7.2-3.5-6.7 1.5-.2 5.8 3.7 6.5 1.6.3-1-3.5-5.2-5.7-6.3-1.9-1-2.1-1.1-1.3-1.7 1.1-.8 1.6-.7 3 .3 4.8 3.5-1-4.5-2.5-4.9-1.4-1.5-4.1 1-4.9 1.9-.4.6-.6.6-1.7 0-8.8-3.6-22-7.1-25.8-5.8zm-9.3 5.4c0 1.5 4.4 5.8 6 5.8 2.7-1.2-6-7.8-6-5.8zm-169.8 15c-1.3 4.1 4.4 11.8 7.7 9.1 3-.8-7.6-13.6-7.7-9.1zm196.7 5.2c-5 3.1 13.4 16 6.6 7.6-2.1-2-6.7-4.6-2.2-5.8 2.2-.2-3.3-3.4-4.4-1.8z" fill="#1E1919"></path></g></svg>