    <svg xmlns="http://www.w3.org/2000/svg" xml:space="preserve" width="483px" height="527px" version="1.1"
        style="shape-rendering:geometricPrecision; text-rendering:geometricPrecision; image-rendering:optimizeQuality; fill-rule:evenodd; clip-rule:evenodd"
        viewBox="0 0 20.67 22.53" xmlns:xlink="http://www.w3.org/1999/xlink">
        <defs>
            <style type="text/css">
                .str0 {
                    stroke: #212227;
                    stroke-width: 0.2;
                    stroke-miterlimit: 22.9256
                }

                .fil0 {
                    fill: none
                }
            </style>
        </defs>
        <path class="fil0 str0"
            d="M10.71 5.38l5.88 5.88c0.45,0.45 0.59,1.08 0.44,1.65l0.17 0.16 1.2 1.2 0 2.41 -5.75 5.75 -2.41 0 -1.2 -1.21 -0.61 0.61 -8.29 -8.29 2.41 -2.41 8.29 8.29 -0.6 0.6 0.6 0.6 1.21 0 4.54 -4.54 0 -1.21 -0.6 -0.6 -0.16 -0.16c-0.57,0.15 -1.2,0 -1.64,-0.44l-5.89 -5.88c-0.66,-0.66 -0.66,-1.75 0,-2.41 0.66,-0.66 1.75,-0.66 2.41,0z" />
        <path class="fil0 str0"
            d="M14.19 1.91l5.88 5.88c0.66,0.66 0.66,1.74 0,2.4 -0.66,0.67 -1.74,0.67 -2.41,0l-5.88 -5.88c-0.44,-0.44 -0.59,-1.07 -0.44,-1.64l-0.16 -0.16 -0.61 -0.6 -1.2 0 -4.55 4.54 0 1.2 0.61 0.61 0.16 0.16c0.57,-0.15 1.2,-0.01 1.64,0.44l5.89 5.88c0.66,0.66 0.66,1.74 0,2.41 -0.67,0.66 -1.75,0.66 -2.41,0l-5.89 -5.89c-0.44,-0.44 -0.59,-1.07 -0.44,-1.64l-0.16 -0.16 -1.2 -1.2 0 -2.41 5.75 -5.75 2.41 0 1.2 1.2 0.16 0.17c0.57,-0.15 1.2,-0.01 1.65,0.44z" />
    </svg>
