<?xml version="1.0" encoding="UTF-8"?>
<!DOCTYPE svg PUBLIC "-//W3C//DTD SVG 1.1//EN" "http://www.w3.org/Graphics/SVG/1.1/DTD/svg11.dtd">
<!-- Creator: CorelDRAW 2020 (64-Bit) -->
<svg xmlns="http://www.w3.org/2000/svg" xml:space="preserve" width="33mm" height="16.4999mm" version="1.1" style="shape-rendering:geometricPrecision; text-rendering:geometricPrecision; image-rendering:optimizeQuality; fill-rule:evenodd; clip-rule:evenodd"
viewBox="0 0 467.94 233.97"
 xmlns:xlink="http://www.w3.org/1999/xlink"
 xmlns:xodm="http://www.corel.com/coreldraw/odm/2003">
 <defs>
  <style type="text/css">
   <![CDATA[
    .fil2 {fill:#00A5F3}
    .fil1 {fill:#139537}
    .fil3 {fill:#212227}
    .fil4 {fill:#6C6D73}
    .fil0 {fill:#FF411C}
   ]]>
  </style>
 </defs>
 <g id="Слой_x0020_1">
  <metadata id="CorelCorpID_0Corel-Layer"/>
  <g id="_2282941619152">
   <path class="fil0" d="M12.74 144.58c0,0 -11.41,-86.88 53.73,-109.66 65.15,-22.81 144.11,27.77 144.11,27.77 0,-0 -118.17,-99.79 -185.3,-47.55 -48.27,37.54 -12.54,129.45 -12.54,129.45z"/>
   <path class="fil1" d="M150.25 47.63c0,0 57.76,21.85 52.02,74.81 -6.17,56.76 -71.4,79.4 -71.4,79.4 0,-0 83.7,-15.19 99.3,-79.34 15.62,-64.19 -79.93,-74.88 -79.93,-74.88z"/>
   <path class="fil2" d="M24.72 94.78c0,0 -10.36,74.98 50.75,105.06 52.39,25.83 94.13,-5.75 94.13,-5.75 0,0 -46.2,50.41 -90.64,37.88 -22.5,-6.34 -34.33,-20.37 -40.09,-28.95 -32.24,-47.76 -14.16,-108.24 -14.16,-108.24z"/>
   <path class="fil3" d="M65.27 118.39l6.41 -14.42 2.56 14.42 -8.96 0zm16.26 -21.59l-18.15 0 -17.77 39.2 11.7 0 4.71 -10.33 13.41 0 2.21 10.5 11.27 0 -7.39 -39.37z"/>
   <path class="fil3" d="M176.56 102.51l0.9 -5.9c0,0 -6.93,-0.69 -12.54,-0.78 -5.53,-0.07 -11.28,0.16 -15.15,2.15 0,0 -4.07,1.68 -6.11,7.08 -2.07,5.38 -2.98,11.31 -3.26,14.33 -0.32,3.04 -0.69,9.93 1.56,12.65 2.26,2.71 4.55,3.58 9.57,4.23 6.72,0.91 20.42,-1.23 20.42,-1.23l0.81 -5.51c0,0 -6.85,0.5 -8.98,0.52 -2.14,0.05 -7.27,0.3 -9.21,-1.27 -1.9,-1.57 -1.7,-6.4 -1.04,-10.74l1.47 -9.23c0,0 1.21,-6.4 7.31,-6.4 7.01,-0 14.25,0.11 14.25,0.11z"/>
   <path class="fil3" d="M98.22 110.73l12.09 0 -2.65 18.56 5.85 0c0,0 2.57,0.18 4.36,-0.86 1.82,-1.03 2.27,-4.94 2.27,-4.94l2.07 -15.08c0,0 -0.08,-3.49 -1.1,-4.5 -1.07,-1 -3.5,-0.92 -3.5,-0.92l-18.42 -0 0.86 -6.57 16.56 0c0,0 5.73,0.23 8.05,0.5 2.29,0.27 5.23,1.46 6.51,2.58 1.13,1 3.86,3.72 3.12,10.82 0,-0 -0.86,13.33 -3.76,18.23 0,0 -3.04,5.67 -8.93,6.76 -5.68,1.05 -9.52,0.93 -9.52,0.93l-17.32 0 3.45 -25.51z"/>
   <path class="fil4" d="M362.59 130.75c0,-0.02 0,-0.03 0.02,-0.06 0.33,0 0.73,0 1.11,0 0.88,0 1.53,-0.42 2.05,-1.03 0.7,-0.8 1.1,-1.78 1.31,-2.79 0.32,-1.18 0.48,-2.38 0.7,-3.59 0.18,-1.3 0.29,-2.61 0.46,-3.91 0.06,-0.47 0.06,-0.97 0.08,-1.44 0.05,-0.85 -0.02,-1.67 -0.19,-2.5 -0.09,-0.42 -0.62,-1.02 -1.01,-1.06 -0.61,-0.05 -1.26,-0.09 -1.85,0.03 -0.96,0.23 -1.93,0.56 -2.89,0.86 -0.05,0.01 -0.11,0.04 -0.17,0.06 -0.32,0.11 -0.63,0.22 -0.94,0.35 -0.09,0.03 -0.14,0.16 -0.16,0.23 -0.04,0.39 -0.09,0.76 -0.11,1.13 -0.17,1.3 -0.37,2.62 -0.56,3.95 -0.14,1.04 -0.28,2.06 -0.42,3.11 -0.11,1.02 -0.26,2.02 -0.42,3.04 -0.15,1 -0.31,2.02 -0.43,3.03 -0.03,0.18 0,0.3 0.18,0.3 0.16,-0 0.32,0 0.48,0.01 0.9,0.09 1.85,0.18 2.76,0.27zm1.97 5.71c-0.92,-0.07 -1.84,-0.12 -2.74,-0.18 -0.8,-0.05 -1.54,-0.1 -2.32,-0.17 -0.24,-0.03 -0.51,-0.05 -0.73,-0.07 -0.26,-0.04 -0.39,0.05 -0.44,0.3 -0.15,1.01 -0.3,1.98 -0.43,2.97 -0.15,1.19 -0.27,2.34 -0.41,3.53 -0.1,0.65 -0.23,1.28 -0.32,1.92 -0.04,0.27 -0.07,0.53 -0.07,0.78 0,0.29 -0.1,0.39 -0.4,0.39 -2.01,-0 -4,0 -6,0 -0.68,-0 -1.37,0 -2.09,0 -0.38,-0 -0.41,-0.05 -0.37,-0.45 0.1,-0.6 0.17,-1.2 0.26,-1.8 0.1,-0.82 0.2,-1.63 0.34,-2.43 0.09,-0.64 0.16,-1.26 0.27,-1.91 0.18,-1.31 0.38,-2.61 0.56,-3.92 0.16,-1.09 0.28,-2.18 0.45,-3.28 0.16,-1.27 0.35,-2.52 0.54,-3.79 0.2,-1.47 0.36,-2.94 0.57,-4.38 0.24,-1.62 0.47,-3.24 0.66,-4.88 0.18,-1.13 0.33,-2.29 0.5,-3.44 0.16,-1.19 0.35,-2.38 0.52,-3.59 0.13,-1.07 0.21,-2.13 0.35,-3.2 0.01,-0.08 0.13,-0.21 0.22,-0.22 0.38,-0 0.74,0.04 1.11,0.04 1.85,-0 3.66,0 5.49,0 0.01,-0 0.04,0 0.04,0 0.54,-0.02 0.54,-0.01 0.56,0.48 0.04,0.34 0.07,0.68 0.13,1.03 0.01,0.05 0.16,0.13 0.25,0.13 0.28,-0.05 0.51,-0.12 0.78,-0.19 1.1,-0.39 2.2,-0.82 3.33,-1.16 1.38,-0.43 2.81,-0.66 4.25,-0.57 1.34,0.07 2.62,0.27 3.81,0.85 0.97,0.48 1.78,1.09 2.31,2.01 0.33,0.57 0.72,1.15 0.92,1.78 0.25,0.7 0.39,1.49 0.53,2.22 0.33,2.19 0.2,4.39 -0.12,6.56 -0.23,1.52 -0.48,3.07 -0.75,4.58 -0.19,0.88 -0.51,1.74 -0.76,2.61 -0.26,0.88 -0.61,1.73 -1.05,2.53 -0.49,0.88 -1.07,1.71 -1.83,2.39 -0.78,0.7 -1.62,1.26 -2.59,1.59 -0.99,0.37 -2,0.67 -3.07,0.74 -0.75,0.05 -1.52,0.14 -2.26,0.22z"/>
   <path class="fil4" d="M262.29 120.11c-2.63,0 -5.21,0 -7.78,0 -0.25,-0 -0.5,0.04 -0.72,0.04 -0.18,0.02 -0.2,-0.06 -0.19,-0.23 0.13,-0.7 0.27,-1.42 0.38,-2.12 0.13,-0.91 0.25,-1.8 0.4,-2.7 0.06,-0.4 0.1,-0.42 0.54,-0.42 2.12,0 4.27,0 6.38,0 3.38,0.02 6.74,0.02 10.1,0.02 0.42,0 0.43,-0.02 0.46,-0.49 0.08,-1.28 0.09,-2.54 0.14,-3.84 0.02,-1.03 -0.02,-2.02 -0.3,-2.98 -0.3,-1 -0.73,-1.89 -1.76,-2.43 -0.78,-0.39 -1.59,-0.57 -2.41,-0.55 -1.56,0.02 -3.12,0.05 -4.67,0.11 -1.28,0.06 -2.62,0.19 -3.89,0.33 -1,0.1 -2.03,0.26 -3.05,0.39 -0.73,0.1 -1.46,0.19 -2.19,0.27 -0.12,0.01 -0.29,0.05 -0.44,0.07 -0.28,0.09 -0.36,0.07 -0.36,-0.24 0,-0.55 0,-1.08 0,-1.62 0,-1 0,-1.97 0,-2.94 -0.01,-0.25 0.08,-0.31 0.31,-0.35 0.92,-0.16 1.82,-0.36 2.74,-0.51 0.98,-0.14 1.99,-0.25 2.99,-0.36 0.74,-0.08 1.5,-0.17 2.27,-0.25 0.6,-0.05 1.17,-0.12 1.74,-0.15 1.72,-0.06 3.42,-0.16 5.11,-0.15 1.55,0.04 3.08,0.19 4.61,0.39 0.92,0.1 1.83,0.33 2.68,0.73 0.57,0.23 1.16,0.44 1.67,0.76 0.84,0.54 1.63,1.17 2.17,2.07 0.24,0.45 0.55,0.88 0.75,1.35 0.46,0.98 0.7,2.01 0.9,3.05 0.39,2.08 0.25,4.16 0.23,6.27 -0.06,0.59 -0.15,1.22 -0.23,1.82 -0.06,0.61 -0.08,1.25 -0.17,1.86 -0.18,1.17 -0.37,2.34 -0.58,3.5 -0.24,1.24 -0.49,2.47 -0.79,3.7 -0.19,0.81 -0.47,1.61 -0.8,2.37 -0.41,1.06 -0.84,2.15 -1.36,3.15 -0.58,1.02 -1.3,1.94 -2.1,2.76 -0.61,0.55 -1.2,1.04 -1.86,1.43 -0.78,0.43 -1.6,0.77 -2.4,1.09 -0.62,0.23 -1.25,0.41 -1.92,0.53 -0.75,0.18 -1.51,0.32 -2.25,0.4 -1.27,0.1 -2.52,0.18 -3.79,0.22 -1,0.01 -2.06,-0.08 -3.09,-0.16 -0.98,-0.06 -1.99,-0.18 -2.99,-0.27 -0.75,-0.09 -1.46,-0.2 -2.21,-0.32 -0.96,-0.16 -1.96,-0.32 -2.94,-0.49 -0.96,-0.17 -1.88,-0.39 -2.79,-0.57 -0.09,-0.04 -0.17,-0.1 -0.19,-0.19 -0.01,-0.1 -0.01,-0.25 -0.01,-0.39 0.21,-1.36 0.44,-2.72 0.65,-4.08 0.05,-0.1 0.05,-0.23 0.1,-0.3 0.05,-0.07 0.18,-0.15 0.27,-0.15 0.33,0.06 0.69,0.15 1.04,0.19 1.1,0.16 2.19,0.31 3.31,0.44 1.16,0.14 2.31,0.31 3.48,0.41 1.86,0.17 3.74,0.31 5.64,0.45 0.73,0.06 1.5,-0.05 2.23,-0.18 1.51,-0.27 2.57,-1.17 3.35,-2.44 0.51,-0.9 0.92,-1.85 1.16,-2.87 0.29,-1.19 0.57,-2.38 0.86,-3.57 0.12,-0.51 0.18,-1.01 0.26,-1.52 0.05,-0.26 -0.02,-0.34 -0.3,-0.34 -2.83,-0 -5.62,0 -8.39,0 0,-0 0,0 0,0.01z"/>
   <path class="fil4" d="M425.62 122.39c-0.13,0.17 -0.31,0.32 -0.41,0.49 -0.64,0.95 -1.28,1.92 -1.94,2.88 -0.37,0.54 -0.72,1.09 -1.11,1.63 -0.86,1.31 -1.74,2.62 -2.61,3.9 -0.64,0.97 -1.32,1.94 -1.97,2.91 -0.35,0.51 -0.68,1.04 -1.08,1.52 -0.1,0.11 -0.3,0.21 -0.46,0.21 -2.93,0.02 -5.86,0.02 -8.76,0.02 -0.36,0 -0.43,-0.12 -0.37,-0.44 0.15,-0.93 0.25,-1.87 0.39,-2.8 0.07,-0.61 0.17,-1.19 0.25,-1.78 0.17,-1.04 0.32,-2.05 0.45,-3.09 0.19,-1.53 0.42,-3.06 0.63,-4.61 0.18,-1.4 0.41,-2.76 0.62,-4.16 0.1,-0.83 0.18,-1.68 0.3,-2.51 0.11,-0.67 0.25,-1.35 0.33,-2.03 0.1,-0.96 0.23,-1.9 0.37,-2.86 0.08,-0.57 0.15,-1.1 0.23,-1.67 0.05,-0.29 0.09,-0.57 0.09,-0.86 0.05,-0.31 0.23,-0.35 0.46,-0.35 0.94,0.01 1.84,0.01 2.71,0.01 1.84,0.01 3.61,0.01 5.39,0 0.22,-0 0.31,0.05 0.29,0.28 -0.1,0.69 -0.18,1.38 -0.29,2.06 -0.09,0.59 -0.17,1.2 -0.24,1.82 -0.17,1.25 -0.38,2.52 -0.55,3.78 -0.16,1.13 -0.3,2.27 -0.42,3.4 -0.13,0.82 -0.28,1.66 -0.38,2.47 -0.02,0.19 -0.1,0.34 -0.14,0.48 0,0.05 0.04,0.05 0.05,0.07 0.17,-0.22 0.36,-0.43 0.53,-0.66 0.39,-0.59 0.81,-1.22 1.2,-1.79 0.39,-0.54 0.72,-1.09 1.07,-1.62 1.05,-1.49 2.01,-2.94 3.01,-4.42 0.54,-0.8 1.07,-1.6 1.6,-2.4 0.55,-0.82 1.13,-1.62 1.69,-2.44 0.19,-0.27 0.33,-0.56 0.55,-0.84 0.04,-0.09 0.19,-0.16 0.31,-0.17 0.32,-0.04 0.65,-0.02 1,-0.02 2.55,-0 5.15,0 7.72,-0.01 0.22,0 0.28,0.08 0.23,0.25 -0.04,0.28 -0.09,0.6 -0.14,0.88 -0.15,1.21 -0.33,2.43 -0.5,3.63 -0.17,1.3 -0.36,2.58 -0.55,3.86 -0.15,1.09 -0.27,2.19 -0.47,3.29 -0.18,1.5 -0.4,3.05 -0.6,4.58 -0.08,0.84 -0.2,1.68 -0.34,2.53 -0.16,1.23 -0.33,2.47 -0.51,3.71 -0.16,1.16 -0.33,2.3 -0.49,3.47 0,0.21 -0.08,0.43 -0.08,0.65 -0.01,0.24 -0.14,0.31 -0.34,0.31 -0.5,0 -1.02,0 -1.55,0 -2.08,0 -4.15,0 -6.23,0 -0.09,0 -0.18,0 -0.26,0 -0.34,-0.02 -0.4,-0.1 -0.33,-0.44 0.1,-0.75 0.18,-1.55 0.31,-2.3 0.03,-0.43 0.12,-0.86 0.18,-1.27 0.11,-0.98 0.23,-1.94 0.35,-2.92 0.08,-0.61 0.17,-1.2 0.24,-1.78 0.15,-0.86 0.21,-1.73 0.34,-2.59 0.05,-0.43 0.1,-0.86 0.18,-1.29 0,-0.25 0.07,-0.45 0.11,-0.68 0.04,-0.08 0.04,-0.16 0.04,-0.26 -0.04,0 -0.06,-0.02 -0.08,-0.02z"/>
   <path class="fil4" d="M450.23 119.25l0.04 0c0,0.09 -0,0.17 -0,0.25 0.03,0.6 0.3,1.05 0.82,1.32 0.53,0.21 1.08,0.3 1.63,0.3 1.29,-0.04 2.54,-0.09 3.83,-0.12 0.19,0 0.41,0.02 0.62,0.03 0.12,0.03 0.24,0.03 0.26,-0.16 0.03,-0.25 0.02,-0.52 0.04,-0.77 0.13,-1 0.26,-1.99 0.37,-2.97 0.13,-0.64 0.18,-1.27 0.27,-1.92 0.08,-0.38 0.13,-0.75 0.18,-1.12 0.04,-0.09 0.06,-0.18 0.08,-0.28 -0.08,-0 -0.19,0 -0.29,0 -0.07,-0 -0.12,0.01 -0.18,0.01 -1,0.01 -2.02,0 -3.06,0.02 -0.75,0.04 -1.53,0.04 -2.27,0.15 -1.05,0.14 -1.62,0.75 -1.84,1.78 -0.16,0.63 -0.18,1.28 -0.28,1.91 -0.08,0.52 -0.15,1.06 -0.2,1.57zm6.31 7.09c-0.38,0 -0.75,0 -1.1,0 -1.07,-0 -2.15,0 -3.18,-0.01 -0.29,0 -0.43,0.13 -0.49,0.34 -0.26,0.79 -0.5,1.61 -0.79,2.43 -0.22,0.7 -0.45,1.43 -0.7,2.15 -0.32,0.94 -0.59,1.85 -0.87,2.77 -0.2,0.53 -0.38,1.06 -0.5,1.6 -0.08,0.27 -0.25,0.34 -0.56,0.34 -2.4,0 -4.81,0 -7.19,0 -0.39,0 -0.81,0 -1.2,-0.02 -0.29,0 -0.29,-0.07 -0.22,-0.34 0.31,-0.83 0.6,-1.67 0.9,-2.49 0.14,-0.43 0.3,-0.86 0.46,-1.29 0.24,-0.84 0.55,-1.66 0.81,-2.49 0.18,-0.55 0.4,-1.1 0.58,-1.65 0.33,-0.99 0.69,-1.97 1.02,-2.96 0.14,-0.35 0.04,-0.51 -0.2,-0.75 -0.81,-0.7 -1.39,-1.52 -1.66,-2.55 -0.21,-0.78 -0.19,-1.61 -0.09,-2.44 0.15,-0.9 0.21,-1.83 0.36,-2.71 0.15,-0.74 0.31,-1.46 0.53,-2.14 0.49,-1.49 1.53,-2.6 2.82,-3.46 0.86,-0.56 1.8,-0.99 2.83,-1.23 0.76,-0.17 1.51,-0.35 2.27,-0.48 0.65,-0.1 1.35,-0.16 2.04,-0.16 2.91,-0.06 5.84,-0.09 8.72,-0.12 2.17,-0.02 4.34,0 6.5,-0.01 0.23,-0 0.31,0.07 0.29,0.29 -0.14,1.04 -0.29,2.09 -0.44,3.14 -0.11,1.03 -0.28,2.07 -0.4,3.13 -0.17,1.25 -0.37,2.51 -0.54,3.77 -0.14,0.88 -0.19,1.79 -0.33,2.66 -0.09,0.61 -0.2,1.2 -0.3,1.8 -0.14,0.98 -0.24,1.98 -0.38,2.96 -0.07,0.6 -0.17,1.18 -0.28,1.78 -0.14,0.99 -0.24,1.96 -0.37,2.95 -0.17,1.05 -0.31,2.14 -0.48,3.21 -0.06,0.41 -0.14,0.84 -0.15,1.25 -0.02,0.27 -0.14,0.34 -0.39,0.34 -0.96,0 -1.92,0 -2.91,0 -1.71,0 -3.41,0 -5.13,0 -0.15,0 -0.27,0 -0.4,-0.05 -0.07,-0.03 -0.13,-0.16 -0.13,-0.24 0.1,-0.72 0.19,-1.43 0.29,-2.14 0.18,-1.33 0.37,-2.68 0.56,-4.03 0.13,-1.01 0.26,-2.05 0.38,-3.16z"/>
   <path class="fil4" d="M332.09 119.21l0 0c1.35,0 2.65,0 4,0.01 0.2,0 0.41,-0.01 0.44,-0.3 0.02,-1.02 0.19,-2.03 0,-3.05 -0.24,-1.07 -0.69,-1.91 -1.77,-2.28 -0.41,-0.11 -0.83,-0.2 -1.27,-0.2 -0.64,-0.03 -1.29,-0.06 -1.92,0.07 -0.81,0.18 -1.61,0.51 -2.17,1.21 -0.49,0.62 -0.87,1.34 -1.07,2.09 -0.2,0.69 -0.3,1.42 -0.5,2.11 -0.06,0.27 -0.04,0.35 0.26,0.35 1.34,0 2.67,0 4,0zm3.68 5.15c-2.5,0 -5.01,0 -7.54,0 -0.32,0 -0.62,0.04 -0.91,0 -0.29,-0.01 -0.43,0.09 -0.46,0.38 -0.06,0.93 -0.14,1.88 -0.16,2.82 -0.02,0.42 0,0.87 0.09,1.28 0.18,0.77 0.62,1.34 1.36,1.66 1.35,0.48 2.77,0.44 4.16,0.39 0.9,-0.03 1.79,-0.04 2.67,-0.1 1.19,-0.07 2.38,-0.18 3.53,-0.29 0.87,-0.08 1.73,-0.18 2.58,-0.27 0.41,-0.04 0.81,-0.07 1.23,-0.13 0.23,-0.02 0.3,0.08 0.26,0.31 -0.17,1.23 -0.34,2.45 -0.55,3.68 -0.03,0.3 -0.08,0.61 -0.14,0.88 -0.04,0.09 -0.17,0.21 -0.25,0.24 -0.74,0.13 -1.46,0.24 -2.21,0.34 -1.02,0.15 -2.06,0.27 -3.06,0.4 -0.81,0.09 -1.61,0.18 -2.4,0.22 -1.21,0.07 -2.41,0.16 -3.62,0.16 -1.5,0 -2.99,0 -4.51,-0.12 -1.1,-0.11 -2.17,-0.37 -3.28,-0.59 -1.06,-0.23 -1.99,-0.74 -2.79,-1.42 -0.74,-0.6 -1.24,-1.37 -1.47,-2.3 -0.16,-0.53 -0.32,-1.1 -0.41,-1.66 -0.26,-1.62 -0.25,-3.28 -0.06,-4.9 0.13,-1.06 0.2,-2.12 0.38,-3.18 0.22,-1.53 0.49,-3.05 0.79,-4.56 0.17,-0.8 0.5,-1.57 0.77,-2.35 0.22,-0.86 0.63,-1.62 1.11,-2.34 0.56,-0.82 1.18,-1.61 2.03,-2.2 0.56,-0.39 1.13,-0.74 1.74,-1.02 0.45,-0.2 0.9,-0.39 1.36,-0.52 0.64,-0.19 1.29,-0.4 1.95,-0.53 1.58,-0.3 3.22,-0.45 4.85,-0.41 1.1,0.02 2.21,-0.01 3.3,0.02 0.81,0.03 1.56,0.18 2.34,0.26 1.01,0.11 1.96,0.35 2.85,0.73 0.85,0.34 1.62,0.79 2.29,1.48 0.81,0.87 1.29,1.89 1.51,3.03 0.24,1.34 0.29,2.67 0.17,4.03 -0.12,2.05 -0.33,4.09 -0.67,6.12 -0.06,0.42 -0.06,0.42 -0.52,0.42 -2.76,0 -5.56,0 -8.33,0 0,0.01 0,0.01 0,0.02z"/>
   <path class="fil4" d="M297.41 108.84c-0.1,0.65 -0.17,1.27 -0.26,1.87 -0.09,0.8 -0.19,1.62 -0.34,2.4 -0.17,1.22 -0.34,2.4 -0.49,3.63 -0.12,0.76 -0.23,1.52 -0.34,2.29 -0.04,0.28 0.04,0.39 0.29,0.39 1.6,-0.01 3.17,-0.01 4.77,-0.01 0.61,0 1.21,0 1.83,0 0.19,0.01 0.26,-0.07 0.29,-0.26 0.19,-1.31 0.39,-2.61 0.57,-3.92 0.16,-1.15 0.28,-2.31 0.45,-3.45 0.09,-0.83 0.22,-1.64 0.37,-2.46 0.08,-0.49 0.16,-0.52 0.66,-0.52 2.59,0 5.17,0 7.79,0 0.47,0 0.48,0.05 0.41,0.51 -0.17,1.18 -0.34,2.36 -0.51,3.52 -0.1,0.89 -0.22,1.8 -0.33,2.7 -0.16,1.02 -0.27,2.02 -0.41,3.03 -0.12,0.95 -0.27,1.91 -0.4,2.86 -0.17,1.21 -0.34,2.43 -0.51,3.65 -0.17,1.13 -0.3,2.27 -0.45,3.43 -0.2,1.3 -0.39,2.62 -0.57,3.93 -0.16,1.06 -0.28,2.1 -0.39,3.16 -0.06,0.24 -0.17,0.34 -0.4,0.36 -0.06,0 -0.15,0 -0.23,0 -2.57,0 -5.14,0 -7.67,0 -0.07,0 -0.1,0 -0.19,0 -0.44,-0.02 -0.45,-0.05 -0.39,-0.5 0.1,-0.74 0.18,-1.51 0.3,-2.27 0.13,-0.93 0.3,-1.86 0.42,-2.79 0.13,-0.86 0.21,-1.72 0.32,-2.6 0.14,-0.95 0.29,-1.89 0.42,-2.87 0.07,-0.2 -0.01,-0.25 -0.23,-0.25 -2.1,0.02 -4.2,0.02 -6.28,0.05 -0.61,0 -0.63,0 -0.73,0.58 -0.17,0.84 -0.24,1.71 -0.37,2.57 -0.16,1.06 -0.3,2.15 -0.47,3.22 -0.17,1.47 -0.36,2.96 -0.56,4.42 -0.06,0.42 -0.07,0.44 -0.49,0.44 -2.63,0 -5.31,0 -7.96,0 -0.46,0 -0.49,-0.07 -0.41,-0.51 0.14,-0.94 0.25,-1.88 0.39,-2.82 0.06,-0.58 0.18,-1.13 0.25,-1.73 0.11,-0.95 0.25,-1.93 0.39,-2.89 0.08,-0.57 0.19,-1.14 0.25,-1.71 0.13,-0.94 0.26,-1.89 0.39,-2.86 0.09,-0.62 0.19,-1.21 0.28,-1.84 0.11,-0.83 0.24,-1.68 0.35,-2.53 0.1,-0.75 0.21,-1.48 0.29,-2.21 0.15,-0.94 0.25,-1.91 0.41,-2.86 0.05,-0.5 0.15,-0.99 0.21,-1.48 0.17,-1.13 0.33,-2.25 0.46,-3.37 0.05,-0.28 0.16,-0.34 0.42,-0.34 2.38,0.01 4.73,0.01 7.1,0.02 0.35,0 0.66,-0.01 1.06,0 0.07,0 0.13,0.01 0.26,0.02z"/>
   <path class="fil4" d="M406.15 108.81c-0.05,0.59 -0.15,1.25 -0.23,1.88 -0.12,0.97 -0.29,1.94 -0.43,2.92 -0.03,0.19 0,0.48 -0.13,0.58 -0.08,0.1 -0.38,0.02 -0.59,0.02 -3.61,-0 -7.24,0.02 -10.86,0.02 -0.54,-0 -0.56,0 -0.64,0.5 -0.16,1.16 -0.31,2.29 -0.48,3.42 -0.15,1.15 -0.3,2.29 -0.46,3.44 -0.19,1.37 -0.41,2.73 -0.56,4.11 -0.2,1.45 -0.41,2.92 -0.58,4.37 -0.16,1.17 -0.32,2.36 -0.48,3.54 -0.09,0.65 -0.17,1.28 -0.25,1.89 -0.05,0.4 -0.07,0.44 -0.5,0.44 -2.2,0 -4.4,0 -6.6,0 -0.55,0 -1.1,0 -1.69,0 -0.3,0 -0.37,-0.12 -0.3,-0.4 0.13,-1.16 0.3,-2.32 0.48,-3.5 0.22,-1.48 0.41,-2.95 0.62,-4.46 0.19,-1.33 0.42,-2.67 0.61,-3.97 0.21,-1.51 0.42,-3.02 0.65,-4.54 0.11,-1.13 0.24,-2.27 0.38,-3.41 0.13,-0.91 0.29,-1.79 0.4,-2.68 0.15,-0.84 0.24,-1.67 0.39,-2.51 0.04,-0.47 0.1,-0.91 0.11,-1.34 0.02,-0.29 0.17,-0.35 0.45,-0.35 1.3,0.01 2.66,0.01 4.02,0.01 5.19,0.01 10.39,0.01 15.55,0.01 0.37,0 0.74,0 1.14,0z"/>
  </g>
 </g>
</svg>
