<?xml version="1.0" encoding="UTF-8"?>
<!DOCTYPE svg PUBLIC "-//W3C//DTD SVG 1.1//EN" "http://www.w3.org/Graphics/SVG/1.1/DTD/svg11.dtd">
<!-- Creator: CorelDRAW 2020 (64-Bit) -->
<svg xmlns="http://www.w3.org/2000/svg" xml:space="preserve" width="33mm" height="16.4999mm" version="1.1" style="shape-rendering:geometricPrecision; text-rendering:geometricPrecision; image-rendering:optimizeQuality; fill-rule:evenodd; clip-rule:evenodd"
viewBox="0 0 668.63 334.31"
 xmlns:xlink="http://www.w3.org/1999/xlink"
 xmlns:xodm="http://www.corel.com/coreldraw/odm/2003">
 <defs>
  <style type="text/css">
   <![CDATA[
    .fil0 {fill:#8F8F8F}
   ]]>
  </style>
 </defs>
 <g id="Слой_x0020_1">
  <metadata id="CorelCorpID_0Corel-Layer"/>
  <g id="_2282942016800">
   <path class="fil0" d="M18.2 206.59c0,0 -16.3,-124.14 76.78,-156.7 93.1,-32.6 205.91,39.68 205.91,39.68 0,-0 -168.85,-142.58 -264.78,-67.95 -68.98,53.63 -17.92,184.97 -17.91,184.97z"/>
   <path class="fil0" d="M214.69 68.05c0,0 82.54,31.22 74.33,106.89 -8.81,81.11 -102.02,113.46 -102.02,113.46 0.01,-0 119.59,-21.7 141.89,-113.36 22.32,-91.72 -114.2,-106.99 -114.2,-106.99z"/>
   <path class="fil0" d="M35.33 135.43c0,0 -14.8,107.14 72.52,150.12 74.85,36.9 134.5,-8.22 134.5,-8.22 0,0 -66.01,72.03 -129.51,54.12 -32.16,-9.06 -49.06,-29.11 -57.28,-41.36 -46.07,-68.24 -20.23,-154.65 -20.23,-154.66z"/>
   <path class="fil0" d="M93.26 169.16l9.15 -20.6 3.66 20.6 -12.81 0zm23.23 -30.85l-25.94 0 -25.39 56.02 16.72 0 6.74 -14.77 19.16 0 3.16 15.01 16.1 0 -10.56 -56.26z"/>
   <path class="fil0" d="M252.28 146.47l1.29 -8.43c0,0 -9.91,-0.99 -17.92,-1.12 -7.9,-0.1 -16.12,0.22 -21.65,3.07 0,0 -5.81,2.4 -8.73,10.11 -2.96,7.68 -4.25,16.16 -4.66,20.47 -0.46,4.34 -0.98,14.2 2.23,18.07 3.23,3.87 6.51,5.12 13.67,6.05 9.6,1.29 29.17,-1.75 29.17,-1.75l1.15 -7.88c0,0 -9.78,0.72 -12.84,0.75 -3.05,0.06 -10.39,0.44 -13.15,-1.82 -2.72,-2.24 -2.43,-9.14 -1.48,-15.35l2.1 -13.19c0,0 1.73,-9.14 10.44,-9.14 10.02,-0 20.36,0.16 20.36,0.16z"/>
   <path class="fil0" d="M140.35 158.22l17.28 0 -3.78 26.52 8.37 0c0,0 3.67,0.26 6.23,-1.23 2.6,-1.48 3.25,-7.05 3.25,-7.05l2.95 -21.54c0,0 -0.12,-4.99 -1.57,-6.43 -1.53,-1.43 -4.99,-1.31 -4.99,-1.31l-26.31 -0 1.22 -9.39 23.66 0c0,0 8.19,0.33 11.5,0.72 3.27,0.38 7.47,2.09 9.3,3.68 1.61,1.42 5.51,5.32 4.46,15.47 0,-0.01 -1.23,19.04 -5.37,26.04 0,0 -4.34,8.1 -12.76,9.66 -8.12,1.51 -13.61,1.33 -13.61,1.33l-24.75 0 4.93 -36.45z"/>
   <path class="fil0" d="M518.09 186.82c0,-0.03 0,-0.04 0.03,-0.08 0.47,0 1.04,0 1.58,0 1.26,0 2.18,-0.6 2.94,-1.47 0.99,-1.14 1.57,-2.54 1.87,-3.98 0.46,-1.69 0.69,-3.41 1,-5.12 0.26,-1.86 0.41,-3.73 0.65,-5.59 0.08,-0.67 0.08,-1.38 0.11,-2.06 0.07,-1.22 -0.03,-2.38 -0.27,-3.57 -0.13,-0.6 -0.88,-1.46 -1.44,-1.51 -0.87,-0.07 -1.8,-0.13 -2.64,0.05 -1.37,0.32 -2.76,0.79 -4.13,1.23 -0.06,0.01 -0.16,0.05 -0.25,0.08 -0.45,0.16 -0.9,0.31 -1.34,0.5 -0.13,0.04 -0.19,0.23 -0.23,0.33 -0.06,0.55 -0.13,1.08 -0.16,1.62 -0.25,1.86 -0.52,3.74 -0.8,5.64 -0.21,1.49 -0.41,2.95 -0.6,4.44 -0.16,1.46 -0.37,2.89 -0.61,4.34 -0.21,1.43 -0.44,2.89 -0.62,4.33 -0.05,0.26 0,0.42 0.26,0.42 0.23,-0.01 0.45,0 0.68,0.01 1.29,0.13 2.64,0.26 3.95,0.39zm2.82 8.16c-1.32,-0.1 -2.63,-0.17 -3.92,-0.26 -1.14,-0.06 -2.2,-0.15 -3.31,-0.24 -0.34,-0.04 -0.74,-0.06 -1.05,-0.1 -0.37,-0.05 -0.56,0.06 -0.63,0.42 -0.21,1.44 -0.43,2.83 -0.62,4.24 -0.21,1.7 -0.38,3.34 -0.59,5.04 -0.15,0.92 -0.33,1.83 -0.46,2.74 -0.05,0.38 -0.1,0.76 -0.1,1.12 0,0.42 -0.15,0.55 -0.57,0.55 -2.87,-0 -5.71,0 -8.57,0 -0.97,-0 -1.96,0 -2.98,0 -0.54,-0 -0.59,-0.06 -0.52,-0.65 0.15,-0.86 0.25,-1.72 0.37,-2.58 0.15,-1.17 0.29,-2.33 0.49,-3.47 0.13,-0.91 0.23,-1.8 0.39,-2.72 0.26,-1.87 0.54,-3.73 0.8,-5.61 0.22,-1.56 0.39,-3.11 0.64,-4.69 0.22,-1.82 0.5,-3.6 0.77,-5.41 0.29,-2.1 0.52,-4.2 0.81,-6.26 0.34,-2.32 0.67,-4.64 0.95,-6.97 0.26,-1.62 0.47,-3.28 0.72,-4.91 0.23,-1.7 0.5,-3.4 0.75,-5.14 0.18,-1.53 0.3,-3.05 0.5,-4.57 0.02,-0.12 0.18,-0.29 0.31,-0.31 0.54,-0 1.06,0.05 1.59,0.05 2.64,-0 5.24,0 7.84,0 0.02,-0 0.05,0 0.05,0 0.77,-0.02 0.77,-0.02 0.8,0.68 0.05,0.48 0.1,0.97 0.18,1.48 0.01,0.06 0.23,0.19 0.36,0.18 0.39,-0.07 0.74,-0.17 1.11,-0.28 1.57,-0.56 3.14,-1.17 4.76,-1.66 1.98,-0.62 4.01,-0.94 6.07,-0.81 1.91,0.1 3.75,0.39 5.45,1.22 1.39,0.68 2.54,1.56 3.3,2.87 0.47,0.81 1.03,1.64 1.32,2.54 0.36,1 0.56,2.12 0.75,3.18 0.47,3.12 0.29,6.27 -0.17,9.37 -0.32,2.17 -0.68,4.39 -1.08,6.55 -0.27,1.26 -0.73,2.48 -1.09,3.73 -0.37,1.26 -0.87,2.47 -1.5,3.61 -0.7,1.26 -1.54,2.45 -2.61,3.42 -1.11,1.01 -2.32,1.8 -3.7,2.27 -1.42,0.53 -2.85,0.95 -4.39,1.05 -1.07,0.06 -2.17,0.2 -3.23,0.31z"/>
   <path class="fil0" d="M374.78 171.62c-3.76,0 -7.44,0 -11.12,0 -0.36,-0 -0.72,0.05 -1.03,0.05 -0.26,0.03 -0.29,-0.08 -0.28,-0.33 0.18,-1.01 0.38,-2.03 0.54,-3.03 0.18,-1.3 0.36,-2.58 0.57,-3.85 0.08,-0.57 0.15,-0.6 0.77,-0.6 3.03,0 6.1,0 9.12,0 4.83,0.03 9.62,0.03 14.44,0.03 0.61,0 0.62,-0.03 0.65,-0.69 0.12,-1.83 0.13,-3.63 0.2,-5.48 0.03,-1.48 -0.03,-2.89 -0.43,-4.26 -0.43,-1.42 -1.05,-2.71 -2.51,-3.47 -1.11,-0.55 -2.27,-0.81 -3.45,-0.79 -2.23,0.03 -4.45,0.08 -6.67,0.16 -1.83,0.08 -3.75,0.28 -5.56,0.47 -1.43,0.14 -2.91,0.37 -4.36,0.55 -1.04,0.15 -2.08,0.28 -3.13,0.39 -0.18,0.01 -0.41,0.06 -0.63,0.1 -0.39,0.13 -0.51,0.1 -0.51,-0.34 0,-0.78 0,-1.54 0,-2.32 0,-1.42 0,-2.82 0,-4.19 -0.01,-0.36 0.12,-0.44 0.44,-0.51 1.31,-0.22 2.6,-0.52 3.92,-0.73 1.4,-0.2 2.84,-0.36 4.28,-0.52 1.06,-0.12 2.14,-0.24 3.25,-0.36 0.85,-0.07 1.67,-0.18 2.48,-0.21 2.46,-0.08 4.89,-0.22 7.31,-0.21 2.22,0.05 4.41,0.28 6.59,0.55 1.31,0.15 2.61,0.47 3.83,1.04 0.82,0.32 1.65,0.63 2.38,1.08 1.19,0.78 2.34,1.67 3.1,2.95 0.34,0.64 0.78,1.26 1.07,1.92 0.66,1.4 1,2.87 1.29,4.36 0.56,2.97 0.36,5.95 0.33,8.96 -0.08,0.84 -0.21,1.74 -0.33,2.6 -0.08,0.87 -0.11,1.78 -0.25,2.66 -0.26,1.67 -0.52,3.34 -0.83,5.01 -0.34,1.77 -0.7,3.53 -1.12,5.28 -0.28,1.15 -0.67,2.3 -1.14,3.39 -0.59,1.52 -1.19,3.08 -1.94,4.5 -0.83,1.46 -1.86,2.77 -3,3.94 -0.87,0.79 -1.71,1.49 -2.66,2.04 -1.11,0.62 -2.29,1.1 -3.43,1.56 -0.88,0.32 -1.79,0.58 -2.74,0.76 -1.08,0.26 -2.16,0.45 -3.21,0.57 -1.81,0.15 -3.59,0.26 -5.42,0.31 -1.43,0.01 -2.95,-0.12 -4.42,-0.22 -1.4,-0.08 -2.84,-0.26 -4.27,-0.39 -1.08,-0.13 -2.09,-0.29 -3.16,-0.45 -1.37,-0.22 -2.79,-0.46 -4.19,-0.69 -1.37,-0.25 -2.69,-0.55 -3.98,-0.81 -0.13,-0.05 -0.24,-0.15 -0.28,-0.28 -0.01,-0.15 -0.01,-0.35 -0.01,-0.55 0.3,-1.94 0.63,-3.89 0.93,-5.84 0.06,-0.15 0.06,-0.32 0.15,-0.44 0.08,-0.1 0.26,-0.21 0.39,-0.21 0.48,0.08 0.98,0.21 1.49,0.28 1.57,0.22 3.13,0.44 4.73,0.63 1.65,0.21 3.3,0.44 4.98,0.58 2.66,0.24 5.35,0.45 8.06,0.65 1.05,0.08 2.14,-0.06 3.18,-0.26 2.15,-0.39 3.67,-1.67 4.78,-3.48 0.74,-1.29 1.32,-2.64 1.66,-4.1 0.41,-1.7 0.82,-3.4 1.23,-5.1 0.17,-0.73 0.26,-1.44 0.37,-2.17 0.07,-0.37 -0.03,-0.48 -0.43,-0.48 -4.04,-0 -8.02,0 -11.99,0 0,-0 0,0 0,0.01z"/>
   <path class="fil0" d="M608.15 174.88c-0.18,0.24 -0.44,0.45 -0.59,0.7 -0.91,1.36 -1.83,2.74 -2.78,4.12 -0.52,0.78 -1.03,1.56 -1.58,2.33 -1.22,1.87 -2.48,3.74 -3.74,5.57 -0.92,1.38 -1.89,2.78 -2.81,4.15 -0.5,0.73 -0.98,1.49 -1.55,2.17 -0.14,0.16 -0.43,0.29 -0.65,0.29 -4.19,0.03 -8.37,0.03 -12.52,0.03 -0.52,0 -0.62,-0.17 -0.52,-0.63 0.21,-1.33 0.36,-2.67 0.56,-4 0.1,-0.87 0.25,-1.71 0.36,-2.55 0.25,-1.48 0.46,-2.93 0.64,-4.41 0.28,-2.19 0.6,-4.37 0.89,-6.58 0.26,-1.99 0.59,-3.94 0.88,-5.94 0.15,-1.19 0.26,-2.4 0.43,-3.58 0.16,-0.96 0.36,-1.93 0.47,-2.9 0.15,-1.37 0.33,-2.72 0.52,-4.08 0.12,-0.81 0.21,-1.57 0.33,-2.38 0.06,-0.41 0.13,-0.81 0.13,-1.23 0.06,-0.44 0.32,-0.5 0.65,-0.5 1.34,0.01 2.63,0.02 3.87,0.02 2.63,0.01 5.16,0.01 7.7,0 0.31,-0 0.44,0.06 0.41,0.41 -0.14,0.99 -0.26,1.98 -0.41,2.95 -0.13,0.84 -0.25,1.72 -0.34,2.6 -0.25,1.78 -0.54,3.6 -0.78,5.4 -0.23,1.62 -0.43,3.24 -0.61,4.86 -0.18,1.18 -0.39,2.37 -0.54,3.53 -0.03,0.27 -0.15,0.49 -0.2,0.69 0,0.06 0.05,0.07 0.06,0.1 0.25,-0.31 0.51,-0.61 0.75,-0.94 0.56,-0.84 1.16,-1.74 1.71,-2.56 0.56,-0.78 1.03,-1.55 1.53,-2.32 1.5,-2.13 2.87,-4.2 4.31,-6.32 0.77,-1.15 1.54,-2.28 2.29,-3.44 0.79,-1.17 1.61,-2.32 2.41,-3.48 0.27,-0.39 0.47,-0.79 0.78,-1.2 0.05,-0.13 0.28,-0.23 0.44,-0.24 0.46,-0.05 0.93,-0.03 1.43,-0.03 3.64,-0 7.36,0 11.03,-0.02 0.31,0 0.39,0.12 0.32,0.36 -0.06,0.4 -0.13,0.86 -0.19,1.26 -0.21,1.73 -0.47,3.47 -0.72,5.19 -0.25,1.86 -0.51,3.68 -0.78,5.51 -0.21,1.55 -0.38,3.13 -0.67,4.7 -0.26,2.15 -0.57,4.36 -0.85,6.55 -0.11,1.2 -0.29,2.4 -0.48,3.61 -0.23,1.76 -0.48,3.53 -0.74,5.3 -0.23,1.66 -0.47,3.29 -0.7,4.96 0,0.3 -0.11,0.62 -0.11,0.92 -0.02,0.34 -0.2,0.44 -0.49,0.44 -0.72,0 -1.45,0 -2.22,0 -2.97,0 -5.94,0 -8.91,0 -0.13,0 -0.26,0 -0.37,0 -0.49,-0.03 -0.57,-0.15 -0.48,-0.63 0.15,-1.07 0.26,-2.22 0.44,-3.29 0.05,-0.62 0.18,-1.23 0.26,-1.82 0.16,-1.4 0.32,-2.77 0.5,-4.17 0.12,-0.88 0.25,-1.72 0.34,-2.54 0.22,-1.24 0.3,-2.47 0.49,-3.7 0.07,-0.62 0.15,-1.23 0.26,-1.85 0,-0.36 0.1,-0.65 0.16,-0.97 0.05,-0.12 0.05,-0.22 0.05,-0.37 -0.05,0 -0.08,-0.03 -0.12,-0.03z"/>
   <path class="fil0" d="M643.33 170.39l0.05 0c0,0.13 -0,0.25 -0,0.36 0.04,0.86 0.43,1.49 1.17,1.88 0.75,0.3 1.55,0.44 2.34,0.44 1.85,-0.05 3.63,-0.13 5.47,-0.18 0.28,0 0.59,0.03 0.88,0.05 0.17,0.05 0.34,0.05 0.37,-0.23 0.04,-0.36 0.03,-0.74 0.05,-1.1 0.18,-1.43 0.37,-2.84 0.52,-4.25 0.18,-0.91 0.26,-1.82 0.39,-2.74 0.12,-0.54 0.18,-1.07 0.26,-1.6 0.05,-0.13 0.08,-0.26 0.12,-0.41 -0.12,-0 -0.27,0 -0.41,0 -0.1,-0 -0.17,0.01 -0.26,0.01 -1.43,0.01 -2.89,0 -4.38,0.03 -1.07,0.05 -2.18,0.05 -3.25,0.21 -1.5,0.19 -2.32,1.07 -2.63,2.55 -0.22,0.9 -0.26,1.83 -0.41,2.72 -0.11,0.74 -0.21,1.51 -0.29,2.25zm9.02 10.13c-0.54,0 -1.08,0 -1.57,0 -1.53,-0 -3.07,0 -4.55,-0.02 -0.41,0 -0.62,0.18 -0.7,0.49 -0.37,1.13 -0.72,2.3 -1.12,3.47 -0.31,1.01 -0.64,2.04 -1,3.07 -0.45,1.34 -0.85,2.64 -1.24,3.96 -0.29,0.76 -0.54,1.51 -0.72,2.28 -0.11,0.39 -0.36,0.49 -0.8,0.49 -3.42,0 -6.87,0 -10.28,0 -0.56,0 -1.16,0 -1.71,-0.03 -0.42,0 -0.42,-0.1 -0.31,-0.49 0.44,-1.19 0.86,-2.38 1.29,-3.56 0.2,-0.62 0.43,-1.23 0.65,-1.85 0.34,-1.2 0.78,-2.37 1.16,-3.55 0.26,-0.78 0.57,-1.57 0.83,-2.35 0.48,-1.41 0.98,-2.82 1.45,-4.23 0.2,-0.5 0.05,-0.73 -0.29,-1.07 -1.16,-1.01 -1.99,-2.17 -2.37,-3.65 -0.31,-1.12 -0.28,-2.3 -0.13,-3.48 0.21,-1.29 0.3,-2.61 0.51,-3.87 0.21,-1.06 0.44,-2.09 0.76,-3.06 0.7,-2.12 2.19,-3.71 4.03,-4.94 1.23,-0.79 2.58,-1.41 4.05,-1.75 1.09,-0.24 2.15,-0.5 3.25,-0.68 0.93,-0.15 1.92,-0.23 2.92,-0.23 4.16,-0.08 8.34,-0.13 12.46,-0.17 3.1,-0.02 6.2,0 9.29,-0.02 0.32,-0.01 0.44,0.1 0.42,0.42 -0.19,1.49 -0.42,2.98 -0.63,4.49 -0.16,1.47 -0.39,2.96 -0.57,4.47 -0.24,1.79 -0.52,3.58 -0.77,5.38 -0.19,1.26 -0.27,2.56 -0.47,3.81 -0.13,0.87 -0.29,1.72 -0.43,2.58 -0.19,1.41 -0.34,2.82 -0.54,4.23 -0.1,0.86 -0.25,1.69 -0.39,2.54 -0.19,1.41 -0.34,2.81 -0.53,4.22 -0.25,1.5 -0.44,3.06 -0.68,4.59 -0.08,0.58 -0.2,1.2 -0.21,1.78 -0.03,0.39 -0.19,0.49 -0.56,0.49 -1.37,0 -2.74,0 -4.16,0 -2.45,0 -4.87,0 -7.33,0 -0.21,0 -0.39,0 -0.57,-0.06 -0.1,-0.04 -0.18,-0.23 -0.18,-0.34 0.15,-1.03 0.28,-2.04 0.41,-3.06 0.26,-1.9 0.52,-3.83 0.8,-5.75 0.18,-1.45 0.37,-2.94 0.54,-4.51z"/>
   <path class="fil0" d="M474.51 170.33l0 0c1.92,0 3.78,0 5.71,0.01 0.29,0 0.59,-0.01 0.63,-0.44 0.03,-1.46 0.28,-2.9 0,-4.36 -0.34,-1.53 -0.99,-2.73 -2.53,-3.26 -0.58,-0.16 -1.19,-0.29 -1.81,-0.29 -0.92,-0.04 -1.84,-0.08 -2.74,0.1 -1.16,0.25 -2.3,0.73 -3.1,1.73 -0.7,0.89 -1.24,1.91 -1.53,2.98 -0.29,0.99 -0.43,2.03 -0.72,3.01 -0.08,0.39 -0.05,0.51 0.37,0.51 1.91,0 3.82,0 5.71,0zm5.25 7.35c-3.58,0 -7.16,0 -10.77,0 -0.45,0 -0.88,0.05 -1.3,0 -0.41,-0.02 -0.62,0.13 -0.65,0.54 -0.08,1.33 -0.19,2.69 -0.23,4.03 -0.03,0.6 0,1.25 0.13,1.83 0.26,1.1 0.88,1.91 1.94,2.37 1.92,0.69 3.96,0.63 5.95,0.56 1.29,-0.05 2.56,-0.06 3.82,-0.14 1.7,-0.1 3.39,-0.26 5.04,-0.41 1.24,-0.11 2.48,-0.26 3.69,-0.38 0.59,-0.05 1.16,-0.1 1.76,-0.18 0.33,-0.03 0.43,0.12 0.37,0.44 -0.24,1.75 -0.49,3.5 -0.78,5.25 -0.05,0.44 -0.12,0.88 -0.19,1.26 -0.05,0.13 -0.25,0.29 -0.36,0.34 -1.06,0.19 -2.09,0.34 -3.16,0.48 -1.45,0.21 -2.94,0.39 -4.38,0.57 -1.15,0.12 -2.3,0.26 -3.43,0.32 -1.72,0.1 -3.44,0.23 -5.17,0.23 -2.15,0 -4.27,0 -6.44,-0.17 -1.57,-0.16 -3.1,-0.53 -4.69,-0.84 -1.52,-0.33 -2.84,-1.05 -3.98,-2.03 -1.06,-0.86 -1.77,-1.96 -2.1,-3.29 -0.23,-0.76 -0.45,-1.57 -0.59,-2.37 -0.37,-2.32 -0.36,-4.69 -0.08,-7 0.18,-1.51 0.29,-3.03 0.54,-4.54 0.31,-2.19 0.7,-4.36 1.13,-6.52 0.25,-1.14 0.72,-2.24 1.1,-3.35 0.31,-1.22 0.9,-2.32 1.59,-3.34 0.8,-1.17 1.68,-2.3 2.9,-3.14 0.8,-0.56 1.61,-1.06 2.48,-1.46 0.64,-0.28 1.28,-0.55 1.94,-0.74 0.91,-0.28 1.84,-0.57 2.79,-0.76 2.25,-0.42 4.6,-0.65 6.93,-0.58 1.57,0.03 3.16,-0.02 4.72,0.03 1.15,0.04 2.23,0.26 3.34,0.37 1.44,0.16 2.81,0.51 4.08,1.04 1.21,0.48 2.32,1.13 3.28,2.11 1.16,1.24 1.85,2.7 2.16,4.33 0.34,1.91 0.41,3.82 0.24,5.75 -0.18,2.93 -0.47,5.85 -0.96,8.75 -0.08,0.6 -0.08,0.6 -0.75,0.6 -3.94,0 -7.94,0 -11.91,0 0,0.01 0,0.02 0,0.03z"/>
   <path class="fil0" d="M424.96 155.51c-0.15,0.92 -0.25,1.82 -0.37,2.68 -0.13,1.14 -0.28,2.32 -0.49,3.43 -0.25,1.74 -0.49,3.44 -0.7,5.19 -0.18,1.08 -0.32,2.17 -0.49,3.27 -0.06,0.4 0.05,0.55 0.41,0.55 2.29,-0.02 4.53,-0.02 6.82,-0.02 0.87,0 1.73,0 2.61,0 0.28,0.01 0.37,-0.1 0.41,-0.37 0.28,-1.87 0.56,-3.73 0.81,-5.61 0.23,-1.64 0.39,-3.29 0.64,-4.93 0.13,-1.19 0.31,-2.35 0.52,-3.51 0.12,-0.7 0.22,-0.75 0.94,-0.75 3.71,0 7.39,0 11.13,0 0.67,0 0.69,0.06 0.59,0.73 -0.24,1.69 -0.49,3.37 -0.73,5.03 -0.15,1.28 -0.31,2.58 -0.48,3.86 -0.23,1.45 -0.39,2.89 -0.59,4.33 -0.17,1.36 -0.39,2.72 -0.57,4.08 -0.25,1.73 -0.49,3.47 -0.74,5.22 -0.25,1.62 -0.43,3.24 -0.64,4.9 -0.29,1.86 -0.56,3.74 -0.81,5.62 -0.23,1.52 -0.39,3 -0.56,4.52 -0.08,0.34 -0.25,0.49 -0.57,0.52 -0.08,0 -0.21,0 -0.33,0 -3.67,0 -7.34,0 -10.96,0 -0.1,0 -0.15,0 -0.27,0 -0.63,-0.03 -0.64,-0.06 -0.55,-0.71 0.15,-1.06 0.26,-2.16 0.43,-3.24 0.18,-1.33 0.43,-2.65 0.6,-3.99 0.18,-1.24 0.3,-2.46 0.46,-3.71 0.2,-1.36 0.41,-2.71 0.61,-4.1 0.1,-0.28 -0.02,-0.36 -0.33,-0.36 -3,0.03 -6,0.03 -8.97,0.06 -0.87,0 -0.9,0 -1.05,0.83 -0.25,1.2 -0.34,2.45 -0.52,3.67 -0.23,1.52 -0.43,3.08 -0.67,4.6 -0.24,2.11 -0.52,4.23 -0.79,6.32 -0.08,0.6 -0.1,0.63 -0.7,0.63 -3.76,0 -7.59,0 -11.37,0 -0.65,0 -0.7,-0.1 -0.59,-0.73 0.2,-1.35 0.36,-2.69 0.56,-4.03 0.08,-0.83 0.26,-1.62 0.36,-2.47 0.16,-1.36 0.36,-2.75 0.56,-4.13 0.11,-0.81 0.27,-1.64 0.36,-2.45 0.18,-1.35 0.37,-2.7 0.56,-4.08 0.13,-0.88 0.28,-1.73 0.39,-2.62 0.16,-1.19 0.34,-2.4 0.5,-3.62 0.15,-1.07 0.3,-2.11 0.41,-3.16 0.21,-1.35 0.36,-2.73 0.59,-4.08 0.07,-0.71 0.21,-1.41 0.3,-2.12 0.25,-1.61 0.47,-3.21 0.65,-4.82 0.06,-0.4 0.23,-0.49 0.6,-0.49 3.39,0.01 6.76,0.02 10.15,0.03 0.5,0 0.94,-0.01 1.52,0 0.1,0 0.18,0.02 0.37,0.03z"/>
   <path class="fil0" d="M580.33 155.48c-0.06,0.84 -0.21,1.78 -0.33,2.69 -0.17,1.39 -0.42,2.77 -0.62,4.17 -0.04,0.27 0,0.68 -0.19,0.83 -0.11,0.14 -0.54,0.03 -0.85,0.03 -5.16,-0 -10.35,0.03 -15.52,0.03 -0.77,-0 -0.8,0 -0.92,0.71 -0.23,1.65 -0.44,3.27 -0.68,4.89 -0.21,1.65 -0.43,3.27 -0.65,4.91 -0.28,1.96 -0.59,3.9 -0.8,5.87 -0.29,2.07 -0.59,4.17 -0.83,6.24 -0.23,1.67 -0.46,3.37 -0.68,5.06 -0.13,0.92 -0.25,1.83 -0.36,2.71 -0.06,0.57 -0.1,0.63 -0.72,0.63 -3.15,0 -6.28,0 -9.43,0 -0.78,0 -1.57,0 -2.42,0 -0.43,0 -0.53,-0.17 -0.43,-0.57 0.18,-1.65 0.43,-3.32 0.68,-5.01 0.31,-2.11 0.59,-4.21 0.88,-6.37 0.28,-1.9 0.6,-3.81 0.87,-5.67 0.3,-2.16 0.6,-4.31 0.93,-6.48 0.16,-1.62 0.34,-3.24 0.54,-4.88 0.18,-1.3 0.41,-2.56 0.57,-3.82 0.21,-1.2 0.34,-2.38 0.56,-3.58 0.05,-0.67 0.15,-1.3 0.16,-1.91 0.03,-0.42 0.25,-0.5 0.64,-0.5 1.86,0.01 3.8,0.02 5.74,0.02 7.41,0.01 14.85,0.01 22.22,0.01 0.52,0 1.06,0 1.63,0z"/>
  </g>
 </g>
</svg>
