<?xml version="1.0" encoding="UTF-8"?>
<!DOCTYPE svg PUBLIC "-//W3C//DTD SVG 1.1//EN" "http://www.w3.org/Graphics/SVG/1.1/DTD/svg11.dtd">
<!-- Creator: CorelDRAW 2020 (64-Bit) -->
<svg xmlns="http://www.w3.org/2000/svg" xml:space="preserve" width="63.9354mm" height="6.2mm" version="1.1" style="shape-rendering:geometricPrecision; text-rendering:geometricPrecision; image-rendering:optimizeQuality; fill-rule:evenodd; clip-rule:evenodd"
viewBox="0 0 1572.99 152.54"
 xmlns:xlink="http://www.w3.org/1999/xlink"
 xmlns:xodm="http://www.corel.com/coreldraw/odm/2003">
 <defs>
  <style type="text/css">
   <![CDATA[
    .str1 {stroke:#8F8F8F;stroke-width:1.74;stroke-miterlimit:22.9256}
    .str0 {stroke:#8F8F8F;stroke-width:4.92;stroke-miterlimit:22.9256}
    .fil0 {fill:#8F8F8F}
    .fnt0 {font-weight:normal;font-size:159.11px;font-family:'AnuratiProRegular'}
    .fnt1 {font-weight:normal;font-size:159.11px;font-family:'Arial'}
   ]]>
  </style>
 </defs>
 <g id="Слой_x0020_1">
  <metadata id="CorelCorpID_0Corel-Layer"/>
  <g id="_2283075474688">
   <g>
    <path class="fil0 str0" d="M20.99 113.17c-10.23,0 -18.53,8.26 -18.53,18.45 0,10.19 8.3,18.45 18.53,18.45 4.03,0 7.93,-1.29 11.15,-3.71 15.2,-10.27 35.79,-10.75 51.75,0.33 3.09,2.21 6.9,3.38 10.69,3.38 10.23,0 18.53,-8.26 18.53,-18.45 0,-10.19 -8.29,-18.45 -18.53,-18.45 -4.15,0 -7.18,1.15 -10.63,3.33 -15.44,10.87 -36.27,10.91 -51.86,0.34 -3.22,-2.4 -7.08,-3.67 -11.1,-3.67z"/>
    <path class="fil0 str0" d="M57.88 56.4c-10.23,0 -18.53,8.26 -18.53,18.45 0,10.19 8.3,18.45 18.53,18.45 4.03,0 7.93,-1.29 11.15,-3.71 15.2,-10.27 35.8,-10.75 51.75,0.33 3.09,2.21 6.9,3.38 10.69,3.38 10.23,0 18.53,-8.26 18.53,-18.45 0,-10.19 -8.29,-18.45 -18.53,-18.45 -4.15,0 -7.18,1.15 -10.63,3.33 -15.44,10.87 -36.27,10.91 -51.86,0.34 -3.22,-2.39 -7.08,-3.67 -11.1,-3.67z"/>
    <path class="fil0 str0" d="M20.99 2.46c-10.23,0 -18.53,8.26 -18.53,18.45 0,10.19 8.3,18.45 18.53,18.45 4.03,0 7.93,-1.29 11.15,-3.71 15.2,-10.27 35.79,-10.75 51.75,0.33 3.09,2.21 6.9,3.38 10.69,3.38 10.23,0 18.53,-8.26 18.53,-18.45 0,-10.19 -8.29,-18.45 -18.53,-18.45 -4.15,0 -7.18,1.15 -10.63,3.33 -15.44,10.87 -36.27,10.92 -51.86,0.34 -3.22,-2.4 -7.08,-3.68 -11.1,-3.68z"/>
   </g>
   <g transform="matrix(0.999519 0 0 1 4091.4 9618.26)">
    <text x="-3884.51" y="-9486.14"  class="fil0 str1 fnt0">BeLKA</text>
    <text x="-3208.98" y="-9486.14"  class="fil0 str1 fnt0">diGitAL</text>
    <text x="-3270.8" y="-9486.14"  class="fil0 str1 fnt1">-</text>
   </g>
  </g>
 </g>
</svg>
