<?xml version="1.0" encoding="UTF-8"?>
<!DOCTYPE svg PUBLIC "-//W3C//DTD SVG 1.1//EN" "http://www.w3.org/Graphics/SVG/1.1/DTD/svg11.dtd">
<!-- Creator: CorelDRAW 2020 (64-Bit) -->
<svg xmlns="http://www.w3.org/2000/svg" xml:space="preserve" width="63.9354mm" height="6.2mm" version="1.1" style="shape-rendering:geometricPrecision; text-rendering:geometricPrecision; image-rendering:optimizeQuality; fill-rule:evenodd; clip-rule:evenodd"
viewBox="0 0 1239.76 120.22"
 xmlns:xlink="http://www.w3.org/1999/xlink"
 xmlns:xodm="http://www.corel.com/coreldraw/odm/2003">
 <defs>
  <style type="text/css">
   <![CDATA[
    .str1 {stroke:#28282D;stroke-width:1.37;stroke-miterlimit:22.9256}
    .str0 {stroke:#28282D;stroke-width:3.88;stroke-miterlimit:22.9256}
    .fil0 {fill:#28282D}
    .fnt0 {font-weight:normal;font-size:125.41px;font-family:'AnuratiProRegular'}
    .fnt1 {font-weight:normal;font-size:125.41px;font-family:'Arial'}
   ]]>
  </style>
 </defs>
 <g id="Слой_x0020_1">
  <metadata id="CorelCorpID_0Corel-Layer"/>
  <g id="_2283084336608">
   <g>
    <path class="fil0 str0" d="M16.55 89.2c-8.07,0 -14.61,6.51 -14.61,14.54 0,8.03 6.54,14.54 14.61,14.54 3.18,0 6.25,-1.02 8.79,-2.93 11.98,-8.1 28.21,-8.48 40.79,0.26 2.44,1.74 5.44,2.66 8.43,2.66 8.07,0 14.61,-6.51 14.61,-14.54 0,-8.03 -6.54,-14.54 -14.61,-14.54 -3.27,0 -5.66,0.9 -8.38,2.63 -12.17,8.57 -28.59,8.6 -40.87,0.27 -2.54,-1.89 -5.58,-2.9 -8.75,-2.9z"/>
    <path class="fil0 str0" d="M45.62 44.45c-8.07,0 -14.61,6.51 -14.61,14.54 0,8.03 6.54,14.54 14.61,14.54 3.18,0 6.25,-1.02 8.79,-2.93 11.98,-8.1 28.21,-8.48 40.79,0.26 2.44,1.74 5.44,2.66 8.43,2.66 8.07,0 14.61,-6.51 14.61,-14.54 0,-8.03 -6.54,-14.54 -14.61,-14.54 -3.27,0 -5.66,0.9 -8.38,2.63 -12.17,8.57 -28.59,8.6 -40.88,0.27 -2.54,-1.89 -5.58,-2.9 -8.75,-2.9z"/>
    <path class="fil0 str0" d="M16.55 1.94c-8.07,0 -14.61,6.51 -14.61,14.54 0,8.03 6.54,14.54 14.61,14.54 3.18,0 6.25,-1.02 8.79,-2.93 11.98,-8.1 28.21,-8.48 40.79,0.26 2.44,1.74 5.44,2.66 8.43,2.66 8.07,0 14.61,-6.51 14.61,-14.54 0,-8.03 -6.54,-14.54 -14.61,-14.54 -3.27,0 -5.66,0.91 -8.38,2.63 -12.17,8.57 -28.59,8.6 -40.87,0.27 -2.54,-1.89 -5.58,-2.9 -8.75,-2.9z"/>
   </g>
   <g transform="matrix(0.999519 0 0 1 3901.55 9201.89)">
    <text x="-3738.82" y="-9097.76"  class="fil0 str1 fnt0">BeLKA</text>
    <text x="-3206.39" y="-9097.76"  class="fil0 str1 fnt0">diGitAL</text>
    <text x="-3255.12" y="-9097.76"  class="fil0 str1 fnt1">-</text>
   </g>
  </g>
 </g>
</svg>
