<?xml version="1.0" encoding="UTF-8"?>
<!DOCTYPE svg PUBLIC "-//W3C//DTD SVG 1.1//EN" "http://www.w3.org/Graphics/SVG/1.1/DTD/svg11.dtd">
<!-- Creator: CorelDRAW 2020 (64-Bit) -->
<svg xmlns="http://www.w3.org/2000/svg" xml:space="preserve" width="17.6mm" height="14.0001mm" version="1.1" style="shape-rendering:geometricPrecision; text-rendering:geometricPrecision; image-rendering:optimizeQuality; fill-rule:evenodd; clip-rule:evenodd"
viewBox="0 0 328.59 261.38"
 xmlns:xlink="http://www.w3.org/1999/xlink"
 xmlns:xodm="http://www.corel.com/coreldraw/odm/2003">
 <defs>
  <style type="text/css">
   <![CDATA[
    .fil0 {fill:#8F8F8F}
   ]]>
  </style>
 </defs>
 <g id="Слой_x0020_1">
  <metadata id="CorelCorpID_0Corel-Layer"/>
  <g id="_2283091352880">
   <path class="fil0" d="M33.56 261.13c0.36,-4.32 11.21,-43.09 13.22,-50.73l33.71 -127.04c1.6,-6.44 6.08,-20.09 6.55,-25.71 2.98,0.25 16.52,13.64 19.31,15.81l9.58 8.27c0.84,0.75 1.18,1.25 2.03,2.01 1.15,1.02 1.42,1.01 2.57,2.03l38.06 33.33c2.05,1.59 3.13,3.07 4.93,4.28 2.86,-0.67 14.36,-11.51 17.12,-13.97l38.58 -33.38c1.15,-0.93 1.34,-0.94 2.53,-2.08 1.75,-1.67 2.87,-2.32 4.6,-4.04l9.88 -8.54c1.89,-1.48 2.75,-3.47 5.51,-3.7 0.3,3.67 2.17,8.69 3.11,12.45 1.17,4.66 2.19,8.21 3.33,12.81 2.05,8.3 4.7,17 6.79,25.48l13.47 51.06c7.26,25.59 12.94,50.74 20.13,76.09 1.73,6.09 6.2,20.1 6.66,25.61 7.48,0 14.95,0 22.43,0 12.81,0 12.15,2.11 9.08,-9.11l-9.59 -35.93c-5.59,-18.86 -14.1,-52.06 -19.17,-71.86 -3.02,-11.79 -6.66,-24.22 -9.54,-35.98 -7.41,-30.2 -16.47,-60 -23.92,-90.16 -1.17,-4.72 -2.98,-13.98 -4.95,-18.1 -1.9,0.51 -1.67,0.77 -3.02,2.16 -6.08,6.2 -22.13,18.69 -29.61,25.66 -1.37,1.28 -1.68,1.51 -3.1,2.65l-47.65 41.59c-1.26,0.97 -1.54,1.37 -2.74,2.44 -1.32,1.17 -1.81,1.28 -3.16,2.6l-6.18 5.34c-5.86,-3.94 -19.7,-17.49 -26.54,-22.97 -1.21,-0.97 -1.75,-1.78 -2.96,-2.8 -7.41,-6.24 -16.7,-15.29 -23.65,-20.68 -1.45,-1.13 -1.5,-1.14 -2.77,-2.41l-5.85 -5.08c-1.59,-1.24 -1.68,-1.36 -3.06,-2.7 -5.63,-5.5 -12.27,-10 -17.84,-15.55 -1.27,-1.26 -1.32,-1.28 -2.77,-2.41 -1.4,-1.09 -1.75,-1.69 -2.98,-2.78 -1.65,-1.47 -4.42,-4.5 -6.46,-5.05 -0.69,1.44 -1.9,6.49 -2.42,8.52 -0.76,2.96 -1.6,5.86 -2.41,9.11 -7.58,30.25 -16.53,59.97 -23.92,90.16l-19.1 71.94c-4.83,17.65 -9.14,36.14 -14.33,53.66 -0.55,1.87 -7.51,26.01 -7.01,27.03 0.79,1.61 8.33,0.71 10.53,0.71 7.67,0 15.34,0 23,0z"/>
   <path class="fil0" d="M43.33 261.13l33.35 0c2.29,0 4.41,-11.3 5.29,-14.87 6.55,-26.51 14.78,-54.49 21.4,-81.16l6.47 -24.65c0.72,-2.46 1.87,-5.77 1.93,-8.44l52.33 46.69 15.66 -14.28c1.43,-1.42 2.04,-1.63 3.46,-2.88l32.64 -29.54 34.01 126.16c0.41,1.53 0.31,2.97 2.22,2.97l33.35 0c-0.06,-2.7 -11.53,-44.58 -12.01,-46.19l-6.16 -23.23c-2,-7.98 -4.23,-15.18 -6.22,-23.16 -3.95,-15.79 -8.35,-31.08 -12.29,-46.47 -0.95,-3.7 -12.14,-44.12 -12.2,-46.57 -2.43,0.65 -4.81,3.66 -6.82,5.27l-65.64 56.41c-1.5,-1 -3.11,-2.25 -4.46,-3.6l-64.61 -56.29c-1.54,-1.24 -0.78,-1.25 -2.81,-1.79 -0.05,2.27 -2.16,9.42 -2.81,11.6 -5.4,18.23 -10.09,39.6 -15.39,57.78l-30.68 116.24z"/>
   <path class="fil0" d="M88.19 261.13l33.35 0c1.56,0 9.25,-6.84 10.8,-8.2l26.5 -21.86c1.95,-1.59 3.35,-3.38 5.83,-3.95 1.01,1.51 1.36,2.21 2.72,3.62l25.6 28.52c1.55,1.93 1.76,1.91 5,1.91l41.45 -0.04c-0.66,-1.84 -4.55,-4.85 -6.18,-6.49l-30.19 -28.54c-3.02,-2.67 -6.93,-7.47 -10.13,-10.03 -2.07,-1.66 -5.7,-4.15 -6.41,-6.83 2.76,-0.74 26.22,-22.12 31.05,-25.36l-9.2 -31.71c-7.12,4.78 -50.79,41.25 -62.55,50.86 -3.2,2.61 -5.97,5.1 -9.33,7.36 1.42,-6.1 3.09,-11.98 4.84,-18.2 1.73,-6.11 3.54,-12.12 4.93,-18.11 -4.26,-2.86 -10.12,-8.54 -14.46,-12.02 -2.52,-2.02 -12,-11.42 -14.86,-12.19l-18.06 68.94c-1.36,5.41 -10.69,38.58 -10.69,42.32z"/>
  </g>
 </g>
</svg>
