<?xml version="1.0" encoding="UTF-8"?>
<!DOCTYPE svg PUBLIC "-//W3C//DTD SVG 1.1//EN" "http://www.w3.org/Graphics/SVG/1.1/DTD/svg11.dtd">
<!-- Creator: CorelDRAW 2020 (64-Bit) -->
<svg xmlns="http://www.w3.org/2000/svg" xml:space="preserve" width="17.6mm" height="14.0001mm" version="1.1" style="shape-rendering:geometricPrecision; text-rendering:geometricPrecision; image-rendering:optimizeQuality; fill-rule:evenodd; clip-rule:evenodd"
viewBox="0 0 188.74 150.14"
 xmlns:xlink="http://www.w3.org/1999/xlink"
 xmlns:xodm="http://www.corel.com/coreldraw/odm/2003">
 <defs>
  <style type="text/css">
   <![CDATA[
    .fil0 {fill:#2C4A99}
   ]]>
  </style>
 </defs>
 <g id="Слой_x0020_1">
  <metadata id="CorelCorpID_0Corel-Layer"/>
  <g id="_2284806455360">
   <path class="fil0" d="M19.28 149.99c0.21,-2.48 6.44,-24.75 7.6,-29.14l19.36 -72.97c0.92,-3.7 3.49,-11.54 3.76,-14.77 1.71,0.14 9.49,7.83 11.09,9.08l5.5 4.75c0.48,0.43 0.68,0.72 1.16,1.15 0.66,0.59 0.82,0.58 1.48,1.17l21.86 19.14c1.18,0.91 1.8,1.76 2.83,2.46 1.65,-0.38 8.25,-6.61 9.83,-8.02l22.16 -19.18c0.66,-0.54 0.77,-0.54 1.45,-1.19 1,-0.96 1.65,-1.33 2.64,-2.32l5.67 -4.91c1.09,-0.85 1.58,-1.99 3.16,-2.13 0.17,2.11 1.25,4.99 1.79,7.15 0.67,2.67 1.26,4.71 1.91,7.36 1.18,4.76 2.7,9.77 3.9,14.63l7.74 29.33c4.17,14.7 7.43,29.14 11.56,43.71 0.99,3.5 3.56,11.55 3.82,14.71 4.29,0 8.59,0 12.88,0 7.36,0 6.98,1.21 5.22,-5.23l-5.51 -20.64c-3.21,-10.83 -8.1,-29.9 -11.01,-41.28 -1.73,-6.77 -3.82,-13.91 -5.48,-20.66 -4.25,-17.35 -9.46,-34.46 -13.74,-51.79 -0.67,-2.71 -1.71,-8.03 -2.84,-10.39 -1.09,0.29 -0.96,0.45 -1.74,1.24 -3.49,3.56 -12.71,10.73 -17.01,14.74 -0.79,0.74 -0.96,0.87 -1.78,1.52l-27.37 23.89c-0.72,0.56 -0.88,0.79 -1.57,1.4 -0.76,0.67 -1.04,0.74 -1.82,1.49l-3.55 3.07c-3.37,-2.26 -11.32,-10.05 -15.24,-13.19 -0.7,-0.56 -1.01,-1.02 -1.7,-1.61 -4.25,-3.58 -9.59,-8.78 -13.59,-11.88 -0.84,-0.65 -0.86,-0.66 -1.59,-1.38l-3.36 -2.92c-0.91,-0.71 -0.97,-0.78 -1.76,-1.55 -3.24,-3.16 -7.05,-5.74 -10.24,-8.93 -0.73,-0.73 -0.76,-0.73 -1.59,-1.38 -0.81,-0.62 -1.01,-0.97 -1.71,-1.59 -0.95,-0.85 -2.54,-2.59 -3.71,-2.9 -0.4,0.83 -1.09,3.73 -1.39,4.9 -0.44,1.7 -0.92,3.36 -1.39,5.23 -4.35,17.38 -9.49,34.45 -13.74,51.79l-10.97 41.32c-2.77,10.14 -5.25,20.76 -8.23,30.82 -0.32,1.07 -4.32,14.94 -4.03,15.53 0.46,0.92 4.79,0.41 6.05,0.41 4.4,0 8.81,0 13.21,0z"/>
   <path class="fil0" d="M24.89 149.99l19.16 0c1.32,0 2.53,-6.49 3.04,-8.54 3.76,-15.23 8.49,-31.3 12.29,-46.62l3.71 -14.16c0.41,-1.42 1.07,-3.31 1.11,-4.85l30.06 26.82 9 -8.2c0.82,-0.82 1.17,-0.93 1.99,-1.65l18.75 -16.97 19.54 72.46c0.23,0.88 0.18,1.7 1.27,1.7l19.16 0c-0.03,-1.55 -6.62,-25.6 -6.9,-26.53l-3.54 -13.34c-1.15,-4.58 -2.43,-8.72 -3.58,-13.3 -2.27,-9.07 -4.8,-17.85 -7.06,-26.69 -0.54,-2.13 -6.98,-25.34 -7.01,-26.75 -1.4,0.37 -2.76,2.1 -3.92,3.03l-37.71 32.4c-0.86,-0.58 -1.79,-1.29 -2.56,-2.07l-37.11 -32.33c-0.89,-0.71 -0.45,-0.72 -1.62,-1.03 -0.03,1.3 -1.24,5.41 -1.61,6.66 -3.1,10.47 -5.8,22.75 -8.84,33.19l-17.62 66.77z"/>
   <path class="fil0" d="M50.66 149.99l19.16 0c0.89,0 5.31,-3.93 6.2,-4.71l15.22 -12.55c1.12,-0.91 1.93,-1.94 3.35,-2.27 0.58,0.87 0.78,1.27 1.56,2.08l14.7 16.38c0.89,1.11 1.01,1.1 2.87,1.1l23.81 -0.02c-0.38,-1.06 -2.62,-2.79 -3.55,-3.73l-17.34 -16.39c-1.74,-1.53 -3.98,-4.29 -5.82,-5.76 -1.19,-0.95 -3.27,-2.38 -3.68,-3.92 1.59,-0.42 15.06,-12.71 17.84,-14.57l-5.28 -18.21c-4.09,2.75 -29.17,23.69 -35.93,29.21 -1.84,1.5 -3.43,2.93 -5.36,4.23 0.81,-3.5 1.77,-6.88 2.78,-10.45 0.99,-3.51 2.03,-6.96 2.83,-10.4 -2.45,-1.64 -5.82,-4.9 -8.31,-6.9 -1.45,-1.16 -6.89,-6.56 -8.54,-7l-10.38 39.6c-0.78,3.11 -6.14,22.16 -6.14,24.31z"/>
  </g>
 </g>
</svg>
