<?xml version="1.0" encoding="UTF-8"?>
<!DOCTYPE svg PUBLIC "-//W3C//DTD SVG 1.1//EN" "http://www.w3.org/Graphics/SVG/1.1/DTD/svg11.dtd">
<!-- Creator: CorelDRAW 2020 (64-Bit) -->
<svg xmlns="http://www.w3.org/2000/svg" xml:space="preserve" width="14.2146mm" height="9.2645mm" version="1.1" style="shape-rendering:geometricPrecision; text-rendering:geometricPrecision; image-rendering:optimizeQuality; fill-rule:evenodd; clip-rule:evenodd"
viewBox="0 0 128.57 83.8"
 xmlns:xlink="http://www.w3.org/1999/xlink"
 xmlns:xodm="http://www.corel.com/coreldraw/odm/2003">
 <defs>
  <style type="text/css">
   <![CDATA[
    .str0 {stroke:#E41D24;stroke-width:2.39;stroke-miterlimit:22.9256}
    .fil0 {fill:#E41D24}
   ]]>
  </style>
 </defs>
 <g id="Слой_x0020_1">
  <metadata id="CorelCorpID_0Corel-Layer"/>
  <path class="fil0 str0" d="M101.27 3.9l25.87 73.66c0.01,0.03 0.02,0.06 0.03,0.08 0.07,0.19 0.12,0.38 0.15,0.58 0.03,0.2 0.05,0.39 0.05,0.59 0,0.24 -0.02,0.48 -0.07,0.71 -0.11,0.56 -0.36,1.08 -0.71,1.52 -0.35,0.44 -0.8,0.81 -1.33,1.09 -0.22,0.11 -0.46,0.21 -0.71,0.28 -0.2,0.06 -0.41,0.11 -0.63,0.14 -0.21,0.03 -0.43,0.05 -0.64,0.05 -0.03,0 -0.06,-0 -0.1,-0l-20.27 0c-0.03,0 -0.06,0 -0.1,0 -0.27,0 -0.53,-0.02 -0.79,-0.07 -0.59,-0.11 -1.13,-0.33 -1.6,-0.64 -0.49,-0.32 -0.9,-0.75 -1.2,-1.25 -0.12,-0.21 -0.23,-0.42 -0.3,-0.65 -0.01,-0.03 -0.02,-0.06 -0.03,-0.08l-6.33 -18.01c-0.01,-0.03 -0.02,-0.06 -0.03,-0.08 -0.08,-0.23 -0.18,-0.45 -0.3,-0.65 -0.3,-0.5 -0.71,-0.93 -1.2,-1.25 -0.47,-0.32 -1.02,-0.54 -1.62,-0.65 -0.25,-0.05 -0.51,-0.07 -0.77,-0.07 -0.03,0 -0.06,0 -0.09,0l-12.38 -0c-2.26,0 -4.09,-1.7 -4.09,-3.79 0,-2.09 1.83,-3.79 4.09,-3.79l18.32 0c0.03,-0 0.06,-0 0.1,-0 0.27,0 0.53,0.02 0.79,0.07 0.59,0.11 1.13,0.33 1.6,0.64 0.49,0.32 0.9,0.75 1.2,1.25 0.12,0.21 0.22,0.42 0.3,0.65 0.01,0.03 0.02,0.06 0.03,0.08l6.31 17.99c0.01,0.03 0.02,0.06 0.03,0.08 0.08,0.23 0.18,0.45 0.3,0.65 0.3,0.5 0.71,0.93 1.2,1.25 0.47,0.32 1.02,0.54 1.62,0.65 0.25,0.05 0.51,0.07 0.77,0.07 0.03,0 0.06,0 0.09,-0l4.92 -0c3.03,0.25 3.49,-1.33 2.77,-3.1l-21.25 -60.44c-0.01,-0.03 -0.02,-0.06 -0.03,-0.08 -0.08,-0.23 -0.18,-0.45 -0.3,-0.65 -0.3,-0.5 -0.71,-0.93 -1.2,-1.25 -0.47,-0.32 -1.02,-0.54 -1.62,-0.65 -0.25,-0.05 -0.51,-0.07 -0.77,-0.07 -0.03,0 -0.06,0 -0.09,0l-61.45 -0c-2.26,0 -4.09,-1.7 -4.09,-3.79 0,-2.09 1.83,-3.79 4.09,-3.79l67.44 0c0.03,-0 0.06,-0 0.09,-0 0.26,0 0.52,0.02 0.77,0.07 0.6,0.11 1.14,0.33 1.62,0.65 0.49,0.32 0.9,0.75 1.2,1.25 0.12,0.21 0.23,0.42 0.3,0.65 0.01,0.03 0.02,0.06 0.03,0.08zm-44.41 71.11l10.98 0.01c2.26,0 4.1,1.7 4.1,3.79 0,2.09 -1.84,3.79 -4.1,3.79l-20.41 0c-0.03,0 -0.06,0 -0.09,0 -0.21,0 -0.43,-0.02 -0.64,-0.05 -0.22,-0.03 -0.43,-0.08 -0.63,-0.14 -0.25,-0.07 -0.48,-0.17 -0.7,-0.28 -0.55,-0.28 -1.01,-0.66 -1.36,-1.12 -0.34,-0.44 -0.58,-0.94 -0.69,-1.49 -0.05,-0.24 -0.08,-0.48 -0.08,-0.72 0,-0.19 0.02,-0.39 0.05,-0.59 0.03,-0.2 0.08,-0.39 0.15,-0.58 0.01,-0.03 0.02,-0.06 0.03,-0.08l16.15 -45.86c0.72,-1.77 0.57,-3.25 -2.69,-3.12l-26.56 0c-0.03,-0 -0.06,-0 -0.09,-0 -0.26,0 -0.52,0.02 -0.78,0.07 -0.6,0.11 -1.15,0.33 -1.62,0.65 -0.49,0.32 -0.9,0.75 -1.2,1.25 -0.12,0.21 -0.23,0.42 -0.31,0.65 -0.01,0.03 -0.02,0.06 -0.03,0.08l-17.13 48.7c-0.7,1.99 -3.01,3.08 -5.17,2.43 -2.15,-0.65 -3.33,-2.78 -2.63,-4.77l18.98 -53.94c0.01,-0.03 0.02,-0.06 0.03,-0.08 0.08,-0.23 0.19,-0.45 0.31,-0.66 0.3,-0.5 0.7,-0.91 1.18,-1.23 0.48,-0.32 1.03,-0.55 1.64,-0.65 0.25,-0.05 0.51,-0.07 0.77,-0.07 0.03,0 0.06,0 0.09,0l41.85 0c0.03,-0 0.06,-0 0.1,-0 0.21,0 0.43,0.02 0.64,0.05 0.22,0.03 0.43,0.08 0.63,0.14 0.25,0.07 0.48,0.17 0.7,0.28 0.55,0.28 1.01,0.66 1.36,1.12 0.34,0.44 0.58,0.94 0.69,1.49 0.05,0.24 0.08,0.48 0.08,0.72 0,0.2 -0.02,0.39 -0.05,0.59 -0.03,0.2 -0.08,0.39 -0.15,0.58 -0.01,0.03 -0.02,0.06 -0.03,0.08l-16.13 45.87c-0.72,1.77 -0.26,3.34 2.78,3.1zm36.14 -36.72c0.42,1.18 0.19,2.47 -0.6,3.48 -0.79,1 -2.06,1.6 -3.41,1.6l-6.78 -0c-1.35,0 -2.61,-0.59 -3.41,-1.6 -0.79,-1 -1.02,-2.29 -0.6,-3.48l3.39 -9.62c0.56,-1.6 2.18,-2.68 4.01,-2.68 1.83,0 3.44,1.08 4.01,2.68l3.39 9.62z"/>
 </g>
</svg>
