<?xml version="1.0" encoding="UTF-8"?>
<!DOCTYPE svg PUBLIC "-//W3C//DTD SVG 1.1//EN" "http://www.w3.org/Graphics/SVG/1.1/DTD/svg11.dtd">
<!-- Creator: CorelDRAW 2020 (64-Bit) -->
<svg xmlns="http://www.w3.org/2000/svg" xml:space="preserve" width="72.4322mm" height="9.2645mm" version="1.1" style="shape-rendering:geometricPrecision; text-rendering:geometricPrecision; image-rendering:optimizeQuality; fill-rule:evenodd; clip-rule:evenodd"
viewBox="0 0 6009.29 768.62"
 xmlns:xlink="http://www.w3.org/1999/xlink"
 xmlns:xodm="http://www.corel.com/coreldraw/odm/2003">
 <defs>
  <style type="text/css">
   <![CDATA[
    .str0 {stroke:#8F8F8F;stroke-width:21.95;stroke-miterlimit:22.9256}
    .fil1 {fill:#8F8F8F}
    .fil0 {fill:#8F8F8F;fill-rule:nonzero}
   ]]>
  </style>
 </defs>
 <g id="Слой_x0020_1">
  <metadata id="CorelCorpID_0Corel-Layer"/>
  <g id="_2283073580880">
   <path class="fil0" d="M1314.91 134.15l24.19 0 0 55.4 63.31 0 0 -55.4 24.2 0 0 137.15 -24.2 0 0 -60.83 -63.31 0 0 60.83 -24.19 0 0 -137.15zm157.2 137.15l-26.52 0 58.27 -137.15 23.62 0 57.88 137.15 -27.1 0 -12.59 -31.19 -61.37 0 -12.2 31.19zm19.75 -51.34l46.46 0 -23.03 -58.89 -23.43 58.89zm125.39 -85.81l35.81 78.26 34.66 -78.26 26.52 0 -49.36 107.32c-2.19,4.78 -4.58,9.16 -7.16,13.17 -2.58,4.01 -5.62,7.49 -9.1,10.46 -3.48,2.85 -7.48,5.1 -12,6.78 -4.4,1.68 -9.5,2.52 -15.31,2.52 -4.12,0 -7.67,-0.32 -10.64,-0.97 -2.85,-0.51 -5.29,-1.22 -7.36,-2.13 -1.94,-0.9 -3.62,-1.87 -5.04,-2.9 -1.42,-1.03 -2.65,-2 -3.68,-2.9l14.14 -17.82c1.42,1.29 3.29,2.65 5.62,4.07 2.45,1.42 5.36,2.13 8.71,2.13 3.61,0 6.77,-1.1 9.48,-3.29 2.71,-2.32 5.29,-5.68 7.75,-10.08l-49.95 -106.34 26.91 0zm185.9 0l24.19 0 0 137.15 -23.99 0 0 -55.98 -28.85 0c-8.01,0 -14.98,-1.1 -20.92,-3.29 -5.81,-2.32 -10.64,-5.62 -14.52,-9.88 -3.74,-4.26 -6.52,-9.42 -8.32,-15.5 -1.81,-6.06 -2.71,-12.91 -2.71,-20.53l0 -31.96 24.2 0 0 24.98c0,5.82 0.32,10.92 0.97,15.31 0.77,4.39 2.12,8.07 4.06,11.05 1.94,2.96 4.52,5.23 7.75,6.78 3.35,1.42 7.68,2.13 12.97,2.13l25.17 0 0 -60.25zm59.68 0l24.2 0 0 55.4 63.29 0 0 -55.4 24.2 0 0 137.15 -24.2 0 0 -60.83 -63.29 0 0 60.83 -24.2 0 0 -137.15zm286.71 68.19c0,10.71 -1.87,20.53 -5.6,29.44 -3.61,8.78 -8.71,16.4 -15.3,22.86 -6.45,6.45 -14.19,11.5 -23.23,15.11 -8.9,3.48 -18.58,5.24 -29.04,5.24 -10.46,0 -20.14,-1.75 -29.05,-5.24 -8.89,-3.61 -16.64,-8.65 -23.23,-15.11 -6.58,-6.45 -11.75,-14.08 -15.48,-22.86 -3.61,-8.91 -5.43,-18.73 -5.43,-29.44 0,-10.72 1.82,-20.48 5.43,-29.25 3.73,-8.91 8.9,-16.47 15.48,-22.67 6.59,-6.33 14.34,-11.24 23.23,-14.73 8.91,-3.48 18.58,-5.23 29.05,-5.23 10.45,0 20.14,1.74 29.04,5.23 9.04,3.48 16.78,8.4 23.23,14.73 6.59,6.2 11.69,13.76 15.3,22.67 3.73,8.78 5.6,18.53 5.6,29.25zm-25.93 0c0,-6.84 -1.1,-13.31 -3.3,-19.38 -2.19,-6.06 -5.36,-11.36 -9.49,-15.88 -4.11,-4.52 -9.08,-8.07 -14.89,-10.65 -5.81,-2.71 -12.33,-4.07 -19.55,-4.07 -7.23,0 -13.74,1.36 -19.55,4.07 -5.81,2.58 -10.79,6.13 -14.93,10.65 -4.13,4.52 -7.29,9.81 -9.48,15.88 -2.18,6.07 -3.29,12.54 -3.29,19.38 0,6.97 1.1,13.56 3.29,19.75 2.33,6.21 5.49,11.57 9.48,16.09 4.14,4.51 9.12,8.13 14.93,10.84 5.81,2.58 12.32,3.87 19.55,3.87 7.1,0 13.56,-1.29 19.36,-3.87 5.92,-2.71 10.9,-6.33 14.89,-10.84 4.14,-4.52 7.3,-9.88 9.49,-16.09 2.31,-6.2 3.49,-12.78 3.49,-19.75zm92.8 31.19l-46.46 0 0 -19.76 46.46 0 0 19.76zm135.36 -99.37l0 137.15 -24.2 0 0 -116.23 -59.62 0 0 116.23 -24.2 0 0 -137.15 108.02 0zm35.52 0l44.93 0c7.22,0 13.93,0.77 20.12,2.31 6.21,1.43 11.49,3.75 15.88,6.98 4.51,3.23 8.01,7.36 10.46,12.4 2.57,4.9 3.87,10.91 3.87,18.02 0,7.09 -1.37,13.22 -4.08,18.4 -2.58,5.03 -6.19,9.16 -10.84,12.39 -4.5,3.23 -9.86,5.62 -16.05,7.17 -6.21,1.42 -12.84,2.13 -19.94,2.13l-20.14 0 0 57.34 -24.21 0 0 -137.15zm24.21 60.25l18.38 0c4.13,0 7.93,-0.4 11.43,-1.17 3.48,-0.77 6.45,-2 8.89,-3.68 2.6,-1.68 4.54,-3.82 5.81,-6.4 1.42,-2.58 2.13,-5.68 2.13,-9.29 0,-3.75 -0.71,-6.84 -2.13,-9.31 -1.42,-2.58 -3.35,-4.65 -5.81,-6.2 -2.45,-1.54 -5.41,-2.65 -8.89,-3.29 -3.36,-0.65 -7.04,-0.96 -11.03,-0.96l-18.78 0 0 40.3zm237.19 7.94c0,10.71 -1.87,20.53 -5.62,29.44 -3.62,8.78 -8.72,16.4 -15.3,22.86 -6.45,6.45 -14.2,11.5 -23.24,15.11 -8.89,3.48 -18.58,5.24 -29.04,5.24 -10.44,0 -20.11,-1.75 -29.04,-5.24 -8.9,-3.61 -16.64,-8.65 -23.23,-15.11 -6.57,-6.45 -11.73,-14.08 -15.48,-22.86 -3.62,-8.91 -5.42,-18.73 -5.42,-29.44 0,-10.72 1.8,-20.48 5.42,-29.25 3.75,-8.91 8.91,-16.47 15.48,-22.67 6.59,-6.33 14.33,-11.24 23.23,-14.73 8.93,-3.48 18.6,-5.23 29.04,-5.23 10.46,0 20.14,1.74 29.04,5.23 9.04,3.48 16.78,8.4 23.24,14.73 6.58,6.2 11.68,13.76 15.3,22.67 3.75,8.78 5.62,18.53 5.62,29.25zm-25.95 0c0,-6.84 -1.08,-13.31 -3.28,-19.38 -2.2,-6.06 -5.36,-11.36 -9.49,-15.88 -4.13,-4.52 -9.09,-8.07 -14.9,-10.65 -5.81,-2.71 -12.32,-4.07 -19.57,-4.07 -7.23,0 -13.74,1.36 -19.55,4.07 -5.81,2.58 -10.77,6.13 -14.9,10.65 -4.13,4.52 -7.29,9.81 -9.48,15.88 -2.2,6.07 -3.29,12.54 -3.29,19.38 0,6.97 1.09,13.56 3.29,19.75 2.31,6.21 5.47,11.57 9.48,16.09 4.13,4.51 9.09,8.13 14.9,10.84 5.81,2.58 12.32,3.87 19.55,3.87 7.11,0 13.56,-1.29 19.36,-3.87 5.95,-2.71 10.91,-6.33 14.92,-10.84 4.13,-4.52 7.3,-9.88 9.49,-16.09 2.31,-6.2 3.47,-12.78 3.47,-19.75zm79.27 34.87l67.38 -103.06 28.27 0 0 137.15 -24.21 0 0 -103.06 -0.39 0 -67.55 103.06 -28.08 0 0 -137.15 24.2 0 0 103.06 0.37 0zm151.58 -45.91l13.95 0c8.9,0 15.94,-1.68 21.09,-5.04 5.17,-3.36 7.74,-8.46 7.74,-15.31 0,-6.33 -2.12,-11.24 -6.37,-14.73 -4.14,-3.48 -9.62,-5.23 -16.46,-5.23 -5.81,0 -10.72,1.55 -14.71,4.65 -4.02,3.1 -6.91,7.37 -8.71,12.79l-20.92 -8.91c3.75,-9.18 9.56,-16.28 17.42,-21.31 7.87,-5.04 17.36,-7.56 28.45,-7.56 6.59,0 12.73,0.85 18.39,2.52 5.69,1.55 10.59,3.87 14.73,6.97 4.25,3.1 7.52,7.04 9.86,11.82 2.46,4.65 3.68,10.07 3.68,16.27 0,4.26 -0.85,8.14 -2.52,11.62 -1.68,3.49 -3.81,6.52 -6.4,9.11 -2.58,2.58 -5.48,4.71 -8.72,6.39 -3.21,1.55 -6.37,2.71 -9.47,3.48l0 0.39c3.47,0.39 7.16,1.23 11.03,2.52 3.87,1.29 7.42,3.29 10.64,6 3.24,2.58 5.88,5.94 7.94,10.07 2.07,4.01 3.09,8.91 3.09,14.73 0,6.59 -1.42,12.47 -4.26,17.63 -2.71,5.17 -6.45,9.62 -11.23,13.37 -4.64,3.62 -10.18,6.4 -16.64,8.33 -6.33,1.94 -13.16,2.91 -20.53,2.91 -6.7,0 -12.7,-0.85 -18.01,-2.52 -5.28,-1.55 -9.93,-3.74 -13.92,-6.59 -4,-2.96 -7.43,-6.45 -10.27,-10.45 -2.84,-4.01 -5.1,-8.4 -6.78,-13.17l21.5 -8.14c2.57,6.58 6.11,11.69 10.64,15.3 4.51,3.48 10.58,5.24 18.19,5.24 8.52,0 15.11,-1.93 19.76,-5.82 4.65,-4 6.96,-9.36 6.96,-16.08 0,-8.13 -3.09,-14.01 -9.3,-17.62 -6.06,-3.75 -15.02,-5.62 -26.9,-5.62l-12.98 0 0 -18.01zm103.56 -57.15l48.21 0c5.28,0 10.64,0.58 16.07,1.73 5.42,1.05 10.25,2.91 14.52,5.62 4.39,2.58 7.93,6.13 10.65,10.65 2.84,4.52 4.25,10.26 4.25,17.24 0,7.36 -2.12,13.62 -6.38,18.79 -4.26,5.17 -9.88,8.72 -16.85,10.65l0 0.39c4.13,0.65 8.01,1.87 11.62,3.68 3.62,1.68 6.7,3.93 9.3,6.78 2.71,2.71 4.77,6.01 6.19,9.88 1.55,3.74 2.34,8.01 2.34,12.78 0,6.59 -1.37,12.34 -4.09,17.24 -2.7,4.91 -6.45,8.98 -11.22,12.2 -4.65,3.23 -10.12,5.62 -16.45,7.17 -6.21,1.55 -12.84,2.32 -19.94,2.32l-48.21 0 0 -137.15zm23.62 57.15l22.46 0c3.24,0 6.26,-0.32 9.09,-0.97 2.97,-0.77 5.55,-1.94 7.74,-3.48 2.2,-1.55 3.95,-3.48 5.24,-5.82 1.28,-2.45 1.93,-5.43 1.93,-8.91 0,-6.45 -2.46,-11.11 -7.37,-13.95 -4.9,-2.84 -11.28,-4.26 -19.16,-4.26l-19.94 0 0 37.39zm0 60.05l21.87 0c3.76,0 7.43,-0.32 11.05,-0.96 3.61,-0.78 6.77,-1.94 9.49,-3.49 2.84,-1.68 5.09,-3.87 6.77,-6.59 1.8,-2.71 2.7,-6.07 2.7,-10.07 0,-7.36 -2.58,-12.59 -7.75,-15.69 -5.15,-3.23 -12.19,-4.85 -21.09,-4.85l-23.05 0 0 41.65zm245.53 -49.01c0,10.71 -1.88,20.53 -5.62,29.44 -3.61,8.78 -8.7,16.4 -15.3,22.86 -6.44,6.45 -14.19,11.5 -23.23,15.11 -8.9,3.48 -18.58,5.24 -29.04,5.24 -10.45,0 -20.14,-1.75 -29.05,-5.24 -8.89,-3.61 -16.63,-8.65 -23.23,-15.11 -6.58,-6.45 -11.73,-14.08 -15.48,-22.86 -3.61,-8.91 -5.43,-18.73 -5.43,-29.44 0,-10.72 1.82,-20.48 5.43,-29.25 3.75,-8.91 8.9,-16.47 15.48,-22.67 6.6,-6.33 14.34,-11.24 23.23,-14.73 8.91,-3.48 18.59,-5.23 29.05,-5.23 10.45,0 20.14,1.74 29.04,5.23 9.04,3.48 16.79,8.4 23.23,14.73 6.6,6.2 11.69,13.76 15.3,22.67 3.74,8.78 5.62,18.53 5.62,29.25zm-25.94 0c0,-6.84 -1.11,-13.31 -3.31,-19.38 -2.17,-6.06 -5.33,-11.36 -9.47,-15.88 -4.12,-4.52 -9.1,-8.07 -14.91,-10.65 -5.81,-2.71 -12.33,-4.07 -19.55,-4.07 -7.22,0 -13.74,1.36 -19.55,4.07 -5.81,2.58 -10.79,6.13 -14.92,10.65 -4.12,4.52 -7.28,9.81 -9.47,15.88 -2.2,6.07 -3.3,12.54 -3.3,19.38 0,6.97 1.1,13.56 3.3,19.75 2.31,6.21 5.48,11.57 9.47,16.09 4.13,4.51 9.11,8.13 14.92,10.84 5.81,2.58 12.33,3.87 19.55,3.87 7.1,0 13.56,-1.29 19.36,-3.87 5.94,-2.71 10.9,-6.33 14.9,-10.84 4.13,-4.52 7.29,-9.88 9.48,-16.09 2.33,-6.2 3.5,-12.78 3.5,-19.75zm59.13 68.96l0 26.93 -21.11 0 0 -47.85 20.71 0 43.76 -116.23 23.62 0 43.37 116.23 21.1 0 0 47.85 -21.1 0 0 -26.93 -110.35 0zm24.38 -20.92l60.41 0 -30.21 -89.12 -30.2 89.12zm244.15 0.58c-5.41,6.97 -12.52,12.72 -21.3,17.24 -8.64,4.51 -18.97,6.78 -30.98,6.78 -10.45,0 -20.14,-1.75 -29.04,-5.24 -8.9,-3.61 -16.58,-8.59 -23.04,-14.92 -6.45,-6.45 -11.55,-14.14 -15.28,-23.05 -3.63,-8.91 -5.43,-18.67 -5.43,-29.25 0,-10.72 1.87,-20.47 5.62,-29.25 3.73,-8.91 8.83,-16.53 15.3,-22.86 6.56,-6.33 14.31,-11.24 23.23,-14.73 8.9,-3.48 18.51,-5.23 28.83,-5.23 9.94,0 19.43,1.87 28.47,5.62 9.16,3.62 16.39,8.72 21.68,15.31l-17.42 16.08c-2.98,-4.4 -7.3,-8.01 -12.98,-10.85 -5.68,-2.84 -12.01,-4.26 -18.97,-4.26 -7.23,0 -13.74,1.36 -19.55,4.07 -5.81,2.58 -10.79,6.13 -14.9,10.65 -4.13,4.52 -7.37,9.81 -9.68,15.88 -2.2,6.07 -3.3,12.6 -3.3,19.57 0,7.1 1.1,13.76 3.3,19.95 2.31,6.07 5.48,11.37 9.47,15.88 4.14,4.53 9.12,8.08 14.93,10.66 5.81,2.58 12.32,3.87 19.55,3.87 7.1,0 13.62,-1.42 19.55,-4.26 5.95,-2.96 10.79,-7.16 14.53,-12.59l17.42 14.92zm74.14 20.33l-24.41 0 0 -116.23 -42 0 0 -20.92 108.41 0 0 20.92 -42 0 0 116.23zm63.11 -137.15l48.2 0c5.29,0 10.65,0.58 16.06,1.73 5.43,1.05 10.27,2.91 14.52,5.62 4.4,2.58 7.96,6.13 10.64,10.65 2.85,4.52 4.27,10.26 4.27,17.24 0,7.36 -2.13,13.62 -6.4,18.79 -4.25,5.17 -9.87,8.72 -16.83,10.65l0 0.39c4.13,0.65 8.01,1.87 11.62,3.68 3.62,1.68 6.7,3.93 9.28,6.78 2.71,2.71 4.79,6.01 6.21,9.88 1.53,3.74 2.31,8.01 2.31,12.78 0,6.59 -1.34,12.34 -4.07,17.24 -2.71,4.91 -6.45,8.98 -11.23,12.2 -4.64,3.23 -10.13,5.62 -16.45,7.17 -6.19,1.55 -12.83,2.32 -19.94,2.32l-48.2 0 0 -137.15zm23.61 57.15l22.47 0c3.22,0 6.26,-0.32 9.09,-0.97 2.97,-0.77 5.55,-1.94 7.75,-3.48 2.19,-1.55 3.94,-3.48 5.22,-5.82 1.29,-2.45 1.93,-5.43 1.93,-8.91 0,-6.45 -2.44,-11.11 -7.34,-13.95 -4.91,-2.84 -11.29,-4.26 -19.17,-4.26l-19.94 0 0 37.39zm0 60.05l21.89 0c3.75,0 7.41,-0.32 11.03,-0.96 3.63,-0.78 6.77,-1.94 9.48,-3.49 2.85,-1.68 5.1,-3.87 6.78,-6.59 1.82,-2.71 2.71,-6.07 2.71,-10.07 0,-7.36 -2.57,-12.59 -7.74,-15.69 -5.17,-3.23 -12.2,-4.85 -21.11,-4.85l-23.04 0 0 41.65zm129.76 -0.96l68.14 0 0 20.92 -91.77 0 0 -137.15 88.87 0 0 20.92 -65.24 0 0 35.65 61.18 0 0 19.95 -61.18 0 0 39.72zm95.92 -116.23l24.2 0 0 55.4 63.3 0 0 -55.4 24.2 0 0 137.15 -24.2 0 0 -60.83 -63.3 0 0 60.83 -24.2 0 0 -137.15zm147.33 0l24.2 0 0 55.4 63.31 0 0 -55.4 24.21 0 0 137.15 -24.21 0 0 -60.83 -63.31 0 0 60.83 -24.2 0 0 -137.15zm286.73 68.19c0,10.71 -1.87,20.53 -5.62,29.44 -3.62,8.78 -8.72,16.4 -15.3,22.86 -6.45,6.45 -14.2,11.5 -23.23,15.11 -8.9,3.48 -18.58,5.24 -29.05,5.24 -10.45,0 -20.14,-1.75 -29.04,-5.24 -8.9,-3.61 -16.64,-8.65 -23.23,-15.11 -6.59,-6.45 -11.73,-14.08 -15.49,-22.86 -3.62,-8.91 -5.41,-18.73 -5.41,-29.44 0,-10.72 1.79,-20.48 5.41,-29.25 3.76,-8.91 8.9,-16.47 15.49,-22.67 6.59,-6.33 14.33,-11.24 23.23,-14.73 8.9,-3.48 18.58,-5.23 29.04,-5.23 10.46,0 20.14,1.74 29.05,5.23 9.03,3.48 16.78,8.4 23.23,14.73 6.58,6.2 11.68,13.76 15.3,22.67 3.75,8.78 5.62,18.53 5.62,29.25zm-25.95 0c0,-6.84 -1.08,-13.31 -3.29,-19.38 -2.19,-6.06 -5.35,-11.36 -9.48,-15.88 -4.13,-4.52 -9.11,-8.07 -14.92,-10.65 -5.81,-2.71 -12.33,-4.07 -19.55,-4.07 -7.23,0 -13.74,1.36 -19.55,4.07 -5.81,2.58 -10.77,6.13 -14.9,10.65 -4.13,4.52 -7.3,9.81 -9.49,15.88 -2.2,6.07 -3.3,12.54 -3.3,19.38 0,6.97 1.1,13.56 3.3,19.75 2.31,6.21 5.48,11.57 9.49,16.09 4.13,4.51 9.09,8.13 14.9,10.84 5.81,2.58 12.32,3.87 19.55,3.87 7.11,0 13.55,-1.29 19.36,-3.87 5.96,-2.71 10.92,-6.33 14.93,-10.84 4.13,-4.52 7.28,-9.88 9.47,-16.09 2.33,-6.2 3.48,-12.78 3.48,-19.75zm78.31 48.04l68.14 0 0 20.92 -91.77 0 0 -137.15 88.86 0 0 20.92 -65.23 0 0 35.65 61.17 0 0 19.95 -61.17 0 0 39.72zm255.81 -116.23l0 137.15 -24.21 0 0 -116.23 -59.63 0 0 116.23 -24.2 0 0 -137.15 108.04 0zm35.52 0l44.91 0c7.23,0 13.93,0.77 20.14,2.31 6.19,1.43 11.47,3.75 15.87,6.98 4.52,3.23 8,7.36 10.45,12.4 2.58,4.9 3.87,10.91 3.87,18.02 0,7.09 -1.34,13.22 -4.06,18.4 -2.58,5.03 -6.21,9.16 -10.84,12.39 -4.53,3.23 -9.89,5.62 -16.08,7.17 -6.19,1.42 -12.84,2.13 -19.94,2.13l-20.12 0 0 57.34 -24.2 0 0 -137.15zm24.2 60.25l18.38 0c4.13,0 7.93,-0.4 11.41,-1.17 3.5,-0.77 6.47,-2 8.93,-3.68 2.57,-1.68 4.5,-3.82 5.81,-6.4 1.41,-2.58 2.12,-5.68 2.12,-9.29 0,-3.75 -0.71,-6.84 -2.12,-9.31 -1.42,-2.58 -3.36,-4.65 -5.81,-6.2 -2.46,-1.54 -5.43,-2.65 -8.93,-3.29 -3.35,-0.65 -7.01,-0.96 -11.03,-0.96l-18.77 0 0 40.3zm121.41 55.98l68.14 0 0 20.92 -91.77 0 0 -137.15 88.86 0 0 20.92 -65.23 0 0 35.65 61.18 0 0 19.95 -61.18 0 0 39.72zm100.38 20.92l0 26.93 -21.11 0 0 -47.85 20.71 0 43.76 -116.23 23.61 0 43.37 116.23 21.1 0 0 47.85 -21.1 0 0 -26.93 -110.35 0zm24.39 -20.92l60.39 0 -30.2 -89.12 -30.19 89.12zm234.08 -116.23l0 137.15 -24.2 0 0 -116.23 -59.63 0 0 116.23 -24.2 0 0 -137.15 108.04 0zm35.53 0l44.91 0c7.23,0 13.95,0.77 20.14,2.31 6.18,1.43 11.47,3.75 15.86,6.98 4.53,3.23 8.01,7.36 10.46,12.4 2.57,4.9 3.87,10.91 3.87,18.02 0,7.09 -1.34,13.22 -4.06,18.4 -2.58,5.03 -6.19,9.16 -10.84,12.39 -4.53,3.23 -9.87,5.62 -16.08,7.17 -6.19,1.42 -12.84,2.13 -19.94,2.13l-20.14 0 0 57.34 -24.19 0 0 -137.15zm24.19 60.25l18.39 0c4.14,0 7.94,-0.4 11.42,-1.17 3.48,-0.77 6.45,-2 8.91,-3.68 2.57,-1.68 4.5,-3.82 5.81,-6.4 1.42,-2.58 2.12,-5.68 2.12,-9.29 0,-3.75 -0.71,-6.84 -2.12,-9.31 -1.42,-2.58 -3.36,-4.65 -5.81,-6.2 -2.46,-1.54 -5.43,-2.65 -8.91,-3.29 -3.37,-0.65 -7.04,-0.96 -11.04,-0.96l-18.77 0 0 40.3zm122.39 42.81l67.38 -103.06 28.26 0 0 137.15 -24.19 0 0 -103.06 -0.4 0 -67.56 103.06 -28.07 0 0 -137.15 24.19 0 0 103.06 0.39 0zm204.24 -82.14l-19.36 0c-11.23,0 -19.56,1.62 -24.97,4.85 -5.43,3.1 -8.15,8.07 -8.15,14.92 0,5.82 2.65,10.46 7.96,13.95 5.29,3.49 13.67,5.23 25.16,5.23l19.36 0 0 -38.94zm-47.43 50.96c-9.3,-1.55 -16.79,-4.98 -22.48,-10.27 -5.54,-5.43 -8.31,-12.73 -8.31,-21.89 -0.14,-12.92 4.7,-22.73 14.52,-29.45 9.94,-6.84 23.94,-10.26 42,-10.26l45.9 0 0 137.15 -24.2 0 0 -56.37 -13.56 0c-6.06,0 -11.62,1.1 -16.66,3.29 -5.03,2.19 -9.47,5.55 -13.35,10.07 -3.87,4.51 -7.1,10.4 -9.67,17.62 -2.46,7.11 -4.2,15.56 -5.24,25.38l-26.33 0c0.52,-8.13 1.87,-15.62 4.07,-22.47 2.2,-6.98 4.9,-13.17 8.14,-18.6 3.36,-5.56 7.16,-10.33 11.41,-14.34 4.27,-4 8.85,-7.16 13.76,-9.49l0 -0.38zm159.09 65.28l-24.38 0 0 -116.23 -42.03 0 0 -20.92 108.42 0 0 20.92 -42 0 0 116.23zm87.71 -34.09l67.38 -103.06 28.27 0 0 137.15 -24.2 0 0 -103.06 -0.4 0 -67.56 103.06 -28.07 0 0 -137.15 24.2 0 0 103.06 0.38 0zm154.87 13.17l68.15 0 0 20.92 -91.77 0 0 -137.15 88.86 0 0 20.92 -65.24 0 0 35.65 61.18 0 0 19.95 -61.18 0 0 39.72z"/>
   <path class="fil0" d="M1433.13 538.65l-49.78 0 30.77 -93.75 43.56 0 -24.55 93.75zm-72.59 0l-49.44 0 31.46 -93.75 43.56 0 -25.59 93.75zm343.92 -93.75l0 244.92 -58.77 0 0 -195.11 -89.88 0 0 195.11 -58.77 0 0 -244.92 207.43 0zm305.65 121.42c0,19.37 -3.35,37.13 -10.02,53.27 -6.7,15.91 -16.03,29.63 -28,41.17 -11.76,11.31 -25.83,20.06 -42.18,26.29 -16.38,6.22 -34.12,9.34 -53.24,9.34 -19.14,0 -36.89,-3.12 -53.24,-9.34 -16.15,-6.23 -30.21,-14.98 -42.18,-26.29 -11.76,-11.53 -20.98,-25.25 -27.67,-41.17 -6.69,-16.14 -10.02,-33.9 -10.02,-53.27 0,-19.6 3.34,-37.24 10.02,-52.92 6.69,-15.91 15.9,-29.4 27.67,-40.48 11.97,-11.07 26.03,-19.6 42.18,-25.59 16.35,-6 34.1,-8.99 53.24,-8.99 19.11,0 36.86,3 53.24,8.99 16.35,5.99 30.42,14.53 42.18,25.59 11.97,11.08 21.31,24.57 28,40.48 6.67,15.68 10.02,33.32 10.02,52.92zm-63.26 0c0,-10.61 -1.73,-20.53 -5.19,-29.75 -3.45,-9.23 -8.3,-17.07 -14.51,-23.52 -6,-6.69 -13.38,-11.88 -22.13,-15.56 -8.54,-3.92 -17.98,-5.88 -28.34,-5.88 -10.38,0 -19.83,1.96 -28.35,5.88 -8.54,3.68 -15.9,8.88 -22.13,15.56 -6.22,6.45 -11.06,14.29 -14.52,23.52 -3.24,9.23 -4.84,19.14 -4.84,29.75 0,11.07 1.72,21.33 5.18,30.8 3.46,9.22 8.18,17.17 14.18,23.86 6.22,6.69 13.59,12 22.13,15.91 8.52,3.69 17.97,5.54 28.35,5.54 10.36,0 19.8,-1.85 28.34,-5.54 8.52,-3.92 15.9,-9.23 22.13,-15.91 6.21,-6.69 11.06,-14.64 14.51,-23.86 3.46,-9.47 5.19,-19.73 5.19,-30.8zm135.36 123.5l-63.26 0 95.07 -244.92 60.5 0 97.14 244.92 -64.65 0 -62.23 -163.28 -62.57 163.28zm269.71 -81.64l101.64 -163.28 66.72 0 0 244.92 -58.77 0 0 -161.21 -1.04 0 -101.98 161.21 -66.38 0 0 -244.92 58.77 0 0 163.28 1.04 0zm323.46 -112.78l0 194.42 -59.12 0 0 -194.42 -69.13 0 0 -50.5 197.4 0 0 50.5 -69.14 0zm96.12 194.42l0 -244.92 164.56 0 0 50.16 -107.51 0 0 46 101.64 0 0 47.4 -101.64 0 0 50.85 113.74 0 0 50.51 -170.78 0zm357.62 0l-53.58 -86.48 -51.51 86.48 -70.53 0 85.74 -129.38 -78.82 -115.54 71.21 0 45.64 76.1 44.94 -76.1 68.79 0 -77.44 115.54 88.5 129.38 -72.94 0zm82.66 -68.15l0 -44.97 87.82 0 0 44.97 -87.82 0zm159.79 68.15l-64.3 0 102.67 -244.92 57.39 0 101.65 244.92 -65.68 0 -19.02 -48.09 -94.72 0 -17.98 48.09zm34.92 -95.48l61.53 0 -30.41 -84.06 -31.12 84.06zm373.54 24.22c0,13.37 -2.65,24.68 -7.96,33.9 -5.3,9 -12.32,16.26 -21.09,21.8 -8.76,5.53 -18.78,9.57 -30.07,12.1 -11.07,2.31 -22.48,3.46 -34.23,3.46l-97.48 0 0 -244.92 97.48 0c9.46,0 19.14,1.04 29.04,3.11 9.91,1.85 18.9,5.19 26.97,10.03 8.07,4.61 14.64,10.96 19.7,19.02 5.06,8.07 7.61,18.34 7.61,30.79 0,13.61 -3.69,24.91 -11.07,33.91 -7.38,8.76 -17.06,15.1 -29.04,19.02l0 0.69c6.91,1.16 13.37,3.35 19.36,6.58 6.22,3 11.53,6.92 15.9,11.76 4.62,4.84 8.18,10.49 10.72,16.95 2.76,6.45 4.15,13.72 4.15,21.79zm-67.07 -102.74c0,-8.3 -3.23,-14.29 -9.68,-17.99 -6.21,-3.92 -15.56,-5.87 -28,-5.87l-29.04 0 0 50.5 31.8 0c11.07,0 19.59,-2.19 25.59,-6.57 6.22,-4.61 9.33,-11.3 9.33,-20.07zm7.96 97.21c0,-10.15 -3.81,-17.17 -11.41,-21.1 -7.62,-3.92 -17.76,-5.88 -30.42,-5.88l-32.85 0 0 56.04 33.19 0c4.61,0 9.34,-0.35 14.17,-1.04 5.07,-0.92 9.56,-2.42 13.49,-4.5 4.15,-2.07 7.48,-4.97 10.02,-8.65 2.55,-3.92 3.81,-8.88 3.81,-14.88zm202.94 -117.62l0 194.42 -59.11 0 0 -194.42 -69.14 0 0 -50.5 197.41 0 0 50.5 -69.15 0zm351.26 70.92c0,19.37 -3.35,37.13 -10.02,53.27 -6.7,15.91 -16.03,29.63 -28,41.17 -11.76,11.31 -25.83,20.06 -42.18,26.29 -16.38,6.22 -34.12,9.34 -53.24,9.34 -19.14,0 -36.89,-3.12 -53.25,-9.34 -16.14,-6.23 -30.2,-14.98 -42.17,-26.29 -11.76,-11.53 -20.98,-25.25 -27.66,-41.17 -6.69,-16.14 -10.02,-33.9 -10.02,-53.27 0,-19.6 3.34,-37.24 10.02,-52.92 6.68,-15.91 15.9,-29.4 27.66,-40.48 11.97,-11.07 26.03,-19.6 42.17,-25.59 16.35,-6 34.11,-8.99 53.25,-8.99 19.11,0 36.86,3 53.24,8.99 16.35,5.99 30.41,14.53 42.18,25.59 11.97,11.08 21.31,24.57 28,40.48 6.67,15.68 10.02,33.32 10.02,52.92zm-63.26 0c0,-10.61 -1.73,-20.53 -5.19,-29.75 -3.45,-9.23 -8.3,-17.07 -14.52,-23.52 -6,-6.69 -13.37,-11.88 -22.12,-15.56 -8.55,-3.92 -17.98,-5.88 -28.35,-5.88 -10.38,0 -19.83,1.96 -28.36,5.88 -8.54,3.68 -15.9,8.88 -22.12,15.56 -6.22,6.45 -11.07,14.29 -14.53,23.52 -3.23,9.23 -4.84,19.14 -4.84,29.75 0,11.07 1.73,21.33 5.19,30.8 3.46,9.22 8.18,17.17 14.18,23.86 6.22,6.69 13.58,12 22.12,15.91 8.53,3.69 17.98,5.54 28.36,5.54 10.37,0 19.8,-1.85 28.35,-5.54 8.51,-3.92 15.9,-9.23 22.12,-15.91 6.22,-6.69 11.07,-14.64 14.52,-23.86 3.46,-9.47 5.19,-19.73 5.19,-30.8zm324.12 123.5l1.38 -173.31 -1.03 0 -63.62 173.31 -41.48 0 -61.88 -173.31 -1.04 0 1.39 173.31 -55.66 0 0 -244.92 84.01 0 55.66 157.05 1.38 0 53.24 -157.05 85.4 0 0 244.92 -57.73 0zm142.47 0l-64.31 0 102.68 -244.92 57.39 0 101.63 244.92 -65.68 0 -19.01 -48.09 -94.74 0 -17.97 48.09zm34.91 -95.48l61.53 0 -30.41 -84.06 -31.12 84.06zm287.45 -98.93l0 194.42 -59.1 0 0 -194.42 -69.15 0 0 -50.5 197.41 0 0 50.5 -69.15 0zm155.94 112.78l101.64 -163.28 66.72 0 0 244.92 -58.77 0 0 -161.21 -1.04 0 -101.98 161.21 -66.38 0 0 -244.92 58.77 0 0 163.28 1.04 0zm218.73 81.64l0 -244.92 58.77 0 0 88.9c3.22,0 6.33,0.11 9.33,0.35 3.22,0 6.33,0.11 9.33,0.34l75.02 -89.59 64.31 0 -81.94 103.43c10.38,5.07 19.94,11.65 28.7,19.72 8.74,7.84 16.69,17.53 23.85,29.06 7.13,11.52 13.37,25.01 18.67,40.47 5.29,15.22 9.79,32.63 13.48,52.23l-64.3 0c-3.46,-18.68 -7.85,-34.83 -13.13,-48.43 -5.09,-13.61 -11.42,-24.67 -19.02,-33.2 -7.6,-8.77 -16.71,-15.11 -27.3,-19.03 -10.62,-4.16 -22.94,-6 -36.99,-5.53l0 106.2 -58.77 0zm280.69 0l-64.31 0 102.68 -244.92 57.39 0 101.64 244.92 -65.68 0 -19.02 -48.09 -94.72 0 -17.98 48.09zm34.92 -95.48l61.53 0 -30.42 -84.06 -31.11 84.06zm287.11 -55.69l-43.9 0 25.58 -93.75 49.44 0 -31.11 93.75zm-71.91 0l-43.56 0 24.89 -93.75 49.44 0 -30.77 93.75z"/>
   <path class="fil1 str0" d="M928.94 35.74l237.27 675.65c0.1,0.26 0.19,0.51 0.28,0.77 0.61,1.73 1.07,3.51 1.38,5.33 0.31,1.81 0.46,3.61 0.46,5.4 0,2.19 -0.22,4.36 -0.66,6.48 -1.05,5.14 -3.33,9.89 -6.54,13.97 -3.18,4.04 -7.32,7.48 -12.24,9.98 -2.06,1.05 -4.24,1.92 -6.51,2.61 -1.86,0.56 -3.78,0.99 -5.76,1.27 -1.96,0.29 -3.91,0.43 -5.84,0.43 -0.3,0 -0.59,-0.01 -0.88,-0.01l-185.94 0c-0.3,0 -0.59,0.01 -0.88,0.01 -2.46,0 -4.88,-0.22 -7.24,-0.66 -5.39,-0.98 -10.37,-3.02 -14.68,-5.88 -4.46,-2.97 -8.25,-6.86 -11,-11.5 -1.13,-1.89 -2.07,-3.88 -2.8,-5.97 -0.09,-0.25 -0.17,-0.51 -0.26,-0.76l-58.02 -165.17c-0.08,-0.25 -0.17,-0.51 -0.26,-0.76 -0.73,-2.08 -1.67,-4.08 -2.8,-5.97 -2.74,-4.63 -6.52,-8.51 -10.98,-11.47 -4.35,-2.9 -9.38,-4.96 -14.84,-5.92 -2.31,-0.41 -4.7,-0.63 -7.09,-0.63 -0.29,0 -0.57,0 -0.86,0.01l-113.52 -0.02c-20.73,0 -37.53,-15.55 -37.53,-34.74 0,-19.18 16.8,-34.73 37.53,-34.73l168.05 0c0.29,-0.01 0.59,-0.01 0.88,-0.01 2.45,0 4.87,0.22 7.24,0.66 5.39,0.97 10.37,3.02 14.67,5.88 4.47,2.96 8.26,6.85 11.01,11.49 1.12,1.89 2.06,3.89 2.8,5.97 0.08,0.26 0.17,0.51 0.26,0.76l57.88 165.03c0.08,0.25 0.17,0.51 0.26,0.76 0.74,2.08 1.68,4.08 2.8,5.97 2.74,4.63 6.52,8.51 10.98,11.47 4.34,2.9 9.37,4.96 14.83,5.92 2.32,0.41 4.7,0.63 7.1,0.63 0.28,0 0.57,0 0.85,-0.01l45.15 -0.02c27.78,2.26 32.01,-12.22 25.45,-28.42l-194.9 -554.34c-0.08,-0.26 -0.17,-0.51 -0.26,-0.76 -0.74,-2.08 -1.68,-4.08 -2.8,-5.97 -2.74,-4.63 -6.52,-8.51 -10.98,-11.48 -4.34,-2.9 -9.37,-4.95 -14.83,-5.92 -2.32,-0.41 -4.7,-0.63 -7.1,-0.63 -0.28,0 -0.57,0.01 -0.85,0.02l-563.67 -0.01c-20.73,0 -37.53,-15.56 -37.53,-34.74 0,-19.18 16.8,-34.73 37.53,-34.73l618.55 0c0.29,-0.01 0.57,-0.01 0.86,-0.01 2.4,0 4.77,0.21 7.09,0.62 5.46,0.97 10.49,3.03 14.84,5.93 4.46,2.96 8.24,6.84 10.98,11.47 1.13,1.89 2.07,3.89 2.8,5.97 0.09,0.26 0.17,0.51 0.26,0.76z"/>
   <path class="fil1 str0" d="M521.56 688.04l100.68 0.13c20.77,0 37.62,15.55 37.62,34.73 0,19.18 -16.84,34.74 -37.62,34.74l-187.2 0c-0.29,0 -0.58,0.01 -0.87,0.01 -1.94,0 -3.9,-0.14 -5.86,-0.43 -1.98,-0.28 -3.91,-0.71 -5.77,-1.27 -2.25,-0.68 -4.41,-1.54 -6.45,-2.58 -5.04,-2.55 -9.28,-6.08 -12.5,-10.24 -3.09,-3.99 -5.31,-8.62 -6.35,-13.62 -0.46,-2.16 -0.69,-4.37 -0.69,-6.6 0,-1.78 0.15,-3.59 0.46,-5.39 0.31,-1.83 0.77,-3.62 1.39,-5.34 0.09,-0.26 0.18,-0.51 0.28,-0.77l148.09 -420.68c6.56,-16.2 5.25,-29.8 -24.7,-28.58l-243.67 0.02c-0.29,-0.01 -0.57,-0.01 -0.86,-0.01 -2.41,0 -4.79,0.21 -7.11,0.62 -5.47,0.97 -10.52,3.03 -14.87,5.93 -4.47,2.96 -8.26,6.84 -11,11.47 -1.13,1.89 -2.07,3.89 -2.8,5.97 -0.09,0.26 -0.17,0.51 -0.26,0.76l-157.11 446.72c-6.42,18.24 -27.64,28.22 -47.4,22.3 -19.76,-5.93 -30.57,-25.53 -24.15,-43.77l174.09 -494.74c0.08,-0.25 0.17,-0.51 0.26,-0.76 0.75,-2.12 1.7,-4.15 2.85,-6.06 2.71,-4.55 6.45,-8.37 10.83,-11.31 4.39,-2.95 9.48,-5.04 15.01,-6.01 2.32,-0.41 4.7,-0.62 7.09,-0.62 0.28,0 0.57,0 0.85,0.01l383.83 0c0.29,-0.01 0.58,-0.01 0.88,-0.01 1.94,0 3.9,0.14 5.86,0.42 1.97,0.29 3.9,0.71 5.77,1.28 2.26,0.67 4.41,1.54 6.46,2.58 5.04,2.55 9.28,6.07 12.49,10.24 3.1,3.99 5.31,8.61 6.36,13.62 0.46,2.16 0.69,4.36 0.69,6.6 0,1.79 -0.15,3.59 -0.46,5.4 -0.31,1.83 -0.77,3.61 -1.38,5.33 -0.09,0.27 -0.18,0.52 -0.28,0.77l-147.97 420.71c-6.57,16.2 -2.34,30.68 25.5,28.42z"/>
   <path class="fil1 str0" d="M853.06 351.26c3.81,10.83 1.77,22.67 -5.51,31.87 -7.27,9.19 -18.89,14.63 -31.25,14.64l-62.17 -0.01c-12.36,0 -23.98,-5.44 -31.25,-14.64 -7.27,-9.2 -9.32,-21.05 -5.5,-31.87l31.1 -88.28c5.17,-14.66 20.01,-24.59 36.77,-24.59 16.75,0.01 31.58,9.94 36.75,24.61l31.07 88.27z"/>
  </g>
 </g>
</svg>
