<?xml version="1.0" encoding="UTF-8"?>
<!DOCTYPE svg PUBLIC "-//W3C//DTD SVG 1.1//EN" "http://www.w3.org/Graphics/SVG/1.1/DTD/svg11.dtd">
<!-- Creator: CorelDRAW 2020 (64-Bit) -->
<svg xmlns="http://www.w3.org/2000/svg" xml:space="preserve" width="72.3mm" height="9.3mm" version="1.1" style="shape-rendering:geometricPrecision; text-rendering:geometricPrecision; image-rendering:optimizeQuality; fill-rule:evenodd; clip-rule:evenodd" viewBox="0 0 1433.62 184.41"
    xmlns:xlink="http://www.w3.org/1999/xlink"
    xmlns:xodm="http://www.corel.com/coreldraw/odm/2003">
    <defs>
        <style type="text/css">
    .politeh-avtomatika-lg-gray-fil0 {fill:gray;fill-rule:nonzero}
        </style>
    </defs>
    <path class="politeh-avtomatika-lg-gray-fil0" d="M205.11 84.07c0.92,2.59 0.42,5.43 -1.32,7.63 -1.75,2.2 -4.54,3.5 -7.51,3.5l-14.95 -0c-2.97,0 -5.76,-1.3 -7.52,-3.5 -1.75,-2.2 -2.24,-5.04 -1.32,-7.63l7.48 -21.13c1.24,-3.51 4.81,-5.89 8.84,-5.89 4.03,0 7.59,2.38 8.84,5.89l7.47 21.13zm-79.71 77.98l24.21 0.03c3.17,-0.01 6.07,1.19 8.17,3.12 2.16,1.99 3.5,4.75 3.5,7.81 0,3.06 -1.34,5.82 -3.5,7.81 -2.1,1.93 -5,3.13 -8.17,3.13 -15.1,0 -31.15,0.56 -46.13,-0.03l-0.88 -0.1 -0.88 -0.16 -0.89 -0.23 -1.02 -0.36 -0.97 -0.43c-0.77,-0.38 -1.48,-0.85 -2.12,-1.38 -0.67,-0.54 -1.27,-1.15 -1.77,-1.81 -0.51,-0.65 -0.94,-1.34 -1.27,-2.05 -0.33,-0.73 -0.59,-1.49 -0.75,-2.26 -0.07,-0.34 -0.13,-0.7 -0.17,-1.06l-0.06 -1.06 0.04 -0.86 0.11 -0.86 0.19 -0.87c10.09,-33.21 24.34,-68.7 35.98,-101.82 0.5,-1.22 0.77,-2.23 0.53,-2.62 -0.29,-0.46 -1.43,-0.71 -3.93,-0.61 -19.61,0 -39.3,0.19 -58.9,0 -0.43,0.01 -0.86,0.05 -1.26,0.12 -0.49,0.09 -0.95,0.22 -1.36,0.38 -0.42,0.17 -0.83,0.38 -1.21,0.63l-0.02 0.01c-0.37,0.24 -0.72,0.54 -1.04,0.87 -0.3,0.31 -0.56,0.65 -0.78,1.03l-0.26 0.48c-13.77,32.28 -26.07,73.71 -38.04,107.58 -1.01,2.87 -3.18,5.08 -5.86,6.34 -2.62,1.23 -5.75,1.54 -8.76,0.64l-0.58 -0.19c-2.79,-0.98 -4.97,-2.89 -6.25,-5.22 -1.31,-2.38 -1.69,-5.21 -0.87,-7.97 15,-38.95 26.7,-81.89 42.5,-120.07l0.5 -0.93c0.43,-0.71 0.94,-1.37 1.5,-1.96 0.57,-0.59 1.21,-1.12 1.9,-1.58 0.68,-0.45 1.43,-0.85 2.22,-1.16 0.78,-0.31 1.58,-0.55 2.39,-0.69l1.09 -0.14c10.99,-0.49 92.64,0.53 93.79,-0.05 0.56,0 1.16,0.05 1.78,0.13l0.87 0.16 0.89 0.22 1 0.34 0.98 0.45c0.77,0.38 1.48,0.85 2.12,1.38 0.67,0.54 1.27,1.16 1.77,1.81 0.49,0.63 0.92,1.32 1.26,2.05 0.34,0.72 0.6,1.48 0.76,2.27 0.08,0.33 0.13,0.69 0.17,1.05l0.06 1.07 -0.05 0.86 -0.11 0.87 -0.19 0.86c-9.92,33.06 -24.36,68.85 -35.94,101.83 -0.33,0.8 -0.5,1.53 -0.45,2.11 0.01,0.2 0.06,0.36 0.14,0.48 0.08,0.12 0.25,0.24 0.51,0.34 0.7,0.28 1.77,0.39 3.29,0.27l0.2 0zm100.43 -154.36c18.54,52.53 41.57,110.06 57.38,162.73l0.18 0.86 0.12 0.87 0.04 0.86 -0.06 1.04c-0.03,0.36 -0.09,0.71 -0.16,1.05 -0.17,0.81 -0.43,1.59 -0.78,2.32 -0.35,0.75 -0.79,1.46 -1.3,2.1 -0.49,0.63 -1.07,1.22 -1.73,1.76 -0.62,0.51 -1.32,0.97 -2.08,1.35l-0.98 0.43 -1.02 0.36 -0.88 0.23 -0.89 0.17 -0.87 0.1c-14.37,0.57 -32.85,0.75 -47.13,-0.02 -0.3,-0.02 -0.67,-0.07 -1.1,-0.15 -0.83,-0.15 -1.62,-0.38 -2.36,-0.67 -0.77,-0.31 -1.49,-0.69 -2.16,-1.13 -0.7,-0.46 -1.35,-1 -1.93,-1.61 -0.59,-0.62 -1.11,-1.29 -1.52,-1.99l-0.49 -0.92c-5.42,-13.37 -9.18,-28.1 -14.67,-41.35l-0.25 -0.47c-0.23,-0.38 -0.5,-0.73 -0.8,-1.04 -0.31,-0.32 -0.66,-0.61 -1.04,-0.87 -0.38,-0.25 -0.79,-0.47 -1.21,-0.63 -0.42,-0.17 -0.88,-0.3 -1.35,-0.38l-0.64 -0.09c-9.26,-0.27 -18.83,-0.03 -28.12,-0.03 -3.17,0.01 -6.06,-1.19 -8.16,-3.12 -2.16,-1.99 -3.49,-4.75 -3.49,-7.81 0,-3.06 1.34,-5.82 3.5,-7.81 2.1,-1.94 4.98,-3.13 8.16,-3.13 13.64,0 28.22,-0.56 41.73,0.05l1.09 0.16c0.83,0.15 1.62,0.37 2.36,0.67 0.78,0.31 1.51,0.7 2.16,1.13 0.71,0.47 1.36,1.01 1.94,1.61 0.58,0.6 1.1,1.27 1.52,1.99l0.48 0.92c0.16,0.33 0.3,0.66 0.41,0.97 2.26,9.39 10.29,30.87 14.24,40.36l0.25 0.47c0.23,0.38 0.5,0.73 0.79,1.04 0.32,0.33 0.67,0.62 1.04,0.87l0.02 0.01c0.37,0.25 0.79,0.47 1.21,0.63 0.42,0.16 0.87,0.29 1.34,0.37l0.64 0.09c3.94,0.11 7.95,0.02 11.89,0.02 1.51,0.12 2.58,0.01 3.27,-0.27 0.27,-0.11 0.44,-0.23 0.53,-0.34 0.07,-0.1 0.12,-0.28 0.14,-0.49 0.04,-0.58 -0.13,-1.31 -0.45,-2.11 -16.62,-43.15 -29.62,-91.3 -47.17,-133.44l-0.25 -0.47c-0.23,-0.39 -0.5,-0.73 -0.79,-1.04 -0.31,-0.32 -0.67,-0.62 -1.05,-0.87 -0.39,-0.26 -0.8,-0.48 -1.22,-0.64 -0.4,-0.16 -0.86,-0.29 -1.35,-0.37l-0.64 -0.09c-44.7,-1.29 -91.43,-0.03 -136.36,-0.03 -3.17,0.01 -6.06,-1.19 -8.16,-3.12 -2.16,-1.99 -3.5,-4.75 -3.5,-7.81 0,-3.06 1.34,-5.82 3.5,-7.81 2.1,-1.93 4.99,-3.13 8.16,-3.13 13.14,0 148.59,0.17 148.94,-0 0.72,0 1.44,0.07 2.16,0.19 0.81,0.14 1.61,0.37 2.38,0.68 0.78,0.31 1.51,0.69 2.18,1.14 0.7,0.46 1.35,1 1.93,1.61 0.58,0.6 1.09,1.27 1.52,1.99l0.49 0.92 0.46 1.16zm92.33 17.98l5.75 0 0 13.2 15.04 0 0 -13.2 5.75 0 0 32.68 -5.75 0 0 -14.49 -15.04 0 0 14.49 -5.75 0 0 -32.68zm37.35 32.68l-6.3 0 13.85 -32.68 5.61 0 13.75 32.68 -6.44 0 -2.99 -7.43 -14.58 0 -2.89 7.43zm4.69 -12.23l11.04 0 -5.47 -14.03 -5.57 14.03zm29.79 -20.44l8.51 18.64 8.24 -18.64 6.3 0 -11.73 25.57c-0.52,1.14 -1.09,2.18 -1.7,3.14 -0.61,0.96 -1.33,1.79 -2.16,2.49 -0.83,0.68 -1.78,1.22 -2.85,1.61 -1.04,0.4 -2.26,0.6 -3.64,0.6 -0.98,0 -1.82,-0.08 -2.53,-0.23 -0.67,-0.12 -1.26,-0.29 -1.75,-0.51 -0.46,-0.21 -0.86,-0.44 -1.2,-0.69 -0.34,-0.24 -0.63,-0.48 -0.87,-0.69l3.36 -4.25c0.34,0.31 0.78,0.63 1.33,0.97 0.58,0.34 1.27,0.51 2.07,0.51 0.86,0 1.61,-0.26 2.25,-0.79 0.64,-0.55 1.26,-1.35 1.84,-2.4l-11.87 -25.34 6.39 0zm44.17 0l5.75 0 0 32.68 -5.7 0 0 -13.34 -6.85 0c-1.9,0 -3.56,-0.26 -4.97,-0.79 -1.38,-0.55 -2.53,-1.34 -3.45,-2.35 -0.89,-1.01 -1.55,-2.24 -1.98,-3.69 -0.43,-1.45 -0.65,-3.08 -0.65,-4.89l0 -7.61 5.75 0 0 5.95c0,1.39 0.08,2.6 0.23,3.65 0.18,1.04 0.51,1.92 0.97,2.63 0.46,0.71 1.07,1.25 1.84,1.62 0.8,0.34 1.83,0.51 3.08,0.51l5.98 0 0 -14.35zm14.18 0l5.75 0 0 13.2 15.04 0 0 -13.2 5.75 0 0 32.68 -5.75 0 0 -14.49 -15.04 0 0 14.49 -5.75 0 0 -32.68zm68.13 16.25c0,2.55 -0.44,4.89 -1.33,7.02 -0.86,2.09 -2.07,3.91 -3.63,5.44 -1.53,1.54 -3.37,2.74 -5.52,3.6 -2.11,0.83 -4.42,1.25 -6.9,1.25 -2.49,0 -4.78,-0.42 -6.9,-1.25 -2.11,-0.86 -3.95,-2.06 -5.52,-3.6 -1.56,-1.54 -2.79,-3.35 -3.68,-5.44 -0.86,-2.12 -1.29,-4.46 -1.29,-7.02 0,-2.55 0.43,-4.88 1.29,-6.97 0.89,-2.12 2.11,-3.92 3.68,-5.4 1.56,-1.51 3.41,-2.68 5.52,-3.51 2.12,-0.83 4.42,-1.25 6.9,-1.25 2.48,0 4.78,0.41 6.9,1.25 2.15,0.83 3.99,2 5.52,3.51 1.56,1.48 2.78,3.28 3.63,5.4 0.89,2.09 1.33,4.42 1.33,6.97zm-6.16 0c0,-1.63 -0.26,-3.17 -0.78,-4.62 -0.52,-1.44 -1.27,-2.7 -2.26,-3.78 -0.98,-1.08 -2.16,-1.92 -3.54,-2.54 -1.38,-0.65 -2.93,-0.97 -4.65,-0.97 -1.72,0 -3.27,0.32 -4.64,0.97 -1.38,0.61 -2.56,1.46 -3.55,2.54 -0.98,1.08 -1.73,2.34 -2.25,3.78 -0.52,1.45 -0.78,2.99 -0.78,4.62 0,1.66 0.26,3.23 0.78,4.71 0.55,1.48 1.3,2.75 2.25,3.83 0.99,1.07 2.17,1.94 3.55,2.58 1.38,0.61 2.93,0.92 4.64,0.92 1.69,0 3.22,-0.31 4.6,-0.92 1.41,-0.65 2.59,-1.51 3.54,-2.58 0.98,-1.08 1.74,-2.36 2.26,-3.83 0.55,-1.48 0.83,-3.05 0.83,-4.71zm22.05 7.43l-11.04 0 0 -4.71 11.04 0 0 4.71zm32.16 -23.68l0 32.68 -5.75 0 0 -27.69 -14.17 0 0 27.69 -5.75 0 0 -32.68 25.67 0zm8.44 0l10.68 0c1.72,0 3.31,0.18 4.78,0.55 1.48,0.34 2.73,0.89 3.78,1.66 1.07,0.77 1.9,1.75 2.48,2.95 0.61,1.17 0.92,2.6 0.92,4.29 0,1.69 -0.33,3.15 -0.97,4.38 -0.61,1.2 -1.47,2.18 -2.58,2.95 -1.07,0.77 -2.35,1.34 -3.82,1.71 -1.47,0.34 -3.05,0.51 -4.74,0.51l-4.78 0 0 13.66 -5.75 0 0 -32.68zm5.75 14.35l4.37 0c0.98,0 1.88,-0.1 2.71,-0.28 0.83,-0.18 1.53,-0.48 2.11,-0.87 0.62,-0.4 1.08,-0.91 1.38,-1.52 0.34,-0.61 0.51,-1.35 0.51,-2.21 0,-0.89 -0.17,-1.63 -0.51,-2.22 -0.34,-0.61 -0.8,-1.11 -1.38,-1.48 -0.58,-0.37 -1.28,-0.63 -2.11,-0.79 -0.8,-0.15 -1.67,-0.23 -2.62,-0.23l-4.46 0 0 9.6zm56.36 1.89c0,2.55 -0.44,4.89 -1.33,7.02 -0.86,2.09 -2.07,3.91 -3.63,5.44 -1.53,1.54 -3.37,2.74 -5.52,3.6 -2.11,0.83 -4.41,1.25 -6.9,1.25 -2.48,0 -4.78,-0.42 -6.9,-1.25 -2.11,-0.86 -3.95,-2.06 -5.52,-3.6 -1.56,-1.54 -2.79,-3.35 -3.68,-5.44 -0.86,-2.12 -1.29,-4.46 -1.29,-7.02 0,-2.55 0.43,-4.88 1.29,-6.97 0.89,-2.12 2.12,-3.92 3.68,-5.4 1.57,-1.51 3.41,-2.68 5.52,-3.51 2.12,-0.83 4.42,-1.25 6.9,-1.25 2.49,0 4.79,0.41 6.9,1.25 2.15,0.83 3.99,2 5.52,3.51 1.56,1.48 2.77,3.28 3.63,5.4 0.89,2.09 1.33,4.42 1.33,6.97zm-6.16 0c0,-1.63 -0.26,-3.17 -0.78,-4.62 -0.52,-1.44 -1.27,-2.7 -2.26,-3.78 -0.98,-1.08 -2.16,-1.92 -3.54,-2.54 -1.38,-0.65 -2.93,-0.97 -4.65,-0.97 -1.72,0 -3.26,0.32 -4.64,0.97 -1.38,0.61 -2.56,1.46 -3.54,2.54 -0.98,1.08 -1.73,2.34 -2.25,3.78 -0.52,1.45 -0.78,2.99 -0.78,4.62 0,1.66 0.26,3.23 0.78,4.71 0.55,1.48 1.3,2.75 2.25,3.83 0.98,1.07 2.16,1.94 3.54,2.58 1.38,0.61 2.92,0.92 4.64,0.92 1.69,0 3.22,-0.31 4.6,-0.92 1.41,-0.65 2.59,-1.51 3.54,-2.58 0.98,-1.08 1.74,-2.36 2.26,-3.83 0.55,-1.48 0.82,-3.05 0.82,-4.71zm18.84 8.31l16.01 -24.55 6.72 0 0 32.68 -5.75 0 0 -24.55 -0.09 0 -16.05 24.55 -6.67 0 0 -32.68 5.75 0 0 24.55 0.09 0zm36.02 -10.94l3.32 0c2.12,0 3.79,-0.4 5.01,-1.2 1.23,-0.8 1.84,-2.01 1.84,-3.64 0,-1.51 -0.51,-2.68 -1.51,-3.51 -0.99,-0.83 -2.29,-1.25 -3.91,-1.25 -1.38,0 -2.55,0.37 -3.5,1.11 -0.95,0.74 -1.64,1.75 -2.07,3.05l-4.97 -2.12c0.89,-2.19 2.27,-3.88 4.14,-5.08 1.87,-1.2 4.12,-1.8 6.76,-1.8 1.57,0 3.02,0.2 4.37,0.6 1.35,0.37 2.52,0.92 3.5,1.66 1.01,0.74 1.79,1.68 2.34,2.82 0.58,1.11 0.87,2.4 0.87,3.88 0,1.02 -0.2,1.94 -0.6,2.77 -0.4,0.83 -0.91,1.55 -1.52,2.17 -0.61,0.61 -1.3,1.12 -2.07,1.52 -0.76,0.37 -1.51,0.65 -2.25,0.83l0 0.09c0.82,0.09 1.7,0.29 2.62,0.6 0.92,0.31 1.76,0.79 2.53,1.43 0.77,0.61 1.4,1.42 1.89,2.4 0.49,0.96 0.74,2.12 0.74,3.51 0,1.57 -0.34,2.97 -1.01,4.2 -0.65,1.23 -1.53,2.29 -2.67,3.18 -1.1,0.86 -2.42,1.52 -3.95,1.98 -1.51,0.46 -3.13,0.69 -4.88,0.69 -1.59,0 -3.02,-0.2 -4.28,-0.6 -1.26,-0.37 -2.36,-0.89 -3.31,-1.57 -0.95,-0.71 -1.76,-1.54 -2.44,-2.49 -0.67,-0.95 -1.21,-2 -1.61,-3.14l5.11 -1.94c0.61,1.57 1.45,2.79 2.53,3.65 1.07,0.83 2.51,1.25 4.32,1.25 2.02,0 3.59,-0.46 4.7,-1.39 1.11,-0.95 1.65,-2.23 1.65,-3.83 0,-1.94 -0.73,-3.34 -2.21,-4.2 -1.44,-0.89 -3.57,-1.34 -6.39,-1.34l-3.09 0 0 -4.29zm24.61 -13.61l11.46 0c1.26,0 2.53,0.14 3.82,0.41 1.29,0.25 2.43,0.69 3.45,1.34 1.04,0.61 1.89,1.46 2.53,2.54 0.67,1.08 1.01,2.44 1.01,4.11 0,1.75 -0.51,3.25 -1.52,4.48 -1.01,1.23 -2.35,2.08 -4,2.54l0 0.09c0.98,0.15 1.9,0.45 2.76,0.88 0.86,0.4 1.59,0.94 2.21,1.61 0.65,0.65 1.13,1.43 1.47,2.36 0.37,0.89 0.56,1.91 0.56,3.05 0,1.57 -0.33,2.94 -0.97,4.11 -0.64,1.17 -1.53,2.14 -2.66,2.91 -1.11,0.77 -2.41,1.34 -3.91,1.71 -1.48,0.37 -3.05,0.55 -4.74,0.55l-11.46 0 0 -32.68zm5.62 13.61l5.33 0c0.77,0 1.49,-0.08 2.16,-0.23 0.71,-0.18 1.32,-0.46 1.84,-0.83 0.52,-0.37 0.94,-0.83 1.25,-1.39 0.3,-0.58 0.46,-1.29 0.46,-2.12 0,-1.54 -0.58,-2.65 -1.75,-3.32 -1.16,-0.68 -2.68,-1.02 -4.55,-1.02l-4.73 0 0 8.91zm0 14.31l5.19 0c0.89,0 1.77,-0.08 2.63,-0.23 0.86,-0.19 1.61,-0.46 2.26,-0.83 0.67,-0.4 1.21,-0.92 1.61,-1.57 0.43,-0.65 0.64,-1.45 0.64,-2.4 0,-1.75 -0.61,-3 -1.84,-3.74 -1.23,-0.77 -2.89,-1.16 -5.01,-1.16l-5.47 0 0 9.92zm58.34 -11.68c0,2.55 -0.45,4.89 -1.33,7.02 -0.86,2.09 -2.07,3.91 -3.64,5.44 -1.53,1.54 -3.37,2.74 -5.52,3.6 -2.12,0.83 -4.42,1.25 -6.9,1.25 -2.48,0 -4.78,-0.42 -6.9,-1.25 -2.11,-0.86 -3.95,-2.06 -5.52,-3.6 -1.56,-1.54 -2.79,-3.35 -3.68,-5.44 -0.86,-2.12 -1.29,-4.46 -1.29,-7.02 0,-2.55 0.43,-4.88 1.29,-6.97 0.89,-2.12 2.12,-3.92 3.68,-5.4 1.57,-1.51 3.4,-2.68 5.52,-3.51 2.12,-0.83 4.42,-1.25 6.9,-1.25 2.48,0 4.78,0.41 6.9,1.25 2.15,0.83 3.99,2 5.52,3.51 1.57,1.48 2.78,3.28 3.64,5.4 0.89,2.09 1.33,4.42 1.33,6.97zm-6.16 0c0,-1.63 -0.26,-3.17 -0.79,-4.62 -0.52,-1.44 -1.27,-2.7 -2.25,-3.78 -0.98,-1.08 -2.16,-1.92 -3.54,-2.54 -1.38,-0.65 -2.93,-0.97 -4.65,-0.97 -1.72,0 -3.26,0.32 -4.65,0.97 -1.38,0.61 -2.56,1.46 -3.54,2.54 -0.98,1.08 -1.73,2.34 -2.25,3.78 -0.52,1.45 -0.78,2.99 -0.78,4.62 0,1.66 0.26,3.23 0.78,4.71 0.55,1.48 1.3,2.75 2.25,3.83 0.98,1.07 2.16,1.94 3.54,2.58 1.38,0.61 2.93,0.92 4.65,0.92 1.69,0 3.22,-0.31 4.6,-0.92 1.41,-0.65 2.59,-1.51 3.54,-2.58 0.98,-1.08 1.73,-2.36 2.25,-3.83 0.55,-1.48 0.83,-3.05 0.83,-4.71zm14.05 16.43l0 6.42 -5.01 0 0 -11.4 4.92 0 10.4 -27.69 5.61 0 10.31 27.69 5.01 0 0 11.4 -5.01 0 0 -6.42 -26.22 0zm5.79 -4.98l14.35 0 -7.18 -21.23 -7.18 21.23zm58.01 0.14c-1.28,1.66 -2.98,3.03 -5.06,4.11 -2.05,1.08 -4.51,1.62 -7.36,1.62 -2.48,0 -4.78,-0.42 -6.9,-1.25 -2.12,-0.86 -3.94,-2.05 -5.47,-3.56 -1.53,-1.53 -2.74,-3.37 -3.63,-5.49 -0.86,-2.12 -1.29,-4.45 -1.29,-6.97 0,-2.55 0.45,-4.88 1.34,-6.97 0.89,-2.12 2.1,-3.94 3.64,-5.44 1.56,-1.51 3.4,-2.68 5.52,-3.51 2.11,-0.83 4.4,-1.25 6.85,-1.25 2.36,0 4.62,0.44 6.77,1.34 2.18,0.86 3.89,2.08 5.15,3.65l-4.14 3.83c-0.71,-1.05 -1.74,-1.91 -3.08,-2.59 -1.35,-0.68 -2.86,-1.02 -4.51,-1.02 -1.72,0 -3.27,0.32 -4.65,0.97 -1.38,0.61 -2.56,1.46 -3.54,2.54 -0.98,1.08 -1.75,2.34 -2.3,3.78 -0.52,1.45 -0.78,3 -0.78,4.66 0,1.69 0.26,3.28 0.78,4.75 0.55,1.45 1.3,2.71 2.25,3.78 0.98,1.08 2.17,1.93 3.55,2.54 1.38,0.61 2.93,0.92 4.65,0.92 1.69,0 3.24,-0.34 4.64,-1.02 1.41,-0.71 2.56,-1.71 3.45,-3l4.14 3.56zm17.62 4.84l-5.8 0 0 -27.69 -9.98 0 0 -4.98 25.76 0 0 4.98 -9.98 0 0 27.69zm14.99 -32.68l11.46 0c1.26,0 2.53,0.14 3.82,0.41 1.29,0.25 2.44,0.69 3.45,1.34 1.04,0.61 1.89,1.46 2.53,2.54 0.68,1.08 1.02,2.44 1.02,4.11 0,1.75 -0.51,3.25 -1.52,4.48 -1.01,1.23 -2.35,2.08 -4,2.54l0 0.09c0.98,0.15 1.9,0.45 2.76,0.88 0.86,0.4 1.59,0.94 2.21,1.61 0.65,0.65 1.14,1.43 1.48,2.36 0.36,0.89 0.55,1.91 0.55,3.05 0,1.57 -0.32,2.94 -0.97,4.11 -0.65,1.17 -1.53,2.14 -2.67,2.91 -1.1,0.77 -2.41,1.34 -3.91,1.71 -1.47,0.37 -3.05,0.55 -4.74,0.55l-11.46 0 0 -32.68zm5.61 13.61l5.34 0c0.77,0 1.49,-0.08 2.16,-0.23 0.71,-0.18 1.32,-0.46 1.84,-0.83 0.52,-0.37 0.94,-0.83 1.24,-1.39 0.31,-0.58 0.46,-1.29 0.46,-2.12 0,-1.54 -0.58,-2.65 -1.74,-3.32 -1.17,-0.68 -2.68,-1.02 -4.55,-1.02l-4.74 0 0 8.91zm0 14.31l5.2 0c0.89,0 1.76,-0.08 2.62,-0.23 0.86,-0.19 1.61,-0.46 2.25,-0.83 0.68,-0.4 1.21,-0.92 1.61,-1.57 0.43,-0.65 0.65,-1.45 0.65,-2.4 0,-1.75 -0.61,-3 -1.84,-3.74 -1.23,-0.77 -2.9,-1.16 -5.01,-1.16l-5.47 0 0 9.92zm30.83 -0.23l16.19 0 0 4.98 -21.81 0 0 -32.68 21.12 0 0 4.98 -15.5 0 0 8.49 14.54 0 0 4.75 -14.54 0 0 9.46zm22.79 -27.69l5.75 0 0 13.2 15.04 0 0 -13.2 5.75 0 0 32.68 -5.75 0 0 -14.49 -15.04 0 0 14.49 -5.75 0 0 -32.68zm35.01 0l5.75 0 0 13.2 15.05 0 0 -13.2 5.75 0 0 32.68 -5.75 0 0 -14.49 -15.05 0 0 14.49 -5.75 0 0 -32.68zm68.13 16.25c0,2.55 -0.44,4.89 -1.33,7.02 -0.86,2.09 -2.07,3.91 -3.63,5.44 -1.54,1.54 -3.37,2.74 -5.52,3.6 -2.12,0.83 -4.42,1.25 -6.9,1.25 -2.49,0 -4.79,-0.42 -6.9,-1.25 -2.11,-0.86 -3.95,-2.06 -5.52,-3.6 -1.56,-1.54 -2.78,-3.35 -3.68,-5.44 -0.86,-2.12 -1.28,-4.46 -1.28,-7.02 0,-2.55 0.42,-4.88 1.28,-6.97 0.9,-2.12 2.12,-3.92 3.68,-5.4 1.57,-1.51 3.41,-2.68 5.52,-3.51 2.12,-0.83 4.42,-1.25 6.9,-1.25 2.48,0 4.78,0.41 6.9,1.25 2.15,0.83 3.98,2 5.52,3.51 1.56,1.48 2.77,3.28 3.63,5.4 0.89,2.09 1.33,4.42 1.33,6.97zm-6.16 0c0,-1.63 -0.26,-3.17 -0.78,-4.62 -0.52,-1.44 -1.27,-2.7 -2.25,-3.78 -0.98,-1.08 -2.17,-1.92 -3.55,-2.54 -1.38,-0.65 -2.93,-0.97 -4.64,-0.97 -1.72,0 -3.27,0.32 -4.65,0.97 -1.38,0.61 -2.56,1.46 -3.54,2.54 -0.98,1.08 -1.73,2.34 -2.25,3.78 -0.52,1.45 -0.79,2.99 -0.79,4.62 0,1.66 0.26,3.23 0.79,4.71 0.55,1.48 1.3,2.75 2.25,3.83 0.99,1.07 2.16,1.94 3.54,2.58 1.38,0.61 2.93,0.92 4.65,0.92 1.69,0 3.22,-0.31 4.6,-0.92 1.42,-0.65 2.6,-1.51 3.55,-2.58 0.98,-1.08 1.73,-2.36 2.25,-3.83 0.55,-1.48 0.83,-3.05 0.83,-4.71zm18.61 11.45l16.19 0 0 4.98 -21.81 0 0 -32.68 21.12 0 0 4.98 -15.5 0 0 8.49 14.54 0 0 4.75 -14.54 0 0 9.46zm60.79 -27.69l0 32.68 -5.75 0 0 -27.69 -14.17 0 0 27.69 -5.75 0 0 -32.68 25.67 0zm8.44 0l10.67 0c1.72,0 3.31,0.18 4.78,0.55 1.47,0.34 2.73,0.89 3.77,1.66 1.07,0.77 1.9,1.75 2.48,2.95 0.61,1.17 0.92,2.6 0.92,4.29 0,1.69 -0.32,3.15 -0.97,4.38 -0.61,1.2 -1.47,2.18 -2.57,2.95 -1.08,0.77 -2.35,1.34 -3.82,1.71 -1.47,0.34 -3.05,0.51 -4.74,0.51l-4.78 0 0 13.66 -5.75 0 0 -32.68zm5.75 14.35l4.37 0c0.98,0 1.89,-0.1 2.71,-0.28 0.83,-0.18 1.54,-0.48 2.12,-0.87 0.61,-0.4 1.07,-0.91 1.38,-1.52 0.33,-0.61 0.5,-1.35 0.5,-2.21 0,-0.89 -0.17,-1.63 -0.5,-2.22 -0.34,-0.61 -0.8,-1.11 -1.38,-1.48 -0.58,-0.37 -1.29,-0.63 -2.12,-0.79 -0.8,-0.15 -1.67,-0.23 -2.62,-0.23l-4.46 0 0 9.6zm28.85 13.34l16.19 0 0 4.98 -21.8 0 0 -32.68 21.11 0 0 4.98 -15.5 0 0 8.49 14.54 0 0 4.75 -14.54 0 0 9.46zm23.85 4.98l0 6.42 -5.02 0 0 -11.4 4.92 0 10.4 -27.69 5.61 0 10.31 27.69 5.01 0 0 11.4 -5.01 0 0 -6.42 -26.22 0zm5.8 -4.98l14.35 0 -7.17 -21.23 -7.17 21.23zm55.62 -27.69l0 32.68 -5.75 0 0 -27.69 -14.17 0 0 27.69 -5.75 0 0 -32.68 25.67 0zm8.44 0l10.67 0c1.72,0 3.31,0.18 4.78,0.55 1.47,0.34 2.72,0.89 3.77,1.66 1.07,0.77 1.9,1.75 2.48,2.95 0.61,1.17 0.92,2.6 0.92,4.29 0,1.69 -0.32,3.15 -0.96,4.38 -0.61,1.2 -1.47,2.18 -2.57,2.95 -1.08,0.77 -2.35,1.34 -3.82,1.71 -1.47,0.34 -3.05,0.51 -4.74,0.51l-4.78 0 0 13.66 -5.75 0 0 -32.68zm5.75 14.35l4.37 0c0.98,0 1.89,-0.1 2.72,-0.28 0.82,-0.18 1.53,-0.48 2.12,-0.87 0.61,-0.4 1.07,-0.91 1.38,-1.52 0.34,-0.61 0.51,-1.35 0.51,-2.21 0,-0.89 -0.17,-1.63 -0.51,-2.22 -0.34,-0.61 -0.8,-1.11 -1.38,-1.48 -0.58,-0.37 -1.29,-0.63 -2.12,-0.79 -0.8,-0.15 -1.68,-0.23 -2.63,-0.23l-4.46 0 0 9.6zm29.08 10.2l16.01 -24.55 6.71 0 0 32.68 -5.75 0 0 -24.55 -0.09 0 -16.05 24.55 -6.67 0 0 -32.68 5.75 0 0 24.55 0.09 0zm48.53 -19.57l-4.6 0c-2.67,0 -4.65,0.38 -5.93,1.15 -1.29,0.74 -1.94,1.92 -1.94,3.55 0,1.39 0.63,2.49 1.89,3.32 1.26,0.83 3.25,1.25 5.98,1.25l4.6 0 0 -9.28zm-11.27 12.14c-2.21,-0.37 -3.99,-1.19 -5.34,-2.45 -1.32,-1.29 -1.98,-3.03 -1.98,-5.21 -0.03,-3.08 1.12,-5.42 3.45,-7.02 2.36,-1.63 5.69,-2.44 9.98,-2.44l10.91 0 0 32.68 -5.75 0 0 -13.43 -3.22 0c-1.44,0 -2.76,0.26 -3.96,0.79 -1.19,0.52 -2.25,1.32 -3.17,2.4 -0.92,1.08 -1.69,2.48 -2.3,4.2 -0.58,1.69 -1,3.71 -1.24,6.05l-6.26 0c0.12,-1.94 0.44,-3.72 0.97,-5.35 0.52,-1.66 1.17,-3.14 1.93,-4.43 0.8,-1.32 1.7,-2.46 2.71,-3.42 1.01,-0.95 2.1,-1.71 3.27,-2.26l0 -0.09zm37.8 15.55l-5.79 0 0 -27.69 -9.99 0 0 -4.98 25.76 0 0 4.98 -9.98 0 0 27.69zm20.84 -8.12l16.01 -24.55 6.72 0 0 32.68 -5.75 0 0 -24.55 -0.1 0 -16.05 24.55 -6.67 0 0 -32.68 5.75 0 0 24.55 0.09 0zm36.8 3.14l16.19 0 0 4.98 -21.8 0 0 -32.68 21.12 0 0 4.98 -15.5 0 0 8.49 14.54 0 0 4.75 -14.54 0 0 9.46zm-1070.27 68.68l-11.83 0 7.31 -22.34 10.35 0 -5.83 22.34zm-17.25 0l-11.74 0 7.47 -22.34 10.35 0 -6.08 22.34zm81.72 -22.34l0 58.35 -13.97 0 0 -46.48 -21.36 0 0 46.48 -13.97 0 0 -58.35 49.29 0zm72.62 28.93c0,4.61 -0.8,8.85 -2.38,12.69 -1.59,3.79 -3.81,7.06 -6.65,9.81 -2.79,2.69 -6.14,4.78 -10.02,6.26 -3.89,1.48 -8.11,2.22 -12.65,2.22 -4.55,0 -8.77,-0.74 -12.65,-2.22 -3.84,-1.48 -7.18,-3.57 -10.02,-6.26 -2.8,-2.75 -4.99,-6.02 -6.58,-9.81 -1.59,-3.84 -2.38,-8.08 -2.38,-12.69 0,-4.67 0.79,-8.87 2.38,-12.61 1.59,-3.79 3.78,-7.01 6.58,-9.64 2.84,-2.64 6.18,-4.67 10.02,-6.1 3.88,-1.43 8.1,-2.14 12.65,-2.14 4.54,0 8.76,0.71 12.65,2.14 3.89,1.43 7.23,3.46 10.02,6.1 2.85,2.64 5.06,5.85 6.65,9.64 1.59,3.74 2.38,7.94 2.38,12.61zm-15.03 0c0,-2.53 -0.41,-4.89 -1.23,-7.09 -0.82,-2.2 -1.97,-4.07 -3.45,-5.6 -1.43,-1.59 -3.18,-2.83 -5.26,-3.71 -2.03,-0.94 -4.28,-1.4 -6.74,-1.4 -2.47,0 -4.71,0.47 -6.74,1.4 -2.03,0.88 -3.78,2.11 -5.26,3.71 -1.48,1.54 -2.63,3.4 -3.45,5.6 -0.77,2.2 -1.15,4.56 -1.15,7.09 0,2.64 0.41,5.08 1.23,7.34 0.82,2.2 1.95,4.09 3.37,5.68 1.48,1.59 3.23,2.86 5.26,3.79 2.02,0.88 4.27,1.32 6.74,1.32 2.46,0 4.71,-0.44 6.74,-1.32 2.02,-0.93 3.78,-2.2 5.26,-3.79 1.48,-1.59 2.63,-3.49 3.45,-5.68 0.82,-2.25 1.23,-4.7 1.23,-7.34zm32.16 29.42l-15.03 0 22.59 -58.35 14.38 0 23.08 58.35 -15.36 0 -14.78 -38.9 -14.87 38.9zm64.09 -19.45l24.15 -38.9 15.86 0 0 58.35 -13.97 0 0 -38.41 -0.25 0 -24.23 38.41 -15.77 0 0 -58.35 13.97 0 0 38.9 0.25 0zm76.86 -26.87l0 46.32 -14.05 0 0 -46.32 -16.43 0 0 -12.03 46.9 0 0 12.03 -16.43 0zm22.84 46.32l0 -58.35 39.1 0 0 11.95 -25.55 0 0 10.96 24.15 0 0 11.29 -24.15 0 0 12.12 27.02 0 0 12.03 -40.58 0zm84.98 0l-12.73 -20.6 -12.24 20.6 -16.76 0 20.37 -30.83 -18.73 -27.53 16.92 0 10.84 18.13 10.68 -18.13 16.34 0 -18.4 27.53 21.03 30.83 -17.33 0zm19.64 -16.24l0 -10.72 20.87 0 0 10.72 -20.87 0zm37.97 16.24l-15.28 0 24.4 -58.35 13.64 0 24.15 58.35 -15.61 0 -4.52 -11.46 -22.51 0 -4.27 11.46zm8.3 -22.75l14.62 0 -7.23 -20.03 -7.39 20.03zm88.76 5.77c0,3.19 -0.63,5.88 -1.89,8.08 -1.26,2.15 -2.92,3.87 -5.01,5.2 -2.08,1.32 -4.46,2.28 -7.15,2.89 -2.63,0.55 -5.34,0.82 -8.13,0.82l-23.16 0 0 -58.35 23.16 0c2.25,0 4.55,0.25 6.9,0.74 2.35,0.44 4.49,1.24 6.41,2.39 1.92,1.1 3.48,2.61 4.68,4.53 1.2,1.92 1.81,4.37 1.81,7.34 0,3.24 -0.88,5.93 -2.63,8.08 -1.75,2.09 -4.05,3.6 -6.9,4.53l0 0.16c1.64,0.28 3.18,0.8 4.6,1.57 1.48,0.71 2.74,1.65 3.78,2.8 1.1,1.15 1.94,2.5 2.55,4.04 0.66,1.54 0.98,3.27 0.98,5.19zm-15.93 -24.48c0,-1.98 -0.77,-3.41 -2.3,-4.29 -1.48,-0.93 -3.7,-1.4 -6.65,-1.4l-6.9 0 0 12.03 7.55 0c2.63,0 4.66,-0.52 6.08,-1.57 1.48,-1.1 2.22,-2.69 2.22,-4.78zm1.89 23.16c0,-2.42 -0.9,-4.09 -2.71,-5.03 -1.81,-0.93 -4.22,-1.4 -7.23,-1.4l-7.8 0 0 13.35 7.89 0c1.09,0 2.22,-0.08 3.36,-0.25 1.21,-0.22 2.27,-0.58 3.21,-1.07 0.99,-0.49 1.78,-1.18 2.38,-2.06 0.6,-0.94 0.9,-2.12 0.9,-3.55zm48.22 -28.02l0 46.32 -14.05 0 0 -46.32 -16.43 0 0 -12.03 46.9 0 0 12.03 -16.43 0zm83.47 16.9c0,4.61 -0.8,8.85 -2.38,12.69 -1.59,3.79 -3.81,7.06 -6.65,9.81 -2.8,2.69 -6.14,4.78 -10.02,6.26 -3.89,1.48 -8.11,2.22 -12.65,2.22 -4.55,0 -8.77,-0.74 -12.65,-2.22 -3.84,-1.48 -7.18,-3.57 -10.02,-6.26 -2.79,-2.75 -4.98,-6.02 -6.57,-9.81 -1.59,-3.84 -2.38,-8.08 -2.38,-12.69 0,-4.67 0.79,-8.87 2.38,-12.61 1.58,-3.79 3.78,-7.01 6.57,-9.64 2.85,-2.64 6.19,-4.67 10.02,-6.1 3.88,-1.43 8.1,-2.14 12.65,-2.14 4.54,0 8.76,0.71 12.65,2.14 3.89,1.43 7.23,3.46 10.02,6.1 2.85,2.64 5.06,5.85 6.65,9.64 1.59,3.74 2.38,7.94 2.38,12.61zm-15.03 0c0,-2.53 -0.41,-4.89 -1.24,-7.09 -0.82,-2.2 -1.97,-4.07 -3.45,-5.6 -1.43,-1.59 -3.18,-2.83 -5.26,-3.71 -2.03,-0.94 -4.27,-1.4 -6.73,-1.4 -2.47,0 -4.71,0.47 -6.74,1.4 -2.03,0.88 -3.78,2.11 -5.26,3.71 -1.48,1.54 -2.63,3.4 -3.45,5.6 -0.77,2.2 -1.15,4.56 -1.15,7.09 0,2.64 0.41,5.08 1.23,7.34 0.82,2.2 1.95,4.09 3.37,5.68 1.48,1.59 3.23,2.86 5.26,3.79 2.03,0.88 4.27,1.32 6.74,1.32 2.46,0 4.7,-0.44 6.73,-1.32 2.03,-0.93 3.78,-2.2 5.26,-3.79 1.48,-1.59 2.63,-3.49 3.45,-5.68 0.82,-2.25 1.24,-4.7 1.24,-7.34zm77.01 29.42l0.33 -41.29 -0.24 0 -15.12 41.29 -9.86 0 -14.7 -41.29 -0.25 0 0.33 41.29 -13.23 0 0 -58.35 19.96 0 13.22 37.42 0.33 0 12.65 -37.42 20.29 0 0 58.35 -13.72 0zm33.85 0l-15.28 0 24.4 -58.35 13.64 0 24.15 58.35 -15.61 0 -4.52 -11.46 -22.51 0 -4.27 11.46zm8.29 -22.75l14.62 0 -7.23 -20.03 -7.4 20.03zm68.31 -23.57l0 46.32 -14.05 0 0 -46.32 -16.43 0 0 -12.03 46.91 0 0 12.03 -16.43 0zm37.05 26.87l24.15 -38.9 15.85 0 0 58.35 -13.97 0 0 -38.41 -0.25 0 -24.23 38.41 -15.77 0 0 -58.35 13.97 0 0 38.9 0.24 0zm51.98 19.45l0 -58.35 13.96 0 0 21.18c0.77,0 1.51,0.03 2.22,0.08 0.77,0 1.51,0.03 2.22,0.08l17.82 -21.35 15.28 0 -19.47 24.64c2.47,1.21 4.74,2.78 6.82,4.7 2.08,1.87 3.97,4.18 5.67,6.92 1.7,2.75 3.18,5.96 4.44,9.64 1.26,3.62 2.33,7.77 3.2,12.44l-15.28 0c-0.82,-4.45 -1.86,-8.3 -3.12,-11.54 -1.21,-3.24 -2.71,-5.88 -4.52,-7.91 -1.81,-2.09 -3.97,-3.6 -6.49,-4.53 -2.52,-0.99 -5.45,-1.43 -8.79,-1.32l0 25.3 -13.96 0zm66.69 0l-15.28 0 24.4 -58.35 13.63 0 24.15 58.35 -15.61 0 -4.52 -11.46 -22.51 0 -4.27 11.46zm8.3 -22.75l14.62 0 -7.23 -20.03 -7.39 20.03zm68.22 -13.27l-10.44 0 6.08 -22.34 11.74 0 -7.39 22.34zm-17.09 0l-10.35 0 5.91 -22.34 11.74 0 -7.31 22.34z"/>
</svg>
