<?xml version="1.0" encoding="UTF-8"?>
<!DOCTYPE svg PUBLIC "-//W3C//DTD SVG 1.1//EN" "http://www.w3.org/Graphics/SVG/1.1/DTD/svg11.dtd">
<!-- Creator: CorelDRAW 2020 (64-Bit) -->
<svg xmlns="http://www.w3.org/2000/svg" xml:space="preserve" width="72.4322mm" height="9.2645mm" version="1.1" style="shape-rendering:geometricPrecision; text-rendering:geometricPrecision; image-rendering:optimizeQuality; fill-rule:evenodd; clip-rule:evenodd"
viewBox="0 0 3338.37 427"
 xmlns:xlink="http://www.w3.org/1999/xlink"
 xmlns:xodm="http://www.corel.com/coreldraw/odm/2003">
 <defs>
  <style type="text/css">
   <![CDATA[
    .str0 {stroke:#E41D24;stroke-width:12.2;stroke-miterlimit:22.9256}
    .fil1 {fill:#E41D24}
    .fil0 {fill:#E41D24;fill-rule:nonzero}
   ]]>
  </style>
 </defs>
 <g id="Слой_x0020_1">
  <metadata id="CorelCorpID_0Corel-Layer"/>
  <g id="_2283073531536">
   <path class="fil0" d="M730.48 74.52l13.44 0 0 30.78 35.17 0 0 -30.78 13.44 0 0 76.19 -13.44 0 0 -33.79 -35.17 0 0 33.79 -13.44 0 0 -76.19zm87.33 76.19l-14.73 0 32.37 -76.19 13.12 0 32.16 76.19 -15.06 0 -6.99 -17.33 -34.09 0 -6.78 17.33zm10.97 -28.52l25.81 0 -12.79 -32.71 -13.02 32.71zm69.66 -47.67l19.89 43.48 19.26 -43.48 14.73 0 -27.42 59.62c-1.22,2.65 -2.54,5.09 -3.98,7.31 -1.43,2.23 -3.12,4.16 -5.06,5.81 -1.94,1.58 -4.16,2.83 -6.66,3.77 -2.44,0.94 -5.28,1.4 -8.5,1.4 -2.29,0 -4.26,-0.18 -5.91,-0.54 -1.58,-0.29 -2.94,-0.68 -4.09,-1.18 -1.08,-0.5 -2.01,-1.04 -2.8,-1.61 -0.79,-0.57 -1.47,-1.11 -2.05,-1.61l7.85 -9.9c0.79,0.72 1.83,1.47 3.12,2.26 1.36,0.79 2.98,1.18 4.84,1.18 2,0 3.76,-0.61 5.27,-1.83 1.51,-1.29 2.94,-3.16 4.3,-5.6l-27.75 -59.08 14.95 0zm103.27 0l13.44 0 0 76.19 -13.33 0 0 -31.1 -16.03 0c-4.45,0 -8.32,-0.61 -11.62,-1.83 -3.23,-1.29 -5.91,-3.12 -8.07,-5.49 -2.08,-2.36 -3.62,-5.24 -4.62,-8.61 -1,-3.37 -1.51,-7.17 -1.51,-11.41l0 -17.75 13.44 0 0 13.88c0,3.23 0.18,6.07 0.54,8.5 0.43,2.44 1.18,4.48 2.25,6.14 1.08,1.65 2.51,2.9 4.3,3.77 1.86,0.79 4.27,1.18 7.2,1.18l13.98 0 0 -33.47zm33.16 0l13.44 0 0 30.78 35.16 0 0 -30.78 13.44 0 0 76.19 -13.44 0 0 -33.79 -35.16 0 0 33.79 -13.44 0 0 -76.19zm159.28 37.88c0,5.95 -1.04,11.41 -3.11,16.36 -2,4.88 -4.84,9.11 -8.5,12.7 -3.58,3.59 -7.88,6.39 -12.91,8.39 -4.95,1.94 -10.32,2.91 -16.13,2.91 -5.81,0 -11.19,-0.97 -16.14,-2.91 -4.94,-2 -9.25,-4.81 -12.91,-8.39 -3.65,-3.59 -6.53,-7.82 -8.6,-12.7 -2,-4.95 -3.01,-10.41 -3.01,-16.36 0,-5.95 1.01,-11.37 3.01,-16.25 2.07,-4.95 4.95,-9.15 8.6,-12.59 3.66,-3.52 7.96,-6.25 12.91,-8.18 4.95,-1.94 10.32,-2.9 16.14,-2.9 5.81,0 11.19,0.97 16.13,2.9 5.02,1.94 9.32,4.66 12.91,8.18 3.66,3.44 6.49,7.64 8.5,12.59 2.07,4.88 3.11,10.3 3.11,16.25zm-14.4 0c0,-3.8 -0.61,-7.39 -1.83,-10.77 -1.22,-3.37 -2.98,-6.31 -5.27,-8.82 -2.28,-2.51 -5.05,-4.48 -8.27,-5.92 -3.23,-1.51 -6.85,-2.26 -10.86,-2.26 -4.01,0 -7.63,0.76 -10.86,2.26 -3.23,1.43 -5.99,3.41 -8.29,5.92 -2.3,2.51 -4.05,5.45 -5.27,8.82 -1.21,3.37 -1.83,6.96 -1.83,10.77 0,3.87 0.61,7.53 1.83,10.97 1.3,3.45 3.05,6.42 5.27,8.94 2.3,2.51 5.07,4.52 8.29,6.02 3.23,1.43 6.84,2.15 10.86,2.15 3.95,0 7.53,-0.72 10.76,-2.15 3.29,-1.51 6.06,-3.52 8.27,-6.02 2.3,-2.51 4.06,-5.49 5.27,-8.94 1.29,-3.44 1.94,-7.1 1.94,-10.97zm51.56 17.33l-25.81 0 0 -10.98 25.81 0 0 10.98zm75.2 -55.21l0 76.19 -13.44 0 0 -64.57 -33.12 0 0 64.57 -13.44 0 0 -76.19 60.01 0zm19.73 0l24.96 0c4.01,0 7.74,0.43 11.18,1.29 3.45,0.79 6.38,2.08 8.82,3.88 2.51,1.79 4.45,4.09 5.81,6.89 1.43,2.72 2.15,6.06 2.15,10.01 0,3.94 -0.76,7.35 -2.27,10.22 -1.43,2.79 -3.44,5.09 -6.02,6.89 -2.5,1.79 -5.48,3.12 -8.92,3.98 -3.45,0.79 -7.13,1.18 -11.08,1.18l-11.19 0 0 31.85 -13.45 0 0 -76.19zm13.45 33.47l10.21 0c2.3,0 4.41,-0.22 6.35,-0.65 1.94,-0.43 3.58,-1.11 4.94,-2.04 1.44,-0.94 2.52,-2.12 3.23,-3.55 0.79,-1.43 1.18,-3.16 1.18,-5.16 0,-2.08 -0.4,-3.8 -1.18,-5.17 -0.79,-1.43 -1.86,-2.58 -3.23,-3.44 -1.36,-0.86 -3.01,-1.47 -4.94,-1.83 -1.87,-0.36 -3.91,-0.53 -6.13,-0.53l-10.43 0 0 22.39zm131.77 4.41c0,5.95 -1.04,11.41 -3.12,16.36 -2.01,4.88 -4.84,9.11 -8.5,12.7 -3.59,3.59 -7.89,6.39 -12.91,8.39 -4.94,1.94 -10.32,2.91 -16.13,2.91 -5.8,0 -11.17,-0.97 -16.13,-2.91 -4.95,-2 -9.25,-4.81 -12.91,-8.39 -3.65,-3.59 -6.52,-7.82 -8.6,-12.7 -2.01,-4.95 -3.01,-10.41 -3.01,-16.36 0,-5.95 1,-11.37 3.01,-16.25 2.08,-4.95 4.95,-9.15 8.6,-12.59 3.66,-3.52 7.96,-6.25 12.91,-8.18 4.96,-1.94 10.33,-2.9 16.13,-2.9 5.81,0 11.19,0.97 16.13,2.9 5.02,1.94 9.32,4.66 12.91,8.18 3.65,3.44 6.49,7.64 8.5,12.59 2.08,4.88 3.12,10.3 3.12,16.25zm-14.42 0c0,-3.8 -0.6,-7.39 -1.82,-10.77 -1.22,-3.37 -2.98,-6.31 -5.27,-8.82 -2.3,-2.51 -5.05,-4.48 -8.28,-5.92 -3.23,-1.51 -6.84,-2.26 -10.87,-2.26 -4.01,0 -7.63,0.76 -10.86,2.26 -3.23,1.43 -5.98,3.41 -8.28,5.92 -2.3,2.51 -4.05,5.45 -5.27,8.82 -1.22,3.37 -1.83,6.96 -1.83,10.77 0,3.87 0.6,7.53 1.83,10.97 1.28,3.45 3.04,6.42 5.27,8.94 2.3,2.51 5.05,4.52 8.28,6.02 3.23,1.43 6.84,2.15 10.86,2.15 3.95,0 7.53,-0.72 10.76,-2.15 3.3,-1.51 6.06,-3.52 8.29,-6.02 2.3,-2.51 4.06,-5.49 5.27,-8.94 1.29,-3.44 1.93,-7.1 1.93,-10.97zm44.04 19.37l37.43 -57.25 15.7 0 0 76.19 -13.45 0 0 -57.25 -0.22 0 -37.53 57.25 -15.6 0 0 -76.19 13.44 0 0 57.25 0.21 0zm84.21 -25.51l7.75 0c4.95,0 8.85,-0.93 11.72,-2.8 2.87,-1.87 4.3,-4.7 4.3,-8.5 0,-3.52 -1.18,-6.25 -3.54,-8.18 -2.3,-1.94 -5.34,-2.9 -9.14,-2.9 -3.23,0 -5.95,0.86 -8.17,2.58 -2.23,1.72 -3.84,4.09 -4.84,7.11l-11.62 -4.95c2.08,-5.1 5.31,-9.04 9.68,-11.84 4.37,-2.8 9.64,-4.2 15.8,-4.2 3.66,0 7.07,0.47 10.22,1.4 3.16,0.86 5.89,2.15 8.19,3.87 2.36,1.72 4.18,3.91 5.48,6.57 1.36,2.58 2.05,5.6 2.05,9.04 0,2.37 -0.47,4.52 -1.4,6.46 -0.94,1.94 -2.12,3.62 -3.55,5.06 -1.43,1.43 -3.05,2.62 -4.84,3.55 -1.78,0.86 -3.54,1.51 -5.26,1.94l0 0.22c1.93,0.22 3.98,0.68 6.13,1.4 2.15,0.71 4.12,1.83 5.91,3.33 1.8,1.43 3.27,3.3 4.41,5.6 1.15,2.23 1.72,4.95 1.72,8.18 0,3.66 -0.79,6.93 -2.36,9.79 -1.51,2.87 -3.58,5.35 -6.24,7.43 -2.58,2.01 -5.66,3.55 -9.25,4.63 -3.52,1.08 -7.31,1.62 -11.4,1.62 -3.72,0 -7.06,-0.47 -10.01,-1.4 -2.94,-0.86 -5.52,-2.08 -7.73,-3.66 -2.22,-1.65 -4.13,-3.59 -5.71,-5.81 -1.58,-2.23 -2.83,-4.66 -3.77,-7.32l11.95 -4.52c1.43,3.65 3.4,6.49 5.91,8.5 2.51,1.94 5.88,2.91 10.1,2.91 4.73,0 8.39,-1.07 10.98,-3.23 2.58,-2.22 3.87,-5.2 3.87,-8.93 0,-4.52 -1.72,-7.78 -5.17,-9.79 -3.37,-2.08 -8.35,-3.12 -14.94,-3.12l-7.21 0 0 -10.01zm57.53 -31.75l26.78 0c2.94,0 5.91,0.32 8.93,0.96 3.01,0.58 5.69,1.62 8.07,3.12 2.44,1.43 4.41,3.41 5.92,5.92 1.58,2.51 2.36,5.7 2.36,9.58 0,4.09 -1.18,7.57 -3.54,10.44 -2.37,2.87 -5.49,4.84 -9.36,5.92l0 0.22c2.3,0.36 4.45,1.04 6.45,2.05 2.01,0.94 3.72,2.18 5.17,3.77 1.51,1.51 2.65,3.34 3.44,5.49 0.86,2.08 1.3,4.45 1.3,7.1 0,3.66 -0.76,6.85 -2.27,9.58 -1.5,2.73 -3.58,4.99 -6.23,6.78 -2.58,1.79 -5.62,3.12 -9.14,3.98 -3.45,0.86 -7.13,1.29 -11.08,1.29l-26.78 0 0 -76.19zm13.12 31.75l12.48 0c1.8,0 3.48,-0.18 5.05,-0.54 1.65,-0.43 3.08,-1.08 4.3,-1.94 1.22,-0.86 2.19,-1.94 2.91,-3.23 0.71,-1.36 1.07,-3.01 1.07,-4.95 0,-3.59 -1.36,-6.17 -4.09,-7.75 -2.72,-1.58 -6.27,-2.37 -10.65,-2.37l-11.08 0 0 20.77zm0 33.36l12.15 0c2.09,0 4.13,-0.18 6.14,-0.53 2,-0.43 3.76,-1.08 5.27,-1.94 1.58,-0.94 2.83,-2.15 3.76,-3.66 1,-1.51 1.5,-3.37 1.5,-5.6 0,-4.09 -1.43,-6.99 -4.3,-8.72 -2.86,-1.79 -6.77,-2.69 -11.72,-2.69l-12.8 0 0 23.14zm136.4 -27.23c0,5.95 -1.05,11.41 -3.12,16.36 -2,4.88 -4.83,9.11 -8.5,12.7 -3.58,3.59 -7.88,6.39 -12.91,8.39 -4.95,1.94 -10.32,2.91 -16.13,2.91 -5.81,0 -11.19,-0.97 -16.14,-2.91 -4.94,-2 -9.24,-4.81 -12.91,-8.39 -3.65,-3.59 -6.52,-7.82 -8.6,-12.7 -2,-4.95 -3.01,-10.41 -3.01,-16.36 0,-5.95 1.01,-11.37 3.01,-16.25 2.08,-4.95 4.95,-9.15 8.6,-12.59 3.66,-3.52 7.96,-6.25 12.91,-8.18 4.95,-1.94 10.33,-2.9 16.14,-2.9 5.81,0 11.19,0.97 16.13,2.9 5.02,1.94 9.33,4.66 12.91,8.18 3.66,3.44 6.49,7.64 8.5,12.59 2.08,4.88 3.12,10.3 3.12,16.25zm-14.41 0c0,-3.8 -0.62,-7.39 -1.84,-10.77 -1.21,-3.37 -2.96,-6.31 -5.26,-8.82 -2.29,-2.51 -5.06,-4.48 -8.28,-5.92 -3.23,-1.51 -6.85,-2.26 -10.86,-2.26 -4.01,0 -7.63,0.76 -10.86,2.26 -3.23,1.43 -5.99,3.41 -8.29,5.92 -2.29,2.51 -4.04,5.45 -5.26,8.82 -1.22,3.37 -1.83,6.96 -1.83,10.77 0,3.87 0.61,7.53 1.83,10.97 1.29,3.45 3.04,6.42 5.26,8.94 2.3,2.51 5.06,4.52 8.29,6.02 3.23,1.43 6.85,2.15 10.86,2.15 3.95,0 7.53,-0.72 10.76,-2.15 3.3,-1.51 6.06,-3.52 8.28,-6.02 2.3,-2.51 4.05,-5.49 5.27,-8.94 1.3,-3.44 1.94,-7.1 1.94,-10.97zm32.85 38.31l0 14.96 -11.73 0 0 -26.58 11.5 0 24.31 -64.57 13.12 0 24.09 64.57 11.72 0 0 26.58 -11.72 0 0 -14.96 -61.3 0zm13.55 -11.62l33.56 0 -16.78 -49.51 -16.78 49.51zm135.63 0.32c-3.01,3.87 -6.95,7.07 -11.83,9.58 -4.8,2.51 -10.54,3.77 -17.21,3.77 -5.81,0 -11.19,-0.97 -16.13,-2.91 -4.95,-2 -9.21,-4.77 -12.8,-8.29 -3.59,-3.58 -6.42,-7.85 -8.49,-12.8 -2.01,-4.95 -3.02,-10.37 -3.02,-16.25 0,-5.95 1.04,-11.37 3.12,-16.25 2.07,-4.95 4.9,-9.18 8.5,-12.7 3.65,-3.52 7.95,-6.25 12.91,-8.18 4.95,-1.94 10.28,-2.9 16.02,-2.9 5.52,0 10.79,1.04 15.82,3.12 5.09,2.01 9.1,4.84 12.04,8.5l-9.68 8.93c-1.65,-2.44 -4.06,-4.45 -7.21,-6.03 -3.16,-1.58 -6.67,-2.37 -10.54,-2.37 -4.01,0 -7.63,0.76 -10.86,2.26 -3.23,1.43 -5.99,3.41 -8.28,5.92 -2.3,2.51 -4.09,5.45 -5.38,8.82 -1.22,3.37 -1.83,7 -1.83,10.87 0,3.95 0.61,7.64 1.83,11.08 1.29,3.37 3.04,6.31 5.26,8.82 2.3,2.52 5.07,4.49 8.29,5.92 3.23,1.43 6.84,2.15 10.86,2.15 3.95,0 7.57,-0.79 10.86,-2.37 3.3,-1.65 5.99,-3.98 8.07,-6.99l9.68 8.29zm41.19 11.3l-13.56 0 0 -64.57 -23.34 0 0 -11.62 60.23 0 0 11.62 -23.33 0 0 64.57zm35.06 -76.19l26.78 0c2.94,0 5.92,0.32 8.92,0.96 3.01,0.58 5.71,1.62 8.07,3.12 2.44,1.43 4.42,3.41 5.91,5.92 1.59,2.51 2.37,5.7 2.37,9.58 0,4.09 -1.18,7.57 -3.55,10.44 -2.36,2.87 -5.48,4.84 -9.35,5.92l0 0.22c2.3,0.36 4.45,1.04 6.45,2.05 2.01,0.94 3.72,2.18 5.16,3.77 1.51,1.51 2.66,3.34 3.45,5.49 0.85,2.08 1.29,4.45 1.29,7.1 0,3.66 -0.75,6.85 -2.26,9.58 -1.51,2.73 -3.58,4.99 -6.24,6.78 -2.58,1.79 -5.63,3.12 -9.14,3.98 -3.44,0.86 -7.13,1.29 -11.08,1.29l-26.78 0 0 -76.19zm13.12 31.75l12.48 0c1.79,0 3.48,-0.18 5.05,-0.54 1.65,-0.43 3.08,-1.08 4.3,-1.94 1.22,-0.86 2.19,-1.94 2.9,-3.23 0.72,-1.36 1.07,-3.01 1.07,-4.95 0,-3.59 -1.36,-6.17 -4.08,-7.75 -2.73,-1.58 -6.27,-2.37 -10.65,-2.37l-11.08 0 0 20.77zm0 33.36l12.16 0c2.08,0 4.12,-0.18 6.13,-0.53 2.01,-0.43 3.76,-1.08 5.27,-1.94 1.59,-0.94 2.83,-2.15 3.77,-3.66 1.01,-1.51 1.51,-3.37 1.51,-5.6 0,-4.09 -1.43,-6.99 -4.3,-8.72 -2.87,-1.79 -6.78,-2.69 -11.73,-2.69l-12.8 0 0 23.14zm72.08 -0.53l37.85 0 0 11.62 -50.98 0 0 -76.19 49.37 0 0 11.62 -36.24 0 0 19.8 33.99 0 0 11.08 -33.99 0 0 22.06zm53.28 -64.57l13.44 0 0 30.78 35.17 0 0 -30.78 13.44 0 0 76.19 -13.44 0 0 -33.79 -35.17 0 0 33.79 -13.44 0 0 -76.19zm81.85 0l13.44 0 0 30.78 35.17 0 0 -30.78 13.45 0 0 76.19 -13.45 0 0 -33.79 -35.17 0 0 33.79 -13.44 0 0 -76.19zm159.29 37.88c0,5.95 -1.04,11.41 -3.12,16.36 -2.01,4.88 -4.84,9.11 -8.5,12.7 -3.59,3.59 -7.89,6.39 -12.91,8.39 -4.95,1.94 -10.32,2.91 -16.14,2.91 -5.81,0 -11.19,-0.97 -16.13,-2.91 -4.95,-2 -9.25,-4.81 -12.91,-8.39 -3.66,-3.59 -6.52,-7.82 -8.6,-12.7 -2.01,-4.95 -3.01,-10.41 -3.01,-16.36 0,-5.95 1,-11.37 3.01,-16.25 2.09,-4.95 4.95,-9.15 8.6,-12.59 3.66,-3.52 7.96,-6.25 12.91,-8.18 4.95,-1.94 10.32,-2.9 16.13,-2.9 5.81,0 11.19,0.97 16.14,2.9 5.02,1.94 9.32,4.66 12.91,8.18 3.65,3.44 6.49,7.64 8.5,12.59 2.08,4.88 3.12,10.3 3.12,16.25zm-14.42 0c0,-3.8 -0.6,-7.39 -1.83,-10.77 -1.22,-3.37 -2.97,-6.31 -5.27,-8.82 -2.3,-2.51 -5.06,-4.48 -8.29,-5.92 -3.23,-1.51 -6.85,-2.26 -10.86,-2.26 -4.01,0 -7.63,0.76 -10.86,2.26 -3.23,1.43 -5.98,3.41 -8.28,5.92 -2.3,2.51 -4.06,5.45 -5.27,8.82 -1.22,3.37 -1.83,6.96 -1.83,10.77 0,3.87 0.61,7.53 1.83,10.97 1.29,3.45 3.04,6.42 5.27,8.94 2.3,2.51 5.05,4.52 8.28,6.02 3.23,1.43 6.84,2.15 10.86,2.15 3.95,0 7.53,-0.72 10.75,-2.15 3.31,-1.51 6.07,-3.52 8.29,-6.02 2.3,-2.51 4.04,-5.49 5.26,-8.94 1.3,-3.44 1.94,-7.1 1.94,-10.97zm43.5 26.69l37.85 0 0 11.62 -50.98 0 0 -76.19 49.37 0 0 11.62 -36.24 0 0 19.8 33.98 0 0 11.08 -33.98 0 0 22.06zm142.11 -64.57l0 76.19 -13.45 0 0 -64.57 -33.13 0 0 64.57 -13.44 0 0 -76.19 60.02 0zm19.73 0l24.95 0c4.01,0 7.74,0.43 11.19,1.29 3.44,0.79 6.37,2.08 8.82,3.88 2.51,1.79 4.44,4.09 5.81,6.89 1.43,2.72 2.15,6.06 2.15,10.01 0,3.94 -0.75,7.35 -2.25,10.22 -1.43,2.79 -3.45,5.09 -6.02,6.89 -2.52,1.79 -5.49,3.12 -8.93,3.98 -3.44,0.79 -7.13,1.18 -11.08,1.18l-11.18 0 0 31.85 -13.44 0 0 -76.19zm13.44 33.47l10.21 0c2.3,0 4.41,-0.22 6.34,-0.65 1.94,-0.43 3.59,-1.11 4.96,-2.04 1.43,-0.94 2.5,-2.12 3.23,-3.55 0.78,-1.43 1.18,-3.16 1.18,-5.16 0,-2.08 -0.4,-3.8 -1.18,-5.17 -0.79,-1.43 -1.87,-2.58 -3.23,-3.44 -1.36,-0.86 -3.01,-1.47 -4.96,-1.83 -1.86,-0.36 -3.89,-0.53 -6.13,-0.53l-10.43 0 0 22.39zm67.45 31.1l37.85 0 0 11.62 -50.98 0 0 -76.19 49.37 0 0 11.62 -36.24 0 0 19.8 33.99 0 0 11.08 -33.99 0 0 22.06zm55.76 11.62l0 14.96 -11.73 0 0 -26.58 11.5 0 24.31 -64.57 13.12 0 24.1 64.57 11.72 0 0 26.58 -11.72 0 0 -14.96 -61.3 0zm13.55 -11.62l33.55 0 -16.78 -49.51 -16.77 49.51zm130.04 -64.57l0 76.19 -13.44 0 0 -64.57 -33.13 0 0 64.57 -13.44 0 0 -76.19 60.02 0zm19.74 0l24.95 0c4.01,0 7.75,0.43 11.19,1.29 3.43,0.79 6.37,2.08 8.81,3.88 2.52,1.79 4.45,4.09 5.81,6.89 1.43,2.72 2.15,6.06 2.15,10.01 0,3.94 -0.75,7.35 -2.25,10.22 -1.43,2.79 -3.44,5.09 -6.02,6.89 -2.52,1.79 -5.48,3.12 -8.93,3.98 -3.44,0.79 -7.13,1.18 -11.08,1.18l-11.19 0 0 31.85 -13.44 0 0 -76.19zm13.44 33.47l10.22 0c2.3,0 4.41,-0.22 6.35,-0.65 1.93,-0.43 3.59,-1.11 4.95,-2.04 1.43,-0.94 2.5,-2.12 3.23,-3.55 0.79,-1.43 1.18,-3.16 1.18,-5.16 0,-2.08 -0.39,-3.8 -1.18,-5.17 -0.79,-1.43 -1.87,-2.58 -3.23,-3.44 -1.36,-0.86 -3.02,-1.47 -4.95,-1.83 -1.87,-0.36 -3.91,-0.53 -6.13,-0.53l-10.43 0 0 22.39zm67.99 23.78l37.43 -57.25 15.7 0 0 76.19 -13.44 0 0 -57.25 -0.22 0 -37.53 57.25 -15.59 0 0 -76.19 13.44 0 0 57.25 0.22 0zm113.46 -45.63l-10.76 0c-6.24,0 -10.87,0.9 -13.87,2.69 -3.02,1.72 -4.53,4.48 -4.53,8.29 0,3.23 1.47,5.81 4.42,7.75 2.94,1.94 7.6,2.9 13.98,2.9l10.76 0 0 -21.63zm-26.35 28.31c-5.17,-0.86 -9.33,-2.77 -12.49,-5.71 -3.08,-3.01 -4.62,-7.07 -4.62,-12.16 -0.08,-7.18 2.61,-12.63 8.07,-16.36 5.52,-3.8 13.3,-5.7 23.34,-5.7l25.5 0 0 76.19 -13.44 0 0 -31.31 -7.53 0c-3.37,0 -6.45,0.61 -9.25,1.83 -2.79,1.22 -5.26,3.08 -7.42,5.6 -2.15,2.51 -3.95,5.78 -5.37,9.79 -1.36,3.95 -2.33,8.65 -2.91,14.1l-14.63 0c0.29,-4.52 1.04,-8.68 2.26,-12.48 1.22,-3.88 2.72,-7.32 4.52,-10.33 1.87,-3.09 3.98,-5.74 6.34,-7.96 2.37,-2.22 4.92,-3.98 7.65,-5.27l0 -0.21zm88.38 36.26l-13.55 0 0 -64.57 -23.35 0 0 -11.62 60.23 0 0 11.62 -23.34 0 0 64.57zm48.73 -18.94l37.43 -57.25 15.7 0 0 76.19 -13.44 0 0 -57.25 -0.22 0 -37.53 57.25 -15.59 0 0 -76.19 13.44 0 0 57.25 0.21 0zm86.04 7.32l37.86 0 0 11.62 -50.98 0 0 -76.19 49.37 0 0 11.62 -36.24 0 0 19.8 33.99 0 0 11.08 -33.99 0 0 22.06z"/>
   <path class="fil0" d="M796.16 299.24l-27.65 0 17.09 -52.08 24.2 0 -13.64 52.08zm-40.33 0l-27.46 0 17.48 -52.08 24.2 0 -14.21 52.08zm191.06 -52.08l0 136.06 -32.65 0 0 -108.39 -49.93 0 0 108.39 -32.65 0 0 -136.06 115.23 0zm169.8 67.45c0,10.76 -1.86,20.63 -5.57,29.59 -3.72,8.84 -8.9,16.46 -15.56,22.87 -6.53,6.28 -14.35,11.14 -23.43,14.61 -9.1,3.46 -18.96,5.19 -29.58,5.19 -10.63,0 -20.49,-1.73 -29.58,-5.19 -8.97,-3.46 -16.78,-8.32 -23.43,-14.61 -6.54,-6.41 -11.66,-14.03 -15.37,-22.87 -3.71,-8.96 -5.57,-18.83 -5.57,-29.59 0,-10.89 1.85,-20.69 5.57,-29.4 3.71,-8.84 8.84,-16.33 15.37,-22.49 6.65,-6.15 14.46,-10.89 23.43,-14.22 9.08,-3.33 18.94,-5 29.58,-5 10.62,0 20.48,1.66 29.58,5 9.08,3.33 16.9,8.07 23.43,14.22 6.65,6.15 11.84,13.65 15.56,22.49 3.71,8.71 5.57,18.51 5.57,29.4zm-35.14 0c0,-5.89 -0.96,-11.4 -2.89,-16.53 -1.92,-5.13 -4.61,-9.48 -8.06,-13.07 -3.33,-3.71 -7.43,-6.6 -12.3,-8.65 -4.74,-2.18 -9.99,-3.27 -15.74,-3.27 -5.77,0 -11.02,1.09 -15.75,3.27 -4.74,2.05 -8.84,4.93 -12.29,8.65 -3.46,3.59 -6.14,7.94 -8.07,13.07 -1.8,5.13 -2.69,10.63 -2.69,16.53 0,6.15 0.95,11.85 2.88,17.11 1.92,5.12 4.54,9.54 7.88,13.26 3.46,3.71 7.55,6.66 12.29,8.84 4.73,2.05 9.98,3.08 15.75,3.08 5.76,0 11,-1.03 15.74,-3.08 4.73,-2.18 8.84,-5.13 12.3,-8.84 3.45,-3.71 6.14,-8.13 8.06,-13.26 1.92,-5.26 2.89,-10.96 2.89,-17.11zm75.2 68.61l-35.14 0 52.81 -136.06 33.61 0 53.97 136.06 -35.91 0 -34.57 -90.71 -34.76 90.71zm149.83 -45.35l56.46 -90.71 37.07 0 0 136.06 -32.65 0 0 -89.56 -0.58 0 -56.65 89.56 -36.88 0 0 -136.06 32.65 0 0 90.71 0.58 0zm179.69 -62.65l0 108.01 -32.84 0 0 -108.01 -38.41 0 0 -28.05 109.66 0 0 28.05 -38.41 0zm53.4 108.01l0 -136.06 91.42 0 0 27.87 -59.73 0 0 25.56 56.46 0 0 26.33 -56.46 0 0 28.25 63.18 0 0 28.06 -94.88 0zm198.67 0l-29.76 -48.04 -28.62 48.04 -39.18 0 47.63 -71.88 -43.79 -64.18 39.56 0 25.35 42.28 24.97 -42.28 38.22 0 -43.02 64.18 49.16 71.88 -40.52 0zm45.92 -37.86l0 -24.99 48.79 0 0 24.99 -48.79 0zm88.77 37.86l-35.72 0 57.04 -136.06 31.88 0 56.47 136.06 -36.49 0 -10.57 -26.71 -52.62 0 -9.99 26.71zm19.4 -53.04l34.18 0 -16.9 -46.7 -17.29 46.7zm207.51 13.45c0,7.43 -1.47,13.71 -4.42,18.83 -2.95,5 -6.84,9.03 -11.72,12.11 -4.87,3.07 -10.43,5.31 -16.7,6.72 -6.15,1.28 -12.49,1.92 -19.02,1.92l-54.16 0 0 -136.06 54.16 0c5.25,0 10.63,0.58 16.13,1.73 5.5,1.03 10.5,2.88 14.98,5.57 4.48,2.56 8.13,6.09 10.95,10.57 2.81,4.48 4.23,10.19 4.23,17.1 0,7.56 -2.05,13.84 -6.15,18.84 -4.1,4.87 -9.48,8.39 -16.13,10.57l0 0.38c3.84,0.65 7.43,1.86 10.75,3.65 3.46,1.66 6.41,3.84 8.84,6.54 2.57,2.69 4.54,5.83 5.95,9.42 1.53,3.58 2.3,7.62 2.3,12.1zm-37.26 -57.08c0,-4.61 -1.79,-7.94 -5.38,-9.99 -3.45,-2.18 -8.64,-3.26 -15.56,-3.26l-16.13 0 0 28.05 17.67 0c6.15,0 10.88,-1.22 14.21,-3.65 3.46,-2.56 5.19,-6.28 5.19,-11.15zm4.42 54c0,-5.64 -2.12,-9.54 -6.34,-11.72 -4.23,-2.18 -9.87,-3.27 -16.9,-3.27l-18.25 0 0 31.13 18.44 0c2.56,0 5.19,-0.19 7.87,-0.58 2.82,-0.51 5.31,-1.35 7.49,-2.5 2.3,-1.15 4.16,-2.76 5.57,-4.81 1.41,-2.18 2.12,-4.93 2.12,-8.26zm112.74 -65.34l0 108.01 -32.84 0 0 -108.01 -38.41 0 0 -28.05 109.67 0 0 28.05 -38.42 0zm195.14 39.4c0,10.76 -1.86,20.63 -5.57,29.59 -3.72,8.84 -8.9,16.46 -15.56,22.87 -6.54,6.28 -14.35,11.14 -23.43,14.61 -9.1,3.46 -18.96,5.19 -29.58,5.19 -10.63,0 -20.5,-1.73 -29.58,-5.19 -8.97,-3.46 -16.78,-8.32 -23.43,-14.61 -6.53,-6.41 -11.66,-14.03 -15.37,-22.87 -3.71,-8.96 -5.57,-18.83 -5.57,-29.59 0,-10.89 1.85,-20.69 5.57,-29.4 3.71,-8.84 8.84,-16.33 15.37,-22.49 6.65,-6.15 14.46,-10.89 23.43,-14.22 9.08,-3.33 18.95,-5 29.58,-5 10.62,0 20.48,1.66 29.58,5 9.08,3.33 16.9,8.07 23.43,14.22 6.65,6.15 11.84,13.65 15.56,22.49 3.71,8.71 5.57,18.51 5.57,29.4zm-35.14 0c0,-5.89 -0.96,-11.4 -2.89,-16.53 -1.92,-5.13 -4.61,-9.48 -8.07,-13.07 -3.33,-3.71 -7.43,-6.6 -12.29,-8.65 -4.75,-2.18 -9.99,-3.27 -15.75,-3.27 -5.77,0 -11.02,1.09 -15.75,3.27 -4.74,2.05 -8.83,4.93 -12.29,8.65 -3.46,3.59 -6.15,7.94 -8.07,13.07 -1.79,5.13 -2.69,10.63 -2.69,16.53 0,6.15 0.96,11.85 2.88,17.11 1.92,5.12 4.54,9.54 7.88,13.26 3.46,3.71 7.54,6.66 12.29,8.84 4.74,2.05 9.99,3.08 15.75,3.08 5.76,0 11,-1.03 15.75,-3.08 4.73,-2.18 8.83,-5.13 12.29,-8.84 3.46,-3.71 6.15,-8.13 8.07,-13.26 1.92,-5.26 2.89,-10.96 2.89,-17.11zm180.06 68.61l0.77 -96.28 -0.57 0 -35.34 96.28 -23.04 0 -34.38 -96.28 -0.58 0 0.77 96.28 -30.92 0 0 -136.06 46.67 0 30.92 87.25 0.77 0 29.58 -87.25 47.44 0 0 136.06 -32.07 0zm79.14 0l-35.72 0 57.04 -136.06 31.88 0 56.46 136.06 -36.49 0 -10.56 -26.71 -52.63 0 -9.98 26.71zm19.39 -53.04l34.18 0 -16.9 -46.7 -17.29 46.7zm159.69 -54.96l0 108.01 -32.83 0 0 -108.01 -38.42 0 0 -28.05 109.67 0 0 28.05 -38.42 0zm86.63 62.65l56.46 -90.71 37.07 0 0 136.06 -32.65 0 0 -89.56 -0.58 0 -56.65 89.56 -36.88 0 0 -136.06 32.65 0 0 90.71 0.58 0zm121.51 45.35l0 -136.06 32.65 0 0 49.39c1.79,0 3.52,0.06 5.19,0.19 1.79,0 3.52,0.06 5.19,0.19l41.67 -49.77 35.72 0 -45.52 57.46c5.77,2.82 11.08,6.47 15.94,10.96 4.86,4.36 9.27,9.74 13.25,16.15 3.96,6.4 7.43,13.9 10.37,22.48 2.94,8.45 5.44,18.13 7.49,29.02l-35.72 0c-1.92,-10.38 -4.36,-19.35 -7.3,-26.91 -2.83,-7.56 -6.34,-13.71 -10.57,-18.45 -4.22,-4.87 -9.28,-8.39 -15.17,-10.57 -5.9,-2.31 -12.74,-3.33 -20.55,-3.07l0 59 -32.65 0zm155.93 0l-35.72 0 57.04 -136.06 31.88 0 56.46 136.06 -36.49 0 -10.56 -26.71 -52.62 0 -9.99 26.71zm19.4 -53.04l34.18 0 -16.9 -46.7 -17.28 46.7zm159.5 -30.94l-24.39 0 14.21 -52.08 27.46 0 -17.28 52.08zm-39.95 0l-24.2 0 13.83 -52.08 27.46 0 -17.09 52.08z"/>
   <path class="fil1 str0" d="M516.06 19.86l131.81 375.35c0.06,0.14 0.11,0.29 0.16,0.43 0.34,0.96 0.59,1.95 0.77,2.96 0.17,1 0.26,2 0.26,3 0,1.22 -0.12,2.42 -0.37,3.6 -0.59,2.86 -1.85,5.49 -3.63,7.76 -1.77,2.24 -4.07,4.15 -6.8,5.54 -1.14,0.59 -2.36,1.07 -3.62,1.45 -1.03,0.31 -2.1,0.55 -3.2,0.71 -1.09,0.16 -2.17,0.24 -3.24,0.24 -0.17,0 -0.33,-0 -0.49,-0l-103.3 0c-0.17,0 -0.33,0 -0.49,0 -1.36,0 -2.71,-0.12 -4.02,-0.36 -3,-0.54 -5.76,-1.68 -8.15,-3.27 -2.48,-1.65 -4.59,-3.81 -6.11,-6.39 -0.63,-1.05 -1.15,-2.16 -1.55,-3.32 -0.05,-0.14 -0.1,-0.28 -0.14,-0.42l-32.23 -91.76c-0.05,-0.14 -0.09,-0.28 -0.14,-0.42 -0.41,-1.16 -0.93,-2.27 -1.55,-3.32 -1.52,-2.57 -3.62,-4.73 -6.1,-6.37 -2.42,-1.61 -5.21,-2.76 -8.25,-3.29 -1.29,-0.23 -2.61,-0.35 -3.94,-0.35 -0.16,0 -0.32,0 -0.48,0l-63.06 -0.01c-11.52,0 -20.85,-8.64 -20.85,-19.3 0,-10.66 9.33,-19.29 20.85,-19.29l93.36 0c0.16,-0 0.33,-0 0.49,-0 1.36,0 2.71,0.12 4.02,0.36 3,0.54 5.76,1.68 8.15,3.27 2.48,1.65 4.59,3.81 6.12,6.38 0.62,1.05 1.14,2.16 1.55,3.32 0.05,0.14 0.1,0.29 0.14,0.42l32.15 91.68c0.05,0.14 0.1,0.28 0.14,0.42 0.41,1.16 0.93,2.27 1.55,3.32 1.52,2.57 3.62,4.73 6.1,6.37 2.41,1.61 5.21,2.76 8.24,3.29 1.29,0.23 2.61,0.35 3.95,0.35 0.16,0 0.32,0 0.47,-0l25.08 -0.01c15.43,1.25 17.78,-6.79 14.14,-15.79l-108.27 -307.96c-0.05,-0.14 -0.1,-0.28 -0.14,-0.42 -0.41,-1.16 -0.93,-2.27 -1.55,-3.32 -1.52,-2.57 -3.62,-4.73 -6.1,-6.38 -2.41,-1.61 -5.21,-2.75 -8.24,-3.29 -1.29,-0.23 -2.61,-0.35 -3.95,-0.35 -0.16,0 -0.32,0 -0.47,0.01l-313.14 -0c-11.52,0 -20.85,-8.64 -20.85,-19.3 0,-10.66 9.33,-19.29 20.85,-19.29l343.63 0c0.16,-0 0.32,-0 0.48,-0 1.33,0 2.65,0.12 3.94,0.35 3.03,0.54 5.83,1.68 8.25,3.3 2.48,1.65 4.58,3.8 6.1,6.37 0.63,1.05 1.15,2.16 1.55,3.32 0.05,0.14 0.1,0.28 0.14,0.42z"/>
   <path class="fil1 str0" d="M289.74 382.23l55.93 0.07c11.54,0 20.9,8.64 20.9,19.29 0,10.66 -9.36,19.3 -20.9,19.3l-104 0c-0.16,0 -0.32,0 -0.48,0 -1.08,0 -2.17,-0.08 -3.25,-0.24 -1.1,-0.16 -2.17,-0.4 -3.21,-0.71 -1.25,-0.38 -2.45,-0.86 -3.59,-1.43 -2.8,-1.41 -5.16,-3.38 -6.95,-5.69 -1.72,-2.22 -2.95,-4.79 -3.53,-7.57 -0.25,-1.2 -0.38,-2.43 -0.38,-3.67 0,-0.99 0.08,-2 0.25,-3 0.17,-1.02 0.43,-2.01 0.77,-2.97 0.05,-0.14 0.1,-0.29 0.16,-0.43l82.27 -233.7c3.65,-9 2.92,-16.56 -13.72,-15.88l-135.36 0.01c-0.16,-0 -0.32,-0 -0.48,-0 -1.34,0 -2.66,0.12 -3.95,0.35 -3.04,0.54 -5.84,1.68 -8.26,3.3 -2.48,1.65 -4.59,3.8 -6.11,6.37 -0.63,1.05 -1.15,2.16 -1.56,3.32 -0.05,0.14 -0.1,0.28 -0.14,0.42l-87.28 248.17c-3.57,10.14 -15.36,15.68 -26.33,12.39 -10.98,-3.3 -16.98,-14.18 -13.42,-24.32l96.71 -274.85c0.05,-0.14 0.09,-0.28 0.14,-0.42 0.41,-1.18 0.94,-2.3 1.59,-3.37 1.51,-2.53 3.58,-4.65 6.01,-6.28 2.44,-1.64 5.27,-2.8 8.34,-3.34 1.29,-0.23 2.61,-0.35 3.94,-0.35 0.16,0 0.32,0 0.47,0l213.23 0c0.16,-0 0.32,-0 0.49,-0 1.08,0 2.17,0.08 3.25,0.24 1.1,0.16 2.17,0.4 3.2,0.71 1.25,0.37 2.45,0.86 3.59,1.43 2.8,1.41 5.15,3.37 6.94,5.69 1.72,2.22 2.95,4.78 3.53,7.57 0.25,1.2 0.38,2.42 0.38,3.66 0,1 -0.08,2 -0.26,3 -0.17,1.01 -0.43,2 -0.77,2.96 -0.05,0.15 -0.1,0.29 -0.16,0.43l-82.2 233.72c-3.65,9 -1.3,17.04 14.17,15.79z"/>
   <path class="fil1 str0" d="M473.91 195.14c2.12,6.01 0.98,12.6 -3.06,17.71 -4.04,5.11 -10.49,8.13 -17.36,8.13l-34.54 -0c-6.87,0 -13.32,-3.02 -17.36,-8.13 -4.04,-5.11 -5.18,-11.69 -3.06,-17.71l17.27 -49.04c2.87,-8.14 11.12,-13.66 20.43,-13.66 9.31,0 17.55,5.52 20.42,13.67l17.26 49.04z"/>
  </g>
 </g>
</svg>
