<?xml version="1.0" encoding="UTF-8"?>
<!DOCTYPE svg PUBLIC "-//W3C//DTD SVG 1.1//EN" "http://www.w3.org/Graphics/SVG/1.1/DTD/svg11.dtd">
<!-- Creator: CorelDRAW 2020 (64-Bit) -->
<svg xmlns="http://www.w3.org/2000/svg" xml:space="preserve" width="14.2146mm" height="9.2645mm" version="1.1" style="shape-rendering:geometricPrecision; text-rendering:geometricPrecision; image-rendering:optimizeQuality; fill-rule:evenodd; clip-rule:evenodd"
viewBox="0 0 231.44 150.84"
 xmlns:xlink="http://www.w3.org/1999/xlink"
 xmlns:xodm="http://www.corel.com/coreldraw/odm/2003">
 <defs>
  <style type="text/css">
   <![CDATA[
    .str0 {stroke:#8F8F8F;stroke-width:4.31;stroke-miterlimit:22.9256}
    .fil0 {fill:#8F8F8F}
   ]]>
  </style>
 </defs>
 <g id="Слой_x0020_1">
  <metadata id="CorelCorpID_0Corel-Layer"/>
  <path class="fil0 str0" d="M182.3 7.01l46.56 132.59c0.02,0.05 0.04,0.1 0.06,0.15 0.12,0.34 0.21,0.69 0.27,1.05 0.06,0.35 0.09,0.71 0.09,1.06 0,0.43 -0.04,0.86 -0.13,1.27 -0.21,1.01 -0.65,1.94 -1.28,2.74 -0.62,0.79 -1.44,1.47 -2.4,1.96 -0.4,0.21 -0.83,0.38 -1.28,0.51 -0.36,0.11 -0.74,0.19 -1.13,0.25 -0.38,0.06 -0.77,0.08 -1.15,0.08 -0.06,0 -0.12,-0 -0.17,-0l-36.49 0c-0.06,0 -0.12,0 -0.17,0 -0.48,0 -0.96,-0.04 -1.42,-0.13 -1.06,-0.19 -2.04,-0.59 -2.88,-1.15 -0.88,-0.58 -1.62,-1.35 -2.16,-2.26 -0.22,-0.37 -0.41,-0.76 -0.55,-1.17 -0.02,-0.05 -0.03,-0.1 -0.05,-0.15l-11.39 -32.41c-0.02,-0.05 -0.03,-0.1 -0.05,-0.15 -0.14,-0.41 -0.33,-0.8 -0.55,-1.17 -0.54,-0.91 -1.28,-1.67 -2.15,-2.25 -0.85,-0.57 -1.84,-0.97 -2.91,-1.16 -0.45,-0.08 -0.92,-0.12 -1.39,-0.12 -0.06,0 -0.11,0 -0.17,0l-22.28 -0c-4.07,0 -7.37,-3.05 -7.37,-6.82 0,-3.76 3.3,-6.82 7.37,-6.82l32.98 0c0.06,-0 0.12,-0 0.17,-0 0.48,0 0.96,0.04 1.42,0.13 1.06,0.19 2.04,0.59 2.88,1.15 0.88,0.58 1.62,1.34 2.16,2.25 0.22,0.37 0.4,0.76 0.55,1.17 0.02,0.05 0.03,0.1 0.05,0.15l11.36 32.39c0.02,0.05 0.03,0.1 0.05,0.15 0.14,0.41 0.33,0.8 0.55,1.17 0.54,0.91 1.28,1.67 2.16,2.25 0.85,0.57 1.84,0.97 2.91,1.16 0.46,0.08 0.92,0.12 1.39,0.12 0.06,0 0.11,0 0.17,-0l8.86 -0c5.45,0.44 6.28,-2.4 5,-5.58l-38.25 -108.79c-0.02,-0.05 -0.03,-0.1 -0.05,-0.15 -0.14,-0.41 -0.33,-0.8 -0.55,-1.17 -0.54,-0.91 -1.28,-1.67 -2.16,-2.25 -0.85,-0.57 -1.84,-0.97 -2.91,-1.16 -0.46,-0.08 -0.92,-0.12 -1.39,-0.12 -0.06,0 -0.11,0 -0.17,0l-110.62 -0c-4.07,0 -7.37,-3.05 -7.37,-6.82 0,-3.76 3.3,-6.82 7.37,-6.82l121.39 0c0.06,-0 0.11,-0 0.17,-0 0.47,0 0.94,0.04 1.39,0.12 1.07,0.19 2.06,0.59 2.91,1.16 0.87,0.58 1.62,1.34 2.15,2.25 0.22,0.37 0.41,0.76 0.55,1.17 0.02,0.05 0.03,0.1 0.05,0.15zm-79.95 128.01l19.76 0.03c4.08,0 7.38,3.05 7.38,6.82 0,3.76 -3.31,6.82 -7.38,6.82l-36.74 0c-0.06,0 -0.11,0 -0.17,0 -0.38,0 -0.77,-0.03 -1.15,-0.08 -0.39,-0.06 -0.77,-0.14 -1.13,-0.25 -0.44,-0.13 -0.87,-0.3 -1.27,-0.51 -0.99,-0.5 -1.82,-1.19 -2.45,-2.01 -0.61,-0.78 -1.04,-1.69 -1.25,-2.67 -0.09,-0.42 -0.14,-0.86 -0.14,-1.3 0,-0.35 0.03,-0.7 0.09,-1.06 0.06,-0.36 0.15,-0.71 0.27,-1.05 0.02,-0.05 0.04,-0.1 0.06,-0.15l29.06 -82.56c1.29,-3.18 1.03,-5.85 -4.85,-5.61l-47.82 0c-0.06,-0 -0.11,-0 -0.17,-0 -0.47,0 -0.94,0.04 -1.4,0.12 -1.07,0.19 -2.06,0.59 -2.92,1.16 -0.88,0.58 -1.62,1.34 -2.16,2.25 -0.22,0.37 -0.41,0.76 -0.55,1.17 -0.02,0.05 -0.03,0.1 -0.05,0.15l-30.83 87.67c-1.26,3.58 -5.42,5.54 -9.3,4.38 -3.88,-1.16 -6,-5.01 -4.74,-8.59l34.17 -97.09c0.02,-0.05 0.03,-0.1 0.05,-0.15 0.15,-0.42 0.33,-0.81 0.56,-1.19 0.53,-0.89 1.27,-1.64 2.12,-2.22 0.86,-0.58 1.86,-0.99 2.95,-1.18 0.46,-0.08 0.92,-0.12 1.39,-0.12 0.06,0 0.11,0 0.17,0l75.32 0c0.06,-0 0.11,-0 0.17,-0 0.38,0 0.77,0.03 1.15,0.08 0.39,0.06 0.77,0.14 1.13,0.25 0.44,0.13 0.87,0.3 1.27,0.51 0.99,0.5 1.82,1.19 2.45,2.01 0.61,0.78 1.04,1.69 1.25,2.67 0.09,0.42 0.14,0.86 0.14,1.29 0,0.35 -0.03,0.7 -0.09,1.06 -0.06,0.36 -0.15,0.71 -0.27,1.05 -0.02,0.05 -0.04,0.1 -0.06,0.15l-29.04 82.56c-1.29,3.18 -0.46,6.02 5,5.58zm65.06 -66.09c0.75,2.12 0.35,4.45 -1.08,6.26 -1.43,1.8 -3.71,2.87 -6.13,2.87l-12.2 -0c-2.43,0 -4.71,-1.07 -6.13,-2.87 -1.43,-1.81 -1.83,-4.13 -1.08,-6.26l6.1 -17.33c1.01,-2.88 3.93,-4.83 7.22,-4.83 3.29,0 6.2,1.95 7.21,4.83l6.1 17.32z"/>
 </g>
</svg>
