<?xml version="1.0" encoding="UTF-8"?>
<!DOCTYPE svg PUBLIC "-//W3C//DTD SVG 1.1//EN" "http://www.w3.org/Graphics/SVG/1.1/DTD/svg11.dtd">
<!-- Creator: CorelDRAW 2020 (64-Bit) -->
<svg xmlns="http://www.w3.org/2000/svg" xml:space="preserve" width="76.2mm" height="11mm" version="1.1" style="shape-rendering:geometricPrecision; text-rendering:geometricPrecision; image-rendering:optimizeQuality; fill-rule:evenodd; clip-rule:evenodd"
viewBox="0 0 46525.22 6716.24"
 xmlns:xlink="http://www.w3.org/1999/xlink"
 xmlns:xodm="http://www.corel.com/coreldraw/odm/2003">
 <defs>
  <style type="text/css">
   <![CDATA[
    .fil0 {fill:#212227}
    .fnt1 {font-weight:normal;font-size:1908.82px;font-family:'PF BeauSans Pro'}
    .fnt0 {font-weight:normal;font-size:3334.92px;font-family:'PF BeauSans Pro'}
   ]]>
  </style>
 </defs>
 <g id="Слой_x0020_1">
  <metadata id="CorelCorpID_0Corel-Layer"/>
  <g id="_2283084308528">
   <g>
    <rect class="fil0" transform="matrix(-0.65419 -0.65391 -0.622306 0.622039 3218.7 5811.36)" width="3813.11" height="1163.74"/>
    <rect class="fil0" transform="matrix(-0.65419 -0.65391 -0.622306 0.622039 4264.77 4765.74)" width="3813.11" height="1163.74" rx="581.87" ry="581.87"/>
    <rect class="fil0" transform="matrix(-0.65419 -0.65391 -0.622306 0.622039 5310.84 3720.11)" width="3813.11" height="1163.74" rx="581.87" ry="581.87"/>
    <rect class="fil0" transform="matrix(-0.65419 -0.65391 -0.622306 0.622039 6356.91 2674.49)" width="3813.11" height="1163.74" rx="581.87" ry="581.87"/>
    <polygon class="fil0" points="5491.99,4986.87 5491.93,4263.04 5129.8,3901.1 4405.61,3177.21 4043.54,3539.15 4767.74,4263.04 4948.77,4444.01 4948.83,4805.9 3580.85,6173.26 3218.73,6173.32 3037.69,5992.35 2313.5,5268.46 1951.37,5630.41 2675.57,6354.29 3037.69,6716.24 3761.95,6716.18 "/>
    <polygon class="fil0" points="3319.29,0.06 2595.09,0 865.05,1729.31 865.05,2453.26 1227.12,2815.2 1951.31,3539.09 2313.44,3177.15 1589.25,2453.26 1408.21,2272.29 1408.21,1910.28 2776.19,542.92 3138.25,542.98 3319.29,723.95 4043.48,1447.84 4405.61,1085.89 3681.35,362.01 "/>
   </g>
   <g transform="matrix(1.00043 0 0 1 3529.76 288248)">
    <text x="3810" y="-284999.67"  class="fil0 fnt0">ООО «Политех-Прибор»</text>
   </g>
   <g transform="matrix(1.00043 0 0 1 4030.46 290915)">
    <text x="3810" y="-284999.67"  class="fil0 fnt1">Производство промышленной электроники</text>
   </g>
  </g>
 </g>
</svg>
