<?xml version="1.0" encoding="UTF-8"?>
<!DOCTYPE svg PUBLIC "-//W3C//DTD SVG 1.1//EN" "http://www.w3.org/Graphics/SVG/1.1/DTD/svg11.dtd">
<!-- Creator: CorelDRAW 2020 (64-Bit) -->
<svg xmlns="http://www.w3.org/2000/svg" xml:space="preserve" width="67mm" height="20mm" version="1.1" style="shape-rendering:geometricPrecision; text-rendering:geometricPrecision; image-rendering:optimizeQuality; fill-rule:evenodd; clip-rule:evenodd"
viewBox="0 0 5533.08 1651.67"
 xmlns:xlink="http://www.w3.org/1999/xlink"
 xmlns:xodm="http://www.corel.com/coreldraw/odm/2003">
 <defs>
  <style type="text/css">
   <![CDATA[
    .fil0 {fill:#8F8F8F}
   ]]>
  </style>
 </defs>
 <g id="Слой_x0020_1">
  <metadata id="CorelCorpID_0Corel-Layer"/>
  <g id="_2283087010208">
   <path class="fil0" d="M1968.22 1227.69l0 36.87 -257.53 0c0.84,-37.91 31.56,-70.05 69.91,-70.05l114.05 0c0,-120.9 -9.89,-151.16 143.47,-151.16l4.35 110.59c-39,0.88 -74.25,34.85 -74.25,73.76zm-1443.27 -184.38c149.78,0.03 144.61,20 144.61,151.19 76.94,0 183.95,-18.68 183.95,70.05l-257.53 0c0,-39.28 4.15,-108.87 -73.57,-110.6l2.54 -110.64zm-410.9 -258.03c44.45,0 104.21,-4.05 110.36,70.04 -37.44,0 -53.03,4.39 -77.24,-11.07 -29.97,-19.13 -20.89,-31.51 -33.12,-58.96zm816.72 -36.87l0 -188.03 702.67 0 0 188.03c0,16.97 -73.57,21.71 -73.57,95.85 0,50.21 32.65,78.92 73.57,88.48 0,146.03 -19.65,200.61 -85.04,283.45 -44.79,56.74 -145.82,122.09 -246.06,122.09l-36.79 0c-178.02,0 -334.78,-162.8 -334.78,-342.86 0,-89.88 -12.23,-136.41 73.57,-136.41 0,-110.24 -73.57,-85.43 -73.57,-110.6zm963.88 143.79l-253.84 0c-57.04,0 -49.6,-95.85 0,-95.85 41.74,0 31.98,24.17 62.27,26.07 27.64,1.73 63.62,-0.27 92.25,-0.27 20.46,-88.01 121.22,-184.33 228.09,-184.33 48.24,0 86.15,-0.47 128.76,22.12 0,76.19 0,152.38 0,228.57 0,43.33 -3.19,73.05 10.92,103.35 11.64,25.02 36.39,44.5 66.34,51.49 0,33.88 -5.04,114.38 2.14,141.64 8.7,32.98 39.07,68.32 71.44,75.88l0 191.72 -183.95 0c0,-75.42 69.73,-73.74 110.37,-73.74l0 -114.29c-49.86,0 -109.74,2.49 -137.33,-61.46 -26.65,-61.76 19.68,-165.46 -60.33,-249.24 -43.14,-45.17 -64.54,-40.77 -100.34,-57.98 12.85,-55.26 29.42,-110.6 114.05,-110.6l0 -40.56c-82.32,0 -150.83,64.84 -150.83,147.48zm445.14 -110.6c14.94,-64.23 34.23,-70.05 110.37,-70.05 -0.58,26.01 -14.11,46.08 -30.89,57.54 -23.06,15.73 -43.62,12.51 -79.49,12.51zm-1927.74 -409.23c21.22,33.54 31.42,114.94 161.85,114.31 50.16,-0.24 86.98,-3.68 120.02,16.14 35.22,21.13 49.24,54.99 49.24,101.82 0,28.47 -12.07,47.4 -22.07,66.36 -130.13,-87.32 -144.15,-73.73 -309.03,-73.73l0 -224.9zm-364.22 3.69c106.74,0 197.46,-17.38 235.6,55.14 32.74,62.23 -17.46,159.59 92.11,198.95 63.9,22.95 222.59,-40.49 342.72,95.28 16.02,18.1 48.25,68.04 50.63,96.72 29.02,0 59.9,1.09 88.63,0.34 29.8,-0.78 62.51,-60.43 102.68,-0.34 -14.67,7.78 -31.94,14.44 -43.16,26.81 -48.85,53.79 50.84,43.25 -236.44,43.25 -21.06,0 1.02,-46.01 -50.48,-100.56 -23.12,-24.5 -61.85,-46.92 -107.71,-46.92l0 40.56c64.18,0 110.36,49.82 110.36,114.28 -38.35,0.86 -86.2,37.34 -104.67,61.01 -86.18,110.37 -4.95,184.24 -71.24,267.78 -46.38,58.44 -122.07,20.4 -122.07,47.25l0 103.23c45.43,0 110.36,-1.67 110.36,73.74l-180.27 0 0 -184.34c0,-16.24 12.4,-5.85 39.69,-33.96 48.39,-49.87 33.89,-113.91 33.89,-190.93 27.05,-13.01 73.58,-30.49 73.58,-88.48l0 -243.32 36.78 0 0 -40.56 -297.99 0c-48.86,0 -93.91,-34.56 -103.01,-73.73l180.26 0 0 -36.87c-58.13,0 -161.5,6.99 -180.26,-73.73l143.59 0.11c38.82,0.64 36.68,4.2 36.68,-29.61 0,-25.02 -70.58,-1.64 -113.44,-15.35 -34.56,-11.06 -50.78,-35.36 -66.83,-65.75zm2034.44 -77.42l-40.47 0c0,57.61 -0.42,120.59 -76.58,144.46 -27.57,8.65 -140.39,3.01 -180.94,3.01 3.88,-46.73 40.27,-51.61 73.58,-51.61l0 -40.56c-65.34,0 -73.58,-14.11 -73.58,-88.48l331.1 0c-1.56,18.79 -13.25,33.18 -33.11,33.18zm-1707.01 -33.18c76.03,0 152.06,0.04 228.09,0 43.53,-0.02 69.79,-0.93 94.65,19.44 10.13,8.29 20.78,19.34 28.44,30.5 12.36,18.02 8.87,25.85 16.71,42.23 -41.23,0 -54.35,2.5 -77.95,21.43 -16.46,13.21 -31.79,38.75 -32.42,67.05 -50.93,0 -96.2,6.48 -130.08,-13.43 -55.73,-32.77 -53.87,-82.99 -53.87,-134.04 -39.44,0 -68.41,7.16 -73.57,-33.18zm1556.18 -66.36c0,-8.5 2.56,-11.07 11.03,-11.07 114.48,0 247.98,-14.54 319.23,56.14 39.38,39.06 78.09,88.72 78.09,165.07 0,145.88 -138.01,226.79 -175.58,213.16 -60.81,-22.04 -63.85,-25.14 -133.45,-25.14 -53.76,0 -104.68,19.93 -146.07,45.33 -13.2,8.1 -26,23.41 -41.56,24.72 -2.36,-8.86 -59.19,-96.42 20.32,-156.59 43.66,-33.03 52.04,-14.79 101.26,-27.56 63.61,-16.5 115.82,-66.81 117.54,-143.97 77.96,-6.51 73.57,-71.48 73.57,-114.29l-224.41 0 0 -25.81zm-36.78 25.81l-150.84 0c0,38.24 -4.76,136.35 36.79,147.46 -10.87,16.26 -16.54,16 -27.19,39.11 -10.59,22.98 -9.6,48.25 -9.6,75.18l84.61 0c-28.2,42.19 -64.8,80.93 -37.34,162.77 7.56,22.53 21.8,31.69 26.31,51.05 -16.58,24.82 -40.06,47.68 -47.83,81.11 -18.31,0 -44.33,4.08 -60.51,-2.04 -6.15,-2.33 -35.14,-19.07 -35.14,-27.45l0 -232.27 -772.58 0c-17.7,0 -11.08,34.74 -11.04,51.61l0 188.03c-47.53,25.21 -18.57,22.12 -84.61,22.12 -12.75,0 -22.35,-31.1 -28.68,-41.31 -9.94,-16.03 -20.13,-28.44 -30.18,-43.49 16.69,-24.97 36.79,-54.33 36.79,-95.85 0,-74.16 -50.43,-133.47 -110.37,-147.47 0,-69.51 57.67,-68.5 110.37,-40.55 0,-59.25 -5.43,-101 -33.94,-131.9 -24.93,-27.02 -59.19,-56.12 -109.54,-56.12l-305.34 0c0,33.6 -1.49,89.3 36.78,99.54l0 258.07c-53.75,-14.39 -14.79,-96.36 -51.42,-165.99 -22.96,-43.65 -70,-81.01 -136.2,-81.01l-172.91 0c-20.66,0 -2.52,48.15 2.55,60.12 11.74,27.7 21.17,30.92 34.24,50.47 -50.47,0 -55.59,-2.84 -39.8,47.25 8.94,28.43 24.82,44.62 39.8,67.03l-47.82 0c7.44,89.64 68.95,151.16 165.55,151.16l206.02 0 0 247.01c0,57.19 -103.16,68.71 -106.85,-3.53 -1.78,-34.81 4.05,-71.63 -1.23,-105.68 -18.14,-117.05 -110.32,-104.62 -186.23,-104.62l0 51.62c0,50.04 54.13,99.54 106.69,99.54l40.47 0c0,48.2 -7.57,109.87 47.71,136.53 34.19,16.48 25.87,-8.88 25.87,125.23 0,34.86 -27.86,70.05 -73.58,70.05l0 261.76 261.2 0 0 -40.56c0,-53.93 -43.88,-106.91 -110.36,-106.91l0 -36.87c41.3,0 70.04,-15.69 94.17,-34.66 12.45,-9.79 23.05,-23.01 30.75,-35.54 13.74,-22.38 9.03,-40.39 33.26,-40.39 34.56,0 25.75,77.29 25.75,110.6l334.78 0 0 -40.55c0,-60.5 -53.51,-110.6 -114.05,-110.6l-69.9 0c0,-57.43 -1.54,-86.98 -45.18,-124.31 -32.55,-27.84 -63.55,-23.16 -120.37,-23.16 21.08,-39.94 67.88,-73.74 128.76,-73.74l217.05 0 0 55.31c0,117.62 51.67,212.43 111.29,271.9 163.26,162.83 411.01,157.83 566.62,-5.47 78.28,-82.14 105.71,-178.8 105.71,-321.74l217.05 0c53.27,0 118.12,33.8 128.76,73.74 -54.69,0 -74.45,-4.65 -111.65,17.15 -54.58,31.98 -50.22,85.5 -50.22,130.32l-73.58 0c-65.9,0 -114.05,53.72 -114.05,121.66l0 29.49 338.46 0c0,-87.49 -11.28,-110.6 40.47,-110.6 4.59,55.37 75.84,110.6 139.8,110.6l0 36.87c-68.83,0 -110.37,54.53 -110.37,117.97l0 29.5 261.2 0 0 -261.76c-91.2,0 -73.57,-104.32 -73.57,-176.97 0,-13.19 11.5,-11.04 23.87,-16.62 23.97,-10.82 49.71,-43.35 49.71,-75.55l0 -136.41 36.79 0c65.9,0 114.05,-53.71 114.05,-121.66l0 -29.49 -77.26 0c-63.19,0 -110.47,49.53 -110.52,114.14 -0.05,62.28 15.43,173.9 -18.87,205.98 -23.08,21.59 -55.75,18.12 -75.98,-3.71 -21.5,-23.19 -15.37,-56.5 -15.37,-98.89 0,-76.19 0,-152.38 0,-228.57 75.05,-6.26 183.95,-121.62 183.95,-228.58l0 -36.87c0,-126.68 -124.26,-243.32 -253.84,-243.32l-228.09 0 0 73.74z"/>
   <path class="fil0" d="M1526.75 376.05l106.68 0 0 33.18 -106.68 0 0 -33.18zm-254.94 -376.05l20.58 0c5.71,1.92 9.94,5.62 9.94,11.07l0 140.09 33.12 0 0 -36.87 40.47 0 0 110.6 110.36 0 0 -36.87c28.94,0 40.47,-3.99 40.47,11.07l0 136.41 147.16 0 0 114.28 -772.58 0c-8.47,0 -11.04,-2.56 -11.04,-11.06l0 -92.16c0,-8.5 2.57,-11.06 11.04,-11.06l139.8 0 0 -147.48 36.79 0 0 36.87 110.36 0 0 -110.6 40.47 0 0 36.87 33.11 0 0 -140.09c0,-5.45 4.23,-9.14 9.94,-11.07zm177.69 265.45l36.78 0 0 143.79 -36.78 0 0 -143.79zm-73.58 0l36.79 0 0 143.79 -36.79 0 0 -143.79zm-147.16 -77.42l106.69 0 0 221.21 -106.69 0 0 -221.21zm-73.58 77.42l33.11 0 0 143.79 -33.11 0 0 -143.79zm-77.26 0l36.79 0 0 143.79 -36.79 0 0 -143.79zm-147.16 110.6l110.36 0 0 33.18 -110.36 0 0 -33.18z"/>
   <path class="fil0" d="M1041.13 674.68l183.95 0 0 70.04c-26.37,0 -36.79,-3.63 -36.79,11.07l0 239.64c0,108.73 187.63,121.58 187.63,-11.06l0 -239.65 -36.79 0 0 -70.04 183.95 0 0 70.04 -36.79 0 0 213.83c0,77.04 -16.07,119.73 -50.95,162.78 -107.93,133.25 -357.41,68.63 -357.41,-136.96l0 -217.52c0,-22.5 17.9,-22.12 -36.79,-22.12l0 -70.04zm-40.47 -29.5l0 140.1 40.47 0 0 125.34c0,113.32 -7.42,151.82 49.32,227.08 99.88,132.48 318.94,126.34 405.72,-36.53 52.75,-98.97 9.22,-223.99 30.59,-315.9l36.79 0 0 -151.16 -264.89 0 0 151.16 36.79 0 0 202.77c0,75.33 -106.69,67.38 -106.69,7.37l0 -210.14 36.78 0 0 -151.16 -253.84 0c-8.47,0 -11.03,2.57 -11.03,11.06z"/>
   <path class="fil0" d="M2704 1651.67l33.11 0 0 -1640.6c0,-8.37 -2.49,-10.98 -10.64,-11.07l-0.4 0 -22.07 0 0 1651.67z"/>
   <path class="fil0" d="M3189.61 158.54c0,-75.13 99.33,-79.61 99.33,3.68 0,71.84 -99.33,76.52 -99.33,-3.68zm-47.82 -14.75l-14.72 0 0 -40.55 14.72 0 0 -29.5 -69.9 0 0 29.5 14.72 0 0 110.6 -14.72 0 0 33.18 69.9 0c0,-33.16 2.54,-31.75 -14.72,-33.18l0 -40.56c23.45,0 20.91,-3.13 27.42,16.76 31.14,95.28 174.92,74.88 174.92,-31.51 0,-47.58 -34.84,-88.48 -80.93,-88.48 -107.4,0 -82.07,73.73 -106.69,73.73z"/>
   <path class="fil0" d="M3344.13 143.79c27.03,0 36.79,22.07 36.79,44.24 0,31.95 -40.47,8.07 -40.47,47.93 0,30.09 72.58,0.43 73.57,-44.24l18.39 0 0 22.12c-15.89,1.33 -14.71,0.6 -14.71,22.12 0,17 20.68,11.06 62.54,11.06l0 -33.18 -11.04 0 0 -22.12 14.72 0c8.01,34.45 31.34,55.3 73.58,55.3l0 -33.18c-44.59,0 -47.68,-40.04 -22.66,-63.25 19.89,-18.45 22.66,9.51 22.66,-36.29l-62.54 0c0,46.18 7.19,47.92 -25.76,47.92l0 -47.92 -51.5 0c0,29.27 -2.18,28.08 14.71,29.49l0 18.43c-22.9,0 -20.3,0.12 -29.83,-14.34 -6.51,-9.89 -10.64,-15.54 -10.64,-33.59l-47.82 0 0 29.49z"/>
   <path class="fil0" d="M3965.86 781.59c0,-18.94 -6.61,-55.3 36.79,-55.3 32.07,0 33.11,29.1 33.11,47.92 0,45.44 -69.9,35.29 -69.9,7.37zm0 -70.05c-17.05,-12.51 8.12,-11.07 -51.51,-11.07l0 29.5 14.72 0 0 136.41 -14.72 0 0 33.17c72.11,0 66.22,5.62 66.22,-22.12 0,-11.14 -4.34,-10.19 -14.72,-11.06l0 -40.56c17.3,4.63 12.11,11.06 40.47,11.06 91.77,0 87.98,-140.09 3.68,-140.09 -18.17,0 -32.22,-1.57 -44.15,14.75z"/>
   <path class="fil0" d="M4308 217.52c-61.44,0 -47.96,-77.41 -7.35,-77.41 57.16,0 49.53,77.41 7.35,77.41zm-44.14 -92.16c-3.94,-14.77 -1.61,-11.06 -47.82,-11.06l0 29.49 14.71 0 0 136.41 -14.71 0 0 29.49 66.22 0 0 -29.49 -14.72 0 0 -44.24c58.23,39.07 110.37,-7.85 110.37,-58.99 0,-30.75 -38.55,-102.28 -114.05,-51.61z"/>
   <path class="fil0" d="M4094.62 512.46c-41.77,0 -36.78,-31.06 -36.78,-55.31 0,-20.76 47.39,-36.67 64.99,-9.79 16.92,25.86 4.79,65.1 -28.21,65.1zm-36.78 -95.85c-17.05,-12.51 8.11,-11.07 -51.51,-11.07l0 29.5 14.72 0 0 140.09 -14.72 0 0 29.49 66.22 0 0 -29.49 -14.72 0 0 -44.24c66.28,35.15 110.36,-13.47 110.36,-58.99 0,-54.27 -66.98,-93.09 -110.36,-55.3z"/>
   <path class="fil0" d="M3745.13 453.47l0 -18.43 33.11 0 0 73.73 -47.82 0c7.47,-14.13 14.72,-33.61 14.72,-55.3zm-55.18 -18.43l18.39 0c0,33.98 -0.7,73.73 -40.47,73.73l0 62.68 33.11 0 4.12 -33.12 91.54 -0.07 0 33.18 33.11 0 4.54 -62.61 -19.26 -0.07 0 -103.23 -125.08 0 0 29.5z"/>
   <path class="fil0" d="M4032.08 103.24c25.53,0 20.16,7.43 42.67,42.03 12.51,19.23 22.58,35.84 34.59,53.82 -17.71,20.41 -36.79,33.32 -36.79,-3.69l-29.43 0 0 47.93c50.67,11.83 79.74,14.19 114.09,-55.26l35.11 -71.72c7.36,-14.46 4.14,-13.11 23.71,-13.11l0 -29.5 -66.22 0c0,14.8 -0.5,14.59 2.78,27 2.28,8.58 7.78,-2.2 -1.05,18.41 -5.66,13.22 -15.3,29.22 -16.45,43.08l-7.36 0c-33.71,-63.39 -27.68,-42.41 -22.77,-67.05 1.39,-6.93 0.69,-14.35 0.69,-21.43l-73.58 0 0 29.5z"/>
   <path class="fil0" d="M3417.71 711.55c0,17.82 -0.29,17.18 14.71,18.43l0 73.74 -14.71 0c0,32.83 -6.65,29.49 40.47,29.49 17.09,0 48.86,-62.09 66.22,-73.74l0 44.25 -14.72 0 0 29.49 66.22 0 0 -29.49 -14.72 0 0 -73.74 14.72 0 0 -29.5 -51.51 0 -53.18 75.23 -2.01 -75.23c-35.92,0 -51.5,-5 -51.5,11.07z"/>
   <path class="fil0" d="M5201.98 143.79l14.72 0 0 70.05c-17.26,1.44 -14.72,0.02 -14.72,33.18l40.47 0c12.35,0 52.11,-67.06 66.22,-77.42l0 44.24 -14.72 0 0 33.18c72.11,0 66.22,5.62 66.22,-22.12 0,-11.15 -4.33,-10.2 -14.72,-11.07l0 -70.05c16.9,-1.41 14.72,-0.22 14.72,-29.49l-44.14 0c-15.08,0 -47.98,63.04 -62.54,73.73l0 -73.73 -51.51 0 0 29.49z"/>
   <path class="fil0" d="M4245.46 729.98l14.72 0 0 73.74 -14.72 0 0 29.49c74.59,0 38.98,0.65 106.69,-77.42l0 47.93 -14.71 0 0 29.49 66.22 0 0 -29.49 -14.72 0 0 -73.74 14.72 0 0 -29.5 -44.15 0c-13.8,0 -47.35,63.54 -62.54,73.74l0 -73.74 -51.51 0 0 29.5z"/>
   <path class="fil0" d="M5378.57 143.79l14.72 0 0 70.05c-17.26,1.44 -14.72,0.02 -14.72,33.18l40.47 0c12.87,0 48.55,-63.47 62.54,-73.74l0 40.56 -11.03 0 0 33.18 62.54 0 0 -33.18 -14.72 0 0 -70.05 14.72 0 0 -29.49c-75.65,0 -39.44,0.45 -103.01,73.73l0 -73.73 -51.51 0 0 29.49z"/>
   <path class="fil0" d="M5378.57 435.04l14.72 0 0 73.73 -14.72 0 0 29.5 40.47 0c15.77,0 45.58,-58.66 62.54,-70.06l0 40.56 -11.03 0 0 29.5 62.54 0 0 -29.5 -14.72 0c0,-14.89 -0.03,-29.64 -0.29,-44.53 -0.4,-22.82 -4.37,-27.58 15.01,-29.2l0 -29.5 -40.47 0c-13.81,0 -47.35,63.54 -62.54,73.74l0 -73.74 -51.51 0 0 29.5z"/>
   <path class="fil0" d="M4433.09 206.46c10.41,-19.71 26.21,-14.74 55.18,-14.74 -1.35,16.32 -9.95,21.38 -22.78,25.51 -18.26,5.86 -24.85,3.53 -32.4,-10.77zm-14.72 -95.85c-18.32,0 -14.72,2.87 -14.72,40.56 0,13.11 7.17,11.06 22.07,11.06 20.68,0 -0.8,-19.27 31.13,-23.98 17.95,-2.65 29.79,4.53 31.41,23.98 -43.88,0 -91.97,1.16 -91.97,44.24 0,31.64 39.79,65.77 99.33,25.81l0 14.75 44.15 0c0,-33.16 2.54,-31.75 -14.72,-33.18 0,-23.26 4.29,-54.55 -2.36,-75.05 -14.23,-43.85 -61.17,-30.03 -77.22,-26.89 -17.46,3.42 -7.2,-1.29 -27.1,-1.29z"/>
   <path class="fil0" d="M3903.32 516.15c-8.61,0 -14.72,-6.12 -14.72,-14.75 0,-18.52 35.49,-14.74 55.18,-14.74 -1.64,19.7 -20.17,29.49 -40.47,29.49zm-22.07 -106.91l-22.07 0 0 47.92 29.43 0c0.5,-22.85 9.93,-22.12 29.42,-22.12 17.47,0 22.43,7.79 25.76,22.12 -46.92,0 -91.97,1.87 -91.97,44.24 0,46.67 47.13,52.11 78.74,37.56 12.3,-5.67 15.34,-14.95 16.91,3l44.14 0 0 -29.49 -11.03 0c0,-42.27 12.58,-110.6 -58.87,-110.6 -10.5,0 -11.5,2.3 -20.6,5.43 -23.59,8.1 -1.94,1.95 -19.87,1.95z"/>
   <path class="fil0" d="M3244.8 729.98l14.72 0 0 73.74 -14.72 0 0 29.49 62.54 0 0 -29.49 -11.03 0 0 -22.12 51.5 0 0 51.61c59.72,0 51.51,4.48 51.51,-29.49l-14.72 0 0 -73.74 14.72 0 0 -29.5 -62.54 0 0 29.5 11.03 0 0 18.43 -51.5 0 0 -47.93 -51.51 0 0 29.5z"/>
   <path class="fil0" d="M4984.93 435.04c19.37,1.62 15.4,6.38 15,29.2 -0.26,14.89 -0.28,29.64 -0.28,44.53l-14.72 0 0 29.5 62.54 0 0 -29.5 -11.04 0 0 -22.12 47.83 0 0 51.61 51.5 0 0 -29.5 -11.03 0 0 -73.73 11.03 0 0 -29.5c-72.29,0 -62.54,-5.34 -62.54,29.5l11.04 0 0 22.12 -47.83 0c0,-61.57 9.94,-51.61 -51.5,-51.61l0 29.5z"/>
   <path class="fil0" d="M3579.58 132.73c0,11.15 4.33,10.19 14.72,11.06l0 70.05c-15.9,1.33 -14.72,0.6 -14.72,22.12 0,17 20.68,11.06 62.54,11.06l0 -33.18 -11.04 0 0 -22.12 51.51 0c0,66.17 -10.6,55.3 51.51,55.3l0 -33.18 -14.72 0 0 -70.05 14.72 0 0 -29.49 -62.54 0 0 29.49 11.03 0 0 18.43 -51.51 0 0 -47.92 -51.5 0 0 18.43z"/>
   <path class="fil0" d="M3682.59 803.72l-29.43 0 0 -25.82 36.79 0c13.29,0 11.03,9.31 11.03,22.12 -8.25,1.92 -8.45,3.69 -18.39,3.69zm-11.03 -51.61l-18.4 0 0 -22.12 22.07 0c9.93,0 10.14,1.76 18.4,3.68 -1.22,14.7 -7.03,18.44 -22.07,18.44zm-69.91 -22.12l14.72 0 0 73.74 -14.72 0 0 29.49c30.75,0 139.8,12.26 139.8,-36.87 0,-19.51 -10.36,-29.01 -22.07,-36.87 40.19,-76.12 -77.62,-58.99 -117.73,-58.99l0 29.5z"/>
   <polygon class="fil0" points="4804.66,435.04 4819.37,435.04 4819.37,508.77 4804.66,508.77 4804.66,538.27 4867.2,538.27 4867.2,508.77 4856.16,508.77 4856.16,486.66 4907.67,486.66 4907.67,538.27 4959.17,538.27 4959.17,508.77 4944.46,508.77 4944.46,435.04 4959.17,435.04 4959.17,405.54 4896.63,405.54 4896.63,435.04 4907.67,435.04 4907.67,457.16 4856.16,457.16 4856.16,405.54 4804.66,405.54 "/>
   <path class="fil0" d="M4576.56 508.77l-29.42 0 0 -25.81 33.11 0c13.11,0 14.42,8.75 14.72,22.12 -8.25,1.92 -8.46,3.68 -18.4,3.68zm-3.67 -51.61l-25.75 0 0 -22.12 11.03 0c15.28,0 23.01,2.28 29.43,11.06 -3.84,5.74 -4.88,11.06 -14.72,11.06zm-77.26 -22.12l14.72 0 0 73.73 -14.72 0 0 29.5c72.91,0 136.12,14.18 136.12,-44.24 0,-15.67 -5.95,-22.48 -18.4,-25.82 4.15,-17.81 7.36,-7 7.36,-33.17 0,-39.16 -100.69,-29.5 -125.08,-29.5l0 29.5z"/>
   <path class="fil0" d="M3071.89 729.98c27.67,0 25.58,18.91 49.06,68.82 7.26,15.42 16.8,23 7.89,39.43 -13.02,24.03 -32.91,24.49 -53.27,24.49l0 33.17c55.84,0 72.01,-21.77 90.82,-60.15 7.94,-16.2 44.26,-93.25 45.31,-105.76l14.72 0 0 -29.5 -62.54 0 0 29.5 11.03 0 -19.24 54.98c-10.56,-12.83 -31.1,-84.47 -46.97,-84.47l-36.79 0 0 29.5z"/>
   <path class="fil0" d="M3513.36 435.04c28.04,0 17.38,4.61 36.74,44.3 7.18,14.72 22.17,39.61 25.8,55.24 -11.88,22.49 -25.38,36.12 -58.86,36.87l0 29.49c78.11,0 79.73,-38.05 118.99,-120.4 8.04,-16.86 10.12,-43.69 31.84,-45.5l0 -29.5 -62.54 0 0 29.5 11.04 0 -18.76 55.17c-15.79,-18.65 -31.73,-84.66 -47.46,-84.66l-36.79 0 0 29.5z"/>
   <path class="fil0" d="M5036.43 143.79l14.72 0 0 70.05c-17.25,1.44 -14.72,0.02 -14.72,33.18l62.55 0 0 -33.18 -11.04 0 0 -22.12 14.72 0c2.9,34.94 38.84,55.3 77.26,55.3l0 -33.18c-31.52,0 -38.21,-11.35 -44.15,-36.87 19.99,-29.92 20.46,-33.18 40.47,-33.18l0 -29.49 -62.55 0c0,43.58 7.18,47.92 -25.75,47.92l0 -47.92 -51.51 0 0 29.49z"/>
   <path class="fil0" d="M4576.56 143.79l14.72 0c0,40.61 4.04,69.14 -36.79,70.05l0 33.18c57.65,-4.81 77.26,-40.37 77.26,-103.23l25.75 0c0,14.86 0.21,29.7 0.28,44.53 0.27,52.32 -11.31,-2.54 -11.31,58.7l62.54 0 0 -33.18 -11.04 0 0 -99.54 -121.41 0 0 29.49z"/>
   <path class="fil0" d="M4723.72 431.35c19.97,0 26.29,12.9 33.11,25.81l-66.22 0c3.93,-16.9 12.85,-25.81 33.12,-25.81zm-73.58 40.56c0,93.88 120.87,83.97 132.44,40.56l-19.15 -17.47c-9.67,6.04 -18.71,17.47 -36.03,17.47 -23.31,0 -34.97,-7.58 -36.79,-29.5l99.33 0c0,-119.42 -139.8,-94.17 -139.8,-11.06z"/>
   <path class="fil0" d="M3829.74 726.3l7.36 0c18.24,0 24.33,8.65 25.75,25.81l-62.54 0c1.38,-16.58 12.06,-25.81 29.43,-25.81zm-69.9 40.55c0,78.07 98.92,90.73 132.44,40.56l-17.56 -19.27c-34.3,23.8 -71.2,28.38 -74.42,-10.22l99.33 0c0,-61.62 -24.49,-81.11 -80.93,-81.11 -32.38,0 -58.87,34.67 -58.87,70.05z"/>
   <path class="fil0" d="M4650.14 726.3l7.36 0c23.22,0 22.71,11.77 29.43,25.81l-66.22 0c3.58,-15.41 10.68,-25.81 29.43,-25.81zm-69.9 40.55c0,77.21 98.55,91.26 132.44,40.56l-17.56 -19.27c-9.74,6.82 -22.44,19.27 -37.62,19.27 -19.86,0 -35.22,-10.62 -36.79,-29.5l99.33 0c0,-59.99 -21.07,-81.11 -80.94,-81.11 -32.15,0 -58.86,36.69 -58.86,70.05z"/>
   <path class="fil0" d="M3277.9 512.46c-55.25,0 -42.63,-81.11 -3.67,-81.11 47.15,0 48.91,81.11 3.67,81.11zm69.9 -40.56c0,-40.14 -31.63,-70.05 -77.26,-70.05 -65.9,0 -89.05,85.17 -46.25,123.78 43.31,39.08 123.51,14.6 123.51,-53.73z"/>
   <path class="fil0" d="M3826.07 136.41c37.24,0 51.01,81.11 -3.68,81.11 -45.29,0 -48.58,-81.11 3.68,-81.11zm-11.04 110.6c114.63,0 101.03,-140.09 3.68,-140.09 -91.32,0 -88.69,140.09 -3.68,140.09z"/>
   <path class="fil0" d="M4812.01 213.83l-29.43 0 0 -40.56 18.4 0c14.34,0 29.43,7.87 29.43,22.12 0,8.6 -9.82,18.43 -18.4,18.43zm-80.93 -70.05l14.72 0 0 70.05c-17.26,1.44 -14.72,0.02 -14.72,33.18 60.12,0 136.11,11.66 136.11,-55.3 0,-46.59 -52.18,-47.93 -84.61,-47.93l0 -29.49 -51.5 0 0 29.49z"/>
   <path class="fil0" d="M5238.77 508.77l-25.76 0 0 -40.56c18.49,0 44.15,-4.82 44.15,22.12 0,8.6 -9.82,18.43 -18.39,18.43zm-77.26 -73.73l11.03 0 0 73.73 -11.03 0 0 29.5 80.93 0c70.58,0 70.58,-99.55 0,-99.55l-29.43 0c0,-39.9 7.52,-33.18 -51.5,-33.18l0 29.5z"/>
   <path class="fil0" d="M4337.44 416.61l0 44.24 33.11 0 0 -25.81 14.71 0 0 73.73 -14.71 0 0 29.5 73.57 0 0 -29.5 -14.72 0 0 -73.73 14.72 0 0 25.81 33.12 0c0,-72.31 23.45,-55.31 -128.76,-55.31 -8.48,0 -11.03,2.57 -11.03,11.07z"/>
   <polygon class="fil0" points="334.78,188.03 632.77,188.03 632.77,151.16 334.78,151.16 "/>
   <path class="fil0" d="M4731.08 755.79l29.42 0 0 -25.81 18.4 0 0 73.74 -18.4 0c0,37.18 -10.2,29.49 77.26,29.49l0 -29.49 -18.39 0 0 -73.74 18.39 0 0 25.81 29.43 0 0 -55.31 -136.11 0 0 55.31z"/>
   <polygon class="fil0" points="4425.73,755.79 4455.16,755.79 4455.16,729.98 4473.55,729.98 4473.55,803.72 4455.16,803.72 4455.16,833.21 4532.42,833.21 4532.42,803.72 4514.03,803.72 4514.03,729.98 4532.42,729.98 4532.42,755.79 4561.84,755.79 4561.84,700.48 4425.73,700.48 "/>
   <path class="fil0" d="M4094.62 763.16c0,97.51 120.23,89.14 136.12,29.49l-25.86 -14.56c-28.56,54.17 -73.47,25.01 -73.47,-14.93 0,-30.03 20.88,-36.87 44.15,-36.87 29.93,0 -0.64,29.49 40.47,29.49 16.34,0 11.03,-17.21 11.03,-55.31l-38.22 0.52c-16.39,-2.59 9.46,-4.2 -28,-4.2 -35.22,0 -66.23,31.36 -66.23,66.36z"/>
   <path class="fil0" d="M4182.92 471.91c0,91.29 121.2,90 136.12,25.81l-25.27 -11.96c-57.51,87.14 -112.11,-54.41 -37.27,-54.41 18.97,0 28.99,10.08 29.43,29.5l29.43 0 0 -55.31 -35.54 1.36c-18.01,-2.49 3.98,-5.05 -27.01,-5.05 -37.6,0 -69.9,32.36 -69.9,70.05z"/>
   <path class="fil0" d="M3362.53 468.21c0,97.5 121.44,92.62 136.11,29.5l-21.89 -11.37c-18.44,12.6 -9.78,26.12 -40.65,26.12 -49.68,0 -47.48,-81.11 0,-81.11 18.97,0 29,10.08 29.43,29.5l29.43 0 0 -55.31 -35.54 1.36c-18.01,-2.49 3.98,-5.05 -27.01,-5.05 -35.49,0 -69.89,32.35 -69.89,66.36z"/>
   <path class="fil0" d="M4881.91 173.28c0,45.47 18.82,77.42 69.9,77.42 32.3,0 51.19,-19.07 62.54,-40.55l-24.51 -20.18c-9.14,36.27 -71.14,48.66 -71.14,-16.7 0,-40.55 61.57,-51.04 62.54,-7.37l29.43 0 0 -55.31c-10.8,0 -14.08,-0.46 -24.24,1.79 -34.61,7.67 -13.26,-14.06 -58.18,0.34 -24.57,7.87 -46.35,29.9 -46.35,60.54z"/>
   <path class="fil0" d="M1203 1511.57c15.51,0 35.89,47.92 11.04,47.92l-18.4 0c-21.65,0 -25.98,-47.92 7.36,-47.92zm-58.87 25.8c0,59.1 66.23,45.16 77.26,44.24 -6.5,27.98 -21.69,25.82 -44.14,25.82l0 -18.43 -25.75 0c0,40.31 -5.57,40.55 51.5,40.55 33.52,0 51.51,-36.39 51.51,-73.73 0,-95.77 -110.37,-82.03 -110.37,-18.44z"/>
   <path class="fil0" d="M1420.06 1500.51l0 29.5 25.75 0 0 -14.75 29.43 0c-7.45,27.94 -30.19,13.02 -22.07,47.92 26.24,12.62 43.51,-7.85 33.11,36.87 -47.76,11.15 -44.14,0.49 -44.14,-18.44l-25.76 0c0,42.84 -6.52,47.93 62.54,47.93 16.82,0 44.15,-17.3 44.15,-33.18 0,-25.14 -2.04,-48.72 -36.79,-51.61 12.14,-18.17 29.43,-18.64 29.43,-44.25 0,-18.72 -33.79,-11.06 -84.61,-11.06 -8.47,0 -11.03,2.57 -11.03,11.06z"/>
   <polygon class="fil0" points="3071.89,435.04 3082.93,435.04 3082.93,508.77 3071.89,508.77 3071.89,538.27 3141.79,538.27 3141.79,508.77 3123.39,508.77 3123.39,435.04 3160.18,435.04 3160.18,460.85 3189.61,460.85 3189.61,405.54 3071.89,405.54 "/>
   <path class="fil0" d="M1280.26 1588.99l66.22 0 0 14.74 -18.39 0 0 22.12 58.87 0c0,-41.46 -8.54,-6.73 -11.04,-36.87l18.39 0 0 -25.82 -18.39 0 0 -44.24 -29.43 0 0 44.24 -33.11 0 29.3 -66.41 -25.1 -12.11c-11.78,22.43 -37.32,74.83 -37.32,104.34z"/>
   <path class="fil0" d="M3057.17 1083.91l14.72 0 0 84.8 -14.72 0 0 18.43 44.15 0c0,-16.1 -3.51,-15.63 -5.71,-23.78 -2.58,-9.52 -1.65,-17.52 -1.65,-27.84l51.51 0c0,47.32 -7.36,24.91 -7.36,51.61l44.15 0 0 -18.43 -14.72 0 0 -84.8 14.72 0 0 -18.43 -44.15 0c0,26.71 7.36,4.29 7.36,51.61l-51.51 0c0,-10.33 -0.92,-18.33 1.65,-27.85 2.2,-8.14 5.71,-7.66 5.71,-23.77l-44.15 0 0 18.43z"/>
   <path class="fil0" d="M3712.02 1588.99c-40.07,0 -36.79,-9.7 -36.79,-40.56 0,-27.04 58.87,-32.8 58.87,7.37 0,14.31 -8.46,33.18 -22.07,33.18zm-69.9 -77.42c0.39,17.43 -3.74,14.48 11.03,18.43l0 103.23 -11.03 0 0 18.43 44.14 0 0 -18.43 -11.03 0 0 -33.18c34.62,18.36 80.94,4.95 80.94,-44.24 0,-23.48 -23.87,-47.93 -47.83,-47.93 -24.14,0 -19.44,9.71 -35.82,6.24l-30.4 -2.54z"/>
   <path class="fil0" d="M3675.23 1341.98l0 -22.12 29.43 0 0 58.99 -40.47 0c5.61,-10.6 11.04,-20.6 11.04,-36.87zm-33.11 -22.12l11.03 0c0,30.92 3.6,56.54 -25.75,58.99l0 40.56c38.81,-0.87 1.96,-25.81 29.43,-25.81l62.54 0c0,26.01 -1.73,25.35 18.39,25.81l4.52 -40.45 -15.55 -0.11 0 -77.42 -84.61 0 0 18.43z"/>
   <path class="fil0" d="M3873.89 1530l11.03 0 0 58.99 -11.03 0 0 14.74c35.99,20.26 48.2,-34.59 73.58,-51.61 0,61.23 -30.81,55.31 33.11,55.31 0,-19.46 -14.81,-38.54 -5.71,-72.09 2.2,-8.14 5.71,-7.67 5.71,-23.77l-22.07 0c-15.03,0 -36.34,45.12 -51.51,55.3l0 -55.3 -33.11 0 0 18.43z"/>
   <path class="fil0" d="M3311.02 1530l0 58.99 -11.04 0 0 14.74c37.63,21.18 53.21,-39.16 77.26,-55.3l0 40.56 -11.03 0 0 14.74c10.22,5.76 15.57,3.69 33.11,3.69 14.07,0 1.35,1.13 11.03,-3.69l0 -14.74 -11.03 0 0 -58.99c14.78,-3.96 10.65,-1.01 11.03,-18.43l-33.11 0c-9.36,17.72 -31.03,43.85 -44.15,58.98l0 -58.98 -33.11 0c0.39,17.43 -3.74,14.48 11.04,18.43z"/>
   <path class="fil0" d="M4403.66 1187.14l22.07 0c15.02,0 36.34,-45.12 51.51,-55.31 0,10.16 1.64,22.42 -1.68,31.51 -3.7,10.16 -8.95,5.18 -9.36,23.79l44.15 0 0 -18.43 -11.04 0 0 -58.99 11.04 0 0 -14.75 -33.11 0c-9.64,14.43 -31.07,46.53 -44.15,55.31l0 -55.31 -29.43 0c0.4,17.82 14.72,35.16 5.71,68.4 -2.21,8.14 -5.71,7.67 -5.71,23.78z"/>
   <path class="fil0" d="M3432.42 1109.71l11.04 0 0 58.99 -11.04 0 0 18.43 25.76 0c12.22,0 39.22,-49.97 51.5,-58.99l0 40.56 -11.03 0 0 18.43 40.47 0c0,-20.66 -2.46,-13.72 -4.76,-21.05 -3.07,-9.85 -2.81,-10.79 -2.96,-23.05 -0.64,-52.74 7.02,-16.98 7.71,-48.07 -31.57,0 -30.22,-0.97 -44.27,18.32 -6.64,9.1 -21.25,31.07 -29.31,36.99l0 -55.31 -33.12 0 0 14.75z"/>
   <path class="fil0" d="M3057.17 1319.85l11.04 0 0 58.99 -11.04 0 0 14.75 33.12 0 39.77 -55.83c4.64,56.68 -6,26.24 -6.66,55.83l40.47 0c-0.96,-43.02 -11.04,29.36 -11.04,-73.74l11.04 0 0 -18.43 -22.07 0c-14.53,0 -38.42,45.69 -51.51,55.31l0 -55.31 -33.12 0 0 18.43z"/>
   <path class="fil0" d="M3664.19 1102.34c0,10.2 2.85,8.87 11.04,11.06l0 55.31 -11.04 0 0 18.43 40.47 0c0,-33.5 -7.36,-3.37 -7.36,-36.87l40.47 0 0 36.87 33.12 0 0 -18.43 -11.04 0 0 -55.31c12.04,-3.22 11.04,-0.4 11.04,-22.12l-40.47 0c0,35.42 6.67,6.05 7.36,36.87l-40.47 0 0 -36.87c-23.68,0 -33.12,-3.28 -33.12,11.06z"/>
   <path class="fil0" d="M4782.58 1393.59l29.43 0 42.61 -56.48 1.54 41.73 -11.03 0 0 14.75 44.14 0 0 -14.75 -11.03 0 0 -58.99c14.77,-3.96 10.64,-1 11.03,-18.43l-33.11 0c-11.25,21.3 -28.85,41.36 -44.15,58.99l0 -58.99 -29.43 0c0,20.41 14,33.3 6.52,69.2 -4.43,21.33 -5.88,-5.96 -6.52,22.97z"/>
   <path class="fil0" d="M4907.67 1393.59l29.42 0 42.61 -56.48 1.54 41.73 -11.03 0 0 14.75 44.14 0 0 -14.75 -11.03 0 0 -58.99c14.78,-3.96 10.64,-1 11.03,-18.43l-33.11 0c-11.24,21.3 -28.85,41.36 -44.15,58.99l0 -58.99 -29.42 0c0,20.41 13.99,33.3 6.52,69.2 -4.43,21.33 -5.88,-5.96 -6.52,22.97z"/>
   <path class="fil0" d="M3307.34 1109.71l11.04 0 0 58.99c-14.78,3.96 -10.65,1 -11.04,18.43l88.3 0 0 22.12 18.39 0 4.2 -40.48 -15.24 -0.07 0 -58.99 11.03 0 0 -14.75 -40.47 0c0.55,24.45 7.36,-4.83 7.36,73.74l-40.47 0 0 -73.74 -33.12 0 0 14.75z"/>
   <path class="fil0" d="M5293.95 435.04c23.87,1.99 14.72,16.16 14.72,103.23l51.5 0c0,-29.28 2.18,-28.09 -14.72,-29.5l0 -73.73 14.72 0c0,-34.29 8.75,-29.5 -55.18,-29.5 -15.54,0 -11.03,14.3 -11.03,29.5z"/>
   <path class="fil0" d="M3483.93 1588.99l-25.75 0 0 -25.82 25.75 0c11.18,0 12.49,6.4 14.72,14.75 -3.83,5.74 -4.87,11.07 -14.72,11.07zm-3.67 -40.56l-22.07 0 0 -18.43 33.11 0c-0.26,11.81 1.2,18.43 -11.03,18.43zm-44.15 -18.43l0 58.99 -11.03 0 0 14.74c15.86,8.94 95.65,7.13 95.65,-22.12 0,-29.75 -3.25,-13.71 -7.56,-25.17 -11.26,-29.89 37.25,-44.87 -88.09,-44.87 0.38,17.43 -3.75,14.48 11.03,18.43z"/>
   <path class="fil0" d="M4028.41 1378.84c-40.94,0 -18.09,-25.81 -7.36,-25.81l29.43 0c0,13.35 2.39,25.81 -22.07,25.81zm-36.79 -77.42l0 29.5 18.4 0c2.89,-26.5 35.34,-15.57 40.47,3.68 -33.14,0 -66.22,0.36 -66.22,33.18 0,49.93 64.69,24.72 65.58,24.79 8.77,0.69 3.48,4.7 30.08,4.7 0,-29.99 -7.22,-6.21 -7.56,-40.34 -0.74,-71.58 -16.64,-55.51 -80.73,-55.51z"/>
   <path class="fil0" d="M3914.36 1378.84l-11.03 0 0 -25.81 36.78 3.69 0 18.43c-11.5,0.96 -13.06,3.68 -25.75,3.68zm7.36 -40.56l-18.39 0 0 -18.43 22.07 0c14.06,0 1.34,-1.13 11.03,3.69 -2.22,8.35 -3.53,14.74 -14.72,14.74zm-51.5 -18.43l11.03 0c0,102.49 -10.09,31.08 -11.03,73.74 46.87,0 120.98,11.01 87.08,-46.95 -9.69,-16.56 -3.62,1.93 -0.87,-17.3 5.26,-36.78 -47.53,-27.92 -86.22,-27.92l0 18.43z"/>
   <path class="fil0" d="M3822.38 1172.39c-8.42,0 -4.28,-1.25 -14.72,-3.68 0,-29.61 8.39,-25.81 44.15,-25.81 0,13.69 1.02,29.49 -29.43,29.49zm-29.42 -81.11l0 33.18c37.87,-0.85 -1.73,-14.75 40.47,-14.75 11.98,0 14.19,10.46 18.39,18.43 -40,0 -66.22,-2.82 -66.22,33.18 0,48.25 64.25,21.85 64.26,21.85 8.75,-0.96 1.53,0.12 10.84,2.16 9.32,2.04 10.48,1.79 20.55,1.79 0,-31.96 -3.59,-5.25 -7.04,-29.8 -1.54,-10.98 6.83,-69.74 -40.78,-69.74 -7.47,0 -9.42,4.22 -19.34,5.27 -8.7,0.92 -7.63,-1.28 -21.12,-1.58z"/>
   <path class="fil0" d="M3233.76 1172.39c-8.42,0 -4.27,-1.25 -14.71,-3.68 0,-29.61 8.38,-25.81 44.15,-25.81 0,13.69 1.02,29.49 -29.44,29.49zm-29.42 -81.11l0 33.18 14.72 0 4.13 -14.61c32.04,-0.14 28.13,-4.22 40.02,18.29 -53.66,0 -66.22,-0.18 -66.22,40.56 0,13.63 18.82,22.12 33.11,22.12 17.76,0 21.68,-6.59 31.14,-7.64 8.75,-0.96 1.53,0.12 10.85,2.16 9.32,2.04 10.47,1.79 20.55,1.79 0,-31.96 -3.58,-5.25 -7.04,-29.8 -1.54,-10.98 6.83,-69.74 -40.78,-69.74 -15.47,0 9.15,4.8 -40.47,3.69z"/>
   <path class="fil0" d="M3178.57 1607.43c28.49,0 27.69,2.66 40.47,-3.69l0 -14.74 -11.04 0 0 -22.12 44.15 0 0 40.56 29.43 0c0,-19.46 -14.8,-38.54 -5.71,-72.09 2.2,-8.14 5.71,-7.67 5.71,-23.77l-40.47 0c0.78,35.42 11.03,-0.66 11.03,36.87l-44.15 0 0 -36.87 -29.43 0c0,19.46 14.81,38.54 5.71,72.08 -2.2,8.14 -5.71,7.67 -5.71,23.78z"/>
   <path class="fil0" d="M4120.38 1109.71l11.03 0 0 58.99c-14.77,3.96 -10.64,1 -11.03,18.43l40.47 0c0,-33.5 -7.37,-3.37 -7.37,-36.87l40.47 0 0 36.87 33.11 0 0 -18.43 -11.03 0 0 -58.99 11.03 0 0 -14.75 -40.47 0c0.67,30.35 7.36,-1.76 7.36,33.18l-40.47 0 0 -33.18 -33.11 0 0 14.75z"/>
   <path class="fil0" d="M3057.17 1530c19.02,0.42 14.7,1.09 26.81,32.12 13.29,34.01 31.18,55.17 -2.99,65.49 -18.14,5.48 -19.63,-2.47 -20.14,20.37 48.84,0 53.46,-13.44 67.83,-50l26.49 -61.94c8.52,-13.57 8.69,-0.69 8.69,-24.47l-40.47 0 0 18.43c19.25,1.64 6.66,-3.52 11.04,7.37 -11.24,12.96 -9.75,31.51 -22.07,40.56 -2.87,-12.35 -20.92,-66.36 -33.12,-66.36l-22.07 0 0 18.43z"/>
   <path class="fil0" d="M3583.26 1526.31l3.67 0c16.54,0 24.46,6.44 25.76,22.12l-55.18 0c6.79,-12.86 5.62,-22.12 25.75,-22.12zm-47.82 25.81c0,69.21 73.02,67.04 95.65,33.18 -29.26,-19.64 -2.19,3.69 -51.5,3.69 -12.21,0 -17.69,-13.82 -22.07,-22.12 14.97,0 77.26,5.48 77.26,-7.37 0,-71.61 -99.33,-63.7 -99.33,-7.37z"/>
   <path class="fil0" d="M4146.13 1526.31l14.72 0c12.21,0 17.68,13.82 22.07,22.12l-55.18 0c0.98,-11.87 6.58,-22.12 18.39,-22.12zm-44.14 29.5c0,58.3 70.35,67.35 95.65,29.49 -29.26,-19.64 -2.19,3.69 -51.51,3.69 -11.81,0 -17.41,-10.26 -18.39,-22.12l73.58 0c0,-89.5 -99.33,-64.31 -99.33,-11.06z"/>
   <path class="fil0" d="M1041.13 1511.57c1.57,5.87 6.45,16.24 10.55,18.7 12.32,7.36 0.91,0.86 18.88,-3.96l0 77.42 -14.72 0 0 22.12 58.87 0 0 -22.12 -11.04 0c0,-20.89 -0.04,-41.79 0.01,-62.68 0.17,-66.69 0.12,-62.71 -62.55,-29.48z"/>
   <path class="fil0" d="M4245.46 1316.17l14.72 0c11.8,0 17.4,10.25 18.39,22.12l-51.51 0c0.98,-11.87 6.58,-22.12 18.39,-22.12zm-44.14 29.49c0,43.62 28.55,51.61 58.87,51.61 17.31,0 26.35,-11.43 36.78,-18.43l-11.66 -14.18c-12.85,8.43 -10.46,14.18 -32.49,14.18 -18.58,0 -25.34,-7.38 -25.75,-25.81l73.58 0c0,-79.54 -99.33,-66.55 -99.33,-7.37z"/>
   <path class="fil0" d="M3564.87 1316.17l11.03 0c11.81,0 17.41,10.25 18.4,22.12l-55.18 0c6.78,-12.86 5.61,-22.12 25.75,-22.12zm-47.82 29.49c0,43.62 28.55,51.61 58.86,51.61 17.32,0 26.36,-11.43 36.79,-18.43l-11.66 -14.18c-17.07,11.2 -7.91,14.18 -39.85,14.18 -12.56,0 -19.53,-14.89 -22.07,-25.81l77.26 0c0,-78.8 -99.33,-67.64 -99.33,-7.37z"/>
   <path class="fil0" d="M4672.22 1319.85l0 58.99 -11.04 0 0 14.75 40.47 0c-0.59,-26.44 -7.36,-1.8 -7.36,-36.87 26.9,0.59 13.72,9.98 31.93,27 8.13,7.6 37.97,21.62 37.97,2.49 0,-15.54 -57.26,-16.15 -23.64,-56.88 6.66,-8.06 6.39,-9.18 19.96,-9.49l0 -18.43 -40.47 0c0,33.07 7.35,9.56 -0.42,25.67 -6.24,12.92 -10.37,11.2 -25.33,11.2l0 -36.87 -33.12 0c0.39,17.43 -3.74,14.48 11.04,18.43z"/>
   <path class="fil0" d="M3421.39 1319.85c0,17.9 1.25,34.03 -6.58,45.02 -15.23,21.38 -22.15,-2.8 -22.85,28.71 49.46,0 51.51,-32.74 51.51,-73.74l25.75 0c0,11.55 1.21,30.23 0.26,40.82 -2.79,31.51 -10.55,-0.76 -11.3,32.92l44.15 0c-0.78,-34.54 -11.03,1.07 -11.36,-40.23 -0.13,-17.12 0.32,-34.71 0.32,-51.94l-84.61 0c0.36,16.35 -1.17,17.11 14.72,18.43z"/>
   <path class="fil0" d="M4330.07 1319.85l11.04 0c0,15.08 1.77,34.99 -3.43,44.49 -12.59,22.97 -21.6,-3.73 -22.32,29.25 54.5,0 47.82,-42.37 47.82,-73.74l29.43 0 0 55.31 -11.04 0 0 18.43 40.47 0c0,-18.03 -3.99,-14.21 -6.62,-26.54l-0.73 -65.63 -84.62 0 0 18.43z"/>
   <path class="fil0" d="M3572.22 1139.21c0,-37.05 58.86,-52.63 58.86,3.68 0,43.06 -58.86,35.35 -58.86,-3.68zm29.42 51.61c71.34,0 65.67,-103.23 3.68,-103.23 -72.18,0 -70.08,103.23 -3.68,103.23z"/>
   <path class="fil0" d="M3910.68 1109.71l11.03 0c0,33.41 6.97,56.26 -25.75,58.99l0 18.43c80.18,0 21.24,-77.42 66.22,-77.42 18.18,0 11.04,41.42 11.04,58.99l-11.04 0 0 18.43 40.47 0c0,-29.63 -6.98,-6.47 -7.65,-40.27 -0.33,-16.89 0.29,-34.85 0.29,-51.9l-84.61 0 0 14.75z"/>
   <path class="fil0" d="M3774.56 1353.04c0,-58.37 55.18,-36.39 55.18,-14.75 0,24.36 2.03,40.56 -29.43,40.56 -17.17,0 -25.75,-8.6 -25.75,-25.81zm25.75 44.24c69.33,0 72.18,-99.54 -3.67,-99.54 -57.14,0 -64.94,99.54 3.67,99.54z"/>
   <path class="fil0" d="M4076.23 1168.7l-22.07 0 0 -33.18c59.62,0 33.83,33.18 22.07,33.18zm-44.15 0l-11.03 0 0 18.43c46.96,0 91.97,8.71 91.97,-36.87 0,-33.25 -35.99,-33.18 -58.87,-33.18l0 -22.12 -33.11 0c0.97,43.34 11.03,-29.86 11.03,73.74z"/>
   <path class="fil0" d="M4477.24 1378.84l0 -36.87 33.11 3.68c2.5,10.5 15.87,33.18 -33.11,33.18zm-33.12 14.75c38.73,0 91.97,9.36 91.97,-33.18 0,-29.09 -29.02,-36.87 -58.86,-36.87 0,-25.24 2.35,-22.12 -33.12,-22.12l4.81 20.99c10.55,31.93 -4.64,63.8 -4.81,71.18z"/>
   <path class="fil0" d="M4304.32 1168.7l-25.75 0 0 -33.18 22.07 0c18.94,0 24.75,33.18 3.67,33.18zm-58.87 -58.99l11.04 0 0 58.99c-14.78,3.96 -10.65,1 -11.04,18.43 27.19,0 67.44,4.63 83.17,-8.83 18.09,-15.49 26.98,-61.22 -50.05,-61.22l0 -22.12 -33.12 0 0 14.75z"/>
   <path class="fil0" d="M3995.3 1548.44l18.39 0 0 -18.43 18.39 0c0,11.82 0.78,25.77 0.36,37.22 -1.27,34.41 -11.4,8.64 -11.4,29.14 0,14.7 10.42,11.07 36.79,11.07 12.87,0 20.93,-20.08 -3.68,-22.12l0 -55.3 18.4 0 0 18.43 18.39 0 0 -36.87 -95.65 0 0 36.87z"/>
   <path class="fil0" d="M4591.28 1397.28c24.71,0 49.34,-7.15 51.5,-33.18 -22.16,-5.17 -9.51,-7.12 -21.5,3.96 -46.73,43.17 -80.02,-51.88 -15.29,-51.88 13.11,0 14.42,8.74 14.72,22.12l18.39 0 0 -36.87c-28.55,0 -67.13,-16.33 -85.84,24.68 -13.72,30.08 4.69,71.18 38.02,71.18z"/>
   <path class="fil0" d="M4212.35 1548.44l18.39 0 0 -18.43 18.4 0 0 55.3 -11.03 0 0 22.12c47.08,0 44.14,3.79 44.14,-22.12l-11.03 0 0 -55.3 18.39 0 0 18.43 18.39 0 0 -36.87 -95.65 0 0 36.87z"/>
   <path class="fil0" d="M3811.35 1607.43c20.37,0 43.85,-0.79 51.5,-29.5l-8.08 -6.63c-22.11,5.24 -7.94,17.7 -36.06,17.7 -40.13,0 -34.54,-62.68 0,-62.68 16.82,0 21.69,4.79 22.07,22.12l18.4 0 0 -36.87c-48.81,0 -14.71,-3.69 -44.15,-3.69 -25.24,0 -45.67,25 -46.6,48.3 -1.02,25.46 16.29,51.24 42.93,51.24z"/>
   <path class="fil0" d="M3182.26 1345.66c0,71.39 88.36,61.97 91.97,18.43 -34.58,-8.07 -6.09,14.75 -47.82,14.75 -24.26,0 -40.61,-62.67 11.03,-62.67 13.1,0 14.42,8.74 14.72,22.12l18.39 0 0 -36.87c-15.75,0 -88.29,-19.7 -88.29,44.24z"/>
   <path class="fil0" d="M3285.27 1345.66c0,64.96 84.38,66.88 95.65,18.43 -22.16,-5.17 -9.51,-7.12 -21.5,3.96 -48.02,44.36 -76.22,-51.88 -22.65,-51.88 16.82,0 21.69,4.79 22.07,22.12l18.39 0 0 -36.87 -23.49 0.61c-0.67,-0.12 -26.68,-15.28 -51.3,9.22 -7.21,7.18 -17.17,22.43 -17.17,34.4z"/>
   <path class="fil0" d="M4094.62 1338.29l14.72 0 0 -18.43 22.07 0 0 55.31c-15.88,1.32 -14.34,2.08 -14.72,18.43l47.83 0c-0.1,-4.24 0.32,-3.3 -0.68,-6.69 -0.21,-0.68 -0.41,-2.2 -0.7,-2.99l-2.35 -5.01c-6.48,-12.37 -3.41,9.08 -7.28,-14.83 -1.38,-8.5 -0.03,-33.95 -0.03,-44.22l18.4 0 0 18.43 18.39 0 0 -36.87 -95.66 0 0 36.87z"/>
   <path class="fil0" d="M1894.64 339.19c87.46,0 77.26,7.69 77.26,-29.5 0,-18.18 -29.01,-11.06 -77.26,-11.06l0 40.56z"/>
   <polygon class="fil0" points="559.19,339.19 632.77,339.19 632.77,298.63 559.19,298.63 "/>
   <path class="fil0" d="M4344.79 1094.96c0,24.71 7.22,10.22 7.63,40.28 0.24,17.03 -0.27,34.74 -0.27,51.89l33.11 0 0 -18.43 -11.03 0 0 -55.31 11.03 0 0 -18.43c-12.19,-1.02 -20.13,-7.9 -40.47,0z"/>
   <path class="fil0" d="M5408 368.68c21.74,41.17 70.88,39.94 91.96,0 -10.3,-2.75 -16.63,-7.31 -22.07,-14.75 -6.64,4.88 -22.4,32.55 -44.15,0 -8.54,5.73 -14.49,11.74 -25.75,14.75z"/>
   <path class="fil0" d="M5411.68 77.42c8.61,32.32 62.69,38.32 88.29,0 -7.42,-4.98 -14.63,-9.75 -22.07,-14.74 -3.17,2.12 -31.13,25.83 -40.47,0 -13.01,1.08 -19.91,6.76 -25.75,14.74z"/>
   <polygon class="fil0" points="3929.07,191.72 4010.01,191.72 4010.01,162.22 3929.07,162.22 "/>
   <path class="fil0" d="M4425.73 1061.79c2.42,29.09 44.57,30.57 62.54,3.68l-11.03 -7.37c-17.63,4.72 -3.48,7.37 -22.07,7.37 -15.01,0 -4.34,-13.45 -29.43,-3.68z"/>
   <path class="fil0" d="M4929.74 1268.24c2.42,29.09 44.58,30.58 62.54,3.69 -25.59,-13.58 -9.71,-2.4 -29.97,-0.37 -30.05,3.02 3.72,-7.12 -32.57,-3.32z"/>
  </g>
 </g>
</svg>
