<?xml version="1.0" encoding="UTF-8"?>
<!DOCTYPE svg PUBLIC "-//W3C//DTD SVG 1.1//EN" "http://www.w3.org/Graphics/SVG/1.1/DTD/svg11.dtd">
<!-- Creator: CorelDRAW 2020 (64-Bit) -->
<svg xmlns="http://www.w3.org/2000/svg" xml:space="preserve" width="67mm" height="20mm" version="1.1" style="shape-rendering:geometricPrecision; text-rendering:geometricPrecision; image-rendering:optimizeQuality; fill-rule:evenodd; clip-rule:evenodd"
viewBox="0 0 39796.1 11879.43"
 xmlns:xlink="http://www.w3.org/1999/xlink"
 xmlns:xodm="http://www.corel.com/coreldraw/odm/2003">
 <defs>
  <style type="text/css">
   <![CDATA[
    .susu-fil0 {fill:#02549F}
   ]]>
  </style>
 </defs>
 <g id="Слой_x0020_1">
  <metadata id="CorelCorpID_0Corel-Layer"/>
  <g id="_2282936696608">
   <path class="susu-fil0" d="M14156.19 8830.04l0 265.15 -1852.24 0c6.06,-272.69 227.02,-503.81 502.8,-503.81l820.27 0c0,-869.57 -71.1,-1087.21 1031.91,-1087.21l31.3 795.39c-280.47,6.3 -534.04,250.66 -534.04,530.48zm-10380.55 -1326.1c1077.29,0.24 1040.1,143.86 1040.1,1087.44 553.4,0 1323.01,-134.36 1323.01,503.81l-1852.24 0c0,-282.49 29.82,-783.03 -529.17,-795.51l18.29 -795.74zm-2955.37 -1855.86c319.68,0 749.53,-29.16 793.78,503.75 -269.25,0 -381.39,31.6 -555.54,-79.65 -215.55,-137.56 -150.22,-226.6 -238.24,-424.1zm5874.14 -265.21l0 -1352.35 5053.87 0 0 1352.35c0,122.06 -529.17,156.16 -529.17,689.42 0,361.13 234.86,567.66 529.17,636.38 0,1050.32 -141.37,1442.88 -611.67,2038.69 -322.17,408.12 -1048.78,878.13 -1769.74,878.13l-264.61 0c-1280.42,0 -2407.84,-1170.9 -2407.84,-2465.99 0,-646.42 -87.97,-981.12 529.17,-981.12 0,-792.89 -529.17,-614.46 -529.17,-795.51zm6932.6 1034.16l-1825.75 0c-410.26,0 -356.74,-689.42 0,-689.42 300.19,0 229.99,173.86 447.85,187.52 198.8,12.47 457.6,-1.96 663.47,-1.96 147.13,-633 871.83,-1325.8 1640.49,-1325.8 346.94,0 619.63,-3.39 926.12,159.12 0,548 0,1096 0,1643.99 0,311.66 -22.93,525.43 78.52,743.36 83.75,179.97 261.76,320.09 477.14,370.34 0,243.71 -36.23,822.65 15.38,1018.72 62.55,237.23 281.01,491.39 513.84,545.74l0 1378.91 -1323.07 0c0,-542.41 501.55,-530.36 793.84,-530.36l0 -822c-358.64,0 -789.33,17.88 -987.72,-442.03 -191.67,-444.23 141.54,-1190.08 -433.9,-1792.61 -310.29,-324.9 -464.19,-293.24 -721.68,-417.03 92.42,-397.43 211.57,-795.45 820.27,-795.45l0 -291.76c-592.07,0 -1084.83,466.33 -1084.83,1060.71zm3201.63 -795.51c107.45,-461.99 246.2,-503.81 793.84,-503.81 -4.16,187.1 -101.51,331.44 -222.15,413.82 -165.84,113.15 -313.74,89.99 -571.7,89.99zm-13865.08 -2943.37c152.65,241.21 226.01,826.69 1164.07,822.18 360.78,-1.72 625.57,-26.49 863.22,116.06 253.33,152 354.13,395.53 354.13,732.31 0,204.8 -86.78,340.94 -158.77,477.32 -935.92,-628.01 -1036.78,-530.3 -2222.64,-530.3l0 -1617.56zm-2619.59 26.55c767.71,0 1420.25,-124.97 1694.54,396.59 235.45,447.62 -125.57,1147.85 662.52,1430.94 459.62,165.06 1600.93,-291.22 2464.98,685.27 115.23,130.2 347,489.37 364.16,695.66 208.72,0 430.81,7.84 637.45,2.44 214.3,-5.64 449.58,-434.67 738.48,-2.44 -105.49,55.95 -229.75,103.89 -310.41,192.8 -351.33,386.85 365.65,311.06 -1700.6,311.06 -151.46,0 7.31,-330.9 -363.09,-723.28 -166.31,-176.23 -444.83,-337.44 -774.66,-337.44l0 291.76c461.63,0 793.78,358.34 793.78,821.94 -275.84,6.18 -619.99,268.59 -752.86,438.83 -619.87,793.84 -35.58,1325.09 -512.42,1926.01 -333.57,420.29 -877.95,146.71 -877.95,339.87l0 742.46c326.74,0 793.78,-12 793.78,530.36l-1296.58 0 0 -1325.86c0,-116.83 89.16,-42.05 285.46,-244.24 348.07,-358.7 243.77,-819.27 243.77,-1373.26 194.59,-93.55 529.23,-219.29 529.23,-636.38l0 -1750.08 264.55 0 0 -291.7 -2143.29 0c-351.45,0 -675.41,-248.58 -740.86,-530.3l1296.52 0 0 -265.21c-418.1,0 -1161.57,50.25 -1296.52,-530.3l1032.74 0.77c279.23,4.57 263.78,30.17 263.78,-212.94 0,-179.97 -507.61,-11.82 -815.88,-110.42 -248.58,-79.53 -365.23,-254.34 -480.64,-472.92zm14632.49 -556.85l-291.11 0c0,414.35 -3.03,867.32 -550.79,1039.03 -198.33,62.19 -1009.75,21.62 -1301.39,21.62 27.92,-336.13 289.62,-371.23 529.23,-371.23l0 -291.7c-469.95,0 -529.23,-101.51 -529.23,-636.38l2381.41 0c-11.23,135.13 -95.27,238.66 -238.12,238.66zm-12277.51 -238.66c546.81,0 1093.68,0.3 1640.49,0 313.08,-0.12 501.97,-6.71 680.75,139.82 72.88,59.63 149.44,139.11 204.56,219.35 88.92,129.6 63.79,185.91 120.22,303.76 -296.51,0 -390.89,18 -560.65,154.14 -118.38,94.98 -228.62,278.69 -233.19,482.25 -366.3,0 -691.92,46.63 -935.56,-96.58 -400.81,-235.69 -387.45,-596.88 -387.45,-964.08 -283.68,0 -492.05,51.5 -529.17,-238.66zm11192.62 -477.26c0,-61.12 18.41,-79.59 79.35,-79.59 823.36,0 1783.58,-104.6 2296.06,403.78 283.21,280.95 561.66,638.1 561.66,1187.23 0,1049.19 -992.65,1631.16 -1262.84,1533.16 -437.34,-158.53 -459.26,-180.8 -959.8,-180.8 -386.68,0 -752.92,143.33 -1050.56,326.03 -94.92,58.27 -186.98,168.39 -298.89,177.78 -16.99,-63.73 -425.7,-693.52 146.18,-1126.29 314.03,-237.59 374.32,-106.38 728.33,-198.21 457.54,-118.68 833.05,-480.52 845.4,-1035.47 560.71,-46.8 529.17,-514.14 529.17,-822l-1614.06 0 0 -185.62zm-264.55 185.62l-1084.89 0c0,275.07 -34.21,980.65 264.61,1060.6 -78.17,116.95 -118.97,115.11 -195.59,281.3 -76.15,165.3 -69.02,347.06 -69.02,540.75l608.58 0c-202.84,303.46 -466.09,582.09 -268.59,1170.72 54.41,162.04 156.81,227.91 189.24,367.19 -119.27,178.49 -288.14,342.96 -344.03,583.4 -131.68,0 -318.84,29.34 -435.2,-14.67 -44.25,-16.75 -252.73,-137.15 -252.73,-197.44l0 -1670.55 -5556.66 0c-127.29,0 -79.71,249.88 -79.41,371.17l0 1352.35c-341.89,181.34 -133.58,159.12 -608.52,159.12 -91.71,0 -160.73,-223.69 -206.29,-297.1 -71.51,-115.29 -144.81,-204.56 -217.1,-312.79 120.04,-179.62 264.61,-390.77 264.61,-689.42 0,-533.39 -362.68,-959.98 -793.84,-1060.66 0,-499.95 414.77,-492.7 793.84,-291.64 0,-426.17 -39.02,-726.43 -244.12,-948.69 -179.32,-194.35 -425.7,-403.66 -787.84,-403.66l-2196.15 0c0,241.69 -10.69,642.26 264.55,715.91l0 1856.16c-386.56,-103.47 -106.38,-693.05 -369.81,-1193.88 -165.12,-313.97 -503.45,-582.69 -979.64,-582.69l-1243.66 0c-148.61,0 -18.12,346.34 18.35,432.41 84.4,199.22 152.29,222.38 246.26,363.04 -363.04,0 -399.8,-20.43 -286.23,339.87 64.33,204.45 178.49,320.92 286.23,482.13l-343.97 0c53.52,644.7 495.91,1087.21 1190.68,1087.21l1481.78 0 0 1776.57c0,411.33 -741.99,494.18 -768.48,-25.36 -12.77,-250.36 29.1,-515.21 -8.85,-760.11 -130.44,-841.84 -793.49,-752.5 -1339.47,-752.5l0 371.29c0,359.89 389.29,715.91 767.35,715.91l291.05 0c0,346.7 -54.47,790.22 343.14,982.01 245.9,118.56 186.09,-63.85 186.09,900.7 0,250.72 -200.41,503.81 -529.23,503.81l0 1882.65 1878.67 0 0 -291.7c0,-387.86 -315.64,-768.96 -793.78,-768.96l0 -265.21c297.05,0 503.75,-112.85 677.31,-249.29 89.51,-70.39 165.78,-165.48 221.2,-255.65 98.84,-160.97 64.98,-290.51 239.25,-290.51 248.58,0 185.2,555.9 185.2,795.45l2407.9 0 0 -291.64c0,-435.14 -384.89,-795.51 -820.27,-795.51l-502.74 0c0,-413.05 -11.05,-625.57 -324.96,-894.11 -234.14,-200.23 -457.06,-166.55 -865.71,-166.55 151.64,-287.24 488.24,-530.36 926.06,-530.36l1561.14 0 0 397.78c0,845.99 371.65,1527.87 800.44,1955.59 1174.22,1171.13 2956.14,1135.2 4075.36,-39.32 563.03,-590.76 760.28,-1286.01 760.28,-2314.05l1561.14 0c383.17,0 849.56,243.11 926.12,530.36 -393.33,0 -535.47,-33.44 -803.05,123.37 -392.56,230.05 -361.19,614.94 -361.19,937.29l-529.23 0c-473.99,0 -820.27,386.38 -820.27,875.04l0 212.11 2434.33 0c0,-629.25 -81.14,-795.45 291.11,-795.45 33.02,398.26 545.44,795.45 1005.48,795.45l0 265.21c-495.08,0 -793.84,392.2 -793.84,848.49l0 212.17 1878.67 0 0 -1882.65c-655.92,0 -529.17,-750.3 -529.17,-1272.82 0,-94.86 82.68,-79.41 171.66,-119.57 172.37,-77.81 357.51,-311.78 357.51,-543.37l0 -981.12 264.61 0c473.99,0 820.27,-386.32 820.27,-875.04l0 -212.11 -555.66 0c-454.51,0 -794.56,356.2 -794.91,820.93 -0.36,447.97 110.95,1250.79 -135.72,1481.48 -166.02,155.26 -400.99,130.32 -546.45,-26.67 -154.61,-166.79 -110.54,-406.34 -110.54,-711.28 0,-548 0,-1096 0,-1643.99 539.8,-45.02 1323.01,-874.74 1323.01,-1644.05l0 -265.15c0,-911.15 -893.75,-1750.08 -1825.75,-1750.08l-1640.49 0 0 530.36z"/>
   <path class="susu-fil0" d="M10980.99 2704.71l767.29 0 0 238.66 -767.29 0 0 -238.66zm-1833.65 -2704.71l148.02 0c41.1,13.84 71.51,40.39 71.51,79.59l0 1007.61 238.18 0 0 -265.15 291.05 0 0 795.51 793.78 0 0 -265.21c208.13,0 291.11,-28.69 291.11,79.59l0 981.12 1058.4 0 0 821.94 -5556.66 0c-60.94,0 -79.41,-18.41 -79.41,-79.53l0 -662.87c0,-61.12 18.47,-79.53 79.41,-79.53l1005.48 0 0 -1060.71 264.61 0 0 265.21 793.78 0 0 -795.51 291.11 0 0 265.15 238.12 0 0 -1007.61c0,-39.2 30.41,-65.75 71.51,-79.59zm1277.99 1909.2l264.55 0 0 1034.16 -264.55 0 0 -1034.16zm-529.23 0l264.61 0 0 1034.16 -264.61 0 0 -1034.16zm-1058.4 -556.85l767.35 0 0 1591.01 -767.35 0 0 -1591.01zm-529.23 556.85l238.12 0 0 1034.16 -238.12 0 0 -1034.16zm-555.66 0l264.61 0 0 1034.16 -264.61 0 0 -1034.16zm-1058.4 795.51l793.78 0 0 238.66 -793.78 0 0 -238.66z"/>
   <path class="susu-fil0" d="M7488.2 4852.57l1323.01 0 0 503.75c-189.66,0 -264.61,-26.13 -264.61,79.59l0 1723.59c0,782.02 1349.5,874.45 1349.5,-79.53l0 -1723.65 -264.61 0 0 -503.75 1323.01 0 0 503.75 -264.61 0 0 1537.97c0,554.12 -115.59,861.14 -366.42,1170.78 -776.26,958.37 -2570.65,493.59 -2570.65,-985.1l0 -1564.52c0,-161.86 128.77,-159.12 -264.61,-159.12l0 -503.75zm-291.05 -212.17l0 1007.67 291.05 0 0 901.53c0,815.05 -53.34,1091.96 354.72,1633.24 718.35,952.85 2293.92,908.66 2918.06,-262.71 379.37,-711.82 66.29,-1611.03 220.01,-2272.06l264.61 0 0 -1087.21 -1905.16 0 0 1087.21 264.61 0 0 1458.38c0,541.82 -767.35,484.62 -767.35,53.04l0 -1511.42 264.55 0 0 -1087.21 -1825.75 0c-60.94,0 -79.35,18.47 -79.35,79.53z"/>
   <path class="susu-fil0" d="M19448.23 11879.43l238.12 0 0 -11799.84c0,-60.17 -17.88,-79 -76.56,-79.59l-2.85 0 -158.71 0 0 11879.43z"/>
   <path class="susu-fil0" d="M22940.97 1140.25c0,-540.34 714.43,-572.59 714.43,26.49 0,516.7 -714.43,550.37 -714.43,-26.49zm-343.97 -106.08l-105.85 0 0 -291.64 105.85 0 0 -212.17 -502.74 0 0 212.17 105.85 0 0 795.45 -105.85 0 0 238.66 502.74 0c0,-238.48 18.23,-228.32 -105.85,-238.66l0 -291.7c168.69,0 150.39,-22.51 197.2,120.58 223.99,685.32 1258.09,538.55 1258.09,-226.6 0,-342.19 -250.6,-636.38 -582.09,-636.38 -772.46,0 -590.29,530.3 -767.35,530.3z"/>
   <path class="susu-fil0" d="M24052.29 1034.16c194.41,0 264.61,158.71 264.61,318.19 0,229.81 -291.05,58.03 -291.05,344.74 0,216.38 522.04,3.09 529.17,-318.19l132.28 0 0 159.07c-114.28,9.56 -105.79,4.34 -105.79,159.12 0,122.3 148.73,79.53 449.81,79.53l0 -238.66 -79.41 0 0 -159.07 105.85 0c57.62,247.75 225.41,397.72 529.23,397.72l0 -238.66c-320.74,0 -342.96,-287.96 -162.99,-454.92 143.03,-132.69 162.99,68.43 162.99,-260.99l-449.81 0c0,332.15 51.73,344.68 -185.26,344.68l0 -344.68 -370.4 0c0,210.5 -15.68,201.95 105.79,212.11l0 132.57c-164.71,0 -146,0.89 -214.54,-103.11 -46.8,-71.1 -76.5,-111.79 -76.5,-241.57l-343.97 0 0 212.11z"/>
   <path class="susu-fil0" d="M28524.06 5621.53c0,-136.26 -47.52,-397.72 264.61,-397.72 230.64,0 238.12,209.32 238.12,344.68 0,326.8 -502.74,253.8 -502.74,53.04zm0 -503.81c-122.6,-89.99 58.39,-79.59 -370.46,-79.59l0 212.17 105.85 0 0 981.12 -105.85 0 0 238.6c518.66,0 476.31,40.39 476.31,-159.07 0,-80.13 -31.18,-73.3 -105.85,-79.53l0 -291.7c124.44,33.32 87.14,79.53 291.05,79.53 660.08,0 632.76,-1007.61 26.49,-1007.61 -130.67,0 -231.77,-11.29 -317.54,106.08z"/>
   <path class="susu-fil0" d="M30984.83 1564.46c-441.91,0 -344.92,-556.79 -52.86,-556.79 411.09,0 356.26,556.79 52.86,556.79zm-317.48 -662.87c-28.33,-106.2 -11.58,-79.53 -343.97,-79.53l0 212.11 105.79 0 0 981.12 -105.79 0 0 212.11 476.25 0 0 -212.11 -105.85 0 0 -318.19c418.81,281.01 793.84,-56.49 793.84,-424.27 0,-221.14 -277.27,-735.63 -820.27,-371.23z"/>
   <path class="susu-fil0" d="M29450.12 3685.83c-300.43,0 -264.55,-223.39 -264.55,-397.78 0,-149.32 340.88,-263.72 467.46,-70.45 121.7,185.97 34.45,468.23 -202.9,468.23zm-264.55 -689.42c-122.6,-89.99 58.33,-79.59 -370.46,-79.59l0 212.17 105.85 0 0 1007.61 -105.85 0 0 212.11 476.31 0 0 -212.11 -105.85 0 0 -318.19c476.72,252.79 793.78,-96.88 793.78,-424.27 0,-390.3 -481.77,-669.52 -793.78,-397.72z"/>
   <path class="susu-fil0" d="M26936.44 3261.56l0 -132.57 238.12 0 0 530.3 -343.97 0c53.7,-101.63 105.85,-241.75 105.85,-397.72zm-396.89 -132.57l132.28 0c0,244.42 -5.05,530.3 -291.05,530.3l0 450.82 238.12 0 29.64 -238.18 658.36 -0.48 0 238.66 238.12 0 32.67 -450.29 -138.51 -0.53 0 -742.46 -899.63 0 0 212.17z"/>
   <path class="susu-fil0" d="M29000.31 742.52c183.6,0 144.99,53.46 306.91,302.33 89.99,138.34 162.39,257.78 248.81,387.09 -127.41,146.83 -264.61,239.67 -264.61,-26.55l-211.69 0 0 344.74c364.46,85.06 573.54,102.04 820.57,-397.49l252.56 -515.86c52.92,-104 29.76,-94.26 170.53,-94.26l0 -212.17 -476.31 0c0,106.44 -3.62,104.95 20.02,194.17 16.39,61.71 55.95,-15.8 -7.54,132.4 -40.69,95.09 -110.06,210.15 -118.32,309.82l-52.92 0c-242.46,-455.93 -199.1,-305.06 -163.76,-482.25 9.98,-49.83 4.99,-103.23 4.99,-154.14l-529.23 0 0 212.17z"/>
   <path class="susu-fil0" d="M24581.52 5117.72c0,128.18 -2.08,123.55 105.79,132.57l0 530.36 -105.79 0c0,236.1 -47.81,212.11 291.05,212.11 122.89,0 351.39,-446.55 476.25,-530.36l0 318.25 -105.85 0 0 212.11 476.31 0 0 -212.11 -105.85 0 0 -530.36 105.85 0 0 -212.17 -370.46 0 -382.46 541.11 -14.43 -541.11c-258.32,0 -370.4,-35.94 -370.4,79.59z"/>
   <path class="susu-fil0" d="M37414.69 1034.16l105.85 0 0 503.81c-124.14,10.34 -105.85,0.18 -105.85,238.66l291.05 0c88.8,0 374.8,-482.3 476.31,-556.85l0 318.19 -105.85 0 0 238.66c518.66,0 476.25,40.39 476.25,-159.07 0,-80.19 -31.12,-73.36 -105.85,-79.59l0 -503.81c121.53,-10.16 105.85,-1.6 105.85,-212.11l-317.48 0c-108.46,0 -345.1,453.38 -449.81,530.3l0 -530.3 -370.46 0 0 212.11z"/>
   <path class="susu-fil0" d="M30535.01 5250.29l105.91 0 0 530.36 -105.91 0 0 212.11c536.48,0 280.35,4.69 767.35,-556.85l0 344.74 -105.79 0 0 212.11 476.25 0 0 -212.11 -105.85 0 0 -530.36 105.85 0 0 -212.17 -317.54 0c-99.25,0 -340.52,457 -449.81,530.36l0 -530.36 -370.46 0 0 212.17z"/>
   <path class="susu-fil0" d="M38684.78 1034.16l105.85 0 0 503.81c-124.14,10.34 -105.85,0.18 -105.85,238.66l291.05 0c92.6,0 349.2,-456.47 449.81,-530.36l0 291.7 -79.35 0 0 238.66 449.81 0 0 -238.66 -105.85 0 0 -503.81 105.85 0 0 -212.11c-544.08,0 -283.68,3.21 -740.86,530.3l0 -530.3 -370.46 0 0 212.11z"/>
   <path class="susu-fil0" d="M38684.78 3128.98l105.85 0 0 530.3 -105.85 0 0 212.17 291.05 0c113.45,0 327.81,-421.9 449.81,-503.87l0 291.7 -79.35 0 0 212.17 449.81 0 0 -212.17 -105.85 0c0,-107.09 -0.24,-213.18 -2.08,-320.27 -2.85,-164.11 -31.42,-198.39 107.92,-210.03l0 -212.17 -291.05 0c-99.31,0 -340.52,457 -449.81,530.36l0 -530.36 -370.46 0 0 212.17z"/>
   <path class="susu-fil0" d="M31884.52 1484.93c74.84,-141.78 188.53,-106.02 396.89,-106.02 -9.74,117.37 -71.57,153.78 -163.88,183.48 -131.33,42.17 -178.73,25.42 -233.02,-77.45zm-105.85 -689.42c-131.74,0 -105.85,20.61 -105.85,291.7 0,94.26 51.56,79.53 158.77,79.53 148.73,0 -5.76,-138.57 223.93,-172.49 129.07,-19.07 214.25,32.61 225.89,172.49 -315.58,0 -661.51,8.32 -661.51,318.19 0,227.55 286.18,473.04 714.43,185.62l0 106.08 317.54 0c0,-238.48 18.23,-228.32 -105.85,-238.66 0,-167.26 30.89,-392.32 -16.99,-539.8 -102.34,-315.4 -439.95,-215.97 -555.42,-193.4 -125.57,24.59 -51.79,-9.27 -194.94,-9.27z"/>
   <path class="susu-fil0" d="M28074.25 3712.32c-61.95,0 -105.85,-44.01 -105.85,-106.08 0,-133.17 255.23,-106.02 396.89,-106.02 -11.76,141.66 -145.05,212.11 -291.05,212.11zm-158.77 -768.96l-158.77 0 0 344.68 211.69 0c3.62,-164.35 71.45,-159.07 211.63,-159.07 125.62,0 161.32,56.01 185.26,159.07 -337.49,0 -661.51,13.42 -661.51,318.19 0,335.65 338.98,374.8 566.35,270.14 88.5,-40.75 110.36,-107.51 121.65,21.56l317.48 0 0 -212.11 -79.35 0c0,-304.05 90.46,-795.51 -423.38,-795.51 -75.55,0 -82.68,16.51 -148.14,39.02 -169.64,58.27 -13.96,14.02 -142.91,14.02z"/>
   <path class="susu-fil0" d="M23337.86 5250.29l105.85 0 0 530.36 -105.85 0 0 212.11 449.81 0 0 -212.11 -79.35 0 0 -159.12 370.4 0 0 371.23c429.56,0 370.46,32.19 370.46,-212.11l-105.85 0 0 -530.36 105.85 0 0 -212.17 -449.81 0 0 212.17 79.35 0 0 132.57 -370.4 0 0 -344.74 -370.46 0 0 212.17z"/>
   <path class="susu-fil0" d="M35853.55 3128.98c139.35,11.64 110.78,45.91 107.87,210.03 -1.84,107.09 -2.02,213.18 -2.02,320.27l-105.85 0 0 212.17 449.81 0 0 -212.17 -79.41 0 0 -159.07 344.03 0 0 371.23 370.4 0 0 -212.17 -79.35 0 0 -530.3 79.35 0 0 -212.17c-519.96,0 -449.81,-38.43 -449.81,212.17l79.41 0 0 159.07 -344.03 0c0,-442.87 71.51,-371.23 -370.4,-371.23l0 212.17z"/>
   <path class="susu-fil0" d="M25745.76 954.63c0,80.19 31.12,73.3 105.85,79.53l0 503.81c-114.34,9.56 -105.85,4.34 -105.85,159.12 0,122.3 148.73,79.53 449.81,79.53l0 -238.66 -79.41 0 0 -159.07 370.46 0c0,475.89 -76.21,397.72 370.46,397.72l0 -238.66 -105.85 0 0 -503.81 105.85 0 0 -212.11 -449.81 0 0 212.11 79.35 0 0 132.57 -370.46 0 0 -344.68 -370.4 0 0 132.57z"/>
   <path class="susu-fil0" d="M26486.62 5780.65l-211.69 0 0 -185.68 264.61 0c95.57,0 79.35,66.94 79.35,159.12 -59.34,13.84 -60.76,26.55 -132.28,26.55zm-79.35 -371.23l-132.34 0 0 -159.12 158.77 0c71.45,0 72.94,12.65 132.34,26.49 -8.79,105.73 -50.55,132.63 -158.77,132.63zm-502.8 -159.12l105.91 0 0 530.36 -105.91 0 0 212.11c221.2,0 1005.48,88.15 1005.48,-265.15 0,-140.36 -74.48,-208.66 -158.71,-265.21 289.09,-547.46 -558.27,-424.27 -846.77,-424.27l0 212.17z"/>
   <polygon class="susu-fil0" points="34556.97,3128.98 34662.82,3128.98 34662.82,3659.28 34556.97,3659.28 34556.97,3871.45 35006.79,3871.45 35006.79,3659.28 34927.43,3659.28 34927.43,3500.22 35297.89,3500.22 35297.89,3871.45 35668.29,3871.45 35668.29,3659.28 35562.51,3659.28 35562.51,3128.98 35668.29,3128.98 35668.29,2916.82 35218.48,2916.82 35218.48,3128.98 35297.89,3128.98 35297.89,3288.05 34927.43,3288.05 34927.43,2916.82 34556.97,2916.82 "/>
   <path class="susu-fil0" d="M32916.42 3659.28l-211.63 0 0 -185.62 238.12 0c94.26,0 103.71,62.9 105.85,159.12 -59.34,13.84 -60.82,26.49 -132.34,26.49zm-26.43 -371.23l-185.2 0 0 -159.07 79.35 0c109.88,0 165.48,16.39 211.69,79.53 -27.62,41.28 -35.1,79.53 -105.85,79.53zm-555.66 -159.07l105.85 0 0 530.3 -105.85 0 0 212.17c524.42,0 979.04,101.98 979.04,-318.19 0,-112.74 -42.77,-161.68 -132.34,-185.68 29.82,-128.12 52.92,-50.37 52.92,-238.6 0,-281.66 -724.23,-212.17 -899.63,-212.17l0 212.17z"/>
   <path class="susu-fil0" d="M22094.26 5250.29c198.98,0 183.95,136.02 352.88,494.96 52.21,110.89 120.81,165.42 56.72,283.56 -93.61,172.85 -236.7,176.11 -383.17,176.11l0 238.6c401.64,0 517.94,-156.57 653.19,-432.59 57.08,-116.54 318.37,-670.71 325.85,-760.64l105.85 0 0 -212.17 -449.81 0 0 212.17 79.35 0 -138.4 395.41c-75.97,-92.24 -223.69,-607.57 -337.85,-607.57l-264.61 0 0 212.17z"/>
   <path class="susu-fil0" d="M25269.45 3128.98c201.65,0 124.97,33.14 264.26,318.61 51.62,105.85 159.42,284.87 185.56,397.31 -85.41,161.74 -182.53,259.8 -423.32,265.21l0 212.11c561.78,0 573.48,-273.64 855.79,-865.95 57.79,-121.23 72.82,-314.27 229.04,-327.28l0 -212.17 -449.81 0 0 212.17 79.41 0 -134.95 396.77c-113.57,-134.12 -228.2,-608.94 -341.36,-608.94l-264.61 0 0 212.17z"/>
   <path class="susu-fil0" d="M36223.95 1034.16l105.85 0 0 503.81c-124.08,10.34 -105.85,0.18 -105.85,238.66l449.87 0 0 -238.66 -79.41 0 0 -159.07 105.85 0c20.85,251.31 279.34,397.72 555.66,397.72l0 -238.66c-226.72,0 -274.83,-81.61 -317.54,-265.15 143.8,-215.2 147.13,-238.66 291.11,-238.66l0 -212.11 -449.87 0c0,313.44 51.68,344.68 -185.2,344.68l0 -344.68 -370.46 0 0 212.11z"/>
   <path class="susu-fil0" d="M32916.42 1034.16l105.91 0c0,292.06 29.05,497.27 -264.61,503.81l0 238.66c414.65,-34.57 555.66,-290.33 555.66,-742.46l185.2 0c0,106.91 1.48,213.59 2.02,320.27 1.96,376.28 -81.37,-18.29 -81.37,422.2l449.81 0 0 -238.66 -79.41 0 0 -715.91 -873.2 0 0 212.11z"/>
   <path class="susu-fil0" d="M33974.88 3102.43c143.62,0 189.06,92.78 238.12,185.62l-476.31 0c28.27,-121.53 92.42,-185.62 238.18,-185.62zm-529.23 291.7c0,675.23 869.34,603.95 952.55,291.7l-137.74 -125.68c-69.55,43.42 -134.59,125.68 -259.15,125.68 -167.62,0 -251.55,-54.53 -264.61,-212.17l714.43 0c0,-858.88 -1005.48,-677.31 -1005.48,-79.53z"/>
   <path class="susu-fil0" d="M27545.02 5223.8l52.92 0c131.21,0 174.98,62.19 185.2,185.62l-449.81 0c9.92,-119.27 86.72,-185.62 211.69,-185.62zm-502.74 291.64c0,561.54 711.46,652.54 952.55,291.7l-126.28 -138.63c-246.68,171.18 -512.12,204.09 -535.23,-73.53l714.43 0c0,-443.16 -176.11,-583.34 -582.09,-583.34 -232.9,0 -423.38,249.35 -423.38,503.81z"/>
   <path class="susu-fil0" d="M33445.65 5223.8l52.92 0c167.02,0 163.34,84.64 211.69,185.62l-476.31 0c25.78,-110.84 76.8,-185.62 211.69,-185.62zm-502.74 291.64c0,555.3 708.85,656.4 952.55,291.7l-126.28 -138.63c-70.03,49.06 -161.38,138.63 -270.61,138.63 -142.85,0 -253.33,-76.38 -264.61,-212.17l714.43 0c0,-431.46 -151.52,-583.34 -582.15,-583.34 -231.23,0 -423.32,263.9 -423.32,503.81z"/>
   <path class="susu-fil0" d="M23575.98 3685.83c-397.37,0 -306.61,-583.4 -26.43,-583.4 339.1,0 351.81,583.4 26.43,583.4zm502.74 -291.7c0,-288.67 -227.49,-503.81 -555.66,-503.81 -473.99,0 -640.48,612.56 -332.68,890.24 311.48,281.07 888.34,105.01 888.34,-386.44z"/>
   <path class="susu-fil0" d="M27518.59 981.12c267.82,0 366.9,583.34 -26.49,583.34 -325.73,0 -349.37,-583.34 26.49,-583.34zm-79.41 795.51c824.49,0 726.66,-1007.61 26.49,-1007.61 -656.81,0 -637.87,1007.61 -26.49,1007.61z"/>
   <path class="susu-fil0" d="M34609.9 1537.97l-211.69 0 0 -291.7 132.34 0c103.11,0 211.69,56.61 211.69,159.12 0,61.83 -70.62,132.57 -132.34,132.57zm-582.09 -503.81l105.85 0 0 503.81c-124.14,10.34 -105.85,0.18 -105.85,238.66 432.41,0 978.98,83.87 978.98,-397.72 0,-335.06 -375.27,-344.74 -608.58,-344.74l0 -212.11 -370.4 0 0 212.11z"/>
   <path class="susu-fil0" d="M37679.3 3659.28l-185.26 0 0 -291.7c132.99,0 317.54,-34.69 317.54,159.12 0,61.83 -70.62,132.57 -132.28,132.57zm-555.66 -530.3l79.35 0 0 530.3 -79.35 0 0 212.17 582.09 0c507.61,0 507.61,-715.97 0,-715.97l-211.69 0c0,-286.95 54.05,-238.66 -370.4,-238.66l0 212.17z"/>
   <path class="susu-fil0" d="M31196.58 2996.41l0 318.19 238.12 0 0 -185.62 105.79 0 0 530.3 -105.79 0 0 212.17 529.17 0 0 -212.17 -105.85 0 0 -530.3 105.85 0 0 185.62 238.18 0c0,-520.08 168.63,-397.78 -926.12,-397.78 -61,0 -79.35,18.47 -79.35,79.59z"/>
   <polygon class="susu-fil0" points="2407.9,1352.35 4551.13,1352.35 4551.13,1087.21 2407.9,1087.21 "/>
   <path class="susu-fil0" d="M34027.8 5435.91l211.63 0 0 -185.62 132.34 0 0 530.36 -132.34 0c0,267.41 -73.36,212.11 555.66,212.11l0 -212.11 -132.28 0 0 -530.36 132.28 0 0 185.62 211.69 0 0 -397.78 -978.98 0 0 397.78z"/>
   <polygon class="susu-fil0" points="31831.59,5435.91 32043.28,5435.91 32043.28,5250.29 32175.56,5250.29 32175.56,5780.65 32043.28,5780.65 32043.28,5992.76 32598.95,5992.76 32598.95,5780.65 32466.67,5780.65 32466.67,5250.29 32598.95,5250.29 32598.95,5435.91 32810.58,5435.91 32810.58,5038.13 31831.59,5038.13 "/>
   <path class="susu-fil0" d="M29450.12 5488.95c0,701.36 864.76,641.13 979.04,212.11l-185.97 -104.72c-205.4,389.65 -528.46,179.91 -528.46,-107.39 0,-215.97 150.16,-265.15 317.54,-265.15 215.26,0 -4.63,212.11 291.11,212.11 117.55,0 79.35,-123.78 79.35,-397.78l-274.89 3.74c-117.9,-18.65 68.01,-30.23 -201.36,-30.23 -253.33,0 -476.37,225.53 -476.37,477.32z"/>
   <path class="susu-fil0" d="M30085.2 3394.13c0,656.58 871.71,647.31 979.04,185.62l-181.76 -86.01c-413.64,626.76 -806.32,-391.31 -268.06,-391.31 136.44,0 208.54,72.46 211.69,212.17l211.69 0 0 -397.78 -255.59 9.8c-129.55,-17.94 28.63,-36.29 -194.29,-36.29 -270.44,0 -502.74,232.78 -502.74,503.81z"/>
   <path class="susu-fil0" d="M24184.62 3367.58c0,701.24 873.44,666.14 978.98,212.17l-157.46 -81.79c-132.63,90.64 -70.33,187.87 -292.35,187.87 -357.33,0 -341.47,-583.4 0,-583.4 136.44,0 208.6,72.46 211.69,212.17l211.69 0 0 -397.78 -255.59 9.8c-129.55,-17.94 28.63,-36.29 -194.29,-36.29 -255.23,0 -502.68,232.66 -502.68,477.26z"/>
   <path class="susu-fil0" d="M35112.63 1246.27c0,327.04 135.37,556.85 502.74,556.85 232.3,0 368.2,-137.15 449.81,-291.64l-176.29 -145.11c-65.75,260.87 -511.65,349.97 -511.65,-120.1 0,-291.64 442.87,-367.13 449.81,-52.98l211.69 0 0 -397.78c-77.69,0 -101.27,-3.33 -174.33,12.89 -248.93,55.18 -95.39,-101.09 -418.45,2.44 -176.71,56.61 -333.34,215.08 -333.34,435.44z"/>
   <path class="susu-fil0" d="M8652.44 10871.82c111.55,0 258.14,344.68 79.41,344.68l-132.34 0c-155.74,0 -186.86,-344.68 52.92,-344.68zm-423.38 185.56c0,425.11 476.37,324.84 555.66,318.19 -46.75,201.24 -156.04,185.68 -317.48,185.68l0 -132.57 -185.2 0c0,289.92 -40.09,291.64 370.4,291.64 241.09,0 370.46,-261.7 370.46,-530.3 0,-688.83 -793.84,-589.99 -793.84,-132.63z"/>
   <path class="susu-fil0" d="M10213.64 10792.23l0 212.17 185.2 0 0 -106.08 211.69 0c-53.58,200.94 -217.16,93.67 -158.77,344.68 188.7,90.76 312.96,-56.49 238.12,265.21 -343.49,80.19 -317.48,3.5 -317.48,-132.63l-185.26 0c0,308.09 -46.92,344.74 449.81,344.74 120.99,0 317.54,-124.44 317.54,-238.66 0,-180.8 -14.67,-350.38 -264.61,-371.17 87.31,-130.67 211.69,-134.06 211.69,-318.25 0,-134.65 -243.05,-79.53 -608.58,-79.53 -60.94,0 -79.35,18.47 -79.35,79.53z"/>
   <polygon class="susu-fil0" points="22094.26,3128.98 22173.61,3128.98 22173.61,3659.28 22094.26,3659.28 22094.26,3871.45 22597,3871.45 22597,3659.28 22464.66,3659.28 22464.66,3128.98 22729.27,3128.98 22729.27,3314.6 22940.97,3314.6 22940.97,2916.82 22094.26,2916.82 "/>
   <path class="susu-fil0" d="M9208.1 11428.67l476.31 0 0 106.02 -132.28 0 0 159.12 423.38 0c0,-298.17 -61.42,-48.41 -79.41,-265.15l132.28 0 0 -185.68 -132.28 0 0 -318.19 -211.69 0 0 318.19 -238.12 0 210.74 -477.67 -180.51 -87.14c-84.76,161.32 -268.42,538.2 -268.42,750.48z"/>
   <path class="susu-fil0" d="M21988.35 7795.88l105.91 0 0 609.89 -105.91 0 0 132.57 317.54 0c0,-115.82 -25.24,-112.44 -41.04,-171 -18.53,-68.48 -11.88,-125.98 -11.88,-200.23l370.46 0c0,340.35 -52.92,179.14 -52.92,371.23l317.54 0 0 -132.57 -105.85 0 0 -609.89 105.85 0 0 -132.57 -317.54 0c0,192.09 52.92,30.89 52.92,371.23l-370.46 0c0,-74.31 -6.65,-131.8 11.88,-200.29 15.8,-58.57 41.04,-55.12 41.04,-170.95l-317.54 0 0 132.57z"/>
   <path class="susu-fil0" d="M26698.31 11428.67c-288.2,0 -264.61,-69.73 -264.61,-291.7 0,-194.47 423.38,-235.93 423.38,53.04 0,102.94 -60.88,238.66 -158.77,238.66zm-502.74 -556.85c2.79,125.33 -26.91,104.12 79.35,132.57l0 742.46 -79.35 0 0 132.57 317.48 0 0 -132.57 -79.35 0 0 -238.66c248.99,132.04 582.15,35.58 582.15,-318.19 0,-168.87 -171.66,-344.74 -344.03,-344.74 -173.62,0 -139.82,69.85 -257.61,44.84l-218.64 -18.29z"/>
   <path class="susu-fil0" d="M26433.7 9652.04l0 -159.12 211.69 0 0 424.27 -291.11 0c40.33,-76.27 79.41,-148.14 79.41,-265.15zm-238.12 -159.12l79.35 0c0,222.38 25.9,406.69 -185.2,424.27l0 291.7c279.17,-6.24 14.08,-185.62 211.69,-185.62l449.81 0c0,187.1 -12.47,182.35 132.28,185.62l32.49 -290.93 -111.84 -0.77 0 -556.85 -608.58 0 0 132.57z"/>
   <path class="susu-fil0" d="M27862.56 11004.39l79.35 0 0 424.27 -79.35 0 0 106.02c258.85,145.7 346.64,-248.76 529.23,-371.23 0,440.37 -221.61,397.78 238.12,397.78 0,-140 -106.5,-277.21 -41.1,-518.48 15.86,-58.57 41.1,-55.18 41.1,-170.95l-158.77 0c-108.1,0 -261.35,324.49 -370.46,397.72l0 -397.72 -238.12 0 0 132.57z"/>
   <path class="susu-fil0" d="M23814.16 11004.39l0 424.27 -79.41 0 0 106.02c270.67,152.35 382.7,-281.66 555.66,-397.72l0 291.7 -79.35 0 0 106.02c73.53,41.4 111.96,26.55 238.12,26.55 101.21,0 9.68,8.14 79.35,-26.55l0 -106.02 -79.35 0 0 -424.27c106.32,-28.45 76.62,-7.25 79.35,-132.57l-238.12 0c-67.3,127.47 -223.16,315.4 -317.54,424.21l0 -424.21 -238.12 0c2.79,125.33 -26.91,104.12 79.41,132.57z"/>
   <path class="susu-fil0" d="M31672.82 8538.34l158.77 0c108.04,0 261.35,-324.55 370.46,-397.78 0,73.06 11.76,161.26 -12.06,226.66 -26.61,73.06 -64.39,37.24 -67.36,171.12l317.54 0 0 -132.57 -79.41 0 0 -424.27 79.41 0 0 -106.08 -238.12 0c-69.32,103.77 -223.45,334.64 -317.54,397.78l0 -397.78 -211.69 0c2.85,128.18 105.85,252.85 41.1,491.93 -15.92,58.57 -41.1,55.18 -41.1,171z"/>
   <path class="susu-fil0" d="M24687.3 7981.49l79.41 0 0 424.27 -79.41 0 0 132.57 185.26 0c87.91,0 282.08,-359.41 370.4,-424.27l0 291.7 -79.35 0 0 132.57 291.11 0c0,-148.61 -17.7,-98.66 -34.21,-151.4 -22.1,-70.86 -20.2,-77.57 -21.26,-165.78 -4.63,-379.31 50.49,-122.12 55.48,-345.75 -227.08,0 -217.33,-6.95 -318.43,131.74 -47.76,65.46 -152.83,223.45 -210.8,266.04l0 -397.78 -238.18 0 0 106.08z"/>
   <path class="susu-fil0" d="M21988.35 9492.91l79.41 0 0 424.27 -79.41 0 0 106.08 238.18 0 286.06 -401.52c33.38,407.64 -43.18,188.7 -47.93,401.52l291.11 0c-6.89,-309.4 -79.41,211.16 -79.41,-530.36l79.41 0 0 -132.57 -158.77 0c-104.54,0 -276.32,328.59 -370.46,397.78l0 -397.78 -238.18 0 0 132.57z"/>
   <path class="susu-fil0" d="M26354.28 7928.45c0,73.36 20.49,63.79 79.41,79.53l0 397.78 -79.41 0 0 132.57 291.11 0c0,-240.97 -52.92,-24.23 -52.92,-265.15l291.05 0 0 265.15 238.18 0 0 -132.57 -79.41 0 0 -397.78c86.6,-23.16 79.41,-2.85 79.41,-159.07l-291.11 0c0,254.75 47.99,43.54 52.92,265.15l-291.05 0 0 -265.15c-170.29,0 -238.18,-23.58 -238.18,79.53z"/>
   <path class="susu-fil0" d="M34398.2 10023.27l211.69 0 306.49 -406.22 11.05 300.13 -79.35 0 0 106.08 317.48 0 0 -106.08 -79.35 0 0 -424.27c106.26,-28.45 76.56,-7.19 79.35,-132.57l-238.12 0c-80.9,153.19 -207.53,297.46 -317.54,424.27l0 -424.27 -211.69 0c0,146.77 100.68,239.49 46.92,497.75 -31.9,153.42 -42.29,-42.88 -46.92,165.18z"/>
   <path class="susu-fil0" d="M35297.89 10023.27l211.63 0 306.49 -406.22 11.05 300.13 -79.35 0 0 106.08 317.48 0 0 -106.08 -79.35 0 0 -424.27c106.32,-28.45 76.56,-7.19 79.35,-132.57l-238.12 0c-80.84,153.19 -207.53,297.46 -317.54,424.27l0 -424.27 -211.63 0c0,146.77 100.62,239.49 46.86,497.75 -31.9,153.42 -42.29,-42.88 -46.86,165.18z"/>
   <path class="susu-fil0" d="M23787.67 7981.49l79.41 0 0 424.27c-106.32,28.45 -76.62,7.19 -79.41,132.57l635.07 0 0 159.07 132.28 0 30.23 -291.16 -109.59 -0.48 0 -424.27 79.35 0 0 -106.08 -291.05 0c3.92,175.88 52.92,-34.75 52.92,530.36l-291.05 0 0 -530.36 -238.18 0 0 106.08z"/>
   <path class="susu-fil0" d="M38076.2 3128.98c171.72,14.31 105.85,116.24 105.85,742.46l370.4 0c0,-210.56 15.68,-202.01 -105.85,-212.17l0 -530.3 105.85 0c0,-246.62 62.9,-212.17 -396.89,-212.17 -111.79,0 -79.35,102.88 -79.35,212.17z"/>
   <path class="susu-fil0" d="M25057.76 11428.67l-185.2 0 0 -185.68 185.2 0c80.42,0 89.87,46.03 105.85,106.08 -27.56,41.28 -35.04,79.59 -105.85,79.59zm-26.43 -291.7l-158.77 0 0 -132.57 238.12 0c-1.84,84.94 8.61,132.57 -79.35,132.57zm-317.54 -132.57l0 424.27 -79.35 0 0 106.02c114.1,64.27 687.94,51.26 687.94,-159.12 0,-214.01 -23.34,-98.6 -54.35,-181.04 -80.96,-214.96 267.94,-322.7 -633.59,-322.7 2.73,125.33 -26.97,104.12 79.35,132.57z"/>
   <path class="susu-fil0" d="M28973.88 9917.19c-294.43,0 -130.14,-185.62 -52.92,-185.62l211.69 0c0,95.99 17.23,185.62 -158.77,185.62zm-264.61 -556.85l0 212.17 132.34 0c20.79,-190.61 254.16,-111.96 291.05,26.49 -238.36,0 -476.31,2.61 -476.31,238.66 0,359.12 465.26,177.78 471.67,178.31 63.08,4.99 25.01,33.8 216.32,33.8 0,-215.73 -51.91,-44.67 -54.41,-290.16 -5.35,-514.85 -119.69,-399.27 -580.67,-399.27z"/>
   <path class="susu-fil0" d="M28153.6 9917.19l-79.35 0 0 -185.62 264.55 26.55 0 132.57c-82.74,6.89 -93.97,26.49 -185.2,26.49zm52.92 -291.7l-132.28 0 0 -132.57 158.77 0c101.15,0 9.62,-8.14 79.35,26.55 -15.98,60.05 -25.42,106.02 -105.85,106.02zm-370.4 -132.57l79.35 0c0,737.12 -72.58,223.57 -79.35,530.36 337.08,0 870.11,79.18 626.34,-337.67 -69.67,-119.09 -26.02,13.9 -6.24,-124.44 37.84,-264.55 -341.89,-200.82 -620.11,-200.82l0 132.57z"/>
   <path class="susu-fil0" d="M27492.1 8432.26c-60.59,0 -30.77,-8.97 -105.85,-26.49 0,-213 60.35,-185.62 317.54,-185.62 0,98.48 7.37,212.11 -211.69,212.11zm-211.63 -583.34l0 238.66c272.4,-6.12 -12.47,-106.08 291.05,-106.08 86.19,0 102.04,75.26 132.28,132.57 -287.72,0 -476.31,-20.31 -476.31,238.66 0,347 462.11,157.16 462.17,157.16 62.9,-6.89 10.99,0.89 77.99,15.56 67.06,14.67 75.38,12.89 147.84,12.89 0,-229.87 -25.84,-37.78 -50.67,-214.36 -11.11,-78.94 49.12,-501.61 -293.3,-501.61 -53.75,0 -67.77,30.35 -139.11,37.9 -62.6,6.59 -54.88,-9.21 -151.94,-11.34z"/>
   <path class="susu-fil0" d="M23258.44 8432.26c-60.59,0 -30.71,-8.97 -105.79,-26.49 0,-213 60.29,-185.62 317.54,-185.62 0,98.48 7.31,212.11 -211.75,212.11zm-211.63 -583.34l0 238.66 105.85 0 29.7 -105.07c230.46,-1.01 202.31,-30.35 287.84,131.56 -385.96,0 -476.31,-1.31 -476.31,291.7 0,98.06 135.37,159.07 238.12,159.07 127.7,0 155.92,-47.4 223.99,-54.94 62.9,-6.89 10.99,0.89 78.05,15.56 67.06,14.67 75.32,12.89 147.78,12.89 0,-229.87 -25.78,-37.78 -50.67,-214.36 -11.11,-78.94 49.12,-501.61 -293.3,-501.61 -111.25,0 65.81,34.51 -291.05,26.55z"/>
   <path class="susu-fil0" d="M22861.55 11561.24c204.92,0 199.16,19.13 291.11,-26.55l0 -106.02 -79.41 0 0 -159.12 317.54 0 0 291.7 211.69 0c0,-140 -106.44,-277.21 -41.1,-518.48 15.86,-58.57 41.1,-55.18 41.1,-170.95l-291.05 0c5.64,254.75 79.35,-4.75 79.35,265.15l-317.54 0 0 -265.15 -211.69 0c0,139.94 106.5,277.21 41.1,518.42 -15.86,58.57 -41.1,55.18 -41.1,171z"/>
   <path class="susu-fil0" d="M29635.38 7981.49l79.35 0 0 424.27c-106.26,28.45 -76.56,7.19 -79.35,132.57l291.11 0c0,-240.97 -52.98,-24.23 -52.98,-265.15l291.11 0 0 265.15 238.12 0 0 -132.57 -79.35 0 0 -424.27 79.35 0 0 -106.08 -291.05 0c4.81,218.28 52.92,-12.65 52.92,238.66l-291.11 0 0 -238.66 -238.12 0 0 106.08z"/>
   <path class="susu-fil0" d="M21988.35 11004.39c136.79,3.03 105.73,7.84 192.86,231 95.57,244.6 224.22,396.77 -21.5,471.02 -130.44,39.38 -141.19,-17.76 -144.87,146.47 351.27,0 384.48,-96.64 487.89,-359.59l190.55 -445.48c61.3,-97.59 62.49,-4.99 62.49,-175.99l-291.11 0 0 132.57c138.45,11.82 47.87,-25.3 79.41,52.98 -80.84,93.19 -70.15,226.66 -158.77,291.7 -20.67,-88.8 -150.45,-477.26 -238.18,-477.26l-158.77 0 0 132.57z"/>
   <path class="susu-fil0" d="M25772.19 10977.84l26.43 0c118.97,0 175.93,46.33 185.26,159.12l-396.89 0c48.82,-92.48 40.39,-159.12 185.2,-159.12zm-343.97 185.62c0,497.81 525.19,482.19 687.94,238.66 -210.44,-141.25 -15.74,26.55 -370.4,26.55 -87.85,0 -127.23,-99.37 -158.77,-159.12 107.69,0 555.66,39.38 555.66,-53.04 0,-515.03 -714.43,-458.19 -714.43,-53.04z"/>
   <path class="susu-fil0" d="M29820.58 10977.84l105.91 0c87.79,0 127.17,99.37 158.71,159.12l-396.89 0c7.07,-85.35 47.34,-159.12 132.28,-159.12zm-317.48 212.17c0,419.28 506,484.38 687.94,212.11 -210.44,-141.25 -15.74,26.55 -370.46,26.55 -84.94,0 -125.21,-73.77 -132.28,-159.12l529.23 0c0,-643.69 -714.43,-462.53 -714.43,-79.53z"/>
   <path class="susu-fil0" d="M7488.2 10871.82c11.29,42.23 46.39,116.83 75.91,134.48 88.62,52.92 6.53,6.18 135.78,-28.45l0 556.85 -105.85 0 0 159.12 423.38 0 0 -159.12 -79.41 0c0,-150.22 -0.3,-300.55 0.06,-450.82 1.19,-479.69 0.83,-451.06 -449.87,-212.05z"/>
   <path class="susu-fil0" d="M30535.01 9466.42l105.91 0c84.88,0 125.15,73.71 132.28,159.07l-370.46 0c7.07,-85.35 47.34,-159.07 132.28,-159.07zm-317.48 212.11c0,313.74 205.34,371.23 423.38,371.23 124.5,0 189.54,-82.21 264.55,-132.57l-83.87 -101.98c-92.42,60.64 -75.26,101.98 -233.67,101.98 -133.64,0 -182.23,-53.1 -185.2,-185.62l529.23 0c0,-572.11 -714.43,-478.68 -714.43,-53.04z"/>
   <path class="susu-fil0" d="M25639.91 9466.42l79.35 0c84.94,0 125.21,73.71 132.34,159.07l-396.89 0c48.77,-92.48 40.33,-159.07 185.2,-159.07zm-343.97 212.11c0,313.74 205.34,371.23 423.32,371.23 124.56,0 189.6,-82.21 264.61,-132.57l-83.87 -101.98c-122.77,80.54 -56.9,101.98 -286.59,101.98 -90.34,0 -140.47,-107.09 -158.71,-185.62l555.66 0c0,-566.77 -714.43,-486.46 -714.43,-53.04z"/>
   <path class="susu-fil0" d="M33604.42 9492.91l0 424.27 -79.41 0 0 106.08 291.11 0c-4.28,-190.19 -52.92,-12.95 -52.92,-265.15 193.46,4.28 98.66,71.75 229.63,194.17 58.45,54.65 273.11,155.5 273.11,17.94 0,-111.79 -411.86,-116.12 -170.05,-409.07 47.93,-57.97 45.97,-66.05 143.56,-68.25l0 -132.57 -291.05 0c0,237.83 52.86,68.78 -3.03,184.61 -44.9,92.9 -74.6,80.54 -182.17,80.54l0 -265.15 -238.18 0c2.79,125.39 -26.91,104.12 79.41,132.57z"/>
   <path class="susu-fil0" d="M24607.95 9492.91c0,128.77 8.97,244.78 -47.34,323.83 -109.53,153.78 -159.3,-20.14 -164.35,206.52 355.73,0 370.46,-235.45 370.46,-530.36l185.2 0c0,83.04 8.67,217.45 1.9,293.6 -20.08,226.66 -75.91,-5.46 -81.26,236.76l317.54 0c-5.58,-248.46 -79.35,7.66 -81.73,-289.38 -0.95,-123.13 2.32,-249.65 2.32,-373.55l-608.58 0c2.61,117.61 -8.43,123.07 105.85,132.57z"/>
   <path class="susu-fil0" d="M31143.6 9492.91l79.41 0c0,108.46 12.71,251.67 -24.65,319.97 -90.52,165.24 -155.32,-26.85 -160.55,210.38 391.96,0 343.97,-304.71 343.97,-530.36l211.69 0 0 397.78 -79.41 0 0 132.57 291.05 0c0,-129.66 -28.69,-102.22 -47.64,-190.9l-5.23 -472.03 -608.64 0 0 132.57z"/>
   <path class="susu-fil0" d="M25692.84 8193.66c0,-266.46 423.32,-378.54 423.32,26.49 0,309.7 -423.32,254.28 -423.32,-26.49zm211.63 371.17c513.07,0 472.33,-742.46 26.49,-742.46 -519.13,0 -504.04,742.46 -26.49,742.46z"/>
   <path class="susu-fil0" d="M28127.17 7981.49l79.35 0c0,240.32 50.13,404.61 -185.2,424.27l0 132.57c576.69,0 152.77,-556.85 476.25,-556.85 130.73,0 79.41,297.88 79.41,424.27l-79.41 0 0 132.57 291.11 0c0,-213.12 -50.19,-46.51 -55,-289.62 -2.38,-121.47 2.08,-250.66 2.08,-373.31l-608.58 0 0 106.08z"/>
   <path class="susu-fil0" d="M27148.13 9731.57c0,-419.82 396.89,-261.76 396.89,-106.08 0,175.22 14.61,291.7 -211.69,291.7 -123.49,0 -185.2,-61.83 -185.2,-185.62zm185.2 318.19c498.64,0 519.13,-715.91 -26.43,-715.91 -410.97,0 -467.04,715.91 26.43,715.91z"/>
   <path class="susu-fil0" d="M29317.85 8405.77l-158.77 0 0 -238.66c428.79,0 243.29,238.66 158.77,238.66zm-317.54 0l-79.35 0 0 132.57c337.73,0 661.51,62.66 661.51,-265.15 0,-239.13 -258.85,-238.66 -423.38,-238.66l0 -159.12 -238.12 0c6.95,311.72 79.35,-214.78 79.35,530.36z"/>
   <path class="susu-fil0" d="M32202.05 9917.19l0 -265.15 238.12 26.49c18,75.55 114.16,238.66 -238.12,238.66zm-238.18 106.08c278.57,0 661.51,67.36 661.51,-238.66 0,-209.2 -208.72,-265.15 -423.32,-265.15 0,-181.52 16.87,-159.12 -238.18,-159.12l34.57 150.99c75.85,229.69 -33.38,458.9 -34.57,511.94z"/>
   <path class="susu-fil0" d="M30958.4 8405.77l-185.2 0 0 -238.66 158.77 0c136.26,0 178.01,238.66 26.43,238.66zm-423.38 -424.27l79.41 0 0 424.27c-106.32,28.45 -76.62,7.19 -79.41,132.57 195.59,0 485.04,33.32 598.19,-63.5 130.08,-111.43 194.05,-440.31 -360.01,-440.31l0 -159.12 -238.18 0 0 106.08z"/>
   <path class="susu-fil0" d="M28735.75 11136.97l132.28 0 0 -132.57 132.28 0c0,85 5.64,185.38 2.61,267.7 -9.15,247.51 -81.97,62.13 -81.97,209.55 0,105.73 74.96,79.59 264.61,79.59 92.6,0 150.57,-144.39 -26.49,-159.12l0 -397.72 132.34 0 0 132.57 132.28 0 0 -265.15 -687.94 0 0 265.15z"/>
   <path class="susu-fil0" d="M33022.33 10049.76c177.72,0 354.84,-51.44 370.4,-238.66 -159.36,-37.18 -68.43,-51.2 -154.61,28.45 -336.07,310.47 -575.56,-373.13 -110,-373.13 94.26,0 103.71,62.84 105.85,159.07l132.28 0 0 -265.15c-205.34,0 -482.84,-117.43 -617.37,177.48 -98.66,216.32 33.74,511.94 273.46,511.94z"/>
   <path class="susu-fil0" d="M30296.89 11136.97l132.28 0 0 -132.57 132.34 0 0 397.72 -79.35 0 0 159.12c338.62,0 317.48,27.26 317.48,-159.12l-79.35 0 0 -397.72 132.28 0 0 132.57 132.28 0 0 -265.15 -687.94 0 0 265.15z"/>
   <path class="susu-fil0" d="M27412.74 11561.24c146.47,0 315.4,-5.7 370.4,-212.17l-58.15 -47.7c-159.01,37.66 -57.08,127.29 -259.33,127.29 -288.61,0 -248.4,-450.82 0,-450.82 120.99,0 155.98,34.45 158.71,159.12l132.34 0 0 -265.15c-351.04,0 -105.79,-26.55 -317.54,-26.55 -181.52,0 -328.47,179.8 -335.18,347.41 -7.31,183.12 117.13,368.56 308.75,368.56z"/>
   <path class="susu-fil0" d="M22888.04 9678.53c0,513.49 635.49,445.72 661.51,132.57 -248.7,-58.03 -43.84,106.08 -343.97,106.08 -174.51,0 -292.06,-450.77 79.35,-450.77 94.2,0 103.71,62.84 105.85,159.07l132.28 0 0 -265.15c-113.27,0 -635.02,-141.72 -635.02,318.19z"/>
   <path class="susu-fil0" d="M23628.96 9678.53c0,467.22 606.92,481 687.94,132.57 -159.36,-37.18 -68.37,-51.2 -154.61,28.45 -345.39,319.08 -548.18,-373.13 -162.93,-373.13 120.99,0 155.98,34.45 158.77,159.07l132.28 0 0 -265.15 -168.98 4.4c-4.81,-0.89 -191.91,-109.88 -368.98,66.35 -51.85,51.62 -123.49,161.32 -123.49,247.45z"/>
   <path class="susu-fil0" d="M29450.12 9625.49l105.91 0 0 -132.57 158.71 0 0 397.78c-114.22,9.5 -103.17,14.97 -105.85,132.57l344.03 0c-0.71,-30.47 2.32,-23.76 -4.87,-48.11 -1.48,-4.87 -2.97,-15.8 -5.05,-21.5l-16.93 -36.05c-46.63,-88.98 -24.53,65.28 -52.33,-106.68 -9.92,-61.12 -0.24,-244.18 -0.24,-318.01l132.34 0 0 132.57 132.28 0 0 -265.15 -688 0 0 265.15z"/>
   <path class="susu-fil0" d="M13627.02 2439.56c629.02,0 555.66,55.3 555.66,-212.17 0,-130.73 -208.66,-79.53 -555.66,-79.53l0 291.7z"/>
   <polygon class="susu-fil0" points="4021.9,2439.56 4551.13,2439.56 4551.13,2147.86 4021.9,2147.86 "/>
   <path class="susu-fil0" d="M31249.44 7875.41c0,177.72 51.91,73.47 54.88,289.74 1.72,122.48 -1.96,249.88 -1.96,373.19l238.12 0 0 -132.57 -79.35 0 0 -397.78 79.35 0 0 -132.57c-87.67,-7.31 -144.81,-56.84 -291.05,0z"/>
   <path class="susu-fil0" d="M38896.47 2651.67c156.33,296.09 509.81,287.24 661.45,0 -74.07,-19.78 -119.63,-52.57 -158.71,-106.08 -47.76,35.1 -161.09,234.14 -317.54,0 -61.42,41.22 -104.24,84.46 -185.2,106.08z"/>
   <path class="susu-fil0" d="M38922.9 556.85c61.95,232.48 450.88,275.6 635.02,0 -53.4,-35.82 -105.25,-70.15 -158.71,-106.02 -22.81,15.27 -223.93,185.79 -291.11,0 -93.55,7.78 -143.21,48.59 -185.2,106.02z"/>
   <polygon class="susu-fil0" points="28259.45,1378.91 28841.6,1378.91 28841.6,1166.74 28259.45,1166.74 "/>
   <path class="susu-fil0" d="M31831.59 7636.81c17.4,209.2 320.57,219.89 449.81,26.49l-79.35 -53.04c-126.81,33.92 -25.01,53.04 -158.77,53.04 -107.98,0 -31.24,-96.76 -211.69,-26.49z"/>
   <path class="susu-fil0" d="M35456.6 9121.68c17.4,209.26 320.63,219.95 449.81,26.55 -184.07,-97.65 -69.85,-17.28 -215.55,-2.67 -216.15,21.74 26.79,-51.2 -234.26,-23.88z"/>
  </g>
 </g>
</svg>
