<svg width="470" height="405" viewBox="0 0 470 405" fill="none" xmlns="http://www.w3.org/2000/svg">
<mask id="mask0" mask-type="alpha" maskUnits="userSpaceOnUse" x="0" y="0" width="470" height="404">
<rect width="470" height="403.165" fill="#C4C4C4"/>
</mask>
<g mask="url(#mask0)">
<rect x="-63.6016" y="-67.9128" width="610.138" height="538.991" fill="white"/>
<path d="M68.9962 25.8716H397.143V211.038H68.9962V25.8716Z" fill="#DEE7FF"/>
<path d="M321.768 183.897C336.911 168.753 352.006 153.659 367.149 138.515C367.789 137.876 368.723 138.859 368.133 139.498C352.989 154.642 337.895 169.737 322.751 184.88C322.112 185.47 321.128 184.536 321.768 183.897Z" fill="white"/>
<path d="M367.149 184.88C352.006 169.737 336.911 154.642 321.768 139.499C321.128 138.859 322.112 137.925 322.751 138.515C337.895 153.659 352.989 168.753 368.133 183.897C368.723 184.536 367.789 185.47 367.149 184.88Z" fill="white"/>
<path d="M376.689 142.989C377.082 142.989 377.377 142.694 377.377 142.301V130.845C377.377 130.452 377.082 130.157 376.689 130.157H365.036C364.642 130.157 364.347 130.452 364.347 130.845C364.347 131.238 364.642 131.533 365.036 131.533H376V142.301C376.049 142.694 376.344 142.989 376.689 142.989Z" fill="#7195C7"/>
<path d="M312.721 143.137C313.114 143.137 313.409 142.842 313.409 142.449V131.484H324.177C324.57 131.484 324.865 131.189 324.865 130.796C324.865 130.402 324.57 130.107 324.177 130.107H312.721C312.327 130.107 312.032 130.402 312.032 130.796V142.449C312.082 142.842 312.377 143.137 312.721 143.137Z" fill="#7195C7"/>
<path d="M365.184 192.796H376.64C377.033 192.796 377.328 192.501 377.328 192.108V180.455C377.328 180.062 377.033 179.767 376.64 179.767C376.246 179.767 375.951 180.062 375.951 180.455V191.42H365.184C364.79 191.42 364.495 191.715 364.495 192.108C364.495 192.501 364.79 192.796 365.184 192.796Z" fill="#7195C7"/>
<path d="M85.1729 162.509H149.189V196.091H85.1729V162.509Z" fill="#FFA79B"/>
<path d="M76.9108 39.5894C79.5659 36.9343 82.2209 34.2793 84.876 31.6242C85.5152 30.985 86.4494 31.9684 85.8594 32.6076C83.2043 35.2626 80.5492 37.9177 77.8942 40.5727C77.255 41.1628 76.2716 40.2286 76.9108 39.5894Z" fill="#952C28"/>
<path d="M84.8267 40.5236C82.1717 37.8685 79.5166 35.2135 76.8615 32.5584C76.2224 31.9192 77.2057 30.985 77.8449 31.575C80.5 34.2301 83.155 36.8852 85.8101 39.5402C86.4493 40.2286 85.4659 41.1628 84.8267 40.5236Z" fill="#952C28"/>
<path d="M68.9962 44.8503H397.143V46.2271H68.9962V44.8503Z" fill="white"/>
<path d="M85.1729 55.2739H149.189V88.8556H85.1729V55.2739Z" fill="white"/>
<path d="M85.1729 55.2739H149.189V88.8556H85.1729V55.2739Z" fill="white"/>
<path d="M161.086 55.2739H275.254V128.337H161.086V55.2739Z" fill="#CADAFF"/>
<path d="M178.097 65.4025C188.816 68.5001 191.913 79.8579 196.682 88.5606C199.682 94.0182 204.5 99.6725 211.187 99.9675C216.743 100.213 220.824 96.1325 224.364 92.4449C230.608 85.8564 237.393 80.5462 247.129 82.3163C256.126 83.988 262.567 91.8057 263.403 100.803C263.502 101.688 262.125 101.688 262.026 100.803C260.945 89.0031 249.538 80.7921 237.983 84.0863C228.838 86.6922 225.249 96.5258 216.89 100.213C209.171 103.655 201.55 98.5908 197.272 92.2482C191.421 83.4963 189.258 70.0735 177.704 66.7301C176.868 66.4351 177.261 65.1567 178.097 65.4025Z" fill="white"/>
<path d="M296.15 86.5939H376.491C377.376 86.5939 377.376 87.9706 376.491 87.9706H296.15C295.314 87.9706 295.314 86.5939 296.15 86.5939Z" fill="#2252B2"/>
<path d="M296.15 98.8367H376.491C377.376 98.8367 377.376 100.213 376.491 100.213H296.15C295.314 100.213 295.314 98.8367 296.15 98.8367Z" fill="#2252B2"/>
<path d="M296.15 112.014H376.491C377.376 112.014 377.376 113.39 376.491 113.39H296.15C295.314 113.341 295.314 112.014 296.15 112.014Z" fill="#2252B2"/>
<path d="M325.209 68.4509H377.18V77.547H325.209V68.4509Z" fill="#FFA79B"/>
<path d="M89.7932 59.9449H101.348V69.8276H89.7932V59.9449Z" fill="#FECA55"/>
<path d="M259.179 101C258.982 103.065 260.851 104.737 262.916 104.737C264.981 104.737 266.652 103.065 266.652 101C266.652 98.935 264.981 97.2633 262.916 97.2633C260.851 97.2633 259.425 98.4925 259.179 101Z" fill="#FFA79B"/>
<path d="M209.468 101.393C209.271 103.458 211.14 105.13 213.205 105.13C215.27 105.13 216.941 103.458 216.941 101.393C216.941 99.3284 215.27 97.6566 213.205 97.6566C211.14 97.6566 209.665 98.8858 209.468 101.393Z" fill="#FFA79B"/>
<path d="M241.773 82.9063C241.576 84.9713 243.444 86.643 245.509 86.643C247.574 86.643 249.246 84.9713 249.246 82.9063C249.246 80.8412 247.574 79.1695 245.509 79.1695C243.444 79.1695 241.969 80.3987 241.773 82.9063Z" fill="#FFA79B"/>
<path d="M181.148 70.4668C180.951 72.5319 182.819 74.2036 184.884 74.2036C186.949 74.2036 188.621 72.5319 188.621 70.4668C188.621 68.4018 186.949 66.7301 184.884 66.7301C182.819 66.7301 181.393 68.0084 181.148 70.4668Z" fill="#FFA79B"/>
<path d="M225.693 174.998H260.75V200.172H225.693V174.998Z" fill="#FECA55"/>
<path d="M243.05 189.453C243.198 189.453 243.345 189.404 243.443 189.306L258.44 177.899C258.735 177.653 258.784 177.259 258.587 176.964C258.341 176.669 257.948 176.62 257.653 176.817L243.099 187.88L228.89 176.669C228.595 176.424 228.152 176.473 227.955 176.768C227.71 177.063 227.759 177.505 228.054 177.702L242.706 189.207C242.755 189.404 242.903 189.453 243.05 189.453Z" fill="white"/>
<path d="M220.58 173.277V180.75C220.58 181.635 219.203 181.635 219.203 180.75V173.277C219.203 172.392 220.58 172.392 220.58 173.277Z" fill="white"/>
<path d="M94.1691 172.589H121.752C122.637 172.589 122.637 173.965 121.752 173.965H94.1691C93.284 173.965 93.284 172.589 94.1691 172.589Z" fill="white"/>
<path d="M94.1691 180.75H121.752C122.637 180.75 122.637 182.127 121.752 182.127H94.1691C93.284 182.127 93.284 180.75 94.1691 180.75Z" fill="white"/>
<path d="M318.817 65.6975C318.867 65.6975 318.916 65.6975 318.965 65.6975C319.309 65.5992 319.555 65.255 319.457 64.8617C319.112 63.5342 318.719 62.2066 318.277 60.8791C318.178 60.5349 317.785 60.3382 317.392 60.4366C317.047 60.5349 316.851 60.9282 316.949 61.3216C317.392 62.6 317.785 63.8783 318.08 65.2059C318.277 65.5009 318.522 65.6975 318.817 65.6975Z" fill="#D24A43"/>
<path d="M220.972 65.6484C221.267 65.6484 221.562 65.4517 221.611 65.1567C222.3 62.6491 223.185 60.1907 224.316 57.929C224.463 57.5848 224.316 57.1915 223.971 57.044C223.627 56.8965 223.234 57.044 223.086 57.3882C221.955 59.7482 221.021 62.2558 220.333 64.8617C220.235 65.2059 220.431 65.5992 220.825 65.6975C220.825 65.6484 220.874 65.6484 220.972 65.6484ZM314.539 54.5856C314.637 54.5856 314.735 54.5364 314.883 54.4873C315.227 54.2906 315.325 53.8972 315.178 53.5531C313.899 51.193 312.424 48.9805 310.802 46.9154C310.556 46.6204 310.163 46.5712 309.868 46.8171C309.573 47.0629 309.523 47.4563 309.769 47.7513C311.343 49.7671 312.818 51.9305 314.047 54.1922C314.047 54.4381 314.293 54.5856 314.539 54.5856ZM227.659 51.5372C227.856 51.5372 228.101 51.4388 228.2 51.2422C229.675 49.1771 231.396 47.1612 233.215 45.3912C233.461 45.1454 233.51 44.7029 233.215 44.4078C232.969 44.162 232.527 44.1128 232.232 44.4078C230.314 46.2762 228.593 48.3413 227.069 50.4555C226.872 50.7505 226.921 51.193 227.216 51.3897C227.413 51.488 227.511 51.5372 227.659 51.5372ZM304.754 42.3428C304.951 42.3428 305.148 42.2445 305.246 42.097C305.492 41.8019 305.443 41.3594 305.197 41.1136C303.23 39.3927 301.017 37.8194 298.756 36.4427C298.412 36.246 298.018 36.3443 297.822 36.6885C297.625 37.0327 297.723 37.426 298.067 37.6227C300.28 38.9502 302.394 40.4744 304.312 42.1461C304.459 42.2936 304.607 42.3428 304.754 42.3428ZM238.82 40.5236C238.968 40.5236 239.115 40.4744 239.213 40.3761C241.278 38.901 243.54 37.5735 245.851 36.3935C246.195 36.246 246.343 35.8035 246.146 35.4593C245.999 35.1151 245.556 34.9676 245.212 35.1643C242.803 36.3443 240.492 37.721 238.378 39.2452C238.083 39.4419 237.984 39.8844 238.23 40.1794C238.378 40.4252 238.574 40.5236 238.82 40.5236ZM291.381 34.2793C291.676 34.2793 291.921 34.1318 292.02 33.8368C292.167 33.4926 291.971 33.0992 291.626 32.9517C289.217 31.9684 286.66 31.1817 284.005 30.5917C283.661 30.4933 283.268 30.7392 283.169 31.0833C283.071 31.4275 283.317 31.8209 283.661 31.9192C286.218 32.5092 288.676 33.2959 291.086 34.2301C291.184 34.2793 291.282 34.2793 291.381 34.2793ZM252.833 33.5417C252.882 33.5417 252.98 33.5417 253.03 33.4926C255.488 32.7059 257.996 32.0175 260.552 31.5259C260.946 31.4767 261.142 31.0833 261.093 30.7392C261.044 30.3458 260.651 30.1492 260.306 30.1983C257.701 30.69 255.095 31.3784 252.587 32.165C252.243 32.2634 252.046 32.6567 252.145 33.0501C252.292 33.3451 252.538 33.5417 252.833 33.5417ZM276.089 30.7392C276.433 30.7392 276.729 30.4933 276.778 30.1C276.827 29.7066 276.532 29.4116 276.138 29.3625C273.533 29.1658 270.828 29.1166 268.173 29.215C267.78 29.215 267.534 29.5592 267.534 29.9525C267.534 30.3458 267.829 30.6408 268.272 30.5917C270.878 30.4442 273.483 30.4933 276.04 30.69C276.04 30.7392 276.089 30.7392 276.089 30.7392Z" fill="#D24A43"/>
<path d="M219.205 77.4978C219.549 77.4978 219.893 77.2028 219.893 76.8586C219.942 75.5311 220.041 74.1544 220.139 72.8269C220.188 72.4335 219.893 72.1385 219.549 72.0894C219.156 72.0402 218.861 72.3352 218.812 72.6794C218.664 74.0561 218.566 75.4328 218.517 76.8095C218.517 77.2028 218.812 77.4978 219.205 77.4978Z" fill="#D24A43"/>
<path d="M216.745 80.0054C217.433 80.9887 218.171 82.0213 218.859 83.0046C219.547 82.1688 220.236 81.2838 220.875 80.4479C221.416 79.7595 222.399 80.7429 221.858 81.4313C221.022 82.5129 220.137 83.5455 219.301 84.6272C219.006 85.0205 218.466 84.8238 218.22 84.4797C217.335 83.2013 216.45 81.9721 215.565 80.6937C215.073 80.0054 216.253 79.317 216.745 80.0054Z" fill="#D24A43"/>
<path d="M125.785 210.399C130.8 201.45 135.816 192.452 140.831 183.504C141.667 181.98 144.027 183.356 143.191 184.88C138.176 193.829 133.161 202.827 128.145 211.775C127.31 213.299 124.949 211.923 125.785 210.399Z" fill="#D24A43"/>
<path d="M126.377 215.02C129.377 231.147 132.425 247.324 135.424 263.451C135.769 265.172 133.113 265.909 132.818 264.188C129.819 248.061 126.771 231.885 123.772 215.758C123.427 214.037 126.033 213.299 126.377 215.02Z" fill="#D24A43"/>
<path d="M121.411 274.366H148.404V270.629C148.404 265.221 144.028 260.894 138.669 260.894H131.146C125.738 260.894 121.411 265.27 121.411 270.629V274.366Z" fill="#D24A43"/>
<path d="M120.427 213.103C120.182 215.856 122.64 218.069 125.393 218.069C128.147 218.069 130.359 215.856 130.359 213.103C130.359 210.349 128.147 208.137 125.393 208.137C122.64 208.137 120.673 209.759 120.427 213.103Z" fill="#D24A43"/>
<path d="M140.143 185.765H195.506V182.029C195.506 176.62 191.13 172.293 185.771 172.293H149.927C144.519 172.293 140.192 176.669 140.192 182.029V185.765H140.143Z" fill="#D24A43"/>
<path d="M174.464 216.299C180.315 234.147 186.166 252.044 192.017 269.892C192.41 271.121 190.443 271.662 190.05 270.433C184.199 252.585 178.348 234.688 172.497 216.84C172.054 215.61 174.07 215.07 174.464 216.299Z" fill="black"/>
<path d="M191.573 269.449H224.614C225.941 269.449 225.941 271.514 224.614 271.514H191.573C190.295 271.465 190.295 269.449 191.573 269.449Z" fill="black"/>
<path d="M218.763 238.621H238.676V264.827H218.763V238.621Z" fill="#697CCC"/>
<path d="M212.224 243.931C213.748 241.178 217.141 242.751 219.599 242.014C220.878 241.62 221.419 243.587 220.14 243.98C218.813 244.374 216.207 243.833 215.174 244.275C212.618 245.455 213.65 255.879 213.994 257.796C214.633 261.582 217.829 261.386 220.829 261.189C222.156 261.091 222.156 263.156 220.829 263.254C218.321 263.402 215.518 263.5 213.453 261.779C211.044 259.812 210.798 246.537 212.224 243.931Z" fill="#697CCC"/>
<path d="M230.907 226.28C232.677 228.492 232.922 231.541 231.3 233.901C230.808 234.638 229.628 233.95 230.12 233.212C231.349 231.393 231.349 228.984 229.923 227.263C229.382 226.575 230.366 225.641 230.907 226.28Z" fill="#BCD7FD"/>
<path d="M227.859 226.28C229.678 228.492 229.875 231.541 228.252 233.901C227.76 234.638 226.58 233.95 227.072 233.212C228.301 231.393 228.301 228.984 226.875 227.263C226.334 226.575 227.318 225.641 227.859 226.28Z" fill="#BCD7FD"/>
<path d="M192.9 213.25C201.75 216.053 207.601 223.625 208.044 232.917C208.093 233.802 206.716 233.802 206.667 232.917C206.274 224.264 200.767 217.184 192.507 214.578C191.72 214.332 192.064 213.004 192.9 213.25Z" fill="#D24A43"/>
<path d="M192.357 224.854C196.192 225.985 198.847 229.525 198.798 233.507C198.798 234.392 197.421 234.392 197.421 233.507C197.421 230.115 195.258 227.116 191.964 226.132C191.128 225.886 191.521 224.608 192.357 224.854Z" fill="#D24A43"/>
<path d="M196.587 202.925C210.403 205.236 219.991 217.479 219.056 231.442C219.007 232.327 217.631 232.327 217.68 231.442C218.565 218.02 209.419 206.465 196.193 204.253C195.407 204.105 195.751 202.777 196.587 202.925Z" fill="#D24A43"/>
<path d="M187.589 233.507C187.49 234.589 188.474 235.425 189.506 235.425C190.588 235.425 191.424 234.54 191.424 233.507C191.424 232.426 190.539 231.59 189.506 231.59C188.425 231.59 187.687 232.229 187.589 233.507Z" fill="#D24A43"/>
<path d="M49.524 126.272C51.0482 126.272 52.2773 125.043 52.2773 123.519C52.2773 121.995 51.0482 120.765 49.524 120.765C47.9506 120.765 46.9181 121.798 46.7706 123.47C46.7214 124.158 46.9672 124.846 47.4589 125.387C47.9506 125.928 48.6881 126.272 49.524 126.272ZM49.524 122.093C50.3106 122.093 50.9498 122.732 50.9498 123.519C50.9498 124.306 50.3106 124.945 49.524 124.945C49.1306 124.945 48.6881 124.748 48.4423 124.453C48.2948 124.256 48.0981 123.961 48.1473 123.568C48.1964 122.585 48.6389 122.093 49.524 122.093Z" fill="#D24A43"/>
<path d="M40.1333 135.27C41.6575 135.27 42.8867 134.041 42.8867 132.517C42.8867 130.992 41.6575 129.763 40.1333 129.763C38.56 129.763 37.5274 130.796 37.3799 132.467C37.3307 133.156 37.5766 133.844 38.0683 134.385C38.56 134.926 39.3466 135.27 40.1333 135.27ZM40.1333 131.091C40.92 131.091 41.5592 131.73 41.5592 132.517C41.5592 133.303 40.92 133.942 40.1333 133.942C39.74 133.942 39.2975 133.746 39.0516 133.451C38.9041 133.254 38.7074 132.959 38.7566 132.566C38.8058 131.582 39.2483 131.091 40.1333 131.091Z" fill="#D24A43"/>
<path d="M22.042 156.953H241.232V93.379H22.042V156.953ZM239.856 155.576H23.3696V94.7557H239.856V155.576Z" fill="#003865"/>
<path d="M129.474 120.175H222.844V134.828H144.028C139.209 129.911 134.342 125.043 129.474 120.175Z" fill="#0083F9"/>
<path d="M115.067 120.175H120.476C125.343 125.043 130.211 129.911 135.029 134.828H129.67C124.802 129.911 119.935 125.043 115.067 120.175Z" fill="#0083F9"/>
<path d="M100.266 120.175H105.675C110.542 125.043 115.41 129.911 120.229 134.828H114.918C110.002 129.911 105.134 125.043 100.266 120.175Z" fill="#0083F9"/>
<path d="M85.4659 120.175H90.7269C95.6437 125.043 100.511 129.911 105.379 134.828H100.118L85.4659 120.175Z" fill="#0083F9"/>
<path d="M70.6671 120.175H75.9281C80.8448 125.043 85.7125 129.911 90.5801 134.828H85.3191L70.6671 120.175Z" fill="#0083F9"/>
<path d="M56.4105 121.798V120.175H60.7865C65.6049 125.043 70.4726 129.911 75.291 134.828H69.44C65.1133 130.452 60.7865 126.125 56.4105 121.798Z" fill="#0083F9"/>
<path d="M60.3926 134.828H56.41V130.845C57.7375 132.172 59.065 133.5 60.3926 134.828Z" fill="#0083F9"/>
<path d="M90.4334 106.999H175.543V112.899H90.4334V106.999Z" fill="#2252B2"/>
<path d="M36.0545 105.179C37.7754 103.36 39.5455 101.541 41.2664 99.7217C41.8564 99.0825 42.8397 100.066 42.2497 100.705C40.5288 102.524 38.7588 104.343 37.0379 106.163C36.3987 106.753 35.4645 105.818 36.0545 105.179Z" fill="#D24A43"/>
<path d="M41.4128 106.015C39.5936 104.294 37.7744 102.524 35.9552 100.803C35.316 100.213 36.2994 99.23 36.9386 99.82C38.7578 101.541 40.577 103.311 42.3962 105.032C42.9862 105.671 42.0029 106.605 41.4128 106.015Z" fill="#D24A43"/>
<path d="M39.3486 121.7C43.3312 125.682 47.3138 129.714 51.2964 133.697C51.9356 134.336 50.9523 135.27 50.3131 134.68C46.3305 130.697 42.3479 126.666 38.3653 122.683C37.7753 122.044 38.7095 121.061 39.3486 121.7Z" fill="#D24A43"/>
<path d="M59.8531 266.991C60.0989 265.319 59.8531 263.647 59.3614 262.074H112.758C115.659 265.565 115.364 268.367 112.758 270.678H58.083C59.0172 269.793 59.6564 268.564 59.8531 266.991Z" fill="#BCD7FD"/>
<path d="M69.6348 257.256C69.4873 256.764 69.2906 256.272 69.0939 255.83H112.755C114.722 257.846 114.623 260.107 112.755 262.516H68.1105C69.3889 261.14 70.2248 259.419 69.6348 257.256Z" fill="#BCD7FD"/>
<path d="M67.8182 262.221H113.151C113.348 262.221 113.544 262.123 113.643 261.976C114.823 260.599 115.806 258.386 113.692 255.436C113.544 255.24 113.348 255.141 113.151 255.141H68.2115C67.8182 255.141 67.5232 255.436 67.5232 255.83C67.5232 256.223 67.8182 256.518 68.2115 256.518H112.807C113.839 258.141 113.888 259.517 112.856 260.845H67.8673C67.474 260.845 67.179 261.14 67.179 261.533C67.179 261.926 67.4248 262.221 67.8182 262.221Z" fill="#7195C7"/>
<path d="M57.7875 271.17H113.446C113.642 271.17 113.888 271.072 113.986 270.875C116.051 268.023 116.051 264.975 113.986 261.828C113.839 261.631 113.642 261.533 113.396 261.533H58.23C57.8367 261.533 57.5417 261.828 57.5417 262.222C57.5417 262.615 57.8367 262.91 58.23 262.91H113.052C114.527 265.368 114.527 267.63 113.052 269.843H57.7383C57.345 269.843 57.05 270.138 57.05 270.531C57.05 270.924 57.3941 271.17 57.7875 271.17Z" fill="#7195C7"/>
<path d="M63.3434 264.09H112.315C112.757 264.09 112.757 264.778 112.315 264.778H63.3434C62.9009 264.778 62.9009 264.09 63.3434 264.09Z" fill="white"/>
<path d="M67.8666 266.302H91.713C92.1555 266.302 92.1555 266.991 91.713 266.991H67.8666C67.4733 266.942 67.4733 266.302 67.8666 266.302Z" fill="white"/>
<path d="M253.818 347.577C281.057 380.618 272.207 454.812 272.207 454.812H206.175C206.175 454.812 206.519 438.488 227.956 436.423C249.393 434.358 232.037 413.954 204.798 349.298L253.818 347.577Z" fill="#952C28"/>
<path d="M148.747 437.308C176.084 431.506 170.086 416.658 177.019 370.489C184.099 323.14 186.311 314.438 224.171 310.849C231.743 330.27 239.019 349.839 244.133 369.997C234.348 369.555 228.301 369.112 228.301 369.112C228.301 369.112 229.677 376.733 195.162 454.763H131.293C131.293 454.763 128.883 441.488 148.747 437.308Z" fill="#952C28"/>
<path d="M148.747 437.308C168.906 433.031 170.922 423.836 173.38 400.777C186.557 405.349 200.078 408.84 213.895 410.905C209.273 422.263 203.176 436.62 195.162 454.812H131.293C131.293 454.763 128.883 441.488 148.747 437.308Z" fill="#BCD7FD"/>
<path d="M272.993 307.849C285.236 307.161 297.036 307.161 308.148 306.473C308.886 302.293 309.476 295.803 309.968 288.674C335.387 289.411 360.807 291.329 386.129 293.64C386.62 298.163 387.063 302.834 387.358 307.653C392.57 386.616 322.456 370.981 283.417 370.981C262.619 370.981 244.673 370.145 235.282 369.604C229.676 350.33 225.35 330.614 219.794 311.34C232.479 309.816 249.54 309.226 272.993 307.849Z" fill="#FECA55"/>
<path d="M222.892 385.436C224.367 380.962 225.842 376.488 227.317 372.013C227.465 371.62 228.104 371.768 227.957 372.21C226.482 376.684 225.007 381.159 223.531 385.633C223.384 386.026 222.745 385.83 222.892 385.436Z" fill="black"/>
<path d="M245.312 324.222C258.784 323.632 272.207 322.845 285.63 321.862C292.366 321.37 299.053 320.78 305.74 320.19C308.935 319.895 312.131 319.65 315.327 319.256C318.326 318.912 321.424 318.322 324.079 316.749C329.537 313.454 330.815 306.669 331.798 300.867C331.848 300.425 332.536 300.622 332.438 301.064C331.602 305.932 330.668 311.242 327.226 315.028C323.44 319.158 317.687 319.748 312.426 320.289C298.118 321.665 283.811 322.845 269.454 323.73C261.39 324.222 253.327 324.665 245.263 325.009C244.919 324.911 244.919 324.222 245.312 324.222Z" fill="white"/>
<path d="M356.187 352.248C356.433 351.658 357.515 350.822 357.957 350.379C358.547 349.74 359.088 349.101 359.678 348.413C360.907 346.987 362.038 345.463 363.12 343.938C367.201 338.137 370.348 331.745 372.462 325.009C372.511 324.812 372.708 324.714 372.904 324.763C376.149 325.353 379.345 325.894 382.59 326.484C383.033 326.582 382.836 327.221 382.394 327.123C379.296 326.582 376.149 325.992 373.052 325.451C371.036 331.696 368.184 337.645 364.546 343.053C362.776 345.709 360.809 348.216 358.646 350.625C358.105 351.215 357.171 351.904 356.974 352.69C356.777 353.477 357.22 354.559 357.367 355.345C357.81 357.41 358.252 359.476 358.695 361.59C358.793 362.032 358.105 362.18 358.056 361.786C357.662 359.82 357.22 357.853 356.826 355.886C356.581 354.854 355.843 353.231 356.187 352.248Z" fill="white"/>
<path d="M310.312 306.718L315.426 306.227C315.868 306.178 315.868 306.866 315.426 306.915L310.312 307.407C309.919 307.407 309.919 306.768 310.312 306.718Z" fill="white"/>
<path d="M304.218 191.174C305.054 191.272 327.032 210.251 327.032 210.251L338.537 186.896L312.626 176.571L304.218 191.174Z" fill="#952C28"/>
<path d="M317.985 153.118C314.199 147.562 301.956 147.365 294.777 151.004C291.631 152.577 289.418 150.709 289.32 153.561C289.074 160.69 288.386 183.799 292.024 188.273C298.367 196.14 309.675 191.321 314.248 183.848C318.821 176.325 323.344 160.985 317.985 153.118Z" fill="#952C28"/>
<path d="M288.929 147.808C292.124 145.989 297.779 147.464 300.385 149.086C307.17 147.71 315.037 148.84 317.938 153.069C321.527 158.33 332.835 163.492 331.213 175.342C330.279 182.668 318.577 188.765 311.054 185.372C302.056 181.34 303.433 169.933 302.155 168.704C298.172 165.508 298.123 160.002 299.205 155.871C297.14 157.396 290.354 156.511 288.486 154.052C286.126 150.512 287.945 148.398 288.929 147.808Z" fill="black"/>
<path d="M301.564 181.144C303.728 182.176 308.3 182.275 310.906 180.21C313.905 177.899 314.643 174.85 313.266 171.015C312.283 168.311 308.841 166.541 305.449 167.229C304.613 167.426 303.728 167.721 302.941 168.262C302.695 168.409 302.449 168.606 302.253 168.753C302.105 172.933 301.859 177.014 301.564 181.144Z" fill="#952C28"/>
<path d="M286.861 171.605C287.008 170.032 288.582 169.048 290.057 169.343C290.549 169.442 290.794 170.081 290.647 170.523C290.647 170.573 290.598 170.622 290.598 170.622C290.745 170.671 290.893 170.72 291.04 170.769C292.122 171.31 291.089 172.884 290.057 172.343C290.057 172.343 289.959 172.343 290.057 172.392C290.893 172.687 290.942 174.014 290.008 174.211C288.434 174.604 286.713 173.326 286.861 171.605Z" fill="#952C28"/>
<path d="M303.774 175.588L306.921 172.392C307.265 172.048 307.806 172.588 307.462 172.933C306.43 174.014 305.348 175.096 304.315 176.129C304.02 176.473 303.43 175.932 303.774 175.588Z" fill="black"/>
<path d="M292.466 179.964C293.007 179.767 293.597 179.57 294.138 179.374C294.629 179.226 294.826 179.964 294.334 180.111C293.793 180.308 293.203 180.505 292.663 180.701C292.171 180.849 291.974 180.111 292.466 179.964Z" fill="black"/>
<path d="M291.581 165.557C291.729 166.442 291.926 167.278 292.073 168.163C292.171 168.655 291.434 168.852 291.336 168.36C291.188 167.475 290.991 166.639 290.844 165.754C290.745 165.262 291.483 165.066 291.581 165.557Z" fill="black"/>
<path d="M291.334 162.362C291.776 162.46 292.219 162.607 292.661 162.706C293.645 162.952 293.202 164.476 292.268 164.181C291.826 164.082 291.383 163.935 290.94 163.837C289.957 163.64 290.4 162.116 291.334 162.362Z" fill="black"/>
<path d="M287.354 165.852L289.517 171.458C289.714 171.9 290.451 171.703 290.255 171.261C290.009 170.671 289.812 170.081 289.566 169.491C293.156 169.147 298.613 168.655 302.891 168.262C303.678 167.77 304.563 167.426 305.398 167.229C300.777 167.672 293.696 168.262 289.271 168.704C288.878 167.672 288.485 166.639 288.091 165.607C287.944 165.164 287.206 165.361 287.354 165.852Z" fill="white"/>
<path d="M328.357 296.934C322.063 296.639 315.77 296.197 309.476 295.656C311.049 277.709 311.639 250.618 311.639 250.618L319.703 204.99C319.703 204.99 319.85 183.897 330.471 184.585C350.974 185.913 379.934 225.493 386.719 298.901C367.248 298.36 347.778 297.868 328.357 296.934Z" fill="#697CCC"/>
<path d="M343.403 253.076C348.516 279.578 321.965 287.936 313.312 286.756C310.952 286.412 308.592 285.92 306.281 285.33C307.707 265.663 308.247 238.228 308.247 238.228L311.443 218.315C316.95 221.56 322.113 225.542 326.784 229.918C333.618 236.31 341.977 245.652 343.403 253.076Z" fill="black"/>
<path d="M215.125 251.306C216.501 246.783 223.729 248.455 227.761 249.192C227.663 248.946 226.089 248.209 226.04 247.914C224.27 247.766 222.5 247.225 220.877 246.34C218.96 245.308 218.517 242.604 220.386 242.358C228.351 241.276 234.841 242.358 236.562 242.702C240.397 243.439 244.035 244.816 247.526 246.586C247.969 246.783 248.313 247.078 248.559 247.373C260.064 246.34 273.143 246.881 283.271 247.717C284.009 259.861 283.911 272.104 282.19 284.101C266.849 280.069 250.919 275.399 241.479 272.547C237.496 272.596 233.464 272.498 229.482 272.203C224.762 271.858 219.648 270.973 217.239 266.352C216.059 264.139 215.911 261.533 215.666 259.124C215.321 256.715 214.436 253.666 215.125 251.306Z" fill="#952C28"/>
<path d="M278.651 247.373C290.943 248.159 300.285 249.536 300.285 249.536C309.48 194.37 314.2 186.995 328.95 184.733C328.95 184.733 336.719 190.289 337.407 229.279C338.095 268.269 336.375 291.231 320.542 291.722C313.462 291.968 295.221 287.641 277.176 282.774C277.865 270.973 278.307 259.173 278.651 247.373Z" fill="#697CCC"/>
<path d="M301.759 249.536C303.234 249.88 304.709 250.225 306.184 250.569C306.627 250.667 306.43 251.306 305.987 251.208C304.512 250.864 303.037 250.52 301.562 250.175C301.12 250.077 301.317 249.438 301.759 249.536Z" fill="white"/>
<path d="M338.044 228.492C338.093 234.442 338.093 240.391 338.143 246.34C338.143 246.783 337.454 246.783 337.454 246.34C337.405 240.391 337.405 234.442 337.356 228.492C337.356 228.05 338.044 228.05 338.044 228.492Z" fill="black"/>
<path d="M217.091 253.912C217.632 254.256 218.173 254.551 218.664 254.895C219.058 255.141 218.713 255.731 218.32 255.485L216.747 254.502C216.353 254.256 216.697 253.666 217.091 253.912Z" fill="#D24A43"/>
<path d="M217.14 258.632C217.681 258.976 218.221 259.271 218.713 259.616C219.106 259.861 218.762 260.451 218.369 260.206L216.795 259.222C216.451 258.976 216.795 258.386 217.14 258.632Z" fill="#D24A43"/>
<path d="M218.272 264.729C218.813 265.073 219.354 265.368 219.846 265.712C220.239 265.958 219.895 266.548 219.502 266.302L217.928 265.319C217.584 265.122 217.928 264.532 218.272 264.729Z" fill="#D24A43"/>
<path d="M340.948 194.96C340.899 195.796 341.637 196.435 342.423 196.435C343.21 196.435 343.898 195.747 343.898 194.96C343.898 194.173 343.21 193.485 342.423 193.485C341.637 193.485 341.047 193.977 340.948 194.96Z" fill="white"/>
<path d="M318.28 194.96C318.231 195.796 318.969 196.435 319.755 196.435C320.542 196.435 321.23 195.747 321.23 194.96C321.23 194.173 320.542 193.485 319.755 193.485C318.969 193.485 318.379 193.977 318.28 194.96Z" fill="white"/>
<path d="M363.614 216.741C363.565 217.577 364.302 218.216 365.089 218.216C365.236 218.216 365.384 218.216 365.531 218.167C365.089 217.282 364.597 216.397 364.155 215.561C363.81 215.807 363.663 216.2 363.614 216.741Z" fill="white"/>
<path d="M340.948 216.741C340.899 217.577 341.637 218.216 342.423 218.216C343.21 218.216 343.898 217.528 343.898 216.741C343.898 215.905 343.21 215.266 342.423 215.266C341.637 215.266 341.047 215.758 340.948 216.741Z" fill="white"/>
<path d="M318.28 216.741C318.231 217.577 318.969 218.216 319.755 218.216C320.542 218.216 321.23 217.528 321.23 216.741C321.23 215.905 320.542 215.266 319.755 215.266C318.969 215.266 318.379 215.758 318.28 216.741Z" fill="white"/>
<path d="M363.612 238.523C363.563 239.358 364.301 239.998 365.087 239.998C365.874 239.998 366.562 239.309 366.562 238.523C366.562 237.736 365.874 237.048 365.087 237.048C364.301 237.048 363.662 237.539 363.612 238.523Z" fill="white"/>
<path d="M340.948 238.523C340.899 239.358 341.637 239.998 342.423 239.998C343.21 239.998 343.898 239.309 343.898 238.523C343.898 237.736 343.21 237.048 342.423 237.048C341.637 237.048 341.047 237.539 340.948 238.523Z" fill="white"/>
<path d="M318.28 238.523C318.231 239.358 318.969 239.998 319.755 239.998C320.542 239.998 321.23 239.309 321.23 238.523C321.23 237.736 320.542 237.048 319.755 237.048C318.969 237.048 318.379 237.539 318.28 238.523Z" fill="white"/>
<path d="M363.612 260.304C363.563 261.14 364.301 261.779 365.087 261.779C365.874 261.779 366.562 261.091 366.562 260.304C366.562 259.468 365.874 258.829 365.087 258.829C364.301 258.829 363.662 259.321 363.612 260.304Z" fill="white"/>
<path d="M318.28 260.304C318.231 261.14 318.969 261.779 319.755 261.779C320.542 261.779 321.23 261.091 321.23 260.304C321.23 259.468 320.542 258.829 319.755 258.829C318.969 258.829 318.379 259.321 318.28 260.304Z" fill="white"/>
<path d="M295.612 260.304C295.563 261.14 296.301 261.779 297.087 261.779C297.923 261.779 298.562 261.091 298.562 260.304C298.562 259.468 297.874 258.829 297.087 258.829C296.301 258.829 295.711 259.321 295.612 260.304Z" fill="white"/>
<path d="M363.612 282.085C363.563 282.921 364.301 283.56 365.087 283.56C365.874 283.56 366.562 282.872 366.562 282.085C366.562 281.25 365.874 280.61 365.087 280.61C364.301 280.61 363.662 281.102 363.612 282.085Z" fill="white"/>
<path d="M340.948 282.085C340.899 282.921 341.637 283.56 342.423 283.56C343.21 283.56 343.898 282.872 343.898 282.085C343.898 281.25 343.21 280.61 342.423 280.61C341.637 280.61 341.047 281.102 340.948 282.085Z" fill="white"/>
<path d="M318.28 282.085C318.231 282.921 318.969 283.56 319.755 283.56C320.542 283.56 321.23 282.872 321.23 282.085C321.23 281.25 320.542 280.61 319.755 280.61C318.969 280.61 318.379 281.102 318.28 282.085Z" fill="white"/>
<path d="M295.612 282.085C295.563 282.921 296.301 283.56 297.087 283.56C297.923 283.56 298.562 282.872 298.562 282.085C298.562 281.25 297.874 280.61 297.087 280.61C296.301 280.61 295.711 281.102 295.612 282.085Z" fill="white"/>
<path d="M237.938 272.645V453.435C237.938 456.484 233.168 456.484 233.168 453.435V272.645H237.938Z" fill="#697CCC"/>
<path d="M57.293 274.661V453.386C57.293 456.435 52.5237 456.435 52.5237 453.386V274.563C54.0971 274.661 55.7196 274.71 57.293 274.661Z" fill="#697CCC"/>
<path d="M38.1193 271.072H253.032C256.08 271.072 256.08 275.841 253.032 275.841H38.1193C35.0708 275.841 35.0708 271.072 38.1193 271.072Z" fill="#697CCC"/>
<path d="M384.853 369.604C386.033 358.394 387.213 347.233 388.394 336.022C388.639 333.859 392.032 333.859 391.786 336.022C390.606 347.233 389.426 358.394 388.246 369.604C388.049 371.768 384.608 371.768 384.853 369.604Z" fill="#697CCC"/>
<path d="M342.124 370.637C342.518 370.833 343.009 370.981 343.599 370.981C343.698 370.981 343.845 370.981 343.943 370.981V448.224C343.943 450.436 340.551 450.436 340.551 448.224V370.538C341.042 370.587 341.583 370.587 342.124 370.637Z" fill="#697CCC"/>
<path d="M386.67 338.284C390.702 303.965 394.733 269.646 398.765 235.277C399.06 232.868 400.584 230.902 403.19 230.852C405.354 230.852 407.91 232.917 407.615 235.277C403.584 269.597 399.552 303.916 395.52 338.284C395.225 340.693 393.701 342.66 391.095 342.709C388.882 342.709 386.375 340.644 386.67 338.284Z" fill="#0083F9"/>
<path d="M295.908 368.326H384.902C390.606 368.326 390.606 377.176 384.902 377.176H295.957C290.205 377.176 290.205 368.326 295.908 368.326Z" fill="#0083F9"/>
</g>
<path d="M44.6075 403H403.336C404.221 403 404.221 404.377 403.336 404.377H44.5583C43.7224 404.377 43.7224 403 44.6075 403Z" fill="#2252B2"/>
</svg>
