<?xml version="1.0" encoding="UTF-8"?>
<!DOCTYPE svg PUBLIC "-//W3C//DTD SVG 1.1//EN" "http://www.w3.org/Graphics/SVG/1.1/DTD/svg11.dtd">
<!-- Creator: CorelDRAW 2020 (64-Bit) -->
<svg xmlns="http://www.w3.org/2000/svg" xml:space="preserve" width="1440px" height="256px" version="1.1" style="shape-rendering:geometricPrecision; text-rendering:geometricPrecision; image-rendering:optimizeQuality; fill-rule:evenodd; clip-rule:evenodd"
viewBox="0 0 410.94 73.06"
 xmlns:xlink="http://www.w3.org/1999/xlink"
 xmlns:xodm="http://www.corel.com/coreldraw/odm/2003">
 <defs>
  <style type="text/css">
   <![CDATA[
    .fil0 {fill:black}
   ]]>
  </style>
 </defs>
 <g id="Слой_x0020_1">
  <metadata id="CorelCorpID_0Corel-Layer"/>
  <path class="fil0" d="M105.92 19.26c0.41,0 0.73,0.11 0.95,0.34 0.23,0.22 0.34,0.53 0.34,0.94l0 44.98c0,0.41 -0.11,0.72 -0.34,0.95 -0.22,0.22 -0.54,0.33 -0.95,0.33l-4.7 0c-0.41,0 -0.72,-0.11 -0.94,-0.33 -0.23,-0.23 -0.34,-0.54 -0.34,-0.95l0 -44.98c0,-0.41 0.11,-0.72 0.34,-0.94 0.22,-0.23 0.53,-0.34 0.94,-0.34l4.7 0zm17.46 0c0.41,0 0.73,0.11 0.95,0.34 0.22,0.22 0.33,0.53 0.33,0.94l0 44.98c0,0.41 -0.11,0.72 -0.33,0.95 -0.22,0.22 -0.54,0.33 -0.95,0.33l-4.7 0c-0.41,0 -0.73,-0.11 -0.95,-0.33 -0.22,-0.23 -0.33,-0.54 -0.33,-0.95l0 -44.98c0,-0.41 0.11,-0.72 0.33,-0.94 0.22,-0.23 0.54,-0.34 0.95,-0.34l4.7 0zm39.94 13.43c0.41,0 0.73,0.11 0.95,0.33 0.22,0.22 0.33,0.54 0.33,0.95l0 22.48c0,0.71 -0.07,1.41 -0.21,2.08 -0.13,0.67 -0.34,1.33 -0.62,1.96 -0.27,0.64 -0.6,1.22 -0.96,1.77 -0.37,0.54 -0.79,1.05 -1.24,1.5 -0.92,0.92 -2.02,1.66 -3.28,2.21 -0.63,0.27 -1.28,0.48 -1.96,0.62 -0.67,0.14 -1.36,0.21 -2.07,0.21l-10.74 0c-0.71,0 -1.41,-0.07 -2.08,-0.21 -0.67,-0.14 -1.33,-0.35 -1.96,-0.62 -0.63,-0.28 -1.22,-0.6 -1.76,-0.96 -0.55,-0.37 -1.05,-0.79 -1.51,-1.25 -0.46,-0.46 -0.88,-0.96 -1.25,-1.51 -0.36,-0.54 -0.68,-1.12 -0.96,-1.76 -0.27,-0.63 -0.48,-1.29 -0.62,-1.96 -0.14,-0.67 -0.21,-1.37 -0.21,-2.08l0 -13.42c0,-0.71 0.07,-1.4 0.21,-2.08 0.14,-0.67 0.35,-1.32 0.62,-1.96 0.28,-0.63 0.6,-1.22 0.96,-1.76 0.37,-0.54 0.79,-1.05 1.25,-1.51 0.46,-0.46 0.96,-0.87 1.51,-1.24 0.54,-0.36 1.13,-0.69 1.76,-0.96 0.63,-0.28 1.29,-0.49 1.96,-0.62 0.67,-0.14 1.37,-0.21 2.08,-0.21l19.8 0zm-19.8 7.26c-0.87,0 -1.6,0.3 -2.19,0.89 -0.6,0.6 -0.9,1.33 -0.9,2.19l0 13.42c0,0.87 0.3,1.6 0.9,2.19 0.59,0.6 1.32,0.9 2.19,0.9l10.74 0c0.86,0 1.59,-0.3 2.19,-0.9 0.29,-0.3 0.52,-0.63 0.67,-0.99 0.14,-0.36 0.22,-0.76 0.22,-1.2l0 -15.77c0,-0.49 -0.25,-0.73 -0.73,-0.73l-13.09 0zm60.01 -14.71c0,0.41 -0.11,0.73 -0.33,0.95 -0.22,0.22 -0.54,0.34 -0.95,0.34l-11.74 0c-0.49,0 -0.74,0.24 -0.74,0.73l0 38.26c0,0.41 -0.11,0.72 -0.33,0.95 -0.22,0.22 -0.54,0.33 -0.95,0.33l-4.7 0c-0.41,0 -0.73,-0.11 -0.95,-0.34 -0.22,-0.22 -0.33,-0.53 -0.33,-0.94l0 -38.26c0,-0.26 -0.06,-0.45 -0.17,-0.56 -0.11,-0.12 -0.3,-0.17 -0.56,-0.17l-11.75 0c-0.41,0 -0.73,-0.12 -0.95,-0.34 -0.22,-0.22 -0.33,-0.54 -0.33,-0.95l0 -4.7c0,-0.85 0.43,-1.28 1.28,-1.28l32.22 0c0.41,0 0.73,0.11 0.95,0.34 0.22,0.22 0.33,0.53 0.33,0.94l0 4.7zm54.69 31.28l-0.06 0c0,1.39 -0.27,2.69 -0.81,3.9 -0.54,1.2 -1.25,2.27 -2.15,3.18 -0.89,0.92 -1.94,1.64 -3.15,2.15 -1.21,0.52 -2.51,0.77 -3.9,0.77l-21.81 0c-0.67,0 -1.01,-0.33 -1.01,-1l0 -4.7c0,-0.67 0.34,-1.01 1.01,-1.01l21.81 0c0.9,0 1.67,-0.32 2.32,-0.97 0.65,-0.65 0.97,-1.44 0.97,-2.39l0.07 0 0 -6.71c0,-0.94 -0.33,-1.73 -1.01,-2.38 -0.67,-0.65 -1.45,-0.97 -2.35,-0.97l-15.03 0c-1.3,0 -2.5,-0.29 -3.59,-0.88 -1.1,-0.58 -2.06,-1.35 -2.89,-2.31 -0.83,-0.96 -1.48,-2.05 -1.95,-3.26 -0.47,-1.2 -0.7,-2.41 -0.7,-3.62l0 -6.71c0,-1.39 0.26,-2.7 0.77,-3.93 0.51,-1.23 1.23,-2.29 2.15,-3.19 0.92,-0.89 1.98,-1.61 3.19,-2.15 1.21,-0.53 2.5,-0.8 3.89,-0.8l20.88 0c0.67,0 1,0.33 1,1l0 4.7c0,0.67 -0.33,1.01 -1,1.01l-20.88 0c-0.9,0 -1.67,0.32 -2.32,0.97 -0.64,0.65 -0.97,1.45 -0.97,2.39l0 6.71c0,0.94 0.33,1.73 0.97,2.38 0.65,0.65 1.42,0.97 2.32,0.97l15.04 0c1.25,0 2.42,0.31 3.52,0.91 1.1,0.6 2.07,1.38 2.92,2.32 0.85,0.94 1.52,2 2.01,3.19 0.5,1.18 0.74,2.38 0.74,3.59l0 6.84zm27.86 -23.56c1.39,0 2.7,0.27 3.93,0.81 1.23,0.53 2.29,1.25 3.19,2.15 0.89,0.89 1.61,1.95 2.15,3.18 0.53,1.23 0.8,2.54 0.8,3.93l0 9.06c0,0.67 -0.33,1.01 -1.01,1.01l-22.15 0c-0.67,0 -1.01,0.33 -1.01,1.01l0 2.34c0,0.95 0.33,1.74 0.98,2.39 0.65,0.65 1.44,0.97 2.38,0.97l18.46 0c0.67,0 1.01,0.34 1.01,1.01l0 4.7c0,0.67 -0.34,1 -1.01,1l-18.46 0c-1.39,0 -2.7,-0.26 -3.93,-0.8 -1.23,-0.54 -2.29,-1.26 -3.19,-2.15 -0.89,-0.9 -1.61,-1.96 -2.14,-3.19 -0.54,-1.23 -0.81,-2.54 -0.81,-3.93l0 -13.42c0,-1.39 0.27,-2.7 0.81,-3.93 0.53,-1.23 1.25,-2.29 2.14,-3.18 0.9,-0.9 1.96,-1.62 3.19,-2.15 1.23,-0.54 2.54,-0.81 3.93,-0.81l10.74 0zm-10.74 6.71c-0.94,0 -1.73,0.33 -2.38,0.98 -0.65,0.65 -0.98,1.44 -0.98,2.38l0 3.36 17.46 0 0 -3.36c0,-0.94 -0.33,-1.73 -0.98,-2.38 -0.64,-0.65 -1.44,-0.98 -2.38,-0.98l-10.74 0zm49.68 -6.71c1.38,0 2.69,0.27 3.92,0.81 1.23,0.53 2.3,1.25 3.19,2.15 0.9,0.89 1.61,1.95 2.15,3.18 0.54,1.23 0.8,2.54 0.8,3.93l0 22.49c0,0.67 -0.33,1 -1,1l-4.7 0c-0.67,0 -1.01,-0.33 -1.01,-1l0 -22.49c0,-0.94 -0.32,-1.73 -0.97,-2.38 -0.65,-0.65 -1.44,-0.98 -2.38,-0.98l-13.09 0c-0.68,0 -1.01,0.34 -1.01,1.01l0 24.84c0,0.67 -0.34,1 -1.01,1l-4.7 0c-0.67,0 -1,-0.33 -1,-1l0 -31.55c0,-0.67 0.33,-1.01 1,-1.01l19.81 0zm75.85 0c1.39,0 2.7,0.27 3.93,0.81 1.23,0.53 2.29,1.25 3.19,2.15 0.89,0.89 1.61,1.95 2.14,3.18 0.54,1.23 0.81,2.54 0.81,3.93l0 9.06c0,0.67 -0.34,1.01 -1.01,1.01l-22.15 0c-0.67,0 -1.01,0.33 -1.01,1.01l0 2.34c0,0.95 0.33,1.74 0.98,2.39 0.65,0.65 1.44,0.97 2.38,0.97l18.46 0c0.67,0 1.01,0.34 1.01,1.01l0 4.7c0,0.67 -0.34,1 -1.01,1l-18.46 0c-1.39,0 -2.7,-0.26 -3.93,-0.8 -1.23,-0.54 -2.29,-1.26 -3.19,-2.15 -0.89,-0.9 -1.61,-1.96 -2.14,-3.19 -0.54,-1.23 -0.81,-2.54 -0.81,-3.93l0 -13.42c0,-1.39 0.27,-2.7 0.81,-3.93 0.53,-1.23 1.25,-2.29 2.14,-3.18 0.9,-0.9 1.96,-1.62 3.19,-2.15 1.23,-0.54 2.54,-0.81 3.93,-0.81l10.74 0zm-10.74 6.71c-0.94,0 -1.73,0.33 -2.38,0.98 -0.65,0.65 -0.98,1.44 -0.98,2.38l0 3.36 17.46 0 0 -3.36c0,-0.94 -0.33,-1.73 -0.98,-2.38 -0.65,-0.65 -1.44,-0.98 -2.38,-0.98l-10.74 0zm-27.19 20.14c0.94,0 1.74,-0.33 2.39,-1.01 0.64,-0.67 0.97,-1.45 0.97,-2.35 0,-0.93 -0.33,-1.73 -0.97,-2.38 -0.65,-0.65 -1.45,-0.97 -2.39,-0.97l-10.74 0c-1.38,0 -2.69,-0.27 -3.92,-0.81 -1.24,-0.53 -2.3,-1.25 -3.19,-2.14 -0.9,-0.9 -1.61,-1.96 -2.15,-3.19 -0.54,-1.23 -0.81,-2.54 -0.81,-3.93 0,-1.39 0.27,-2.7 0.81,-3.93 0.54,-1.23 1.25,-2.29 2.15,-3.18 0.89,-0.9 1.95,-1.62 3.19,-2.15 1.23,-0.54 2.54,-0.81 3.92,-0.81l17.79 0c0.67,0 1.01,0.34 1.01,1.01l0 4.7c0,0.67 -0.34,1 -1.01,1l-17.79 0c-0.94,0 -1.73,0.33 -2.38,0.98 -0.65,0.65 -0.97,1.44 -0.97,2.38 0,0.9 0.32,1.68 0.97,2.35 0.65,0.67 1.44,1.01 2.38,1.01l10.74 0c1.39,0 2.7,0.27 3.93,0.8 1.23,0.54 2.29,1.26 3.19,2.15 0.89,0.89 1.61,1.96 2.15,3.19 0.53,1.23 0.8,2.54 0.8,3.92 0,1.39 -0.27,2.7 -0.8,3.93 -0.54,1.23 -1.26,2.29 -2.15,3.19 -0.9,0.89 -1.96,1.61 -3.19,2.15 -1.23,0.54 -2.54,0.8 -3.93,0.8l-17.85 0c-0.67,0 -1.01,-0.33 -1.01,-1l0 -4.7c0,-0.67 0.34,-1.01 1.01,-1.01l17.85 0zm-280.37 -21.32c-0.5,-5.51 -1.39,-9.44 -3.43,-13.96 -0.9,-1.99 -1.96,-3.93 -3.03,-5.59 -0.57,-0.9 -1.13,-1.62 -1.73,-2.46 -0.66,-0.93 -1.33,-1.59 -1.99,-2.43 -0.82,-1.05 -1.15,-1.21 -2.06,-2.15 -1.97,-2.03 -4.85,-4.29 -7.27,-5.76 -20.68,-12.56 -47.04,-5.11 -58.16,15.59 -4.39,8.18 -6.17,18.41 -3.93,28.84 1.43,6.68 7,17.78 13.1,21.37 4.77,2.82 9.66,-0.21 11.32,-3.66 2.69,-5.62 -1.68,-9.08 -3.75,-11.9 -12.23,-16.67 -0.97,-39.29 19.05,-39.7 10.95,-0.22 18.44,5.89 22.15,12.38 8.49,14.84 -2.02,30.62 -5.96,30.54 -0.88,-0.01 -4.01,-1.54 -0.95,-4.92 9.83,-10.84 4.84,-28.25 -9.06,-32.34 -10.85,-3.19 -19.67,3.57 -22.96,9.99 -3.36,6.56 -3.21,13.79 1.08,20.07 1.12,1.64 2.61,4.07 4.69,3.75 2.38,-0.36 3.44,-3.21 1.69,-5.08 -1.38,-1.47 -2.45,-3.04 -3.24,-5.39 -1.67,-4.96 -0.08,-10.62 2.59,-13.49 6.82,-7.35 18.08,-6.02 22.73,2.26 2.38,4.23 2.44,9.6 0.03,13.78 -1.92,3.31 -6.49,6.15 -4.02,12.08 1.5,3.62 6.13,6.7 11.05,4.2 3.3,-1.69 6.15,-5.49 8.02,-9.21 8.67,-17.24 -0.32,-38.21 -19.02,-43.39 -10.49,-2.9 -20.44,0.2 -26.96,5.39 -1.13,0.9 -3.56,3.04 -4.45,4.16 -4.26,5.31 -7.06,11.08 -7.32,18.6 -0.24,6.93 2.02,14.98 6.24,19.69 0.95,1.05 3.47,3.19 3.33,5.33 -0.1,1.49 -2.1,3.57 -5.09,0.63 -3.88,-3.79 -7.59,-11.5 -8.77,-17.1 -3.91,-18.55 7.45,-36.66 25.85,-41.71 10.03,-2.75 20.72,-0.29 27.94,4.33 18.4,11.77 21.98,36.63 8.38,52.8 -1.76,2.09 -3.66,3.25 -2.78,5.5 0.38,0.96 1.13,1.71 2.37,1.88 1.97,0.27 3.77,-2.32 4.92,-3.7 5.82,-6.91 10.37,-18.4 9.4,-29.22z"/>
 </g>
</svg>
