<?xml version="1.0" encoding="UTF-8"?>
<!DOCTYPE svg PUBLIC "-//W3C//DTD SVG 1.1//EN" "http://www.w3.org/Graphics/SVG/1.1/DTD/svg11.dtd">
<!-- Creator: CorelDRAW 2020 (64-Bit) -->
<svg xmlns="http://www.w3.org/2000/svg" xml:space="preserve" width="1090px" height="167px" version="1.1" style="shape-rendering:geometricPrecision; text-rendering:geometricPrecision; image-rendering:optimizeQuality; fill-rule:evenodd; clip-rule:evenodd"
viewBox="0 0 243.85 37.36"
 xmlns:xlink="http://www.w3.org/1999/xlink"
 xmlns:xodm="http://www.corel.com/coreldraw/odm/2003">
 <defs>
  <style type="text/css">
   <![CDATA[
    .fil0 {fill:black}
   ]]>
  </style>
 </defs>
 <g id="Слой_x0020_1">
  <metadata id="CorelCorpID_0Corel-Layer"/>
  <path class="fil0" d="M4.69 0c0.32,0 0.57,0.09 0.74,0.26 0.18,0.18 0.27,0.42 0.27,0.75l0 35.34c0,0.33 -0.09,0.58 -0.27,0.75 -0.17,0.17 -0.42,0.26 -0.74,0.26l-3.68 0c-0.33,0 -0.58,-0.09 -0.75,-0.26 -0.17,-0.17 -0.26,-0.42 -0.26,-0.75l0 -35.34c0,-0.33 0.09,-0.57 0.26,-0.75 0.17,-0.17 0.42,-0.26 0.75,-0.26l3.68 0zm13.68 0c0.33,0 0.58,0.09 0.75,0.26 0.17,0.18 0.26,0.42 0.26,0.75l0 35.34c0,0.33 -0.09,0.58 -0.26,0.75 -0.17,0.17 -0.42,0.26 -0.75,0.26l-3.68 0c-0.32,0 -0.57,-0.09 -0.74,-0.26 -0.18,-0.17 -0.26,-0.42 -0.26,-0.75l0 -35.34c0,-0.33 0.08,-0.57 0.26,-0.75 0.17,-0.17 0.42,-0.26 0.74,-0.26l3.68 0zm31.32 10.55c0.32,0 0.57,0.09 0.75,0.26 0.17,0.18 0.26,0.43 0.26,0.75l0 17.67c0,0.56 -0.06,1.1 -0.17,1.64 -0.1,0.52 -0.27,1.04 -0.48,1.53 -0.22,0.5 -0.47,0.97 -0.76,1.39 -0.29,0.43 -0.61,0.83 -0.97,1.19 -0.72,0.72 -1.58,1.3 -2.57,1.73 -0.49,0.22 -1.01,0.38 -1.53,0.49 -0.53,0.11 -1.08,0.16 -1.63,0.16l-8.42 0c-0.56,0 -1.1,-0.05 -1.63,-0.16 -0.53,-0.11 -1.04,-0.27 -1.54,-0.49 -0.5,-0.22 -0.96,-0.47 -1.38,-0.76 -0.43,-0.29 -0.82,-0.61 -1.19,-0.97 -0.36,-0.37 -0.68,-0.76 -0.97,-1.19 -0.29,-0.42 -0.54,-0.89 -0.76,-1.39 -0.21,-0.49 -0.37,-1.01 -0.48,-1.53 -0.11,-0.54 -0.17,-1.08 -0.17,-1.64l0 -10.55c0,-0.56 0.06,-1.1 0.17,-1.63 0.11,-0.53 0.27,-1.04 0.48,-1.54 0.22,-0.5 0.47,-0.96 0.76,-1.39 0.29,-0.43 0.61,-0.82 0.97,-1.18 0.37,-0.37 0.76,-0.69 1.19,-0.98 0.42,-0.29 0.88,-0.54 1.38,-0.76 0.5,-0.21 1.01,-0.38 1.54,-0.49 0.53,-0.1 1.07,-0.16 1.63,-0.16l15.52 0zm-15.52 5.71c-0.68,0 -1.25,0.23 -1.72,0.7 -0.47,0.47 -0.7,1.04 -0.7,1.72l0 10.55c0,0.68 0.23,1.26 0.7,1.72 0.47,0.47 1.04,0.7 1.72,0.7l8.42 0c0.68,0 1.25,-0.23 1.71,-0.7 0.24,-0.23 0.41,-0.49 0.53,-0.78 0.11,-0.28 0.17,-0.6 0.17,-0.94l0 -12.4c0,-0.38 -0.19,-0.57 -0.57,-0.57l-10.26 0zm47.06 -11.56c0,0.32 -0.09,0.57 -0.26,0.75 -0.18,0.17 -0.43,0.26 -0.75,0.26l-9.21 0c-0.38,0 -0.57,0.19 -0.57,0.57l0 30.07c0,0.33 -0.09,0.58 -0.26,0.75 -0.18,0.17 -0.43,0.26 -0.75,0.26l-3.68 0c-0.33,0 -0.57,-0.09 -0.75,-0.26 -0.17,-0.17 -0.26,-0.42 -0.26,-0.75l0 -30.07c0,-0.2 -0.04,-0.35 -0.13,-0.44 -0.09,-0.09 -0.24,-0.13 -0.44,-0.13l-9.21 0c-0.33,0 -0.57,-0.09 -0.75,-0.26 -0.17,-0.18 -0.26,-0.43 -0.26,-0.75l0 -3.69c0,-0.67 0.34,-1.01 1.01,-1.01l25.26 0c0.32,0 0.57,0.09 0.74,0.26 0.18,0.18 0.27,0.42 0.27,0.75l0 3.69zm42.88 24.58l-0.06 0c0,1.1 -0.21,2.11 -0.63,3.06 -0.42,0.95 -0.98,1.79 -1.68,2.51 -0.7,0.72 -1.53,1.28 -2.48,1.69 -0.94,0.4 -1.96,0.61 -3.05,0.61l-17.1 0c-0.53,0 -0.79,-0.27 -0.79,-0.8l0 -3.69c0,-0.53 0.26,-0.79 0.79,-0.79l17.1 0c0.7,0 1.31,-0.26 1.82,-0.76 0.51,-0.51 0.76,-1.14 0.76,-1.88l0.05 0 0 -5.27c0,-0.74 -0.26,-1.37 -0.79,-1.88 -0.52,-0.51 -1.14,-0.76 -1.84,-0.76l-11.79 0c-1.02,0 -1.95,-0.23 -2.81,-0.69 -0.86,-0.45 -1.62,-1.06 -2.27,-1.82 -0.65,-0.75 -1.16,-1.61 -1.52,-2.56 -0.37,-0.95 -0.56,-1.89 -0.56,-2.84l0 -5.28c0,-1.09 0.21,-2.12 0.61,-3.09 0.4,-0.96 0.96,-1.8 1.68,-2.5 0.72,-0.71 1.56,-1.27 2.5,-1.69 0.95,-0.42 1.97,-0.63 3.06,-0.63l16.37 0c0.52,0 0.78,0.26 0.78,0.79l0 3.69c0,0.53 -0.26,0.79 -0.78,0.79l-16.37 0c-0.71,0 -1.31,0.26 -1.82,0.77 -0.51,0.51 -0.76,1.13 -0.76,1.87l0 5.28c0,0.73 0.25,1.36 0.76,1.87 0.51,0.51 1.11,0.76 1.82,0.76l11.79 0c0.98,0 1.9,0.24 2.76,0.72 0.86,0.47 1.62,1.08 2.29,1.82 0.67,0.73 1.19,1.57 1.58,2.5 0.38,0.93 0.58,1.87 0.58,2.82l0 5.38zm21.84 -18.51c1.09,0 2.11,0.21 3.08,0.63 0.96,0.42 1.8,0.99 2.5,1.69 0.7,0.7 1.26,1.54 1.68,2.5 0.43,0.97 0.64,2 0.64,3.09l0 7.12c0,0.53 -0.27,0.79 -0.79,0.79l-17.37 0c-0.53,0 -0.79,0.27 -0.79,0.8l0 1.84c0,0.74 0.25,1.37 0.76,1.88 0.51,0.5 1.13,0.76 1.87,0.76l14.47 0c0.53,0 0.79,0.26 0.79,0.79l0 3.69c0,0.53 -0.26,0.8 -0.79,0.8l-14.47 0c-1.09,0 -2.12,-0.22 -3.08,-0.64 -0.97,-0.42 -1.8,-0.98 -2.5,-1.69 -0.7,-0.7 -1.26,-1.53 -1.68,-2.5 -0.43,-0.97 -0.64,-2 -0.64,-3.09l0 -10.55c0,-1.09 0.21,-2.12 0.64,-3.09 0.42,-0.96 0.98,-1.8 1.68,-2.5 0.7,-0.7 1.53,-1.27 2.5,-1.69 0.96,-0.42 1.99,-0.63 3.08,-0.63l8.42 0zm-8.42 5.27c-0.74,0 -1.36,0.26 -1.87,0.77 -0.51,0.51 -0.76,1.13 -0.76,1.87l0 2.64 13.68 0 0 -2.64c0,-0.74 -0.25,-1.36 -0.76,-1.87 -0.51,-0.51 -1.13,-0.77 -1.87,-0.77l-8.42 0zm38.95 -5.27c1.09,0 2.11,0.21 3.08,0.63 0.96,0.42 1.8,0.99 2.5,1.69 0.7,0.7 1.26,1.54 1.68,2.5 0.42,0.97 0.63,2 0.63,3.09l0 17.67c0,0.53 -0.26,0.8 -0.79,0.8l-3.68 0c-0.53,0 -0.79,-0.27 -0.79,-0.8l0 -17.67c0,-0.74 -0.25,-1.36 -0.76,-1.87 -0.51,-0.51 -1.13,-0.77 -1.87,-0.77l-10.26 0c-0.53,0 -0.79,0.27 -0.79,0.79l0 19.52c0,0.53 -0.27,0.8 -0.79,0.8l-3.69 0c-0.52,0 -0.79,-0.27 -0.79,-0.8l0 -24.79c0,-0.53 0.27,-0.79 0.79,-0.79l15.53 0zm59.48 0c1.08,0 2.11,0.21 3.08,0.63 0.96,0.42 1.79,0.99 2.5,1.69 0.7,0.7 1.26,1.54 1.68,2.5 0.42,0.97 0.63,2 0.63,3.09l0 7.12c0,0.53 -0.26,0.79 -0.79,0.79l-17.37 0c-0.52,0 -0.79,0.27 -0.79,0.8l0 1.84c0,0.74 0.26,1.37 0.77,1.88 0.51,0.5 1.13,0.76 1.86,0.76l14.48 0c0.53,0 0.79,0.26 0.79,0.79l0 3.69c0,0.53 -0.26,0.8 -0.79,0.8l-14.48 0c-1.08,0 -2.11,-0.22 -3.07,-0.64 -0.97,-0.42 -1.8,-0.98 -2.5,-1.69 -0.71,-0.7 -1.27,-1.53 -1.69,-2.5 -0.42,-0.97 -0.63,-2 -0.63,-3.09l0 -10.55c0,-1.09 0.21,-2.12 0.63,-3.09 0.42,-0.96 0.98,-1.8 1.69,-2.5 0.7,-0.7 1.53,-1.27 2.5,-1.69 0.96,-0.42 1.99,-0.63 3.07,-0.63l8.43 0zm-8.43 5.27c-0.73,0 -1.35,0.26 -1.86,0.77 -0.51,0.51 -0.77,1.13 -0.77,1.87l0 2.64 13.69 0 0 -2.64c0,-0.74 -0.26,-1.36 -0.77,-1.87 -0.5,-0.51 -1.13,-0.77 -1.86,-0.77l-8.43 0zm-21.31 15.83c0.73,0 1.36,-0.26 1.87,-0.79 0.5,-0.53 0.76,-1.14 0.76,-1.85 0,-0.74 -0.26,-1.36 -0.76,-1.87 -0.51,-0.51 -1.14,-0.77 -1.87,-0.77l-8.42 0c-1.09,0 -2.12,-0.21 -3.08,-0.63 -0.97,-0.42 -1.8,-0.98 -2.5,-1.69 -0.7,-0.7 -1.27,-1.54 -1.69,-2.5 -0.42,-0.97 -0.63,-2 -0.63,-3.09 0,-1.09 0.21,-2.12 0.63,-3.09 0.42,-0.96 0.99,-1.8 1.69,-2.5 0.7,-0.7 1.53,-1.27 2.5,-1.69 0.96,-0.42 1.99,-0.63 3.08,-0.63l13.94 0c0.53,0 0.79,0.26 0.79,0.79l0 3.69c0,0.53 -0.26,0.79 -0.79,0.79l-13.94 0c-0.74,0 -1.36,0.26 -1.87,0.77 -0.51,0.51 -0.77,1.13 -0.77,1.87 0,0.7 0.26,1.32 0.77,1.85 0.51,0.53 1.13,0.79 1.87,0.79l8.42 0c1.09,0 2.11,0.21 3.08,0.63 0.96,0.42 1.79,0.99 2.5,1.69 0.7,0.7 1.26,1.54 1.68,2.51 0.42,0.96 0.63,1.99 0.63,3.08 0,1.09 -0.21,2.12 -0.63,3.09 -0.42,0.97 -0.98,1.8 -1.68,2.5 -0.71,0.71 -1.54,1.27 -2.5,1.69 -0.97,0.42 -1.99,0.64 -3.08,0.64l-14 0c-0.53,0 -0.79,-0.27 -0.79,-0.8l0 -3.69c0,-0.53 0.26,-0.79 0.79,-0.79l14 0z"/>
 </g>
</svg>
