<?xml version="1.0" encoding="UTF-8"?>
<!DOCTYPE svg PUBLIC "-//W3C//DTD SVG 1.1//EN" "http://www.w3.org/Graphics/SVG/1.1/DTD/svg11.dtd">
<!-- Creator: CorelDRAW 2020 (64-Bit) -->
<svg xmlns="http://www.w3.org/2000/svg" xml:space="preserve" width="1440px" height="256px" version="1.1" style="shape-rendering:geometricPrecision; text-rendering:geometricPrecision; image-rendering:optimizeQuality; fill-rule:evenodd; clip-rule:evenodd"
viewBox="0 0 466.61 82.95"
 xmlns:xlink="http://www.w3.org/1999/xlink"
 xmlns:xodm="http://www.corel.com/coreldraw/odm/2003">
 <defs>
  <style type="text/css">
   <![CDATA[
    .fil0 {fill:black}
   ]]>
  </style>
 </defs>
 <g id="Слой_x0020_1">
  <metadata id="CorelCorpID_0Corel-Layer"/>
  <path class="fil0" d="M120.2 14.48c0.47,0 0.83,0.13 1.08,0.38 0.25,0.25 0.38,0.61 0.38,1.08l0 51.07c0,0.47 -0.13,0.83 -0.38,1.08 -0.25,0.25 -0.61,0.38 -1.08,0.38l-5.33 0c-0.47,0 -0.83,-0.13 -1.08,-0.38 -0.25,-0.25 -0.38,-0.61 -0.38,-1.08l0 -51.07c0,-0.47 0.13,-0.83 0.38,-1.08 0.25,-0.25 0.61,-0.38 1.08,-0.38l5.33 0zm19.83 0c0.46,0 0.82,0.13 1.07,0.38 0.26,0.25 0.38,0.61 0.38,1.08l0 51.07c0,0.47 -0.12,0.83 -0.38,1.08 -0.25,0.25 -0.61,0.38 -1.07,0.38l-5.34 0c-0.47,0 -0.83,-0.13 -1.08,-0.38 -0.25,-0.25 -0.38,-0.61 -0.38,-1.08l0 -51.07c0,-0.47 0.13,-0.83 0.38,-1.08 0.25,-0.25 0.61,-0.38 1.08,-0.38l5.34 0zm45.36 15.25c0.46,0 0.82,0.13 1.07,0.38 0.26,0.25 0.38,0.61 0.38,1.08l0 25.53c0,0.81 -0.08,1.59 -0.23,2.36 -0.16,0.76 -0.4,1.51 -0.71,2.23 -0.31,0.72 -0.68,1.38 -1.09,2 -0.42,0.62 -0.89,1.19 -1.41,1.71 -1.05,1.04 -2.29,1.88 -3.72,2.51 -0.72,0.31 -1.46,0.55 -2.23,0.7 -0.76,0.16 -1.55,0.24 -2.36,0.24l-12.19 0c-0.81,0 -1.6,-0.08 -2.36,-0.24 -0.77,-0.15 -1.51,-0.39 -2.23,-0.7 -0.72,-0.32 -1.39,-0.68 -2,-1.1 -0.62,-0.41 -1.19,-0.89 -1.71,-1.41 -0.53,-0.52 -1,-1.09 -1.42,-1.71 -0.41,-0.62 -0.78,-1.28 -1.09,-2 -0.31,-0.72 -0.55,-1.47 -0.71,-2.23 -0.15,-0.77 -0.23,-1.55 -0.23,-2.36l0 -15.24c0,-0.81 0.08,-1.6 0.23,-2.36 0.16,-0.77 0.4,-1.51 0.71,-2.23 0.31,-0.72 0.68,-1.38 1.09,-2 0.42,-0.62 0.89,-1.19 1.41,-1.71 0.53,-0.53 1.1,-1 1.72,-1.41 0.61,-0.42 1.28,-0.78 2,-1.1 0.72,-0.31 1.46,-0.55 2.23,-0.7 0.76,-0.16 1.55,-0.24 2.36,-0.24l22.49 0zm-22.49 8.25c-0.99,0 -1.81,0.34 -2.49,1.01 -0.68,0.68 -1.01,1.51 -1.01,2.49l0 15.24c0,0.99 0.33,1.81 1.01,2.49 0.68,0.67 1.5,1.01 2.49,1.01l12.19 0c0.99,0 1.82,-0.34 2.49,-1.01 0.34,-0.34 0.59,-0.72 0.76,-1.13 0.17,-0.41 0.25,-0.87 0.25,-1.36l0 -17.91c0,-0.56 -0.27,-0.83 -0.83,-0.83l-14.86 0zm68.16 -16.7c0,0.46 -0.13,0.82 -0.38,1.08 -0.25,0.25 -0.61,0.37 -1.08,0.37l-13.34 0c-0.55,0 -0.83,0.28 -0.83,0.83l0 43.45c0,0.47 -0.13,0.83 -0.38,1.08 -0.25,0.25 -0.61,0.38 -1.08,0.38l-5.33 0c-0.47,0 -0.83,-0.13 -1.08,-0.38 -0.25,-0.25 -0.38,-0.61 -0.38,-1.08l0 -43.45c0,-0.29 -0.06,-0.51 -0.19,-0.63 -0.13,-0.13 -0.34,-0.2 -0.64,-0.2l-13.34 0c-0.47,0 -0.83,-0.12 -1.08,-0.37 -0.25,-0.26 -0.37,-0.62 -0.37,-1.08l0 -5.34c0,-0.97 0.48,-1.46 1.45,-1.46l36.59 0c0.47,0 0.83,0.13 1.08,0.38 0.25,0.25 0.38,0.61 0.38,1.08l0 5.34zm62.11 35.52l-0.08 0c0,1.57 -0.3,3.05 -0.91,4.42 -0.61,1.37 -1.43,2.58 -2.44,3.62 -1.02,1.04 -2.21,1.86 -3.59,2.44 -1.37,0.58 -2.84,0.88 -4.42,0.88l-24.77 0c-0.77,0 -1.15,-0.38 -1.15,-1.15l0 -5.33c0,-0.77 0.38,-1.15 1.15,-1.15l24.77 0c1.02,0 1.9,-0.37 2.63,-1.1 0.74,-0.74 1.11,-1.64 1.11,-2.71l0.07 0 0 -7.62c0,-1.07 -0.38,-1.97 -1.14,-2.71 -0.76,-0.73 -1.65,-1.1 -2.67,-1.1l-17.07 0c-1.48,0 -2.84,-0.33 -4.08,-0.99 -1.25,-0.66 -2.34,-1.54 -3.28,-2.63 -0.94,-1.1 -1.68,-2.33 -2.21,-3.7 -0.54,-1.37 -0.8,-2.74 -0.8,-4.12l0 -7.62c0,-1.57 0.29,-3.06 0.87,-4.46 0.59,-1.4 1.4,-2.6 2.44,-3.62 1.05,-1.02 2.25,-1.83 3.63,-2.44 1.37,-0.61 2.84,-0.91 4.42,-0.91l23.71 0c0.76,0 1.14,0.38 1.14,1.14l0 5.34c0,0.76 -0.38,1.14 -1.14,1.14l-23.71 0c-1.02,0 -1.9,0.37 -2.63,1.1 -0.74,0.74 -1.11,1.64 -1.11,2.71l0 7.62c0,1.07 0.37,1.97 1.11,2.71 0.73,0.74 1.61,1.1 2.63,1.1l17.07 0c1.43,0 2.76,0.35 4.01,1.03 1.24,0.69 2.35,1.57 3.31,2.63 0.97,1.07 1.73,2.28 2.29,3.63 0.56,1.34 0.84,2.7 0.84,4.07l0 7.78zm31.64 -26.76c1.57,0 3.06,0.31 4.46,0.92 1.39,0.61 2.6,1.42 3.62,2.44 1.01,1.01 1.83,2.22 2.44,3.62 0.61,1.39 0.91,2.88 0.91,4.46l0 10.29c0,0.76 -0.38,1.14 -1.14,1.14l-25.16 0c-0.76,0 -1.14,0.38 -1.14,1.14l0 2.67c0,1.07 0.37,1.97 1.1,2.71 0.74,0.73 1.64,1.1 2.71,1.1l20.96 0c0.77,0 1.15,0.38 1.15,1.15l0 5.33c0,0.77 -0.38,1.15 -1.15,1.15l-20.96 0c-1.58,0 -3.06,-0.31 -4.46,-0.92 -1.4,-0.61 -2.61,-1.42 -3.62,-2.44 -1.02,-1.01 -1.83,-2.22 -2.44,-3.62 -0.61,-1.4 -0.92,-2.88 -0.92,-4.46l0 -15.24c0,-1.58 0.31,-3.07 0.92,-4.46 0.61,-1.4 1.42,-2.61 2.44,-3.62 1.01,-1.02 2.22,-1.83 3.62,-2.44 1.4,-0.61 2.88,-0.92 4.46,-0.92l12.2 0zm-12.2 7.62c-1.07,0 -1.97,0.37 -2.71,1.11 -0.73,0.74 -1.1,1.64 -1.1,2.71l0 3.81 19.82 0 0 -3.81c0,-1.07 -0.37,-1.97 -1.11,-2.71 -0.73,-0.74 -1.64,-1.11 -2.7,-1.11l-12.2 0zm56.41 -7.62c1.58,0 3.07,0.31 4.46,0.92 1.4,0.61 2.61,1.42 3.62,2.44 1.02,1.01 1.83,2.22 2.44,3.62 0.61,1.39 0.92,2.88 0.92,4.46l0 25.53c0,0.77 -0.38,1.15 -1.14,1.15l-5.34 0c-0.76,0 -1.14,-0.38 -1.14,-1.15l0 -25.53c0,-1.07 -0.37,-1.97 -1.11,-2.71 -0.74,-0.74 -1.64,-1.11 -2.71,-1.11l-14.86 0c-0.76,0 -1.15,0.39 -1.15,1.15l0 28.2c0,0.77 -0.38,1.15 -1.14,1.15l-5.34 0c-0.76,0 -1.14,-0.38 -1.14,-1.15l0 -35.82c0,-0.77 0.38,-1.15 1.14,-1.15l22.49 0zm86.15 0c1.58,0 3.06,0.31 4.46,0.92 1.4,0.61 2.61,1.42 3.62,2.44 1.02,1.01 1.83,2.22 2.44,3.62 0.61,1.39 0.92,2.88 0.92,4.46l0 10.29c0,0.76 -0.38,1.14 -1.15,1.14l-25.16 0c-0.76,0 -1.14,0.38 -1.14,1.14l0 2.67c0,1.07 0.37,1.97 1.11,2.71 0.73,0.73 1.64,1.1 2.7,1.1l20.97 0c0.76,0 1.14,0.38 1.14,1.15l0 5.33c0,0.77 -0.38,1.15 -1.14,1.15l-20.97 0c-1.57,0 -3.06,-0.31 -4.46,-0.92 -1.39,-0.61 -2.6,-1.42 -3.62,-2.44 -1.01,-1.01 -1.83,-2.22 -2.44,-3.62 -0.61,-1.4 -0.91,-2.88 -0.91,-4.46l0 -15.24c0,-1.58 0.3,-3.07 0.91,-4.46 0.61,-1.4 1.43,-2.61 2.44,-3.62 1.02,-1.02 2.23,-1.83 3.62,-2.44 1.4,-0.61 2.89,-0.92 4.46,-0.92l12.2 0zm-12.2 7.62c-1.06,0 -1.97,0.37 -2.7,1.11 -0.74,0.74 -1.11,1.64 -1.11,2.71l0 3.81 19.82 0 0 -3.81c0,-1.07 -0.37,-1.97 -1.1,-2.71 -0.74,-0.74 -1.64,-1.11 -2.71,-1.11l-12.2 0zm-30.87 22.87c1.06,0 1.97,-0.38 2.7,-1.14 0.74,-0.76 1.11,-1.65 1.11,-2.67 0,-1.07 -0.37,-1.97 -1.11,-2.7 -0.73,-0.74 -1.64,-1.11 -2.7,-1.11l-12.2 0c-1.58,0 -3.06,-0.31 -4.46,-0.91 -1.4,-0.61 -2.6,-1.43 -3.62,-2.44 -1.02,-1.02 -1.83,-2.23 -2.44,-3.62 -0.61,-1.4 -0.92,-2.89 -0.92,-4.46 0,-1.58 0.31,-3.07 0.92,-4.46 0.61,-1.4 1.42,-2.61 2.44,-3.62 1.02,-1.02 2.22,-1.83 3.62,-2.44 1.4,-0.61 2.88,-0.92 4.46,-0.92l20.2 0c0.77,0 1.15,0.38 1.15,1.15l0 5.33c0,0.76 -0.38,1.14 -1.15,1.14l-20.2 0c-1.07,0 -1.97,0.37 -2.71,1.11 -0.73,0.74 -1.1,1.64 -1.1,2.71 0,1.01 0.37,1.9 1.1,2.66 0.74,0.77 1.64,1.15 2.71,1.15l12.2 0c1.57,0 3.06,0.3 4.46,0.91 1.39,0.61 2.6,1.43 3.62,2.44 1.02,1.02 1.83,2.23 2.44,3.62 0.61,1.4 0.91,2.89 0.91,4.46 0,1.58 -0.3,3.06 -0.91,4.46 -0.61,1.4 -1.42,2.61 -2.44,3.62 -1.02,1.02 -2.23,1.83 -3.62,2.44 -1.4,0.61 -2.89,0.92 -4.46,0.92l-20.28 0c-0.76,0 -1.14,-0.38 -1.14,-1.15l0 -5.33c0,-0.77 0.38,-1.15 1.14,-1.15l20.28 0zm-318.28 -16.83c-0.56,-6.25 -1.57,-10.72 -3.89,-15.84 -1.02,-2.27 -2.23,-4.47 -3.44,-6.35 -0.65,-1.03 -1.29,-1.84 -1.97,-2.8 -0.75,-1.06 -1.51,-1.81 -2.26,-2.76 -0.94,-1.19 -1.3,-1.37 -2.34,-2.44 -2.24,-2.31 -5.51,-4.87 -8.26,-6.54 -23.51,-14.26 -53.45,-5.8 -66.09,17.71 -4.99,9.28 -7.01,20.89 -4.47,32.74 1.63,7.58 7.96,20.19 14.88,24.27 5.43,3.2 10.99,-0.24 12.87,-4.16 3.06,-6.38 -1.91,-10.31 -4.26,-13.51 -13.9,-18.93 -1.11,-44.62 21.65,-45.08 12.43,-0.25 20.95,6.69 25.17,14.06 9.65,16.85 -2.3,34.76 -6.77,34.68 -1,-0.02 -4.57,-1.75 -1.08,-5.6 11.16,-12.3 5.5,-32.07 -10.31,-36.72 -12.32,-3.62 -22.34,4.06 -26.08,11.35 -3.82,7.45 -3.65,15.65 1.22,22.79 1.27,1.86 2.97,4.62 5.33,4.26 2.71,-0.42 3.91,-3.65 1.92,-5.77 -1.57,-1.67 -2.78,-3.46 -3.67,-6.12 -1.9,-5.63 -0.09,-12.06 2.94,-15.32 7.75,-8.34 20.54,-6.84 25.83,2.57 2.7,4.8 2.77,10.9 0.03,15.64 -2.18,3.76 -7.37,6.99 -4.57,13.72 1.71,4.11 6.97,7.61 12.55,4.76 3.76,-1.91 7,-6.23 9.13,-10.45 9.84,-19.57 -0.37,-43.39 -21.62,-49.26 -11.93,-3.3 -23.23,0.22 -30.63,6.11 -1.29,1.03 -4.05,3.46 -5.07,4.72 -4.84,6.03 -8.02,12.58 -8.31,21.13 -0.27,7.86 2.3,17.01 7.09,22.35 1.07,1.2 3.94,3.63 3.78,6.05 -0.11,1.69 -2.38,4.06 -5.78,0.72 -4.41,-4.31 -8.63,-13.06 -9.97,-19.42 -4.44,-21.05 8.47,-41.62 29.38,-47.35 11.4,-3.12 23.54,-0.33 31.75,4.91 20.9,13.37 24.98,41.59 9.51,59.95 -1.99,2.37 -4.15,3.69 -3.15,6.25 0.43,1.09 1.29,1.94 2.7,2.13 2.23,0.31 4.27,-2.64 5.59,-4.2 6.61,-7.85 11.77,-20.89 10.67,-33.18z"/>
 </g>
</svg>
