<?xml version="1.0" encoding="UTF-8"?>
<!DOCTYPE svg PUBLIC "-//W3C//DTD SVG 1.1//EN" "http://www.w3.org/Graphics/SVG/1.1/DTD/svg11.dtd">
<!-- Creator: CorelDRAW 2020 (64-Bit) -->
<svg xmlns="http://www.w3.org/2000/svg" xml:space="preserve" width="290px" height="256px" version="1.1" style="shape-rendering:geometricPrecision; text-rendering:geometricPrecision; image-rendering:optimizeQuality; fill-rule:evenodd; clip-rule:evenodd"
viewBox="0 0 15.09 13.32"
 xmlns:xlink="http://www.w3.org/1999/xlink"
 xmlns:xodm="http://www.corel.com/coreldraw/odm/2003">
 <defs>
  <style type="text/css">
   <![CDATA[
    .fil0 {fill:black}
   ]]>
  </style>
 </defs>
 <g id="Слой_x0020_1">
  <metadata id="CorelCorpID_0Corel-Layer"/>
  <path class="fil0" d="M15.07 7.02c-0.09,-1.01 -0.26,-1.72 -0.63,-2.55 -0.16,-0.36 -0.36,-0.71 -0.55,-1.02 -0.1,-0.16 -0.21,-0.29 -0.32,-0.45 -0.12,-0.16 -0.24,-0.29 -0.36,-0.44 -0.15,-0.19 -0.21,-0.22 -0.38,-0.39 -0.35,-0.37 -0.88,-0.78 -1.32,-1.05 -3.78,-2.29 -8.59,-0.93 -10.62,2.84 -0.8,1.49 -1.12,3.36 -0.71,5.26 0.26,1.22 1.27,3.24 2.39,3.9 0.87,0.51 1.76,-0.04 2.06,-0.67 0.49,-1.02 -0.3,-1.65 -0.68,-2.17 -2.23,-3.04 -0.18,-7.16 3.48,-7.24 1.99,-0.04 3.36,1.08 4.04,2.26 1.55,2.71 -0.37,5.58 -1.09,5.57 -0.16,0 -0.73,-0.28 -0.17,-0.9 1.79,-1.98 0.88,-5.15 -1.66,-5.9 -1.98,-0.58 -3.59,0.65 -4.19,1.83 -0.61,1.19 -0.58,2.51 0.2,3.66 0.2,0.3 0.48,0.74 0.86,0.68 0.43,-0.07 0.62,-0.59 0.3,-0.93 -0.25,-0.27 -0.44,-0.55 -0.59,-0.98 -0.3,-0.9 -0.01,-1.94 0.48,-2.46 1.24,-1.34 3.3,-1.1 4.15,0.41 0.43,0.77 0.44,1.75 0,2.51 -0.35,0.61 -1.18,1.13 -0.73,2.21 0.27,0.66 1.12,1.22 2.01,0.76 0.6,-0.3 1.13,-1 1.47,-1.68 1.58,-3.14 -0.06,-6.96 -3.47,-7.91 -1.92,-0.53 -3.74,0.04 -4.92,0.98 -0.21,0.17 -0.65,0.56 -0.82,0.76 -0.77,0.97 -1.29,2.02 -1.33,3.4 -0.05,1.26 0.37,2.73 1.14,3.59 0.17,0.19 0.63,0.58 0.6,0.97 -0.01,0.27 -0.38,0.65 -0.93,0.11 -0.7,-0.69 -1.38,-2.09 -1.6,-3.12 -0.71,-3.38 1.36,-6.68 4.72,-7.6 1.83,-0.5 3.78,-0.05 5.1,0.79 3.36,2.14 4.01,6.68 1.53,9.63 -0.32,0.38 -0.67,0.59 -0.51,1 0.07,0.17 0.21,0.31 0.44,0.34 0.35,0.05 0.68,-0.42 0.89,-0.67 1.07,-1.26 1.89,-3.36 1.72,-5.33z"/>
 </g>
</svg>
