<?xml version="1.0" encoding="UTF-8"?>
<!DOCTYPE svg PUBLIC "-//W3C//DTD SVG 1.1//EN" "http://www.w3.org/Graphics/SVG/1.1/DTD/svg11.dtd">
<!-- Creator: CorelDRAW 2020 (64-Bit) -->
<svg xmlns="http://www.w3.org/2000/svg" xml:space="preserve" width="1440px" height="256px" version="1.1" style="shape-rendering:geometricPrecision; text-rendering:geometricPrecision; image-rendering:optimizeQuality; fill-rule:evenodd; clip-rule:evenodd"
viewBox="0 0 372.12 66.15"
 xmlns:xlink="http://www.w3.org/1999/xlink"
 xmlns:xodm="http://www.corel.com/coreldraw/odm/2003">
 <defs>
  <style type="text/css">
   <![CDATA[
    .fil0 {fill:black}
    .fil1 {fill:#146BAE}
   ]]>
  </style>
 </defs>
 <g id="Слой_x0020_1">
  <metadata id="CorelCorpID_0Corel-Layer"/>
  <path class="fil0" d="M95.92 17.44c0.37,0 0.66,0.1 0.86,0.3 0.2,0.2 0.3,0.49 0.3,0.86l0 40.73c0,0.37 -0.1,0.66 -0.3,0.86 -0.2,0.2 -0.49,0.3 -0.86,0.3l-4.26 0c-0.37,0 -0.66,-0.1 -0.86,-0.3 -0.2,-0.2 -0.3,-0.49 -0.3,-0.86l0 -40.73c0,-0.37 0.1,-0.66 0.3,-0.86 0.2,-0.2 0.49,-0.3 0.86,-0.3l4.26 0zm15.8 0c0.37,0 0.66,0.1 0.86,0.3 0.2,0.2 0.3,0.49 0.3,0.86l0 40.73c0,0.37 -0.1,0.66 -0.3,0.86 -0.2,0.2 -0.49,0.3 -0.86,0.3l-4.25 0c-0.38,0 -0.66,-0.1 -0.86,-0.3 -0.2,-0.2 -0.3,-0.49 -0.3,-0.86l0 -40.73c0,-0.37 0.1,-0.66 0.3,-0.86 0.2,-0.2 0.48,-0.3 0.86,-0.3l4.25 0zm36.17 12.16c0.37,0 0.66,0.1 0.86,0.3 0.2,0.2 0.3,0.49 0.3,0.86l0 20.36c0,0.64 -0.06,1.27 -0.19,1.88 -0.12,0.61 -0.31,1.2 -0.56,1.78 -0.25,0.57 -0.54,1.1 -0.87,1.59 -0.34,0.5 -0.71,0.95 -1.13,1.37 -0.83,0.83 -1.82,1.5 -2.96,2 -0.57,0.25 -1.17,0.43 -1.78,0.56 -0.61,0.12 -1.23,0.19 -1.88,0.19l-9.72 0c-0.64,0 -1.27,-0.07 -1.88,-0.19 -0.61,-0.13 -1.2,-0.31 -1.78,-0.56 -0.57,-0.25 -1.1,-0.54 -1.59,-0.87 -0.5,-0.34 -0.95,-0.71 -1.37,-1.13 -0.42,-0.42 -0.79,-0.87 -1.13,-1.37 -0.33,-0.49 -0.62,-1.02 -0.87,-1.59 -0.25,-0.58 -0.44,-1.17 -0.56,-1.78 -0.13,-0.61 -0.19,-1.24 -0.19,-1.88l0 -12.15c0,-0.65 0.06,-1.27 0.19,-1.89 0.12,-0.6 0.31,-1.2 0.56,-1.77 0.25,-0.57 0.54,-1.11 0.87,-1.6 0.34,-0.49 0.71,-0.95 1.13,-1.36 0.42,-0.42 0.87,-0.79 1.37,-1.13 0.49,-0.33 1.02,-0.62 1.59,-0.87 0.58,-0.25 1.17,-0.44 1.78,-0.56 0.61,-0.13 1.24,-0.19 1.88,-0.19l17.93 0zm-17.93 6.58c-0.79,0 -1.45,0.27 -1.98,0.8 -0.54,0.54 -0.81,1.2 -0.81,1.99l0 12.15c0,0.78 0.27,1.45 0.81,1.98 0.53,0.54 1.19,0.81 1.98,0.81l9.72 0c0.79,0 1.45,-0.27 1.99,-0.81 0.27,-0.27 0.47,-0.57 0.6,-0.89 0.14,-0.33 0.2,-0.7 0.2,-1.09l0 -14.28c0,-0.44 -0.22,-0.66 -0.66,-0.66l-11.85 0zm54.35 -13.32c0,0.37 -0.1,0.66 -0.3,0.86 -0.21,0.2 -0.49,0.3 -0.86,0.3l-10.64 0c-0.44,0 -0.66,0.22 -0.66,0.66l0 34.65c0,0.37 -0.11,0.66 -0.31,0.86 -0.2,0.2 -0.48,0.3 -0.86,0.3l-4.25 0c-0.37,0 -0.66,-0.1 -0.86,-0.3 -0.2,-0.2 -0.3,-0.49 -0.3,-0.86l0 -34.65c0,-0.23 -0.05,-0.4 -0.16,-0.51 -0.1,-0.1 -0.27,-0.15 -0.5,-0.15l-10.64 0c-0.37,0 -0.66,-0.1 -0.86,-0.3 -0.2,-0.2 -0.3,-0.49 -0.3,-0.86l0 -4.26c0,-0.77 0.38,-1.16 1.16,-1.16l29.18 0c0.37,0 0.65,0.1 0.85,0.3 0.21,0.2 0.31,0.49 0.31,0.86l0 4.26zm49.52 28.32l-0.06 0c0,1.26 -0.25,2.43 -0.73,3.53 -0.49,1.09 -1.14,2.05 -1.95,2.88 -0.81,0.84 -1.76,1.48 -2.85,1.95 -1.1,0.47 -2.27,0.7 -3.53,0.7l-19.75 0c-0.61,0 -0.92,-0.31 -0.92,-0.91l0 -4.26c0,-0.61 0.31,-0.91 0.92,-0.91l19.75 0c0.81,0 1.51,-0.29 2.1,-0.88 0.59,-0.59 0.88,-1.31 0.88,-2.16l0.06 0 0 -6.08c0,-0.85 -0.3,-1.57 -0.91,-2.15 -0.61,-0.59 -1.32,-0.89 -2.13,-0.89l-13.62 0c-1.17,0 -2.25,-0.26 -3.25,-0.79 -0.99,-0.52 -1.86,-1.22 -2.61,-2.09 -0.75,-0.87 -1.34,-1.86 -1.76,-2.95 -0.43,-1.09 -0.64,-2.19 -0.64,-3.28l0 -6.08c0,-1.26 0.23,-2.44 0.7,-3.56 0.46,-1.11 1.11,-2.07 1.94,-2.88 0.83,-0.81 1.79,-1.46 2.89,-1.95 1.09,-0.48 2.27,-0.73 3.52,-0.73l18.91 0c0.61,0 0.91,0.31 0.91,0.91l0 4.26c0,0.61 -0.3,0.91 -0.91,0.91l-18.91 0c-0.81,0 -1.5,0.29 -2.09,0.88 -0.59,0.59 -0.88,1.31 -0.88,2.16l0 6.08c0,0.85 0.29,1.57 0.88,2.16 0.59,0.58 1.28,0.88 2.09,0.88l13.62 0c1.14,0 2.2,0.27 3.19,0.82 0.99,0.54 1.88,1.24 2.65,2.09 0.77,0.85 1.37,1.82 1.82,2.89 0.45,1.08 0.67,2.16 0.67,3.25l0 6.2zm25.22 -21.33c1.26,0 2.45,0.24 3.56,0.73 1.12,0.48 2.08,1.13 2.89,1.94 0.81,0.81 1.46,1.78 1.94,2.89 0.49,1.11 0.73,2.3 0.73,3.56l0 8.2c0,0.61 -0.3,0.91 -0.91,0.91l-20.06 0c-0.61,0 -0.91,0.31 -0.91,0.91l0 2.13c0,0.85 0.29,1.57 0.88,2.16 0.59,0.59 1.31,0.88 2.16,0.88l16.72 0c0.6,0 0.91,0.3 0.91,0.91l0 4.26c0,0.6 -0.31,0.91 -0.91,0.91l-16.72 0c-1.26,0 -2.44,-0.24 -3.56,-0.73 -1.11,-0.49 -2.07,-1.14 -2.88,-1.95 -0.81,-0.81 -1.46,-1.77 -1.95,-2.88 -0.49,-1.12 -0.73,-2.3 -0.73,-3.56l0 -12.15c0,-1.26 0.24,-2.45 0.73,-3.56 0.49,-1.11 1.14,-2.08 1.95,-2.89 0.81,-0.81 1.77,-1.46 2.88,-1.94 1.12,-0.49 2.3,-0.73 3.56,-0.73l9.72 0zm-9.72 6.08c-0.85,0 -1.57,0.29 -2.16,0.88 -0.59,0.59 -0.88,1.3 -0.88,2.16l0 3.03 15.8 0 0 -3.03c0,-0.86 -0.29,-1.57 -0.88,-2.16 -0.58,-0.59 -1.3,-0.88 -2.16,-0.88l-9.72 0zm44.98 -6.08c1.26,0 2.44,0.24 3.56,0.73 1.11,0.48 2.07,1.13 2.88,1.94 0.82,0.81 1.46,1.78 1.95,2.89 0.49,1.11 0.73,2.3 0.73,3.56l0 20.36c0,0.6 -0.3,0.91 -0.91,0.91l-4.26 0c-0.61,0 -0.91,-0.31 -0.91,-0.91l0 -20.36c0,-0.86 -0.29,-1.57 -0.88,-2.16 -0.59,-0.59 -1.31,-0.88 -2.16,-0.88l-11.85 0c-0.61,0 -0.91,0.3 -0.91,0.91l0 22.49c0,0.6 -0.31,0.91 -0.92,0.91l-4.25 0c-0.61,0 -0.91,-0.31 -0.91,-0.91l0 -28.57c0,-0.61 0.3,-0.91 0.91,-0.91l17.93 0zm68.69 0c1.26,0 2.44,0.24 3.56,0.73 1.11,0.48 2.07,1.13 2.88,1.94 0.81,0.81 1.46,1.78 1.95,2.89 0.48,1.11 0.73,2.3 0.73,3.56l0 8.2c0,0.61 -0.31,0.91 -0.91,0.91l-20.06 0c-0.61,0 -0.92,0.31 -0.92,0.91l0 2.13c0,0.85 0.3,1.57 0.89,2.16 0.58,0.59 1.3,0.88 2.15,0.88l16.72 0c0.61,0 0.91,0.3 0.91,0.91l0 4.26c0,0.6 -0.3,0.91 -0.91,0.91l-16.72 0c-1.25,0 -2.44,-0.24 -3.55,-0.73 -1.12,-0.49 -2.08,-1.14 -2.89,-1.95 -0.81,-0.81 -1.46,-1.77 -1.94,-2.88 -0.49,-1.12 -0.73,-2.3 -0.73,-3.56l0 -12.15c0,-1.26 0.24,-2.45 0.73,-3.56 0.48,-1.11 1.13,-2.08 1.94,-2.89 0.81,-0.81 1.77,-1.46 2.89,-1.94 1.11,-0.49 2.3,-0.73 3.55,-0.73l9.73 0zm-9.73 6.08c-0.85,0 -1.57,0.29 -2.15,0.88 -0.59,0.59 -0.89,1.3 -0.89,2.16l0 3.03 15.81 0 0 -3.03c0,-0.86 -0.29,-1.57 -0.88,-2.16 -0.59,-0.59 -1.31,-0.88 -2.16,-0.88l-9.73 0zm-24.62 18.23c0.86,0 1.58,-0.3 2.16,-0.91 0.59,-0.61 0.88,-1.32 0.88,-2.13 0,-0.85 -0.29,-1.57 -0.88,-2.16 -0.58,-0.58 -1.3,-0.88 -2.16,-0.88l-9.72 0c-1.26,0 -2.44,-0.24 -3.56,-0.73 -1.11,-0.48 -2.07,-1.13 -2.88,-1.94 -0.81,-0.81 -1.46,-1.77 -1.95,-2.89 -0.48,-1.11 -0.73,-2.3 -0.73,-3.55 0,-1.26 0.25,-2.45 0.73,-3.56 0.49,-1.11 1.14,-2.08 1.95,-2.89 0.81,-0.81 1.77,-1.46 2.88,-1.94 1.12,-0.49 2.3,-0.73 3.56,-0.73l16.11 0c0.61,0 0.91,0.3 0.91,0.91l0 4.26c0,0.6 -0.3,0.91 -0.91,0.91l-16.11 0c-0.85,0 -1.57,0.29 -2.16,0.88 -0.59,0.59 -0.88,1.3 -0.88,2.16 0,0.81 0.29,1.51 0.88,2.12 0.59,0.61 1.31,0.91 2.16,0.91l9.72 0c1.26,0 2.45,0.25 3.56,0.73 1.12,0.49 2.08,1.14 2.89,1.95 0.81,0.81 1.46,1.77 1.94,2.89 0.49,1.11 0.73,2.3 0.73,3.55 0,1.26 -0.24,2.44 -0.73,3.56 -0.48,1.11 -1.13,2.07 -1.94,2.88 -0.81,0.81 -1.77,1.46 -2.89,1.95 -1.11,0.49 -2.3,0.73 -3.56,0.73l-16.16 0c-0.61,0 -0.92,-0.31 -0.92,-0.91l0 -4.26c0,-0.61 0.31,-0.91 0.92,-0.91l16.16 0z"/>
  <path class="fil1" d="M74.77 34.85c-0.45,-4.99 -1.26,-8.55 -3.1,-12.63 -0.82,-1.81 -1.79,-3.57 -2.75,-5.07 -0.52,-0.81 -1.03,-1.47 -1.57,-2.23 -0.6,-0.84 -1.2,-1.44 -1.8,-2.2 -0.75,-0.95 -1.04,-1.09 -1.87,-1.95 -1.78,-1.84 -4.39,-3.88 -6.58,-5.21 -18.73,-11.37 -42.59,-4.63 -52.66,14.12 -3.98,7.4 -5.59,16.66 -3.56,26.11 1.29,6.05 6.34,16.1 11.86,19.36 4.32,2.55 8.75,-0.19 10.25,-3.32 2.44,-5.09 -1.52,-8.22 -3.39,-10.78 -11.08,-15.09 -0.89,-35.58 17.25,-35.95 9.91,-0.2 16.69,5.34 20.05,11.21 7.69,13.44 -1.83,27.73 -5.39,27.66 -0.8,-0.01 -3.64,-1.39 -0.86,-4.46 8.9,-9.81 4.38,-25.58 -8.21,-29.28 -9.82,-2.89 -17.81,3.23 -20.79,9.04 -3.04,5.95 -2.9,12.49 0.98,18.18 1.01,1.49 2.36,3.68 4.24,3.4 2.16,-0.33 3.12,-2.91 1.53,-4.6 -1.25,-1.34 -2.21,-2.76 -2.93,-4.88 -1.51,-4.5 -0.07,-9.62 2.35,-12.22 6.18,-6.65 16.37,-5.46 20.58,2.05 2.16,3.82 2.21,8.69 0.03,12.47 -1.74,3 -5.88,5.58 -3.65,10.95 1.37,3.27 5.56,6.06 10.01,3.79 2.99,-1.52 5.57,-4.97 7.27,-8.34 7.84,-15.6 -0.29,-34.6 -17.23,-39.28 -9.5,-2.63 -18.51,0.18 -24.41,4.87 -1.03,0.82 -3.23,2.76 -4.03,3.77 -3.86,4.81 -6.4,10.03 -6.63,16.85 -0.22,6.27 1.83,13.56 5.65,17.82 0.86,0.96 3.14,2.89 3.02,4.83 -0.09,1.35 -1.9,3.23 -4.61,0.58 -3.51,-3.44 -6.88,-10.42 -7.95,-15.5 -3.53,-16.79 6.75,-33.19 23.42,-37.76 9.08,-2.49 18.76,-0.26 25.3,3.92 16.65,10.66 19.9,33.17 7.58,47.81 -1.59,1.89 -3.31,2.94 -2.51,4.98 0.34,0.87 1.02,1.55 2.15,1.7 1.77,0.24 3.4,-2.1 4.45,-3.35 5.27,-6.26 9.38,-16.66 8.51,-26.46z"/>
 </g>
</svg>
