<?xml version="1.0" encoding="UTF-8"?>
<!DOCTYPE svg PUBLIC "-//W3C//DTD SVG 1.1//EN" "http://www.w3.org/Graphics/SVG/1.1/DTD/svg11.dtd">
<!-- Creator: CorelDRAW 2020 (64-Bit) -->
<svg xmlns="http://www.w3.org/2000/svg" xml:space="preserve" width="15.8001mm" height="13.9999mm" version="1.1" style="shape-rendering:geometricPrecision; text-rendering:geometricPrecision; image-rendering:optimizeQuality; fill-rule:evenodd; clip-rule:evenodd" viewBox="0 0 212 187.84"
    xmlns:xlink="http://www.w3.org/1999/xlink"
    xmlns:xodm="http://www.corel.com/coreldraw/odm/2003">
    <defs>
        <style type="text/css">
            <![CDATA[
    .fil0 {fill:black}
   ]]>
        </style>
    </defs>
    <g id="Слой_x0020_1">
        <metadata id="CorelCorpID_0Corel-Layer"/>
        <path class="fil0" d="M211.66 98.96c-1.27,-14.16 -3.55,-24.28 -8.77,-35.88 -2.31,-5.13 -5.05,-10.12 -7.77,-14.38 -1.48,-2.31 -2.91,-4.17 -4.45,-6.34 -1.69,-2.38 -3.41,-4.08 -5.1,-6.24 -2.11,-2.69 -2.93,-3.1 -5.28,-5.53 -5.05,-5.23 -12.43,-11.02 -18.63,-14.8 -53.02,-32.29 -120.58,-13.14 -149.09,40.09 -11.26,21.02 -15.81,47.32 -10.08,74.14 3.67,17.18 17.95,45.72 33.58,54.96 12.24,7.24 24.78,-0.54 29.03,-9.43 6.9,-14.44 -4.32,-23.34 -9.61,-30.59 -31.36,-42.86 -2.5,-101.04 48.83,-102.08 28.06,-0.57 47.26,15.16 56.78,31.84 21.77,38.16 -5.18,78.72 -15.27,78.53 -2.26,-0.04 -10.3,-3.96 -2.44,-12.66 25.19,-27.87 12.4,-72.63 -23.24,-83.15 -27.8,-8.2 -50.42,9.18 -58.85,25.68 -8.62,16.88 -8.23,35.45 2.76,51.62 2.86,4.21 6.69,10.46 12.02,9.64 6.1,-0.94 8.82,-8.26 4.33,-13.06 -3.54,-3.78 -6.28,-7.83 -8.29,-13.85 -4.28,-12.76 -0.2,-27.32 6.63,-34.7 17.5,-18.89 46.35,-15.48 58.29,5.82 6.08,10.86 6.24,24.69 0.06,35.42 -4.91,8.51 -16.62,15.83 -10.31,31.08 3.86,9.31 15.73,17.22 28.33,10.78 8.47,-4.33 15.78,-14.11 20.58,-23.68 22.21,-44.31 -0.83,-98.24 -48.77,-111.55 -26.9,-7.47 -52.4,0.51 -69.11,13.85 -2.91,2.33 -9.14,7.83 -11.42,10.69 -10.92,13.66 -18.1,28.49 -18.76,47.84 -0.61,17.8 5.19,38.52 16,50.61 2.42,2.71 8.89,8.2 8.53,13.7 -0.25,3.83 -5.37,9.18 -13.05,1.64 -9.94,-9.76 -19.46,-29.58 -22.48,-43.99 -10.01,-47.68 19.1,-94.24 66.28,-107.22 25.72,-7.07 53.12,-0.76 71.63,11.13 47.15,30.27 56.34,94.18 21.46,135.75 -4.51,5.37 -9.37,8.37 -7.11,14.16 0.96,2.46 2.9,4.38 6.08,4.82 5.03,0.69 9.64,-5.97 12.61,-9.5 14.91,-17.78 26.56,-47.31 24.08,-75.14z"/>
    </g>
</svg>
