<?xml version="1.0" encoding="UTF-8"?>
<!DOCTYPE svg PUBLIC "-//W3C//DTD SVG 1.1//EN" "http://www.w3.org/Graphics/SVG/1.1/DTD/svg11.dtd">
<!-- Creator: CorelDRAW 2020 (64-Bit) -->
<svg xmlns="http://www.w3.org/2000/svg" xml:space="preserve" width="59.75mm" height="9.1mm" version="1.1" style="shape-rendering:geometricPrecision; text-rendering:geometricPrecision; image-rendering:optimizeQuality; fill-rule:evenodd; clip-rule:evenodd"
viewBox="0 0 4456.52 678.73"
 xmlns:xlink="http://www.w3.org/1999/xlink"
 xmlns:xodm="http://www.corel.com/coreldraw/odm/2003">
 <defs>
  <style type="text/css">
   <![CDATA[
    .fil0 {fill:black}
   ]]>
  </style>
 </defs>
 <g id="Слой_x0020_1">
  <metadata id="CorelCorpID_0Corel-Layer"/>
  <path class="fil0" d="M3768.54 579.53c13.4,0 24.71,-4.78 33.97,-14.31 9.23,-9.56 13.87,-20.69 13.87,-33.42 0,-13.36 -4.63,-24.65 -13.87,-33.9 -9.26,-9.22 -20.57,-13.83 -33.97,-13.83l-153.07 0c-19.77,0 -38.43,-3.82 -55.95,-11.46 -17.54,-7.65 -32.69,-17.82 -45.45,-30.55 -12.76,-12.75 -22.95,-27.86 -30.61,-45.35 -7.65,-17.52 -11.47,-36.13 -11.47,-55.85 0,-19.74 3.83,-38.37 11.47,-55.86 7.66,-17.51 17.85,-32.62 30.61,-45.36 12.76,-12.73 27.91,-22.91 45.45,-30.54 17.53,-7.65 36.19,-11.45 55.95,-11.45l253.53 0c9.55,0 14.34,4.76 14.34,14.31l0 66.83c0,9.55 -4.79,14.33 -14.34,14.33l-253.53 0c-13.39,0 -24.71,4.62 -33.96,13.84 -9.23,9.23 -13.87,20.52 -13.87,33.91 0,12.72 4.64,23.85 13.87,33.4 9.25,9.56 20.57,14.33 33.96,14.33l153.07 0c19.77,0 38.43,3.81 55.95,11.46 17.55,7.65 32.7,17.81 45.46,30.54 12.76,12.72 22.95,27.84 30.61,45.36 7.65,17.51 11.48,36.13 11.48,55.85 0,19.72 -3.83,38.36 -11.48,55.86 -7.66,17.51 -17.85,32.62 -30.61,45.35 -12.76,12.73 -27.91,22.91 -45.46,30.55 -17.53,7.64 -36.18,11.46 -55.95,11.46l-254.47 0c-9.56,0 -14.35,-4.77 -14.35,-14.31l0 -66.85c0,-9.52 4.79,-14.31 14.35,-14.31l254.47 0z"/>
  <path class="fil0" d="M4313.01 197.65c19.77,0 38.43,3.8 55.96,11.45 17.54,7.64 32.69,17.81 45.43,30.54 12.76,12.73 22.97,27.84 30.63,45.36 7.65,17.49 11.48,36.11 11.48,55.86l0 128.87c0,9.55 -4.77,14.34 -14.35,14.34l-315.7 0c-9.55,0 -14.35,4.76 -14.35,14.31l0 33.42c0,13.38 4.62,24.66 13.87,33.88 9.26,9.25 20.57,13.86 33.97,13.86l263.07 0c9.56,0 14.35,4.79 14.35,14.31l0 66.85c0,9.55 -4.79,14.31 -14.35,14.31l-263.07 0c-19.77,0 -38.43,-3.82 -55.98,-11.46 -17.52,-7.65 -32.67,-17.82 -45.43,-30.55 -12.74,-12.73 -22.95,-27.84 -30.61,-45.35 -7.65,-17.5 -11.47,-36.14 -11.47,-55.86l0 -190.93c0,-19.74 3.83,-38.37 11.47,-55.86 7.66,-17.51 17.87,-32.62 30.61,-45.36 12.76,-12.73 27.91,-22.91 45.43,-30.54 17.56,-7.65 36.21,-11.45 55.98,-11.45l153.06 0zm-153.06 95.46c-13.4,0 -24.71,4.62 -33.97,13.84 -9.26,9.23 -13.87,20.52 -13.87,33.91l0 47.73 248.74 0 0 -47.73c0,-13.39 -4.62,-24.68 -13.87,-33.91 -9.26,-9.22 -20.57,-13.84 -33.97,-13.84l-153.06 0z"/>
  <path class="fil0" d="M3231.53 197.65c19.77,0 38.43,3.8 55.97,11.45 17.53,7.64 32.68,17.81 45.44,30.54 12.76,12.73 22.95,27.84 30.61,45.36 7.64,17.49 11.47,36.11 11.47,55.86l0 319.83c0,9.55 -4.79,14.31 -14.34,14.31l-66.97 0c-9.56,0 -14.35,-4.77 -14.35,-14.31l0 -319.83c0,-13.39 -4.62,-24.68 -13.86,-33.91 -9.26,-9.22 -20.59,-13.84 -33.97,-13.84l-186.56 0c-9.55,0 -14.34,4.77 -14.34,14.31l0 353.26c0,9.55 -4.77,14.31 -14.35,14.31l-66.97 0c-9.55,0 -14.34,-4.77 -14.34,-14.31l0 -448.73c0,-9.55 4.79,-14.31 14.34,-14.31l282.23 0z"/>
  <path class="fil0" d="M2679.58 197.65c19.77,0 38.4,3.8 55.95,11.45 17.54,7.64 32.7,17.81 45.44,30.54 12.76,12.73 22.97,27.84 30.63,45.36 7.65,17.49 11.48,36.11 11.48,55.86l0 128.87c0,9.55 -4.8,14.34 -14.35,14.34l-315.7 0c-9.56,0 -14.35,4.76 -14.35,14.31l0 33.42c0,13.38 4.62,24.66 13.87,33.88 9.25,9.25 20.57,13.86 33.96,13.86l263.08 0c9.55,0 14.35,4.79 14.35,14.31l0 66.85c0,9.55 -4.8,14.31 -14.35,14.31l-263.08 0c-19.77,0 -38.43,-3.82 -55.98,-11.46 -17.52,-7.65 -32.68,-17.82 -45.43,-30.55 -12.76,-12.73 -22.95,-27.84 -30.61,-45.35 -7.67,-17.5 -11.47,-36.14 -11.47,-55.86l0 -190.93c0,-19.74 3.8,-38.37 11.47,-55.86 7.66,-17.51 17.85,-32.62 30.61,-45.36 12.75,-12.73 27.91,-22.91 45.43,-30.54 17.55,-7.65 36.21,-11.45 55.98,-11.45l153.07 0zm-153.07 95.46c-13.39,0 -24.71,4.62 -33.96,13.84 -9.26,9.23 -13.87,20.52 -13.87,33.91l0 47.73 248.73 0 0 -47.73c0,-13.39 -4.62,-24.68 -13.87,-33.91 -9.26,-9.22 -20.58,-13.84 -33.97,-13.84l-153.07 0z"/>
  <path class="fil0" d="M2274.87 532.11l-0.96 0c0,19.81 -3.87,38.36 -11.58,55.63 -7.73,17.27 -18.02,32.44 -30.89,45.56 -12.87,13.1 -28.01,23.33 -45.38,30.68 -17.37,7.35 -36.03,11.03 -55.97,11.03l-313.7 0c-9.67,0 -14.48,-4.79 -14.48,-14.38l0 -67.15c0,-9.56 4.81,-14.37 14.48,-14.37l313.7 0c12.87,0 23.97,-4.62 33.3,-13.92 9.32,-9.26 13.99,-20.59 13.99,-34.03l0.96 0 0 -95.9c0,-13.41 -4.83,-24.76 -14.48,-34.05 -9.66,-9.26 -20.91,-13.9 -33.78,-13.9l-216.22 0c-18.67,0 -35.87,-4.15 -51.64,-12.46 -15.77,-8.31 -29.6,-19.36 -41.51,-33.09 -11.88,-13.75 -21.21,-29.25 -27.98,-46.51 -6.76,-17.24 -10.13,-34.51 -10.13,-51.78l0 -95.89c0,-19.83 3.69,-38.54 11.09,-56.1 7.41,-17.59 17.71,-32.77 30.89,-45.56 13.18,-12.78 28.48,-23.03 45.84,-30.68 17.38,-7.68 36.05,-11.53 55.99,-11.53l300.19 0c9.64,0 14.48,4.8 14.48,14.4l0 67.12c0,9.59 -4.83,14.4 -14.48,14.4l-300.19 0c-12.87,0 -23.96,4.63 -33.3,13.9 -9.33,9.26 -13.98,20.62 -13.98,34.06l0 95.89c0,13.42 4.65,24.76 13.98,34.03 9.34,9.28 20.43,13.91 33.3,13.91l216.22 0c18.01,0 34.9,4.31 50.67,12.94 15.75,8.64 29.74,19.66 41.98,33.09 12.24,13.42 21.88,28.59 28.98,45.53 7.07,16.96 10.61,34.05 10.61,51.32l0 97.8z"/>
  <path class="fil0" d="M1521.56 85.38c0,5.87 -1.57,10.4 -4.71,13.56 -3.14,3.15 -7.61,4.74 -13.43,4.74l-166.26 0c-6.88,0 -10.35,3.5 -10.35,10.45l0 546.31c0,5.84 -1.57,10.38 -4.71,13.54 -3.14,3.17 -7.62,4.76 -13.43,4.76l-66.49 0c-5.8,0 -10.29,-1.59 -13.43,-4.76 -3.13,-3.15 -4.71,-7.7 -4.71,-13.54l0 -546.31c0,-3.71 -0.81,-6.38 -2.4,-8 -1.62,-1.63 -4.28,-2.45 -7.95,-2.45l-166.26 0c-5.82,0 -10.31,-1.59 -13.43,-4.74 -3.13,-3.16 -4.71,-7.69 -4.71,-13.56l0 -67.08c0,-12.22 6.06,-18.3 18.14,-18.3l456 0c5.82,0 10.29,1.59 13.43,4.74 3.13,3.17 4.71,7.69 4.71,13.56l0 67.08z"/>
  <path class="fil0" d="M921.53 193.92c5.86,0 10.35,1.57 13.51,4.74 3.15,3.14 4.74,7.65 4.74,13.48l0 319.58c0,10.08 -1,19.92 -2.95,29.53 -1.95,9.56 -4.95,18.87 -8.85,27.84 -3.92,9 -8.51,17.37 -13.72,25.07 -5.25,7.76 -11.14,14.92 -17.69,21.44 -13.05,13.05 -28.62,23.51 -46.59,31.34 -9,3.92 -18.34,6.88 -27.91,8.83 -9.58,1.96 -19.46,2.97 -29.56,2.97l-152.95 0c-10.11,0 -19.97,-1.01 -29.57,-2.97 -9.58,-1.95 -18.89,-4.92 -27.92,-8.83 -9,-3.92 -17.38,-8.5 -25.1,-13.69 -7.75,-5.21 -14.92,-11.12 -21.47,-17.65 -6.57,-6.53 -12.46,-13.71 -17.71,-21.46 -5.2,-7.67 -9.79,-16.05 -13.7,-25.05 -3.92,-8.97 -6.9,-18.28 -8.85,-27.84 -1.96,-9.61 -2.96,-19.44 -2.96,-29.53l0 -190.78c0,-10.08 1,-19.94 2.96,-29.54 1.95,-9.56 4.94,-18.86 8.85,-27.84 3.91,-9 8.5,-17.37 13.7,-25.08 5.24,-7.72 11.14,-14.89 17.68,-21.43 6.57,-6.53 13.75,-12.44 21.52,-17.65 7.7,-5.19 16.07,-9.78 25.08,-13.69 9.03,-3.92 18.34,-6.88 27.92,-8.83 9.61,-1.97 19.46,-2.96 29.57,-2.96l281.98 0zm-281.98 103.2c-12.31,0 -22.7,4.24 -31.17,12.68 -8.46,8.46 -12.7,18.84 -12.7,31.13l0 190.78c0,12.29 4.24,22.67 12.7,31.11 8.47,8.45 18.86,12.69 31.17,12.69l152.95 0c12.31,0 22.71,-4.24 31.18,-12.69 4.26,-4.27 7.43,-8.95 9.54,-14.09 2.1,-5.17 3.16,-10.85 3.16,-17.02l0 -224.19c0,-6.92 -3.49,-10.4 -10.42,-10.4l-186.41 0z"/>
  <path class="fil0" d="M339.59 0c5.89,0 10.46,1.59 13.63,4.74 3.18,3.17 4.8,7.69 4.8,13.56l0 642.14c0,5.84 -1.61,10.38 -4.8,13.54 -3.18,3.17 -7.74,4.76 -13.63,4.76l-67.55 0c-5.91,0 -10.47,-1.59 -13.65,-4.76 -3.18,-3.15 -4.79,-7.7 -4.79,-13.54l0 -642.14c0,-5.87 1.6,-10.39 4.79,-13.56 3.18,-3.15 7.74,-4.74 13.65,-4.74l67.55 0z"/>
  <path class="fil0" d="M85.99 0c5.88,0 10.46,1.59 13.63,4.74 3.19,3.17 4.8,7.69 4.8,13.56l0 642.14c0,5.84 -1.6,10.38 -4.8,13.54 -3.18,3.17 -7.75,4.76 -13.63,4.76l-67.57 0c-5.91,0 -10.47,-1.59 -13.66,-4.76 -3.18,-3.15 -4.77,-7.7 -4.77,-13.54l0 -642.14c0,-5.87 1.58,-10.39 4.77,-13.56 3.18,-3.15 7.75,-4.74 13.66,-4.74l67.57 0z"/>
 </g>
</svg>
